[
    [
        [
            {
                "instrument_no": 5,
                "instrument_category": "Drum",
                "program": 0,
                "is_drum": true,
                "section_start": 0.0,
                "section_end": 18.034605237283692,
                "notes": [],
                "pitch_classes": [
                    0,
                    0,
                    0,
                    0,
                    0,
                    0,
                    0,
                    0,
                    0,
                    0,
                    0,
                    0
                ],
                "velocity_mean": 0,
                "pitch_mean": 0,
                "pitch_std": 0,
                "duration_mean": 0,
                "song_name": "Tribal_Dance_edit_.mid",
                "tempo": 266.15498020864686,
                "time_signature": "4/4",
                "key": "None",
                "maj_min": ""
            }
        ],
        [
            {
                "instrument_no": 2,
                "instrument_category": "Piano",
                "program": 0,
                "is_drum": false,
                "section_start": 91.36032089669666,
                "section_end": 108.59883399913667,
                "notes": [],
                "pitch_classes": [
                    0,
                    0,
                    0,
                    0,
                    0,
                    0,
                    0,
                    0,
                    0,
                    0,
                    0,
                    0
                ],
                "velocity_mean": 0,
                "pitch_mean": 0,
                "pitch_std": 0,
                "duration_mean": 0,
                "song_name": "Here_I_Go.mid",
                "tempo": 278.44628892735466,
                "time_signature": "4/4",
                "key": "None",
                "maj_min": ""
            }
        ],
        [
            {
                "instrument_no": 8,
                "instrument_category": "Guitar",
                "program": 25,
                "is_drum": false,
                "section_start": 277.89341383333317,
                "section_end": 308.62842583333315,
                "notes": [
                    {
                        "start": 278.02957507499997,
                        "end": 278.125728825,
                        "pitch": 57,
                        "velocity": 83
                    },
                    {
                        "start": 278.048805825,
                        "end": 278.1593826375,
                        "pitch": 62,
                        "velocity": 102
                    },
                    {
                        "start": 278.0661135,
                        "end": 278.1843826125,
                        "pitch": 66,
                        "velocity": 103
                    },
                    {
                        "start": 278.260344075,
                        "end": 278.333420925,
                        "pitch": 66,
                        "velocity": 94
                    },
                    {
                        "start": 278.2968825,
                        "end": 278.3613055125,
                        "pitch": 57,
                        "velocity": 53
                    },
                    {
                        "start": 278.279574825,
                        "end": 278.36899781249997,
                        "pitch": 62,
                        "velocity": 74
                    },
                    {
                        "start": 278.491113075,
                        "end": 278.5593822375,
                        "pitch": 57,
                        "velocity": 50
                    },
                    {
                        "start": 278.510343825,
                        "end": 278.5997668125,
                        "pitch": 62,
                        "velocity": 73
                    },
                    {
                        "start": 278.5276515,
                        "end": 278.6189975625,
                        "pitch": 66,
                        "velocity": 87
                    },
                    {
                        "start": 278.741112825,
                        "end": 278.91707418749996,
                        "pitch": 62,
                        "velocity": 99
                    },
                    {
                        "start": 278.7584205,
                        "end": 278.9363049375,
                        "pitch": 57,
                        "velocity": 75
                    },
                    {
                        "start": 278.721882075,
                        "end": 278.9814972,
                        "pitch": 66,
                        "velocity": 95
                    },
                    {
                        "start": 279.183420075,
                        "end": 279.23245848749997,
                        "pitch": 57,
                        "velocity": 86
                    },
                    {
                        "start": 279.202650825,
                        "end": 279.2516892375,
                        "pitch": 59,
                        "velocity": 86
                    },
                    {
                        "start": 279.21995849999996,
                        "end": 279.268035375,
                        "pitch": 64,
                        "velocity": 93
                    },
                    {
                        "start": 279.433419825,
                        "end": 279.5901504375,
                        "pitch": 59,
                        "velocity": 93
                    },
                    {
                        "start": 279.45072749999997,
                        "end": 279.7343810625,
                        "pitch": 57,
                        "velocity": 71
                    },
                    {
                        "start": 279.41418907499997,
                        "end": 279.74111182499996,
                        "pitch": 64,
                        "velocity": 104
                    },
                    {
                        "start": 279.6814965,
                        "end": 279.768034875,
                        "pitch": 59,
                        "velocity": 79
                    },
                    {
                        "start": 279.875727075,
                        "end": 279.99591926249997,
                        "pitch": 57,
                        "velocity": 84
                    },
                    {
                        "start": 279.894957825,
                        "end": 280.03534229999997,
                        "pitch": 61,
                        "velocity": 87
                    },
                    {
                        "start": 279.9122655,
                        "end": 280.0661115,
                        "pitch": 64,
                        "velocity": 104
                    },
                    {
                        "start": 280.337265075,
                        "end": 280.3978419375,
                        "pitch": 57,
                        "velocity": 57
                    },
                    {
                        "start": 280.35649582499997,
                        "end": 280.44111112499996,
                        "pitch": 61,
                        "velocity": 76
                    },
                    {
                        "start": 280.3738035,
                        "end": 280.4814957,
                        "pitch": 64,
                        "velocity": 89
                    },
                    {
                        "start": 280.6045725,
                        "end": 280.6689955125,
                        "pitch": 57,
                        "velocity": 50
                    },
                    {
                        "start": 280.568034075,
                        "end": 280.671880125,
                        "pitch": 64,
                        "velocity": 84
                    },
                    {
                        "start": 280.587264825,
                        "end": 280.6882262625,
                        "pitch": 61,
                        "velocity": 75
                    },
                    {
                        "start": 280.79880307499997,
                        "end": 280.921879875,
                        "pitch": 57,
                        "velocity": 87
                    },
                    {
                        "start": 280.818033825,
                        "end": 280.9459183125,
                        "pitch": 61,
                        "velocity": 91
                    },
                    {
                        "start": 280.83534149999997,
                        "end": 281.0247643875,
                        "pitch": 64,
                        "velocity": 102
                    },
                    {
                        "start": 281.260341075,
                        "end": 281.3305333125,
                        "pitch": 57,
                        "velocity": 64
                    },
                    {
                        "start": 281.279571825,
                        "end": 281.3738025,
                        "pitch": 61,
                        "velocity": 77
                    },
                    {
                        "start": 281.2968795,
                        "end": 281.3978409375,
                        "pitch": 64,
                        "velocity": 88
                    },
                    {
                        "start": 281.491110075,
                        "end": 281.58534075,
                        "pitch": 64,
                        "velocity": 88
                    },
                    {
                        "start": 281.5276485,
                        "end": 281.5997638125,
                        "pitch": 57,
                        "velocity": 50
                    },
                    {
                        "start": 281.510340825,
                        "end": 281.60457149999996,
                        "pitch": 61,
                        "velocity": 77
                    },
                    {
                        "start": 281.721879075,
                        "end": 281.80977405833335,
                        "pitch": 57,
                        "velocity": 87
                    },
                    {
                        "start": 281.74110982499997,
                        "end": 281.84562675,
                        "pitch": 61,
                        "velocity": 92
                    },
                    {
                        "start": 281.7584175,
                        "end": 281.8746965,
                        "pitch": 64,
                        "velocity": 107
                    },
                    {
                        "start": 281.954774625,
                        "end": 282.050939,
                        "pitch": 64,
                        "velocity": 94
                    },
                    {
                        "start": 281.974305875,
                        "end": 282.07554525,
                        "pitch": 61,
                        "velocity": 61
                    },
                    {
                        "start": 281.991884,
                        "end": 282.0922775,
                        "pitch": 57,
                        "velocity": 61
                    },
                    {
                        "start": 282.191343125,
                        "end": 282.2420415,
                        "pitch": 57,
                        "velocity": 50
                    },
                    {
                        "start": 282.211184375,
                        "end": 282.32604150000003,
                        "pitch": 61,
                        "velocity": 67
                    },
                    {
                        "start": 282.22904150000005,
                        "end": 282.34404150000006,
                        "pitch": 64,
                        "velocity": 91
                    },
                    {
                        "start": 282.47000900000006,
                        "end": 282.5787486416667,
                        "pitch": 57,
                        "velocity": 79
                    },
                    {
                        "start": 282.43170262500007,
                        "end": 282.58179741666675,
                        "pitch": 64,
                        "velocity": 97
                    },
                    {
                        "start": 282.4518638750001,
                        "end": 282.5868787083334,
                        "pitch": 61,
                        "velocity": 90
                    },
                    {
                        "start": 282.92429416666675,
                        "end": 282.9827850375001,
                        "pitch": 57,
                        "velocity": 50
                    },
                    {
                        "start": 282.94512750000007,
                        "end": 283.03425555625006,
                        "pitch": 59,
                        "velocity": 82
                    },
                    {
                        "start": 282.9638775000001,
                        "end": 283.0374068125001,
                        "pitch": 64,
                        "velocity": 88
                    },
                    {
                        "start": 283.19797847500007,
                        "end": 283.39697535000005,
                        "pitch": 59,
                        "velocity": 99
                    },
                    {
                        "start": 283.21704625000007,
                        "end": 283.50717018750004,
                        "pitch": 57,
                        "velocity": 77
                    },
                    {
                        "start": 283.17679205833343,
                        "end": 283.51260496875005,
                        "pitch": 64,
                        "velocity": 105
                    },
                    {
                        "start": 283.47456150000005,
                        "end": 283.54738756875,
                        "pitch": 61,
                        "velocity": 84
                    },
                    {
                        "start": 283.7476369375001,
                        "end": 283.8637872812501,
                        "pitch": 57,
                        "velocity": 80
                    },
                    {
                        "start": 283.7476369375001,
                        "end": 283.8838271708334,
                        "pitch": 64,
                        "velocity": 88
                    },
                    {
                        "start": 283.7476369375001,
                        "end": 283.8838271708334,
                        "pitch": 61,
                        "velocity": 78
                    },
                    {
                        "start": 284.2862131250001,
                        "end": 284.4956930000001,
                        "pitch": 57,
                        "velocity": 84
                    },
                    {
                        "start": 284.2862131250001,
                        "end": 284.51305409375004,
                        "pitch": 64,
                        "velocity": 91
                    },
                    {
                        "start": 284.2862131250001,
                        "end": 284.53041518750007,
                        "pitch": 61,
                        "velocity": 86
                    },
                    {
                        "start": 284.63302410416674,
                        "end": 284.70912390625006,
                        "pitch": 61,
                        "velocity": 77
                    },
                    {
                        "start": 284.63302410416674,
                        "end": 284.70912390625006,
                        "pitch": 57,
                        "velocity": 78
                    },
                    {
                        "start": 284.63302410416674,
                        "end": 284.715020125,
                        "pitch": 64,
                        "velocity": 86
                    },
                    {
                        "start": 284.84473693750004,
                        "end": 285.07468946875,
                        "pitch": 57,
                        "velocity": 85
                    },
                    {
                        "start": 284.84473693750004,
                        "end": 285.09237812500004,
                        "pitch": 64,
                        "velocity": 87
                    },
                    {
                        "start": 284.84473693750004,
                        "end": 285.10652905000006,
                        "pitch": 61,
                        "velocity": 81
                    },
                    {
                        "start": 285.41077393750004,
                        "end": 285.59119823125,
                        "pitch": 57,
                        "velocity": 84
                    },
                    {
                        "start": 285.41077393750004,
                        "end": 285.60534915625004,
                        "pitch": 64,
                        "velocity": 91
                    },
                    {
                        "start": 285.41077393750004,
                        "end": 285.65841512500003,
                        "pitch": 61,
                        "velocity": 87
                    },
                    {
                        "start": 285.7645470625,
                        "end": 285.82704698125,
                        "pitch": 57,
                        "velocity": 71
                    },
                    {
                        "start": 285.7645470625,
                        "end": 285.85299034375004,
                        "pitch": 61,
                        "velocity": 83
                    },
                    {
                        "start": 285.7645470625,
                        "end": 285.85888656250006,
                        "pitch": 64,
                        "velocity": 86
                    },
                    {
                        "start": 285.97681093750003,
                        "end": 286.16902766875006,
                        "pitch": 57,
                        "velocity": 85
                    },
                    {
                        "start": 285.97681093750003,
                        "end": 286.18317859375003,
                        "pitch": 64,
                        "velocity": 82
                    },
                    {
                        "start": 285.97681093750003,
                        "end": 286.21265968750004,
                        "pitch": 61,
                        "velocity": 85
                    },
                    {
                        "start": 286.5428479375,
                        "end": 286.73506466875006,
                        "pitch": 57,
                        "velocity": 87
                    },
                    {
                        "start": 286.5428479375,
                        "end": 286.75511181250005,
                        "pitch": 64,
                        "velocity": 89
                    },
                    {
                        "start": 286.5428479375,
                        "end": 286.81053626875,
                        "pitch": 61,
                        "velocity": 86
                    },
                    {
                        "start": 286.89662106250006,
                        "end": 286.96737568750007,
                        "pitch": 57,
                        "velocity": 76
                    },
                    {
                        "start": 286.89662106250006,
                        "end": 286.9768096375,
                        "pitch": 64,
                        "velocity": 88
                    },
                    {
                        "start": 286.89662106250006,
                        "end": 286.98506434375,
                        "pitch": 61,
                        "velocity": 84
                    },
                    {
                        "start": 287.1088849375,
                        "end": 287.28930923125006,
                        "pitch": 57,
                        "velocity": 87
                    },
                    {
                        "start": 287.1088849375,
                        "end": 287.3235073,
                        "pitch": 64,
                        "velocity": 97
                    },
                    {
                        "start": 287.1088849375,
                        "end": 287.356526125,
                        "pitch": 61,
                        "velocity": 91
                    },
                    {
                        "start": 287.46265806250005,
                        "end": 287.53930890625,
                        "pitch": 59,
                        "velocity": 79
                    },
                    {
                        "start": 287.46265806250005,
                        "end": 287.54520512500005,
                        "pitch": 57,
                        "velocity": 78
                    },
                    {
                        "start": 287.46265806250005,
                        "end": 287.55463907500007,
                        "pitch": 64,
                        "velocity": 88
                    },
                    {
                        "start": 287.6749219375,
                        "end": 287.85180850000006,
                        "pitch": 64,
                        "velocity": 91
                    },
                    {
                        "start": 287.6749219375,
                        "end": 287.85534623125005,
                        "pitch": 57,
                        "velocity": 84
                    },
                    {
                        "start": 287.6749219375,
                        "end": 287.86713866875004,
                        "pitch": 59,
                        "velocity": 93
                    },
                    {
                        "start": 288.24095893750007,
                        "end": 288.40959079375006,
                        "pitch": 57,
                        "velocity": 83
                    },
                    {
                        "start": 288.24095893750007,
                        "end": 288.42374171875,
                        "pitch": 64,
                        "velocity": 91
                    },
                    {
                        "start": 288.24095893750007,
                        "end": 288.4437888625,
                        "pitch": 61,
                        "velocity": 84
                    },
                    {
                        "start": 288.80699593750006,
                        "end": 288.9815240125,
                        "pitch": 57,
                        "velocity": 83
                    },
                    {
                        "start": 288.80699593750006,
                        "end": 288.99331645000007,
                        "pitch": 64,
                        "velocity": 89
                    },
                    {
                        "start": 288.80699593750006,
                        "end": 289.03105225,
                        "pitch": 61,
                        "velocity": 85
                    },
                    {
                        "start": 289.16076906250004,
                        "end": 289.16312755,
                        "pitch": 57,
                        "velocity": 78
                    },
                    {
                        "start": 289.16076906250004,
                        "end": 289.24331612500004,
                        "pitch": 61,
                        "velocity": 80
                    },
                    {
                        "start": 289.16076906250004,
                        "end": 289.25275007500005,
                        "pitch": 64,
                        "velocity": 87
                    },
                    {
                        "start": 289.37303293750006,
                        "end": 289.50864596875005,
                        "pitch": 57,
                        "velocity": 79
                    },
                    {
                        "start": 289.37303293750006,
                        "end": 289.54166479375004,
                        "pitch": 64,
                        "velocity": 81
                    },
                    {
                        "start": 289.37303293750006,
                        "end": 289.54402328125,
                        "pitch": 61,
                        "velocity": 79
                    },
                    {
                        "start": 289.93906993750005,
                        "end": 290.12774893750003,
                        "pitch": 57,
                        "velocity": 84
                    },
                    {
                        "start": 289.93906993750005,
                        "end": 290.14189986250005,
                        "pitch": 64,
                        "velocity": 87
                    },
                    {
                        "start": 289.93906993750005,
                        "end": 290.18317339375005,
                        "pitch": 61,
                        "velocity": 84
                    },
                    {
                        "start": 290.2928430625,
                        "end": 290.36949390625006,
                        "pitch": 57,
                        "velocity": 76
                    },
                    {
                        "start": 290.2928430625,
                        "end": 290.3871825625,
                        "pitch": 64,
                        "velocity": 87
                    },
                    {
                        "start": 290.2928430625,
                        "end": 290.3871825625,
                        "pitch": 61,
                        "velocity": 84
                    },
                    {
                        "start": 290.50510693750005,
                        "end": 290.67020106250004,
                        "pitch": 57,
                        "velocity": 85
                    },
                    {
                        "start": 290.50510693750005,
                        "end": 290.69968215625005,
                        "pitch": 64,
                        "velocity": 89
                    },
                    {
                        "start": 290.50510693750005,
                        "end": 290.72916325000006,
                        "pitch": 61,
                        "velocity": 87
                    },
                    {
                        "start": 291.07114393750004,
                        "end": 291.21619091875004,
                        "pitch": 57,
                        "velocity": 85
                    },
                    {
                        "start": 291.07114393750004,
                        "end": 291.23623806250004,
                        "pitch": 64,
                        "velocity": 91
                    },
                    {
                        "start": 291.07114393750004,
                        "end": 291.27987008125007,
                        "pitch": 61,
                        "velocity": 89
                    },
                    {
                        "start": 291.4249170625,
                        "end": 291.4956716875,
                        "pitch": 57,
                        "velocity": 77
                    },
                    {
                        "start": 291.4249170625,
                        "end": 291.49920941875,
                        "pitch": 61,
                        "velocity": 86
                    },
                    {
                        "start": 291.4249170625,
                        "end": 291.50156790625005,
                        "pitch": 64,
                        "velocity": 87
                    },
                    {
                        "start": 291.63718093750003,
                        "end": 291.80581279375,
                        "pitch": 57,
                        "velocity": 80
                    },
                    {
                        "start": 291.63718093750003,
                        "end": 291.82939766875006,
                        "pitch": 64,
                        "velocity": 91
                    },
                    {
                        "start": 291.63718093750003,
                        "end": 291.87302968750004,
                        "pitch": 61,
                        "velocity": 86
                    },
                    {
                        "start": 291.99095406250007,
                        "end": 292.07939734375003,
                        "pitch": 64,
                        "velocity": 79
                    },
                    {
                        "start": 291.99095406250007,
                        "end": 292.08883129375005,
                        "pitch": 59,
                        "velocity": 82
                    },
                    {
                        "start": 291.99095406250007,
                        "end": 292.08883129375005,
                        "pitch": 57,
                        "velocity": 73
                    },
                    {
                        "start": 292.2032179375,
                        "end": 292.4013308875,
                        "pitch": 59,
                        "velocity": 89
                    },
                    {
                        "start": 292.2032179375,
                        "end": 292.40958559375,
                        "pitch": 64,
                        "velocity": 91
                    },
                    {
                        "start": 292.2032179375,
                        "end": 292.41548181250005,
                        "pitch": 57,
                        "velocity": 87
                    },
                    {
                        "start": 292.7692549375,
                        "end": 293.15486764375004,
                        "pitch": 59,
                        "velocity": 75
                    },
                    {
                        "start": 292.7692549375,
                        "end": 293.16076386250006,
                        "pitch": 62,
                        "velocity": 91
                    },
                    {
                        "start": 292.7692549375,
                        "end": 293.19378268750006,
                        "pitch": 66,
                        "velocity": 80
                    },
                    {
                        "start": 293.3352919375,
                        "end": 293.56170673750006,
                        "pitch": 59,
                        "velocity": 81
                    },
                    {
                        "start": 293.3352919375,
                        "end": 293.57939539375,
                        "pitch": 62,
                        "velocity": 89
                    },
                    {
                        "start": 293.3352919375,
                        "end": 293.60651800000005,
                        "pitch": 66,
                        "velocity": 81
                    },
                    {
                        "start": 293.68906506250005,
                        "end": 293.74448951875,
                        "pitch": 59,
                        "velocity": 65
                    },
                    {
                        "start": 293.68906506250005,
                        "end": 293.7574612,
                        "pitch": 62,
                        "velocity": 81
                    },
                    {
                        "start": 293.68906506250005,
                        "end": 293.77161212500005,
                        "pitch": 66,
                        "velocity": 79
                    },
                    {
                        "start": 293.9013289375,
                        "end": 294.23151718750006,
                        "pitch": 62,
                        "velocity": 87
                    },
                    {
                        "start": 293.9013289375,
                        "end": 294.23741340625,
                        "pitch": 59,
                        "velocity": 77
                    },
                    {
                        "start": 293.9013289375,
                        "end": 294.27514920625003,
                        "pitch": 66,
                        "velocity": 81
                    },
                    {
                        "start": 294.46736593750006,
                        "end": 294.74802595000006,
                        "pitch": 59,
                        "velocity": 84
                    },
                    {
                        "start": 294.46736593750006,
                        "end": 294.75392216875,
                        "pitch": 62,
                        "velocity": 91
                    },
                    {
                        "start": 294.46736593750006,
                        "end": 294.77161082500004,
                        "pitch": 66,
                        "velocity": 85
                    },
                    {
                        "start": 294.82113906250004,
                        "end": 294.88010125000005,
                        "pitch": 59,
                        "velocity": 70
                    },
                    {
                        "start": 294.82113906250004,
                        "end": 294.90368612500004,
                        "pitch": 62,
                        "velocity": 83
                    },
                    {
                        "start": 294.82113906250004,
                        "end": 294.90722385625,
                        "pitch": 66,
                        "velocity": 80
                    },
                    {
                        "start": 295.03340293750006,
                        "end": 295.39307228125006,
                        "pitch": 59,
                        "velocity": 71
                    },
                    {
                        "start": 295.03340293750006,
                        "end": 295.4107609375,
                        "pitch": 62,
                        "velocity": 86
                    },
                    {
                        "start": 295.03340293750006,
                        "end": 295.44613825000005,
                        "pitch": 66,
                        "velocity": 81
                    },
                    {
                        "start": 295.59943993750005,
                        "end": 295.88009995000004,
                        "pitch": 62,
                        "velocity": 87
                    },
                    {
                        "start": 295.59943993750005,
                        "end": 295.8824584375,
                        "pitch": 59,
                        "velocity": 77
                    },
                    {
                        "start": 295.59943993750005,
                        "end": 295.90014709375004,
                        "pitch": 66,
                        "velocity": 79
                    },
                    {
                        "start": 295.9532130625,
                        "end": 296.035760125,
                        "pitch": 59,
                        "velocity": 66
                    },
                    {
                        "start": 295.9532130625,
                        "end": 296.05109029375006,
                        "pitch": 62,
                        "velocity": 78
                    },
                    {
                        "start": 295.9532130625,
                        "end": 296.05698651250003,
                        "pitch": 66,
                        "velocity": 80
                    },
                    {
                        "start": 296.16547693750005,
                        "end": 296.4154766125,
                        "pitch": 59,
                        "velocity": 78
                    },
                    {
                        "start": 296.16547693750005,
                        "end": 296.43080678125006,
                        "pitch": 62,
                        "velocity": 88
                    },
                    {
                        "start": 296.16547693750005,
                        "end": 296.43316526875003,
                        "pitch": 66,
                        "velocity": 91
                    },
                    {
                        "start": 296.5192500625,
                        "end": 296.63481595,
                        "pitch": 59,
                        "velocity": 55
                    },
                    {
                        "start": 296.5192500625,
                        "end": 296.63717443750005,
                        "pitch": 62,
                        "velocity": 72
                    },
                    {
                        "start": 296.5192500625,
                        "end": 296.64071216875004,
                        "pitch": 64,
                        "velocity": 79
                    },
                    {
                        "start": 296.73151393750004,
                        "end": 297.11476815625,
                        "pitch": 59,
                        "velocity": 76
                    },
                    {
                        "start": 296.73151393750004,
                        "end": 297.14778698125,
                        "pitch": 62,
                        "velocity": 83
                    },
                    {
                        "start": 296.73151393750004,
                        "end": 297.16547563750004,
                        "pitch": 64,
                        "velocity": 79
                    },
                    {
                        "start": 297.29755093750003,
                        "end": 297.72561641875006,
                        "pitch": 57,
                        "velocity": 80
                    },
                    {
                        "start": 297.29755093750003,
                        "end": 297.75155978125,
                        "pitch": 66,
                        "velocity": 86
                    },
                    {
                        "start": 297.29755093750003,
                        "end": 297.7550975125,
                        "pitch": 62,
                        "velocity": 90
                    },
                    {
                        "start": 297.86358793750003,
                        "end": 298.09589895625004,
                        "pitch": 57,
                        "velocity": 80
                    },
                    {
                        "start": 297.86358793750003,
                        "end": 298.15014416875005,
                        "pitch": 62,
                        "velocity": 91
                    },
                    {
                        "start": 297.86358793750003,
                        "end": 298.17019131250004,
                        "pitch": 66,
                        "velocity": 88
                    },
                    {
                        "start": 298.21736106250006,
                        "end": 298.27986098125007,
                        "pitch": 57,
                        "velocity": 71
                    },
                    {
                        "start": 298.21736106250006,
                        "end": 298.29990812500006,
                        "pitch": 62,
                        "velocity": 83
                    },
                    {
                        "start": 298.21736106250006,
                        "end": 298.31523829375004,
                        "pitch": 66,
                        "velocity": 79
                    },
                    {
                        "start": 298.4296249375,
                        "end": 298.77396411250004,
                        "pitch": 57,
                        "velocity": 79
                    },
                    {
                        "start": 298.4296249375,
                        "end": 298.809341425,
                        "pitch": 62,
                        "velocity": 87
                    },
                    {
                        "start": 298.4296249375,
                        "end": 298.81877537500003,
                        "pitch": 66,
                        "velocity": 80
                    },
                    {
                        "start": 298.9956619375,
                        "end": 299.2315106875,
                        "pitch": 57,
                        "velocity": 78
                    },
                    {
                        "start": 298.9956619375,
                        "end": 299.27042573125004,
                        "pitch": 62,
                        "velocity": 86
                    },
                    {
                        "start": 298.9956619375,
                        "end": 299.28457665625007,
                        "pitch": 66,
                        "velocity": 83
                    },
                    {
                        "start": 299.34943506250005,
                        "end": 299.40250103125004,
                        "pitch": 57,
                        "velocity": 61
                    },
                    {
                        "start": 299.34943506250005,
                        "end": 299.43198212500005,
                        "pitch": 66,
                        "velocity": 78
                    },
                    {
                        "start": 299.34943506250005,
                        "end": 299.43198212500005,
                        "pitch": 62,
                        "velocity": 85
                    },
                    {
                        "start": 299.56181125,
                        "end": 299.72917125000004,
                        "pitch": 57,
                        "velocity": 71
                    },
                    {
                        "start": 299.56181125,
                        "end": 299.798345975,
                        "pitch": 62,
                        "velocity": 77
                    },
                    {
                        "start": 299.56181125,
                        "end": 299.82261780833335,
                        "pitch": 66,
                        "velocity": 81
                    },
                    {
                        "start": 299.92502810416664,
                        "end": 300.015949625,
                        "pitch": 57,
                        "velocity": 66
                    },
                    {
                        "start": 299.92502810416664,
                        "end": 300.053828375,
                        "pitch": 66,
                        "velocity": 79
                    },
                    {
                        "start": 299.92502810416664,
                        "end": 300.053828375,
                        "pitch": 62,
                        "velocity": 78
                    },
                    {
                        "start": 300.15131083333335,
                        "end": 300.35622105,
                        "pitch": 57,
                        "velocity": 75
                    },
                    {
                        "start": 300.15131083333335,
                        "end": 300.3943788875,
                        "pitch": 62,
                        "velocity": 79
                    },
                    {
                        "start": 300.15131083333335,
                        "end": 300.427273575,
                        "pitch": 66,
                        "velocity": 77
                    },
                    {
                        "start": 300.54504372916665,
                        "end": 301.0246452187499,
                        "pitch": 57,
                        "velocity": 81
                    },
                    {
                        "start": 300.54504372916665,
                        "end": 301.08930037499994,
                        "pitch": 62,
                        "velocity": 88
                    },
                    {
                        "start": 300.54504372916665,
                        "end": 301.0921739374999,
                        "pitch": 67,
                        "velocity": 88
                    },
                    {
                        "start": 301.2209771249999,
                        "end": 301.3095667291666,
                        "pitch": 57,
                        "velocity": 56
                    },
                    {
                        "start": 301.2209771249999,
                        "end": 301.3622775312499,
                        "pitch": 66,
                        "velocity": 85
                    },
                    {
                        "start": 301.2209771249999,
                        "end": 301.3743257145832,
                        "pitch": 62,
                        "velocity": 78
                    },
                    {
                        "start": 301.4906613333332,
                        "end": 301.71262939374986,
                        "pitch": 62,
                        "velocity": 88
                    },
                    {
                        "start": 301.4906613333332,
                        "end": 302.1950924999998,
                        "pitch": 64,
                        "velocity": 87
                    },
                    {
                        "start": 301.4906613333332,
                        "end": 302.19842583333315,
                        "pitch": 57,
                        "velocity": 79
                    },
                    {
                        "start": 301.9639237499999,
                        "end": 302.2450924999998,
                        "pitch": 59,
                        "velocity": 88
                    },
                    {
                        "start": 302.2617591666665,
                        "end": 305.89509249999986,
                        "pitch": 57,
                        "velocity": 79
                    },
                    {
                        "start": 302.2617591666665,
                        "end": 305.9367591666665,
                        "pitch": 61,
                        "velocity": 86
                    },
                    {
                        "start": 302.2617591666665,
                        "end": 305.9417591666665,
                        "pitch": 64,
                        "velocity": 90
                    }
                ],
                "pitch_classes": [
                    0,
                    32,
                    28,
                    0,
                    42,
                    0,
                    24,
                    1,
                    0,
                    55,
                    0,
                    22
                ],
                "velocity_mean": 82.18627450980392,
                "pitch_mean": 61.07843137254902,
                "pitch_std": 3.1379594797050303,
                "duration_mean": 0.23639152284517856,
                "song_name": "Whats_Up.mid",
                "tempo": 156.17368231383819,
                "time_signature": "4/4",
                "key": "D-1",
                "maj_min": "major"
            }
        ],
        [
            {
                "instrument_no": 2,
                "instrument_category": "Bass",
                "program": 38,
                "is_drum": false,
                "section_start": 100.75312258138288,
                "section_end": 119.42604699153378,
                "notes": [
                    {
                        "start": 100.8423385,
                        "end": 100.90964364583333,
                        "pitch": 53,
                        "velocity": 70
                    },
                    {
                        "start": 100.95771875,
                        "end": 101.05386895833333,
                        "pitch": 53,
                        "velocity": 60
                    },
                    {
                        "start": 101.073099,
                        "end": 101.14040414583333,
                        "pitch": 48,
                        "velocity": 70
                    },
                    {
                        "start": 101.18847925,
                        "end": 101.27501443749999,
                        "pitch": 48,
                        "velocity": 60
                    },
                    {
                        "start": 101.3038595,
                        "end": 101.37116464583333,
                        "pitch": 51,
                        "velocity": 70
                    },
                    {
                        "start": 101.41923975,
                        "end": 101.51538995833333,
                        "pitch": 51,
                        "velocity": 60
                    },
                    {
                        "start": 101.53462,
                        "end": 101.60192514583333,
                        "pitch": 53,
                        "velocity": 70
                    }
                ],
                "pitch_classes": [
                    2,
                    0,
                    0,
                    2,
                    0,
                    3,
                    0,
                    0,
                    0,
                    0,
                    0,
                    0
                ],
                "velocity_mean": 65.71428571428571,
                "pitch_mean": 51.0,
                "pitch_std": 2.0701966780270626,
                "duration_mean": 0.0782937410714238,
                "song_name": "Workaholic.1.mid",
                "tempo": 257.0566824225264,
                "time_signature": "4/4",
                "key": "C-1",
                "maj_min": "minor"
            }
        ],
        [
            {
                "instrument_no": 20,
                "instrument_category": "Other",
                "program": 57,
                "is_drum": false,
                "section_start": 173.05208333333337,
                "section_end": 193.0,
                "notes": [
                    {
                        "start": 174.33333333333334,
                        "end": 174.925,
                        "pitch": 53,
                        "velocity": 75
                    },
                    {
                        "start": 175.0,
                        "end": 175.1625,
                        "pitch": 53,
                        "velocity": 75
                    },
                    {
                        "start": 175.5,
                        "end": 175.6625,
                        "pitch": 53,
                        "velocity": 75
                    },
                    {
                        "start": 176.0,
                        "end": 176.81458333333333,
                        "pitch": 52,
                        "velocity": 75
                    },
                    {
                        "start": 176.83333333333334,
                        "end": 177.9375,
                        "pitch": 58,
                        "velocity": 75
                    },
                    {
                        "start": 178.33333333333334,
                        "end": 179.975,
                        "pitch": 57,
                        "velocity": 69
                    },
                    {
                        "start": 180.0,
                        "end": 181.91458333333333,
                        "pitch": 54,
                        "velocity": 69
                    },
                    {
                        "start": 188.83333333333334,
                        "end": 192.975,
                        "pitch": 59,
                        "velocity": 40
                    }
                ],
                "pitch_classes": [
                    0,
                    0,
                    0,
                    0,
                    1,
                    3,
                    1,
                    0,
                    0,
                    1,
                    1,
                    1
                ],
                "velocity_mean": 69.125,
                "pitch_mean": 54.875,
                "pitch_std": 2.521780125229002,
                "duration_mean": 1.3166666666666593,
                "song_name": "Have_a_Nice_Day.mid",
                "tempo": 240.6266318537862,
                "time_signature": "4/4",
                "key": "C-1",
                "maj_min": "major"
            }
        ]
    ],
    [
        [
            {
                "instrument_no": 13,
                "instrument_category": "Drum",
                "program": 0,
                "is_drum": true,
                "section_start": 100.27224170918362,
                "section_end": 119.8657791241497,
                "notes": [
                    {
                        "start": 100.359375,
                        "end": 100.38020833333333,
                        "pitch": 42,
                        "velocity": 64
                    },
                    {
                        "start": 100.46875,
                        "end": 100.484375,
                        "pitch": 42,
                        "velocity": 64
                    },
                    {
                        "start": 100.56770833333333,
                        "end": 100.58854166666666,
                        "pitch": 42,
                        "velocity": 64
                    },
                    {
                        "start": 100.67708333333333,
                        "end": 100.69791666666666,
                        "pitch": 42,
                        "velocity": 64
                    },
                    {
                        "start": 100.78125,
                        "end": 100.80208333333333,
                        "pitch": 42,
                        "velocity": 64
                    },
                    {
                        "start": 100.88541666666666,
                        "end": 100.90104166666666,
                        "pitch": 42,
                        "velocity": 64
                    },
                    {
                        "start": 100.98958333333333,
                        "end": 101.01041666666666,
                        "pitch": 42,
                        "velocity": 64
                    },
                    {
                        "start": 101.09375,
                        "end": 101.11458333333333,
                        "pitch": 42,
                        "velocity": 64
                    },
                    {
                        "start": 101.19791666666666,
                        "end": 101.21875,
                        "pitch": 42,
                        "velocity": 64
                    },
                    {
                        "start": 101.30208333333333,
                        "end": 101.32291666666666,
                        "pitch": 42,
                        "velocity": 64
                    },
                    {
                        "start": 101.40625,
                        "end": 101.42708333333333,
                        "pitch": 42,
                        "velocity": 64
                    },
                    {
                        "start": 101.51041666666666,
                        "end": 101.53125,
                        "pitch": 42,
                        "velocity": 64
                    },
                    {
                        "start": 101.61458333333333,
                        "end": 101.63541666666666,
                        "pitch": 42,
                        "velocity": 64
                    },
                    {
                        "start": 101.71875,
                        "end": 101.734375,
                        "pitch": 42,
                        "velocity": 64
                    },
                    {
                        "start": 101.82291666666666,
                        "end": 101.84375,
                        "pitch": 42,
                        "velocity": 64
                    },
                    {
                        "start": 101.92708333333333,
                        "end": 101.94791666666666,
                        "pitch": 42,
                        "velocity": 64
                    },
                    {
                        "start": 102.03125,
                        "end": 102.05208333333333,
                        "pitch": 42,
                        "velocity": 64
                    },
                    {
                        "start": 102.140625,
                        "end": 102.16145833333333,
                        "pitch": 42,
                        "velocity": 64
                    },
                    {
                        "start": 102.23958333333333,
                        "end": 102.26041666666666,
                        "pitch": 42,
                        "velocity": 64
                    },
                    {
                        "start": 102.34895833333333,
                        "end": 102.47395833333333,
                        "pitch": 42,
                        "velocity": 64
                    },
                    {
                        "start": 102.453125,
                        "end": 102.47395833333333,
                        "pitch": 42,
                        "velocity": 64
                    },
                    {
                        "start": 102.55729166666666,
                        "end": 102.57291666666666,
                        "pitch": 42,
                        "velocity": 64
                    },
                    {
                        "start": 102.66145833333333,
                        "end": 102.68229166666666,
                        "pitch": 42,
                        "velocity": 64
                    },
                    {
                        "start": 102.765625,
                        "end": 102.78645833333333,
                        "pitch": 42,
                        "velocity": 64
                    },
                    {
                        "start": 102.86979166666666,
                        "end": 102.890625,
                        "pitch": 42,
                        "velocity": 64
                    },
                    {
                        "start": 102.97395833333333,
                        "end": 102.99479166666666,
                        "pitch": 42,
                        "velocity": 64
                    },
                    {
                        "start": 103.078125,
                        "end": 103.09895833333333,
                        "pitch": 42,
                        "velocity": 64
                    },
                    {
                        "start": 103.18229166666666,
                        "end": 103.203125,
                        "pitch": 42,
                        "velocity": 64
                    },
                    {
                        "start": 103.28645833333333,
                        "end": 103.30729166666666,
                        "pitch": 42,
                        "velocity": 64
                    },
                    {
                        "start": 103.39583333333333,
                        "end": 103.41145833333333,
                        "pitch": 42,
                        "velocity": 64
                    },
                    {
                        "start": 103.49479166666666,
                        "end": 103.515625,
                        "pitch": 42,
                        "velocity": 64
                    },
                    {
                        "start": 103.59895833333333,
                        "end": 103.61979166666666,
                        "pitch": 42,
                        "velocity": 64
                    },
                    {
                        "start": 103.703125,
                        "end": 103.72395833333333,
                        "pitch": 42,
                        "velocity": 64
                    },
                    {
                        "start": 103.8125,
                        "end": 103.828125,
                        "pitch": 42,
                        "velocity": 64
                    },
                    {
                        "start": 103.91145833333333,
                        "end": 103.93229166666666,
                        "pitch": 42,
                        "velocity": 64
                    },
                    {
                        "start": 104.02083333333333,
                        "end": 104.04166666666666,
                        "pitch": 42,
                        "velocity": 64
                    },
                    {
                        "start": 104.125,
                        "end": 104.14583333333333,
                        "pitch": 42,
                        "velocity": 64
                    },
                    {
                        "start": 104.22916666666666,
                        "end": 104.35416666666666,
                        "pitch": 42,
                        "velocity": 64
                    },
                    {
                        "start": 104.33333333333333,
                        "end": 104.35416666666666,
                        "pitch": 42,
                        "velocity": 64
                    },
                    {
                        "start": 104.4375,
                        "end": 104.45833333333333,
                        "pitch": 42,
                        "velocity": 64
                    },
                    {
                        "start": 104.54166666666666,
                        "end": 104.5625,
                        "pitch": 42,
                        "velocity": 64
                    },
                    {
                        "start": 104.65104166666666,
                        "end": 104.671875,
                        "pitch": 42,
                        "velocity": 64
                    },
                    {
                        "start": 104.75,
                        "end": 104.77083333333333,
                        "pitch": 42,
                        "velocity": 64
                    },
                    {
                        "start": 104.85416666666666,
                        "end": 104.875,
                        "pitch": 42,
                        "velocity": 64
                    },
                    {
                        "start": 104.95833333333333,
                        "end": 104.97916666666666,
                        "pitch": 42,
                        "velocity": 64
                    },
                    {
                        "start": 105.06770833333333,
                        "end": 105.08333333333333,
                        "pitch": 42,
                        "velocity": 64
                    },
                    {
                        "start": 105.16666666666666,
                        "end": 105.1875,
                        "pitch": 42,
                        "velocity": 64
                    },
                    {
                        "start": 105.27604166666666,
                        "end": 105.296875,
                        "pitch": 42,
                        "velocity": 64
                    },
                    {
                        "start": 105.375,
                        "end": 105.39583333333333,
                        "pitch": 42,
                        "velocity": 64
                    },
                    {
                        "start": 105.484375,
                        "end": 105.5,
                        "pitch": 42,
                        "velocity": 64
                    },
                    {
                        "start": 105.58333333333333,
                        "end": 105.60416666666666,
                        "pitch": 42,
                        "velocity": 64
                    },
                    {
                        "start": 105.69270833333333,
                        "end": 105.71354166666666,
                        "pitch": 42,
                        "velocity": 64
                    },
                    {
                        "start": 105.796875,
                        "end": 105.81770833333333,
                        "pitch": 42,
                        "velocity": 64
                    },
                    {
                        "start": 105.90104166666666,
                        "end": 105.91666666666666,
                        "pitch": 42,
                        "velocity": 64
                    },
                    {
                        "start": 106.00520833333333,
                        "end": 106.02604166666666,
                        "pitch": 42,
                        "velocity": 64
                    },
                    {
                        "start": 106.109375,
                        "end": 106.13020833333333,
                        "pitch": 42,
                        "velocity": 64
                    },
                    {
                        "start": 106.21354166666666,
                        "end": 106.234375,
                        "pitch": 42,
                        "velocity": 64
                    },
                    {
                        "start": 106.31770833333333,
                        "end": 106.33333333333333,
                        "pitch": 42,
                        "velocity": 64
                    },
                    {
                        "start": 106.421875,
                        "end": 106.44270833333333,
                        "pitch": 42,
                        "velocity": 64
                    },
                    {
                        "start": 106.52604166666666,
                        "end": 106.546875,
                        "pitch": 42,
                        "velocity": 64
                    },
                    {
                        "start": 106.63020833333333,
                        "end": 106.65104166666666,
                        "pitch": 42,
                        "velocity": 64
                    },
                    {
                        "start": 106.73958333333333,
                        "end": 106.76041666666666,
                        "pitch": 42,
                        "velocity": 64
                    },
                    {
                        "start": 106.83854166666666,
                        "end": 106.859375,
                        "pitch": 42,
                        "velocity": 64
                    },
                    {
                        "start": 106.94791666666666,
                        "end": 106.96875,
                        "pitch": 42,
                        "velocity": 64
                    },
                    {
                        "start": 107.046875,
                        "end": 107.06770833333333,
                        "pitch": 42,
                        "velocity": 64
                    },
                    {
                        "start": 107.15625,
                        "end": 107.171875,
                        "pitch": 42,
                        "velocity": 64
                    },
                    {
                        "start": 107.25520833333333,
                        "end": 107.27604166666666,
                        "pitch": 42,
                        "velocity": 64
                    },
                    {
                        "start": 107.36458333333333,
                        "end": 107.38541666666666,
                        "pitch": 42,
                        "velocity": 64
                    },
                    {
                        "start": 107.46875,
                        "end": 107.48958333333333,
                        "pitch": 42,
                        "velocity": 64
                    },
                    {
                        "start": 107.57291666666666,
                        "end": 107.59375,
                        "pitch": 42,
                        "velocity": 64
                    },
                    {
                        "start": 107.67708333333333,
                        "end": 107.69791666666666,
                        "pitch": 42,
                        "velocity": 64
                    },
                    {
                        "start": 107.78125,
                        "end": 107.80208333333333,
                        "pitch": 42,
                        "velocity": 64
                    },
                    {
                        "start": 107.88541666666666,
                        "end": 107.90625,
                        "pitch": 42,
                        "velocity": 64
                    },
                    {
                        "start": 107.99479166666666,
                        "end": 108.11458333333333,
                        "pitch": 42,
                        "velocity": 64
                    },
                    {
                        "start": 108.09375,
                        "end": 108.11458333333333,
                        "pitch": 42,
                        "velocity": 64
                    },
                    {
                        "start": 108.19791666666666,
                        "end": 108.21875,
                        "pitch": 42,
                        "velocity": 64
                    },
                    {
                        "start": 108.30208333333333,
                        "end": 108.32291666666666,
                        "pitch": 42,
                        "velocity": 64
                    },
                    {
                        "start": 108.41145833333333,
                        "end": 108.43229166666666,
                        "pitch": 42,
                        "velocity": 64
                    },
                    {
                        "start": 108.51041666666666,
                        "end": 108.53125,
                        "pitch": 42,
                        "velocity": 64
                    },
                    {
                        "start": 108.61979166666666,
                        "end": 108.640625,
                        "pitch": 42,
                        "velocity": 64
                    },
                    {
                        "start": 108.72395833333333,
                        "end": 108.74479166666666,
                        "pitch": 42,
                        "velocity": 64
                    },
                    {
                        "start": 108.828125,
                        "end": 108.84895833333333,
                        "pitch": 42,
                        "velocity": 64
                    },
                    {
                        "start": 108.92708333333333,
                        "end": 108.94791666666666,
                        "pitch": 42,
                        "velocity": 64
                    },
                    {
                        "start": 109.03645833333333,
                        "end": 109.05729166666666,
                        "pitch": 42,
                        "velocity": 64
                    },
                    {
                        "start": 109.140625,
                        "end": 109.16145833333333,
                        "pitch": 42,
                        "velocity": 64
                    },
                    {
                        "start": 109.24479166666666,
                        "end": 109.26041666666666,
                        "pitch": 42,
                        "velocity": 64
                    },
                    {
                        "start": 109.35416666666666,
                        "end": 109.36979166666666,
                        "pitch": 42,
                        "velocity": 64
                    },
                    {
                        "start": 109.453125,
                        "end": 109.47395833333333,
                        "pitch": 42,
                        "velocity": 64
                    },
                    {
                        "start": 109.55729166666666,
                        "end": 109.578125,
                        "pitch": 42,
                        "velocity": 64
                    },
                    {
                        "start": 109.66145833333333,
                        "end": 109.67708333333333,
                        "pitch": 42,
                        "velocity": 64
                    },
                    {
                        "start": 109.765625,
                        "end": 109.78645833333333,
                        "pitch": 42,
                        "velocity": 64
                    },
                    {
                        "start": 109.875,
                        "end": 109.89583333333333,
                        "pitch": 42,
                        "velocity": 64
                    },
                    {
                        "start": 109.97916666666666,
                        "end": 110.0,
                        "pitch": 42,
                        "velocity": 64
                    },
                    {
                        "start": 110.08333333333333,
                        "end": 110.09895833333333,
                        "pitch": 42,
                        "velocity": 64
                    },
                    {
                        "start": 110.18229166666666,
                        "end": 110.203125,
                        "pitch": 42,
                        "velocity": 64
                    },
                    {
                        "start": 110.29166666666666,
                        "end": 110.3125,
                        "pitch": 42,
                        "velocity": 64
                    },
                    {
                        "start": 110.39583333333333,
                        "end": 110.41666666666666,
                        "pitch": 42,
                        "velocity": 64
                    },
                    {
                        "start": 110.5,
                        "end": 110.52083333333333,
                        "pitch": 42,
                        "velocity": 64
                    },
                    {
                        "start": 110.60416666666666,
                        "end": 110.625,
                        "pitch": 42,
                        "velocity": 64
                    },
                    {
                        "start": 110.70833333333333,
                        "end": 110.72916666666666,
                        "pitch": 42,
                        "velocity": 64
                    },
                    {
                        "start": 110.8125,
                        "end": 110.93229166666666,
                        "pitch": 42,
                        "velocity": 64
                    },
                    {
                        "start": 110.91666666666666,
                        "end": 110.93229166666666,
                        "pitch": 42,
                        "velocity": 64
                    },
                    {
                        "start": 111.02083333333333,
                        "end": 111.04166666666666,
                        "pitch": 42,
                        "velocity": 64
                    },
                    {
                        "start": 111.125,
                        "end": 111.14583333333333,
                        "pitch": 42,
                        "velocity": 64
                    },
                    {
                        "start": 111.22916666666666,
                        "end": 111.25,
                        "pitch": 42,
                        "velocity": 64
                    },
                    {
                        "start": 111.33854166666666,
                        "end": 111.35416666666666,
                        "pitch": 42,
                        "velocity": 64
                    },
                    {
                        "start": 111.4375,
                        "end": 111.45833333333333,
                        "pitch": 42,
                        "velocity": 64
                    },
                    {
                        "start": 111.546875,
                        "end": 111.56770833333333,
                        "pitch": 42,
                        "velocity": 64
                    },
                    {
                        "start": 111.64583333333333,
                        "end": 111.66666666666666,
                        "pitch": 42,
                        "velocity": 64
                    },
                    {
                        "start": 111.75520833333333,
                        "end": 111.77083333333333,
                        "pitch": 42,
                        "velocity": 64
                    },
                    {
                        "start": 111.85416666666666,
                        "end": 111.875,
                        "pitch": 42,
                        "velocity": 64
                    },
                    {
                        "start": 111.96354166666666,
                        "end": 111.984375,
                        "pitch": 42,
                        "velocity": 64
                    },
                    {
                        "start": 112.06770833333333,
                        "end": 112.08854166666666,
                        "pitch": 42,
                        "velocity": 64
                    },
                    {
                        "start": 112.17708333333333,
                        "end": 112.296875,
                        "pitch": 42,
                        "velocity": 64
                    },
                    {
                        "start": 112.27604166666666,
                        "end": 112.296875,
                        "pitch": 42,
                        "velocity": 64
                    },
                    {
                        "start": 112.38020833333333,
                        "end": 112.40104166666666,
                        "pitch": 42,
                        "velocity": 64
                    },
                    {
                        "start": 112.484375,
                        "end": 112.50520833333333,
                        "pitch": 42,
                        "velocity": 64
                    },
                    {
                        "start": 112.58854166666666,
                        "end": 112.60416666666666,
                        "pitch": 42,
                        "velocity": 64
                    },
                    {
                        "start": 112.69791666666666,
                        "end": 112.71354166666666,
                        "pitch": 42,
                        "velocity": 64
                    },
                    {
                        "start": 112.80208333333333,
                        "end": 112.82291666666666,
                        "pitch": 42,
                        "velocity": 64
                    },
                    {
                        "start": 112.90104166666666,
                        "end": 112.921875,
                        "pitch": 42,
                        "velocity": 64
                    },
                    {
                        "start": 113.01041666666666,
                        "end": 113.02604166666666,
                        "pitch": 42,
                        "velocity": 64
                    },
                    {
                        "start": 113.109375,
                        "end": 113.13020833333333,
                        "pitch": 42,
                        "velocity": 64
                    },
                    {
                        "start": 113.21875,
                        "end": 113.23958333333333,
                        "pitch": 42,
                        "velocity": 64
                    },
                    {
                        "start": 113.31770833333333,
                        "end": 113.33854166666666,
                        "pitch": 42,
                        "velocity": 64
                    },
                    {
                        "start": 113.42708333333333,
                        "end": 113.44270833333333,
                        "pitch": 42,
                        "velocity": 64
                    },
                    {
                        "start": 113.52604166666666,
                        "end": 113.546875,
                        "pitch": 42,
                        "velocity": 64
                    },
                    {
                        "start": 113.63541666666666,
                        "end": 113.65625,
                        "pitch": 42,
                        "velocity": 64
                    },
                    {
                        "start": 113.73958333333333,
                        "end": 113.76041666666666,
                        "pitch": 42,
                        "velocity": 64
                    },
                    {
                        "start": 113.84375,
                        "end": 113.86458333333333,
                        "pitch": 42,
                        "velocity": 64
                    },
                    {
                        "start": 113.94791666666666,
                        "end": 113.96875,
                        "pitch": 42,
                        "velocity": 64
                    },
                    {
                        "start": 114.05729166666666,
                        "end": 114.07291666666666,
                        "pitch": 42,
                        "velocity": 64
                    },
                    {
                        "start": 114.15625,
                        "end": 114.17708333333333,
                        "pitch": 42,
                        "velocity": 64
                    },
                    {
                        "start": 114.265625,
                        "end": 114.28645833333333,
                        "pitch": 42,
                        "velocity": 64
                    },
                    {
                        "start": 114.36458333333333,
                        "end": 114.38541666666666,
                        "pitch": 42,
                        "velocity": 64
                    },
                    {
                        "start": 114.47395833333333,
                        "end": 114.49479166666666,
                        "pitch": 42,
                        "velocity": 64
                    },
                    {
                        "start": 114.57291666666666,
                        "end": 114.59375,
                        "pitch": 42,
                        "velocity": 64
                    },
                    {
                        "start": 114.68229166666666,
                        "end": 114.69791666666666,
                        "pitch": 42,
                        "velocity": 64
                    },
                    {
                        "start": 114.78125,
                        "end": 114.80208333333333,
                        "pitch": 42,
                        "velocity": 64
                    },
                    {
                        "start": 114.890625,
                        "end": 114.91145833333333,
                        "pitch": 42,
                        "velocity": 64
                    },
                    {
                        "start": 114.99479166666666,
                        "end": 115.015625,
                        "pitch": 42,
                        "velocity": 64
                    },
                    {
                        "start": 115.09895833333333,
                        "end": 115.11979166666666,
                        "pitch": 42,
                        "velocity": 64
                    },
                    {
                        "start": 115.19791666666666,
                        "end": 115.21875,
                        "pitch": 42,
                        "velocity": 64
                    },
                    {
                        "start": 115.30729166666666,
                        "end": 115.328125,
                        "pitch": 42,
                        "velocity": 64
                    },
                    {
                        "start": 115.41145833333333,
                        "end": 115.43229166666666,
                        "pitch": 42,
                        "velocity": 64
                    },
                    {
                        "start": 115.52083333333333,
                        "end": 115.53645833333333,
                        "pitch": 42,
                        "velocity": 64
                    },
                    {
                        "start": 115.61979166666666,
                        "end": 115.640625,
                        "pitch": 42,
                        "velocity": 64
                    },
                    {
                        "start": 115.72395833333333,
                        "end": 115.74479166666666,
                        "pitch": 42,
                        "velocity": 64
                    },
                    {
                        "start": 115.828125,
                        "end": 115.84895833333333,
                        "pitch": 42,
                        "velocity": 64
                    },
                    {
                        "start": 115.9375,
                        "end": 115.953125,
                        "pitch": 42,
                        "velocity": 64
                    },
                    {
                        "start": 116.04166666666666,
                        "end": 116.0625,
                        "pitch": 42,
                        "velocity": 64
                    },
                    {
                        "start": 116.14583333333333,
                        "end": 116.16666666666666,
                        "pitch": 42,
                        "velocity": 64
                    },
                    {
                        "start": 116.24479166666666,
                        "end": 116.265625,
                        "pitch": 42,
                        "velocity": 64
                    },
                    {
                        "start": 116.35416666666666,
                        "end": 116.36979166666666,
                        "pitch": 42,
                        "velocity": 64
                    },
                    {
                        "start": 116.453125,
                        "end": 116.47395833333333,
                        "pitch": 42,
                        "velocity": 64
                    },
                    {
                        "start": 116.5625,
                        "end": 116.58333333333333,
                        "pitch": 42,
                        "velocity": 64
                    },
                    {
                        "start": 116.66666666666666,
                        "end": 116.6875,
                        "pitch": 42,
                        "velocity": 64
                    },
                    {
                        "start": 116.77083333333333,
                        "end": 116.79166666666666,
                        "pitch": 42,
                        "velocity": 64
                    },
                    {
                        "start": 116.875,
                        "end": 116.89583333333333,
                        "pitch": 42,
                        "velocity": 64
                    },
                    {
                        "start": 116.97916666666666,
                        "end": 117.0,
                        "pitch": 42,
                        "velocity": 64
                    },
                    {
                        "start": 117.08333333333333,
                        "end": 117.10416666666666,
                        "pitch": 42,
                        "velocity": 64
                    },
                    {
                        "start": 117.1875,
                        "end": 117.20833333333333,
                        "pitch": 42,
                        "velocity": 64
                    },
                    {
                        "start": 117.29166666666666,
                        "end": 117.3125,
                        "pitch": 42,
                        "velocity": 64
                    },
                    {
                        "start": 117.40104166666666,
                        "end": 117.421875,
                        "pitch": 42,
                        "velocity": 64
                    },
                    {
                        "start": 117.5,
                        "end": 117.52083333333333,
                        "pitch": 42,
                        "velocity": 64
                    },
                    {
                        "start": 117.609375,
                        "end": 117.63020833333333,
                        "pitch": 42,
                        "velocity": 64
                    },
                    {
                        "start": 117.70833333333333,
                        "end": 117.72916666666666,
                        "pitch": 42,
                        "velocity": 64
                    },
                    {
                        "start": 117.81770833333333,
                        "end": 117.83854166666666,
                        "pitch": 42,
                        "velocity": 64
                    },
                    {
                        "start": 117.921875,
                        "end": 117.94270833333333,
                        "pitch": 42,
                        "velocity": 64
                    },
                    {
                        "start": 118.02604166666666,
                        "end": 118.04166666666666,
                        "pitch": 42,
                        "velocity": 64
                    },
                    {
                        "start": 118.125,
                        "end": 118.14583333333333,
                        "pitch": 42,
                        "velocity": 64
                    },
                    {
                        "start": 118.234375,
                        "end": 118.25520833333333,
                        "pitch": 42,
                        "velocity": 64
                    },
                    {
                        "start": 118.33854166666666,
                        "end": 118.46354166666666,
                        "pitch": 42,
                        "velocity": 64
                    },
                    {
                        "start": 118.44270833333333,
                        "end": 118.46354166666666,
                        "pitch": 42,
                        "velocity": 64
                    },
                    {
                        "start": 118.546875,
                        "end": 118.56770833333333,
                        "pitch": 42,
                        "velocity": 64
                    },
                    {
                        "start": 118.65104166666666,
                        "end": 118.671875,
                        "pitch": 42,
                        "velocity": 64
                    },
                    {
                        "start": 118.75520833333333,
                        "end": 118.77604166666666,
                        "pitch": 42,
                        "velocity": 64
                    },
                    {
                        "start": 118.86458333333333,
                        "end": 118.88020833333333,
                        "pitch": 42,
                        "velocity": 64
                    },
                    {
                        "start": 118.96354166666666,
                        "end": 118.984375,
                        "pitch": 42,
                        "velocity": 64
                    },
                    {
                        "start": 119.07291666666666,
                        "end": 119.09375,
                        "pitch": 42,
                        "velocity": 64
                    },
                    {
                        "start": 119.171875,
                        "end": 119.19270833333333,
                        "pitch": 42,
                        "velocity": 64
                    },
                    {
                        "start": 119.28125,
                        "end": 119.296875,
                        "pitch": 42,
                        "velocity": 64
                    },
                    {
                        "start": 119.38541666666666,
                        "end": 119.40625,
                        "pitch": 42,
                        "velocity": 64
                    },
                    {
                        "start": 119.48958333333333,
                        "end": 119.51041666666666,
                        "pitch": 42,
                        "velocity": 64
                    },
                    {
                        "start": 119.58854166666666,
                        "end": 119.609375,
                        "pitch": 42,
                        "velocity": 64
                    },
                    {
                        "start": 119.703125,
                        "end": 119.72395833333333,
                        "pitch": 42,
                        "velocity": 64
                    },
                    {
                        "start": 119.80208333333333,
                        "end": 119.92708333333333,
                        "pitch": 42,
                        "velocity": 64
                    }
                ],
                "pitch_classes": [
                    0,
                    0,
                    0,
                    0,
                    0,
                    0,
                    187,
                    0,
                    0,
                    0,
                    0,
                    0
                ],
                "velocity_mean": 64.0,
                "pitch_mean": 42.0,
                "pitch_std": 0.0,
                "duration_mean": 0.023813502673796717,
                "song_name": "No_Limit.mid",
                "tempo": 244.97873448485257,
                "time_signature": "4/4",
                "key": "C#-1",
                "maj_min": "major"
            }
        ],
        [
            {
                "instrument_no": 9,
                "instrument_category": "Piano",
                "program": 4,
                "is_drum": false,
                "section_start": 190.9112356918377,
                "section_end": 208.90234605729165,
                "notes": [
                    {
                        "start": 191.28254723958332,
                        "end": 191.45641910416666,
                        "pitch": 58,
                        "velocity": 84
                    },
                    {
                        "start": 191.28254723958332,
                        "end": 191.45641910416666,
                        "pitch": 60,
                        "velocity": 78
                    },
                    {
                        "start": 191.28254723958332,
                        "end": 191.45641910416666,
                        "pitch": 63,
                        "velocity": 79
                    },
                    {
                        "start": 191.28254723958332,
                        "end": 191.45641910416666,
                        "pitch": 67,
                        "velocity": 80
                    },
                    {
                        "start": 198.50057923958332,
                        "end": 198.67445110416665,
                        "pitch": 58,
                        "velocity": 84
                    },
                    {
                        "start": 198.50057923958332,
                        "end": 198.67445110416665,
                        "pitch": 60,
                        "velocity": 78
                    },
                    {
                        "start": 198.50057923958332,
                        "end": 198.67445110416665,
                        "pitch": 63,
                        "velocity": 79
                    },
                    {
                        "start": 198.50057923958332,
                        "end": 198.67445110416665,
                        "pitch": 67,
                        "velocity": 80
                    }
                ],
                "pitch_classes": [
                    2,
                    0,
                    0,
                    2,
                    0,
                    0,
                    0,
                    2,
                    0,
                    0,
                    2,
                    0
                ],
                "velocity_mean": 80.25,
                "pitch_mean": 62.0,
                "pitch_std": 3.391164991562634,
                "duration_mean": 0.17387186458333304,
                "song_name": "No_One.1.mid",
                "tempo": 266.7984300300236,
                "time_signature": "4/4",
                "key": "C-1",
                "maj_min": "minor"
            }
        ],
        [
            {
                "instrument_no": 0,
                "instrument_category": "Guitar",
                "program": 30,
                "is_drum": false,
                "section_start": 116.57418273809523,
                "section_end": 141.30759226190477,
                "notes": [
                    {
                        "start": 117.29446333333333,
                        "end": 117.49035833333332,
                        "pitch": 57,
                        "velocity": 82
                    },
                    {
                        "start": 117.50901499999999,
                        "end": 118.05005833333333,
                        "pitch": 57,
                        "velocity": 78
                    },
                    {
                        "start": 117.96610333333332,
                        "end": 118.13401333333333,
                        "pitch": 56,
                        "velocity": 72
                    },
                    {
                        "start": 118.09669999999998,
                        "end": 118.23662499999999,
                        "pitch": 55,
                        "velocity": 65
                    },
                    {
                        "start": 118.18998333333333,
                        "end": 119.11348833333332,
                        "pitch": 54,
                        "velocity": 82
                    },
                    {
                        "start": 119.11348833333332,
                        "end": 119.31871166666666,
                        "pitch": 52,
                        "velocity": 84
                    },
                    {
                        "start": 119.29072666666666,
                        "end": 119.83176999999999,
                        "pitch": 54,
                        "velocity": 72
                    },
                    {
                        "start": 119.77579999999999,
                        "end": 120.21423166666666,
                        "pitch": 57,
                        "velocity": 82
                    },
                    {
                        "start": 120.19557499999999,
                        "end": 120.66199166666665,
                        "pitch": 54,
                        "velocity": 66
                    },
                    {
                        "start": 120.65266333333332,
                        "end": 121.091095,
                        "pitch": 52,
                        "velocity": 84
                    },
                    {
                        "start": 121.10042333333332,
                        "end": 121.33363166666666,
                        "pitch": 54,
                        "velocity": 72
                    },
                    {
                        "start": 121.32430333333332,
                        "end": 121.52952666666665,
                        "pitch": 57,
                        "velocity": 82
                    },
                    {
                        "start": 121.52952666666665,
                        "end": 121.80937666666665,
                        "pitch": 54,
                        "velocity": 75
                    },
                    {
                        "start": 121.78139166666665,
                        "end": 124.17877333333333,
                        "pitch": 57,
                        "velocity": 82
                    },
                    {
                        "start": 124.20675833333333,
                        "end": 124.46795166666665,
                        "pitch": 57,
                        "velocity": 64
                    },
                    {
                        "start": 124.44929499999999,
                        "end": 124.65451833333333,
                        "pitch": 62,
                        "velocity": 82
                    },
                    {
                        "start": 124.64518999999999,
                        "end": 124.91571166666665,
                        "pitch": 57,
                        "velocity": 64
                    },
                    {
                        "start": 124.90638333333332,
                        "end": 125.13959166666666,
                        "pitch": 60,
                        "velocity": 78
                    },
                    {
                        "start": 125.12093499999999,
                        "end": 125.38212833333333,
                        "pitch": 61,
                        "velocity": 56
                    },
                    {
                        "start": 124.91571166666665,
                        "end": 125.40078499999998,
                        "pitch": 64,
                        "velocity": 73
                    },
                    {
                        "start": 125.33548666666665,
                        "end": 127.48100333333332,
                        "pitch": 57,
                        "velocity": 82
                    },
                    {
                        "start": 127.51831666666665,
                        "end": 127.63958499999998,
                        "pitch": 51,
                        "velocity": 53
                    },
                    {
                        "start": 127.583615,
                        "end": 127.77018166666666,
                        "pitch": 50,
                        "velocity": 67
                    },
                    {
                        "start": 127.81682333333332,
                        "end": 128.23659833333332,
                        "pitch": 52,
                        "velocity": 84
                    },
                    {
                        "start": 128.26458333333332,
                        "end": 128.45114999999998,
                        "pitch": 50,
                        "velocity": 79
                    },
                    {
                        "start": 128.46980666666664,
                        "end": 128.7683133333333,
                        "pitch": 52,
                        "velocity": 78
                    },
                    {
                        "start": 128.926895,
                        "end": 131.37091833333332,
                        "pitch": 45,
                        "velocity": 55
                    },
                    {
                        "start": 128.94555166666666,
                        "end": 131.49218666666667,
                        "pitch": 52,
                        "velocity": 61
                    },
                    {
                        "start": 128.93622333333332,
                        "end": 131.52017166666667,
                        "pitch": 57,
                        "velocity": 82
                    },
                    {
                        "start": 131.62278333333333,
                        "end": 131.8186783333333,
                        "pitch": 57,
                        "velocity": 82
                    },
                    {
                        "start": 131.837335,
                        "end": 132.37837833333333,
                        "pitch": 57,
                        "velocity": 78
                    },
                    {
                        "start": 132.29442333333333,
                        "end": 132.46233333333333,
                        "pitch": 56,
                        "velocity": 72
                    },
                    {
                        "start": 132.42502,
                        "end": 132.564945,
                        "pitch": 55,
                        "velocity": 65
                    },
                    {
                        "start": 132.51830333333334,
                        "end": 133.4418083333333,
                        "pitch": 54,
                        "velocity": 82
                    },
                    {
                        "start": 133.4418083333333,
                        "end": 133.64703166666666,
                        "pitch": 52,
                        "velocity": 84
                    },
                    {
                        "start": 133.61904666666666,
                        "end": 134.16009,
                        "pitch": 54,
                        "velocity": 72
                    },
                    {
                        "start": 134.10412,
                        "end": 134.54255166666667,
                        "pitch": 57,
                        "velocity": 82
                    },
                    {
                        "start": 134.52389499999998,
                        "end": 134.99031166666666,
                        "pitch": 54,
                        "velocity": 66
                    },
                    {
                        "start": 134.9809833333333,
                        "end": 135.419415,
                        "pitch": 52,
                        "velocity": 84
                    },
                    {
                        "start": 135.42874333333333,
                        "end": 135.66195166666665,
                        "pitch": 54,
                        "velocity": 72
                    },
                    {
                        "start": 135.6526233333333,
                        "end": 135.85784666666666,
                        "pitch": 57,
                        "velocity": 82
                    },
                    {
                        "start": 135.85784666666666,
                        "end": 136.13769666666664,
                        "pitch": 54,
                        "velocity": 75
                    },
                    {
                        "start": 136.10971166666667,
                        "end": 138.51642166666664,
                        "pitch": 57,
                        "velocity": 82
                    },
                    {
                        "start": 138.76828666666665,
                        "end": 139.02015166666666,
                        "pitch": 52,
                        "velocity": 82
                    },
                    {
                        "start": 138.99216666666666,
                        "end": 139.16940499999998,
                        "pitch": 54,
                        "velocity": 75
                    },
                    {
                        "start": 139.20671833333333,
                        "end": 139.449255,
                        "pitch": 57,
                        "velocity": 78
                    },
                    {
                        "start": 139.43059833333334,
                        "end": 139.68246333333332,
                        "pitch": 54,
                        "velocity": 69
                    },
                    {
                        "start": 139.66380666666666,
                        "end": 141.8093233333333,
                        "pitch": 57,
                        "velocity": 82
                    }
                ],
                "pitch_classes": [
                    1,
                    1,
                    3,
                    1,
                    9,
                    0,
                    12,
                    2,
                    2,
                    17,
                    0,
                    0
                ],
                "velocity_mean": 75.0,
                "pitch_mean": 55.020833333333336,
                "pitch_std": 3.2499332258097584,
                "duration_mean": 0.6265530555555548,
                "song_name": "Whats_Up.3.mid",
                "tempo": 194.06948303586273,
                "time_signature": "4/4",
                "key": "D-1",
                "maj_min": "major"
            }
        ],
        [
            {
                "instrument_no": 0,
                "instrument_category": "Bass",
                "program": 35,
                "is_drum": false,
                "section_start": 101.31356585320275,
                "section_end": 118.83117189679724,
                "notes": [
                    {
                        "start": 115.34031599999999,
                        "end": 115.617576375,
                        "pitch": 68,
                        "velocity": 90
                    },
                    {
                        "start": 115.34031599999999,
                        "end": 115.617576375,
                        "pitch": 63,
                        "velocity": 70
                    },
                    {
                        "start": 115.75840704166666,
                        "end": 116.08407795833332,
                        "pitch": 68,
                        "velocity": 91
                    },
                    {
                        "start": 115.75840704166666,
                        "end": 116.08407795833332,
                        "pitch": 63,
                        "velocity": 71
                    },
                    {
                        "start": 116.18970095833333,
                        "end": 116.25571533333333,
                        "pitch": 66,
                        "velocity": 69
                    },
                    {
                        "start": 116.18970095833333,
                        "end": 116.25571533333333,
                        "pitch": 61,
                        "velocity": 49
                    },
                    {
                        "start": 116.396546,
                        "end": 116.70461308333333,
                        "pitch": 68,
                        "velocity": 93
                    },
                    {
                        "start": 116.396546,
                        "end": 116.70461308333333,
                        "pitch": 63,
                        "velocity": 73
                    },
                    {
                        "start": 116.81903799999999,
                        "end": 117.15351083333333,
                        "pitch": 71,
                        "velocity": 90
                    },
                    {
                        "start": 116.81903799999999,
                        "end": 117.15351083333333,
                        "pitch": 65,
                        "velocity": 70
                    },
                    {
                        "start": 118.08211304166666,
                        "end": 118.15692933333332,
                        "pitch": 66,
                        "velocity": 69
                    },
                    {
                        "start": 118.08211304166666,
                        "end": 118.15692933333332,
                        "pitch": 61,
                        "velocity": 49
                    },
                    {
                        "start": 118.29335904166666,
                        "end": 118.55301558333333,
                        "pitch": 68,
                        "velocity": 90
                    },
                    {
                        "start": 118.29335904166666,
                        "end": 118.55301558333333,
                        "pitch": 63,
                        "velocity": 70
                    },
                    {
                        "start": 118.71585104166667,
                        "end": 118.99311141666666,
                        "pitch": 68,
                        "velocity": 93
                    },
                    {
                        "start": 118.71585104166667,
                        "end": 118.99311141666666,
                        "pitch": 63,
                        "velocity": 73
                    }
                ],
                "pitch_classes": [
                    0,
                    2,
                    0,
                    5,
                    0,
                    1,
                    2,
                    0,
                    5,
                    0,
                    0,
                    1
                ],
                "velocity_mean": 75.625,
                "pitch_mean": 65.3125,
                "pitch_std": 2.8878787630369804,
                "duration_mean": 0.2404023489583338,
                "song_name": "Let_the_Beat_Control_Your_Body.2.mid",
                "tempo": 274.01004384130283,
                "time_signature": "4/4",
                "key": "D#-1",
                "maj_min": "minor"
            }
        ],
        [
            {
                "instrument_no": 8,
                "instrument_category": "Other",
                "program": 48,
                "is_drum": false,
                "section_start": 0.0,
                "section_end": 17.517606043594498,
                "notes": [],
                "pitch_classes": [
                    0,
                    0,
                    0,
                    0,
                    0,
                    0,
                    0,
                    0,
                    0,
                    0,
                    0,
                    0
                ],
                "velocity_mean": 0,
                "pitch_mean": 0,
                "pitch_std": 0,
                "duration_mean": 0,
                "song_name": "Let_the_Beat_Control_Your_Body.2.mid",
                "tempo": 274.01004384130283,
                "time_signature": "4/4",
                "key": "None",
                "maj_min": ""
            }
        ]
    ]
]
