{
    "A_Campfire_Song.mid_0.0_22.222200000000022": {
        "instrument_no": 4,
        "instrument_category": "Other",
        "program": 40,
        "is_drum": false,
        "section_start": 0.0,
        "section_end": 22.222200000000022,
        "notes": [
            {
                "start": 0.0,
                "end": 0.296296,
                "pitch": 78,
                "velocity": 127
            },
            {
                "start": 0.0,
                "end": 0.296296,
                "pitch": 74,
                "velocity": 127
            },
            {
                "start": 0.0,
                "end": 0.296296,
                "pitch": 69,
                "velocity": 127
            },
            {
                "start": 0.444444,
                "end": 0.592592,
                "pitch": 76,
                "velocity": 127
            },
            {
                "start": 0.444444,
                "end": 0.592592,
                "pitch": 69,
                "velocity": 127
            },
            {
                "start": 0.666666,
                "end": 0.814814,
                "pitch": 74,
                "velocity": 127
            },
            {
                "start": 0.666666,
                "end": 0.814814,
                "pitch": 71,
                "velocity": 127
            },
            {
                "start": 0.666666,
                "end": 0.814814,
                "pitch": 66,
                "velocity": 127
            },
            {
                "start": 1.11111,
                "end": 1.407406,
                "pitch": 69,
                "velocity": 127
            },
            {
                "start": 1.11111,
                "end": 1.407406,
                "pitch": 64,
                "velocity": 127
            },
            {
                "start": 1.11111,
                "end": 1.555554,
                "pitch": 73,
                "velocity": 127
            },
            {
                "start": 1.555554,
                "end": 2.666664,
                "pitch": 62,
                "velocity": 127
            },
            {
                "start": 1.555554,
                "end": 2.666664,
                "pitch": 71,
                "velocity": 127
            },
            {
                "start": 3.111108,
                "end": 3.407404,
                "pitch": 73,
                "velocity": 127
            },
            {
                "start": 3.111108,
                "end": 3.407404,
                "pitch": 64,
                "velocity": 127
            }
        ],
        "pitch_classes": [
            0,
            2,
            3,
            0,
            3,
            0,
            2,
            0,
            0,
            3,
            0,
            2
        ],
        "velocity_mean": 127.0,
        "pitch_mean": 70.2,
        "pitch_std": 4.519587001780878,
        "duration_mean": 0.36543173333333334,
        "song_name": "A_Campfire_Song.mid",
        "tempo": 216.00021600021577,
        "time_signature": "4/4",
        "key": "D",
        "camelot_key": "10B",
        "maj_min": "major"
    },
    "A_Campfire_Song.mid_77.33325599999999_99.55545600000002": {
        "instrument_no": 4,
        "instrument_category": "Other",
        "program": 40,
        "is_drum": false,
        "section_start": 77.33325599999999,
        "section_end": 99.55545600000002,
        "notes": [
            {
                "start": 97.77768,
                "end": 97.925828,
                "pitch": 62,
                "velocity": 100
            },
            {
                "start": 97.999902,
                "end": 98.14805,
                "pitch": 66,
                "velocity": 100
            },
            {
                "start": 97.77768,
                "end": 98.22212400000001,
                "pitch": 59,
                "velocity": 100
            },
            {
                "start": 98.22212400000001,
                "end": 98.370272,
                "pitch": 69,
                "velocity": 100
            },
            {
                "start": 98.444346,
                "end": 99.036938,
                "pitch": 69,
                "velocity": 100
            },
            {
                "start": 98.444346,
                "end": 99.036938,
                "pitch": 64,
                "velocity": 100
            },
            {
                "start": 98.444346,
                "end": 99.036938,
                "pitch": 61,
                "velocity": 100
            },
            {
                "start": 99.333234,
                "end": 99.481382,
                "pitch": 66,
                "velocity": 100
            },
            {
                "start": 99.555456,
                "end": 99.703604,
                "pitch": 69,
                "velocity": 100
            },
            {
                "start": 99.555456,
                "end": 99.703604,
                "pitch": 66,
                "velocity": 100
            },
            {
                "start": 99.555456,
                "end": 99.703604,
                "pitch": 59,
                "velocity": 100
            }
        ],
        "pitch_classes": [
            0,
            1,
            1,
            0,
            1,
            0,
            3,
            0,
            0,
            3,
            0,
            2
        ],
        "velocity_mean": 100.0,
        "pitch_mean": 64.54545454545455,
        "pitch_std": 3.6522380775637573,
        "duration_mean": 0.2962959999999981,
        "song_name": "A_Campfire_Song.mid",
        "tempo": 216.00021600021577,
        "time_signature": "4/4",
        "key": "D",
        "camelot_key": "10B",
        "maj_min": "major"
    },
    "A_Campfire_Song.mid_154.66651199999998_176.888712": {
        "instrument_no": 0,
        "instrument_category": "Other",
        "program": 16,
        "is_drum": false,
        "section_start": 154.66651199999998,
        "section_end": 176.888712,
        "notes": [
            {
                "start": 154.666512,
                "end": 154.962808,
                "pitch": 67,
                "velocity": 100
            },
            {
                "start": 154.666512,
                "end": 155.11095600000002,
                "pitch": 66,
                "velocity": 100
            },
            {
                "start": 154.666512,
                "end": 155.11095600000002,
                "pitch": 62,
                "velocity": 100
            },
            {
                "start": 155.11095600000002,
                "end": 155.407252,
                "pitch": 69,
                "velocity": 100
            },
            {
                "start": 155.333178,
                "end": 155.703548,
                "pitch": 64,
                "velocity": 100
            },
            {
                "start": 155.5554,
                "end": 155.703548,
                "pitch": 64,
                "velocity": 100
            },
            {
                "start": 155.333178,
                "end": 155.703548,
                "pitch": 61,
                "velocity": 100
            },
            {
                "start": 155.5554,
                "end": 155.703548,
                "pitch": 61,
                "velocity": 100
            },
            {
                "start": 155.5554,
                "end": 155.703548,
                "pitch": 69,
                "velocity": 100
            },
            {
                "start": 155.777622,
                "end": 155.92577,
                "pitch": 67,
                "velocity": 100
            },
            {
                "start": 155.999844,
                "end": 156.147992,
                "pitch": 66,
                "velocity": 100
            },
            {
                "start": 156.222066,
                "end": 156.740584,
                "pitch": 59,
                "velocity": 100
            },
            {
                "start": 156.222066,
                "end": 156.740584,
                "pitch": 62,
                "velocity": 100
            },
            {
                "start": 156.222066,
                "end": 156.740584,
                "pitch": 67,
                "velocity": 100
            },
            {
                "start": 156.888732,
                "end": 157.185028,
                "pitch": 67,
                "velocity": 100
            },
            {
                "start": 156.888732,
                "end": 157.185028,
                "pitch": 62,
                "velocity": 100
            },
            {
                "start": 156.888732,
                "end": 157.185028,
                "pitch": 59,
                "velocity": 100
            },
            {
                "start": 157.333176,
                "end": 157.481324,
                "pitch": 67,
                "velocity": 100
            },
            {
                "start": 157.333176,
                "end": 157.481324,
                "pitch": 62,
                "velocity": 100
            },
            {
                "start": 157.333176,
                "end": 157.481324,
                "pitch": 59,
                "velocity": 100
            },
            {
                "start": 157.555398,
                "end": 157.703546,
                "pitch": 69,
                "velocity": 100
            },
            {
                "start": 157.77762,
                "end": 157.925768,
                "pitch": 67,
                "velocity": 100
            },
            {
                "start": 157.77762,
                "end": 157.925768,
                "pitch": 62,
                "velocity": 100
            },
            {
                "start": 157.77762,
                "end": 157.925768,
                "pitch": 59,
                "velocity": 100
            },
            {
                "start": 157.999842,
                "end": 158.370212,
                "pitch": 57,
                "velocity": 100
            },
            {
                "start": 157.999842,
                "end": 158.370212,
                "pitch": 62,
                "velocity": 100
            },
            {
                "start": 157.999842,
                "end": 158.370212,
                "pitch": 66,
                "velocity": 100
            },
            {
                "start": 158.444286,
                "end": 158.88873,
                "pitch": 62,
                "velocity": 100
            },
            {
                "start": 158.444286,
                "end": 158.88873,
                "pitch": 57,
                "velocity": 100
            },
            {
                "start": 159.110952,
                "end": 159.2591,
                "pitch": 64,
                "velocity": 100
            },
            {
                "start": 159.110952,
                "end": 159.2591,
                "pitch": 57,
                "velocity": 100
            },
            {
                "start": 159.333174,
                "end": 159.481322,
                "pitch": 66,
                "velocity": 100
            },
            {
                "start": 159.555396,
                "end": 159.703544,
                "pitch": 62,
                "velocity": 100
            },
            {
                "start": 159.777618,
                "end": 160.592432,
                "pitch": 59,
                "velocity": 100
            },
            {
                "start": 160.88872800000001,
                "end": 161.036876,
                "pitch": 62,
                "velocity": 100
            },
            {
                "start": 160.88872800000001,
                "end": 161.036876,
                "pitch": 59,
                "velocity": 100
            },
            {
                "start": 161.11095,
                "end": 161.259098,
                "pitch": 64,
                "velocity": 100
            },
            {
                "start": 161.333172,
                "end": 161.629468,
                "pitch": 66,
                "velocity": 100
            },
            {
                "start": 161.333172,
                "end": 161.629468,
                "pitch": 62,
                "velocity": 100
            },
            {
                "start": 161.333172,
                "end": 161.629468,
                "pitch": 59,
                "velocity": 100
            },
            {
                "start": 161.777616,
                "end": 162.073912,
                "pitch": 67,
                "velocity": 100
            },
            {
                "start": 161.777616,
                "end": 162.073912,
                "pitch": 62,
                "velocity": 100
            },
            {
                "start": 161.777616,
                "end": 162.073912,
                "pitch": 59,
                "velocity": 100
            },
            {
                "start": 162.22206,
                "end": 162.370208,
                "pitch": 66,
                "velocity": 100
            },
            {
                "start": 162.44428200000002,
                "end": 162.59243,
                "pitch": 66,
                "velocity": 100
            },
            {
                "start": 162.44428200000002,
                "end": 162.740578,
                "pitch": 61,
                "velocity": 100
            },
            {
                "start": 162.666504,
                "end": 162.740578,
                "pitch": 61,
                "velocity": 100
            },
            {
                "start": 162.44428200000002,
                "end": 162.740578,
                "pitch": 57,
                "velocity": 100
            },
            {
                "start": 162.666504,
                "end": 162.740578,
                "pitch": 57,
                "velocity": 100
            },
            {
                "start": 162.666504,
                "end": 163.259096,
                "pitch": 66,
                "velocity": 100
            },
            {
                "start": 163.555392,
                "end": 163.851688,
                "pitch": 67,
                "velocity": 100
            },
            {
                "start": 163.555392,
                "end": 163.851688,
                "pitch": 62,
                "velocity": 100
            },
            {
                "start": 163.555392,
                "end": 163.851688,
                "pitch": 59,
                "velocity": 100
            },
            {
                "start": 163.99983600000002,
                "end": 164.296132,
                "pitch": 67,
                "velocity": 100
            },
            {
                "start": 163.99983600000002,
                "end": 164.296132,
                "pitch": 62,
                "velocity": 100
            },
            {
                "start": 163.99983600000002,
                "end": 164.296132,
                "pitch": 59,
                "velocity": 100
            },
            {
                "start": 164.44428,
                "end": 164.592428,
                "pitch": 67,
                "velocity": 100
            },
            {
                "start": 164.44428,
                "end": 164.592428,
                "pitch": 62,
                "velocity": 100
            },
            {
                "start": 164.44428,
                "end": 164.592428,
                "pitch": 59,
                "velocity": 100
            },
            {
                "start": 164.666502,
                "end": 165.110946,
                "pitch": 69,
                "velocity": 100
            },
            {
                "start": 164.666502,
                "end": 165.110946,
                "pitch": 62,
                "velocity": 100
            },
            {
                "start": 164.666502,
                "end": 165.110946,
                "pitch": 59,
                "velocity": 100
            },
            {
                "start": 165.333168,
                "end": 165.481316,
                "pitch": 71,
                "velocity": 100
            },
            {
                "start": 165.333168,
                "end": 165.629464,
                "pitch": 66,
                "velocity": 100
            },
            {
                "start": 165.55539,
                "end": 165.629464,
                "pitch": 66,
                "velocity": 100
            },
            {
                "start": 165.333168,
                "end": 165.629464,
                "pitch": 62,
                "velocity": 100
            },
            {
                "start": 165.55539,
                "end": 165.629464,
                "pitch": 62,
                "velocity": 100
            },
            {
                "start": 165.55539,
                "end": 165.851686,
                "pitch": 69,
                "velocity": 100
            },
            {
                "start": 165.999834,
                "end": 166.29613,
                "pitch": 64,
                "velocity": 100
            },
            {
                "start": 165.999834,
                "end": 166.29613,
                "pitch": 57,
                "velocity": 100
            },
            {
                "start": 166.444278,
                "end": 166.888722,
                "pitch": 62,
                "velocity": 100
            },
            {
                "start": 166.444278,
                "end": 166.888722,
                "pitch": 57,
                "velocity": 100
            },
            {
                "start": 167.999832,
                "end": 168.14798,
                "pitch": 62,
                "velocity": 100
            },
            {
                "start": 167.999832,
                "end": 168.14798,
                "pitch": 59,
                "velocity": 100
            },
            {
                "start": 168.222054,
                "end": 168.370202,
                "pitch": 64,
                "velocity": 100
            },
            {
                "start": 168.222054,
                "end": 168.370202,
                "pitch": 59,
                "velocity": 100
            },
            {
                "start": 168.444276,
                "end": 168.74057200000001,
                "pitch": 66,
                "velocity": 100
            },
            {
                "start": 168.444276,
                "end": 168.74057200000001,
                "pitch": 62,
                "velocity": 100
            },
            {
                "start": 168.444276,
                "end": 168.74057200000001,
                "pitch": 59,
                "velocity": 100
            },
            {
                "start": 168.88872,
                "end": 169.036868,
                "pitch": 67,
                "velocity": 100
            },
            {
                "start": 168.88872,
                "end": 169.036868,
                "pitch": 62,
                "velocity": 100
            },
            {
                "start": 168.88872,
                "end": 169.036868,
                "pitch": 59,
                "velocity": 100
            },
            {
                "start": 169.110942,
                "end": 169.407238,
                "pitch": 66,
                "velocity": 100
            },
            {
                "start": 169.110942,
                "end": 169.407238,
                "pitch": 62,
                "velocity": 100
            },
            {
                "start": 169.110942,
                "end": 169.407238,
                "pitch": 59,
                "velocity": 100
            },
            {
                "start": 169.555386,
                "end": 169.851682,
                "pitch": 64,
                "velocity": 100
            },
            {
                "start": 169.555386,
                "end": 169.851682,
                "pitch": 57,
                "velocity": 100
            },
            {
                "start": 169.99983,
                "end": 170.444274,
                "pitch": 66,
                "velocity": 100
            },
            {
                "start": 169.99983,
                "end": 170.444274,
                "pitch": 62,
                "velocity": 100
            },
            {
                "start": 169.99983,
                "end": 170.444274,
                "pitch": 57,
                "velocity": 100
            },
            {
                "start": 170.666496,
                "end": 170.962792,
                "pitch": 62,
                "velocity": 100
            },
            {
                "start": 171.11094,
                "end": 171.259088,
                "pitch": 61,
                "velocity": 100
            },
            {
                "start": 171.33316200000002,
                "end": 171.777606,
                "pitch": 62,
                "velocity": 100
            },
            {
                "start": 171.33316200000002,
                "end": 171.777606,
                "pitch": 57,
                "velocity": 100
            },
            {
                "start": 171.999828,
                "end": 172.296124,
                "pitch": 61,
                "velocity": 100
            },
            {
                "start": 171.999828,
                "end": 172.296124,
                "pitch": 57,
                "velocity": 100
            },
            {
                "start": 172.444272,
                "end": 172.740568,
                "pitch": 62,
                "velocity": 100
            },
            {
                "start": 172.444272,
                "end": 172.740568,
                "pitch": 59,
                "velocity": 100
            },
            {
                "start": 172.888716,
                "end": 173.185012,
                "pitch": 61,
                "velocity": 100
            },
            {
                "start": 172.888716,
                "end": 173.185012,
                "pitch": 57,
                "velocity": 100
            },
            {
                "start": 173.33316,
                "end": 173.629456,
                "pitch": 62,
                "velocity": 100
            },
            {
                "start": 173.33316,
                "end": 173.629456,
                "pitch": 55,
                "velocity": 100
            },
            {
                "start": 173.777604,
                "end": 174.0739,
                "pitch": 61,
                "velocity": 100
            },
            {
                "start": 173.777604,
                "end": 174.0739,
                "pitch": 57,
                "velocity": 100
            },
            {
                "start": 174.222048,
                "end": 176.888712,
                "pitch": 57,
                "velocity": 100
            },
            {
                "start": 174.222048,
                "end": 176.888712,
                "pitch": 62,
                "velocity": 100
            },
            {
                "start": 175.999824,
                "end": 176.888712,
                "pitch": 78,
                "velocity": 100
            },
            {
                "start": 175.999824,
                "end": 176.888712,
                "pitch": 74,
                "velocity": 100
            },
            {
                "start": 175.999824,
                "end": 176.888712,
                "pitch": 69,
                "velocity": 100
            }
        ],
        "pitch_classes": [
            0,
            8,
            29,
            0,
            7,
            0,
            14,
            12,
            0,
            20,
            0,
            19
        ],
        "velocity_mean": 100.0,
        "pitch_mean": 62.559633027522935,
        "pitch_std": 4.087194575544297,
        "duration_mean": 0.33910941284403734,
        "song_name": "A_Campfire_Song.mid",
        "tempo": 216.00021600021577,
        "time_signature": "4/4",
        "key": "D",
        "camelot_key": "10B",
        "maj_min": "major"
    },
    "Whats_Up.4.mid_0.0_20.952360000000052": {
        "instrument_no": 0,
        "instrument_category": "Guitar",
        "program": 25,
        "is_drum": false,
        "section_start": 0.0,
        "section_end": 20.952360000000052,
        "notes": [
            {
                "start": 0.0,
                "end": 0.5142852000000001,
                "pitch": 66,
                "velocity": 82
            },
            {
                "start": 0.0,
                "end": 0.5357137500000001,
                "pitch": 70,
                "velocity": 57
            },
            {
                "start": 0.0,
                "end": 0.5428566,
                "pitch": 61,
                "velocity": 66
            },
            {
                "start": 0.0,
                "end": 0.571428,
                "pitch": 54,
                "velocity": 72
            },
            {
                "start": 0.8571420000000001,
                "end": 1.30714155,
                "pitch": 70,
                "velocity": 62
            },
            {
                "start": 0.8571420000000001,
                "end": 1.3571415000000002,
                "pitch": 61,
                "velocity": 64
            },
            {
                "start": 0.8571420000000001,
                "end": 1.3857129000000001,
                "pitch": 66,
                "velocity": 70
            },
            {
                "start": 0.8571420000000001,
                "end": 1.4214271500000002,
                "pitch": 54,
                "velocity": 72
            },
            {
                "start": 1.4999985000000002,
                "end": 1.8499981500000002,
                "pitch": 70,
                "velocity": 51
            },
            {
                "start": 1.4999985000000002,
                "end": 1.8571410000000002,
                "pitch": 61,
                "velocity": 43
            },
            {
                "start": 1.4999985000000002,
                "end": 1.8785695500000001,
                "pitch": 66,
                "velocity": 50
            },
            {
                "start": 1.7142840000000001,
                "end": 2.14999785,
                "pitch": 54,
                "velocity": 68
            },
            {
                "start": 1.9285695000000003,
                "end": 2.2285692000000004,
                "pitch": 70,
                "velocity": 52
            },
            {
                "start": 1.9285695000000003,
                "end": 2.2357120500000005,
                "pitch": 61,
                "velocity": 58
            },
            {
                "start": 1.9285695000000003,
                "end": 2.2499977500000004,
                "pitch": 66,
                "velocity": 68
            },
            {
                "start": 2.3571405000000003,
                "end": 2.6999973,
                "pitch": 70,
                "velocity": 46
            },
            {
                "start": 2.3571405000000003,
                "end": 2.72142585,
                "pitch": 66,
                "velocity": 57
            },
            {
                "start": 2.3571405000000003,
                "end": 2.72142585,
                "pitch": 61,
                "velocity": 42
            },
            {
                "start": 2.571426,
                "end": 2.7857115000000006,
                "pitch": 54,
                "velocity": 76
            },
            {
                "start": 2.7857115000000006,
                "end": 2.8999971,
                "pitch": 61,
                "velocity": 63
            },
            {
                "start": 2.7857115000000006,
                "end": 2.9071399500000004,
                "pitch": 70,
                "velocity": 57
            },
            {
                "start": 2.7857115000000006,
                "end": 3.1142826000000006,
                "pitch": 66,
                "velocity": 72
            },
            {
                "start": 2.9999970000000005,
                "end": 3.1214254500000003,
                "pitch": 61,
                "velocity": 58
            },
            {
                "start": 2.9999970000000005,
                "end": 3.1285683000000004,
                "pitch": 70,
                "velocity": 57
            },
            {
                "start": 3.4285680000000003,
                "end": 3.9642817500000005,
                "pitch": 68,
                "velocity": 64
            },
            {
                "start": 3.4285680000000003,
                "end": 3.9642817500000005,
                "pitch": 59,
                "velocity": 64
            },
            {
                "start": 3.4285680000000003,
                "end": 4.0071388500000005,
                "pitch": 56,
                "velocity": 68
            },
            {
                "start": 3.4285680000000003,
                "end": 4.014281700000001,
                "pitch": 63,
                "velocity": 64
            },
            {
                "start": 4.285710000000001,
                "end": 4.628566800000001,
                "pitch": 63,
                "velocity": 78
            },
            {
                "start": 4.285710000000001,
                "end": 4.635709650000001,
                "pitch": 68,
                "velocity": 59
            },
            {
                "start": 4.285710000000001,
                "end": 4.721423850000001,
                "pitch": 59,
                "velocity": 53
            },
            {
                "start": 4.285710000000001,
                "end": 4.87856655,
                "pitch": 56,
                "velocity": 66
            },
            {
                "start": 4.9285665000000005,
                "end": 5.0142807000000005,
                "pitch": 63,
                "velocity": 55
            },
            {
                "start": 4.9285665000000005,
                "end": 5.0571378000000005,
                "pitch": 59,
                "velocity": 57
            },
            {
                "start": 5.142852,
                "end": 5.378566050000001,
                "pitch": 68,
                "velocity": 60
            },
            {
                "start": 5.142852,
                "end": 5.392851750000001,
                "pitch": 63,
                "velocity": 85
            },
            {
                "start": 5.142852,
                "end": 5.557137300000001,
                "pitch": 59,
                "velocity": 10
            },
            {
                "start": 5.142852,
                "end": 5.6714229000000005,
                "pitch": 56,
                "velocity": 76
            },
            {
                "start": 5.785708500000001,
                "end": 6.0642796500000005,
                "pitch": 63,
                "velocity": 52
            },
            {
                "start": 5.785708500000001,
                "end": 6.0642796500000005,
                "pitch": 68,
                "velocity": 55
            },
            {
                "start": 5.785708500000001,
                "end": 6.071422500000001,
                "pitch": 59,
                "velocity": 34
            },
            {
                "start": 5.785708500000001,
                "end": 6.214279500000001,
                "pitch": 56,
                "velocity": 62
            },
            {
                "start": 6.214279500000001,
                "end": 6.3285651000000005,
                "pitch": 59,
                "velocity": 52
            },
            {
                "start": 6.214279500000001,
                "end": 6.349993650000001,
                "pitch": 63,
                "velocity": 53
            },
            {
                "start": 6.214279500000001,
                "end": 6.349993650000001,
                "pitch": 68,
                "velocity": 53
            },
            {
                "start": 6.428565000000001,
                "end": 6.535707750000001,
                "pitch": 59,
                "velocity": 60
            },
            {
                "start": 6.428565000000001,
                "end": 6.557136300000001,
                "pitch": 63,
                "velocity": 51
            },
            {
                "start": 6.428565000000001,
                "end": 6.564279150000001,
                "pitch": 68,
                "velocity": 55
            },
            {
                "start": 6.857136000000001,
                "end": 7.335706950000001,
                "pitch": 66,
                "velocity": 64
            },
            {
                "start": 6.857136000000001,
                "end": 7.335706950000001,
                "pitch": 63,
                "velocity": 64
            },
            {
                "start": 6.857136000000001,
                "end": 7.335706950000001,
                "pitch": 59,
                "velocity": 64
            },
            {
                "start": 6.857136000000001,
                "end": 7.385706900000001,
                "pitch": 54,
                "velocity": 68
            },
            {
                "start": 7.499992500000001,
                "end": 8.057134800000002,
                "pitch": 66,
                "velocity": 58
            },
            {
                "start": 7.714278000000001,
                "end": 8.264277450000002,
                "pitch": 63,
                "velocity": 52
            },
            {
                "start": 7.714278000000001,
                "end": 8.278563150000002,
                "pitch": 59,
                "velocity": 55
            },
            {
                "start": 8.3571345,
                "end": 9.164276550000002,
                "pitch": 66,
                "velocity": 55
            },
            {
                "start": 8.3571345,
                "end": 9.185705100000002,
                "pitch": 59,
                "velocity": 47
            },
            {
                "start": 8.3571345,
                "end": 9.185705100000002,
                "pitch": 63,
                "velocity": 48
            },
            {
                "start": 8.571420000000002,
                "end": 9.321419250000002,
                "pitch": 54,
                "velocity": 64
            },
            {
                "start": 9.2142765,
                "end": 9.571419,
                "pitch": 59,
                "velocity": 55
            },
            {
                "start": 9.2142765,
                "end": 9.571419,
                "pitch": 66,
                "velocity": 58
            },
            {
                "start": 9.2142765,
                "end": 9.571419,
                "pitch": 63,
                "velocity": 58
            },
            {
                "start": 9.642847500000002,
                "end": 9.7428474,
                "pitch": 59,
                "velocity": 34
            },
            {
                "start": 9.642847500000002,
                "end": 9.7571331,
                "pitch": 63,
                "velocity": 44
            },
            {
                "start": 9.642847500000002,
                "end": 9.785704500000001,
                "pitch": 66,
                "velocity": 55
            },
            {
                "start": 9.857133000000001,
                "end": 10.042847100000001,
                "pitch": 63,
                "velocity": 49
            },
            {
                "start": 9.857133000000001,
                "end": 10.042847100000001,
                "pitch": 59,
                "velocity": 47
            },
            {
                "start": 9.857133000000001,
                "end": 10.04998995,
                "pitch": 66,
                "velocity": 46
            },
            {
                "start": 10.285704,
                "end": 10.76427495,
                "pitch": 66,
                "velocity": 64
            },
            {
                "start": 10.285704,
                "end": 10.76427495,
                "pitch": 61,
                "velocity": 64
            },
            {
                "start": 10.285704,
                "end": 10.821417750000002,
                "pitch": 70,
                "velocity": 64
            },
            {
                "start": 10.285704,
                "end": 10.964274750000001,
                "pitch": 54,
                "velocity": 66
            },
            {
                "start": 11.142846000000002,
                "end": 11.264274450000002,
                "pitch": 70,
                "velocity": 47
            },
            {
                "start": 11.142846000000002,
                "end": 11.542845600000001,
                "pitch": 66,
                "velocity": 66
            },
            {
                "start": 11.142846000000002,
                "end": 11.578559850000001,
                "pitch": 61,
                "velocity": 59
            },
            {
                "start": 11.142846000000002,
                "end": 11.749988250000001,
                "pitch": 54,
                "velocity": 70
            },
            {
                "start": 11.785702500000001,
                "end": 12.057130800000001,
                "pitch": 66,
                "velocity": 52
            },
            {
                "start": 11.785702500000001,
                "end": 12.071416500000002,
                "pitch": 61,
                "velocity": 47
            },
            {
                "start": 11.785702500000001,
                "end": 12.071416500000002,
                "pitch": 70,
                "velocity": 45
            },
            {
                "start": 12.214273500000001,
                "end": 12.371416200000002,
                "pitch": 70,
                "velocity": 51
            },
            {
                "start": 11.999988000000002,
                "end": 12.371416200000002,
                "pitch": 54,
                "velocity": 68
            },
            {
                "start": 12.214273500000001,
                "end": 12.414273300000001,
                "pitch": 61,
                "velocity": 52
            },
            {
                "start": 12.214273500000001,
                "end": 12.421416150000002,
                "pitch": 66,
                "velocity": 60
            },
            {
                "start": 12.642844500000002,
                "end": 12.949987050000002,
                "pitch": 70,
                "velocity": 47
            },
            {
                "start": 12.642844500000002,
                "end": 12.971415600000002,
                "pitch": 66,
                "velocity": 60
            },
            {
                "start": 12.642844500000002,
                "end": 12.999987,
                "pitch": 61,
                "velocity": 42
            },
            {
                "start": 12.857130000000002,
                "end": 13.099986900000001,
                "pitch": 54,
                "velocity": 66
            },
            {
                "start": 13.071415500000002,
                "end": 13.164272550000002,
                "pitch": 70,
                "velocity": 47
            },
            {
                "start": 13.071415500000002,
                "end": 13.178558250000002,
                "pitch": 61,
                "velocity": 33
            },
            {
                "start": 13.071415500000002,
                "end": 13.221415350000001,
                "pitch": 66,
                "velocity": 66
            },
            {
                "start": 13.285701000000001,
                "end": 13.407129450000001,
                "pitch": 70,
                "velocity": 52
            },
            {
                "start": 13.285701000000001,
                "end": 13.414272300000002,
                "pitch": 61,
                "velocity": 53
            },
            {
                "start": 13.285701000000001,
                "end": 13.442843700000001,
                "pitch": 66,
                "velocity": 56
            },
            {
                "start": 13.714272000000001,
                "end": 14.228557200000003,
                "pitch": 66,
                "velocity": 82
            },
            {
                "start": 13.714272000000001,
                "end": 14.249985750000002,
                "pitch": 70,
                "velocity": 57
            },
            {
                "start": 13.714272000000001,
                "end": 14.257128600000001,
                "pitch": 61,
                "velocity": 66
            },
            {
                "start": 13.714272000000001,
                "end": 14.285700000000002,
                "pitch": 54,
                "velocity": 72
            },
            {
                "start": 14.571414000000003,
                "end": 15.021413550000002,
                "pitch": 70,
                "velocity": 62
            },
            {
                "start": 14.571414000000003,
                "end": 15.071413500000002,
                "pitch": 61,
                "velocity": 64
            },
            {
                "start": 14.571414000000003,
                "end": 15.099984900000003,
                "pitch": 66,
                "velocity": 70
            },
            {
                "start": 14.571414000000003,
                "end": 15.135699150000002,
                "pitch": 54,
                "velocity": 72
            },
            {
                "start": 15.214270500000001,
                "end": 15.564270150000002,
                "pitch": 70,
                "velocity": 51
            },
            {
                "start": 15.214270500000001,
                "end": 15.571413000000002,
                "pitch": 61,
                "velocity": 43
            },
            {
                "start": 15.214270500000001,
                "end": 15.592841550000003,
                "pitch": 66,
                "velocity": 50
            },
            {
                "start": 15.428556000000002,
                "end": 15.864269850000001,
                "pitch": 54,
                "velocity": 68
            },
            {
                "start": 15.642841500000001,
                "end": 15.942841200000002,
                "pitch": 70,
                "velocity": 52
            },
            {
                "start": 15.642841500000001,
                "end": 15.949984050000003,
                "pitch": 61,
                "velocity": 58
            },
            {
                "start": 15.642841500000001,
                "end": 15.964269750000001,
                "pitch": 66,
                "velocity": 68
            },
            {
                "start": 16.0714125,
                "end": 16.4142693,
                "pitch": 70,
                "velocity": 46
            },
            {
                "start": 16.0714125,
                "end": 16.43569785,
                "pitch": 66,
                "velocity": 57
            },
            {
                "start": 16.0714125,
                "end": 16.43569785,
                "pitch": 61,
                "velocity": 42
            },
            {
                "start": 16.285698000000004,
                "end": 16.499983500000003,
                "pitch": 54,
                "velocity": 76
            },
            {
                "start": 16.499983500000003,
                "end": 16.6142691,
                "pitch": 61,
                "velocity": 63
            },
            {
                "start": 16.499983500000003,
                "end": 16.621411950000002,
                "pitch": 70,
                "velocity": 57
            },
            {
                "start": 16.499983500000003,
                "end": 16.828554600000004,
                "pitch": 66,
                "velocity": 72
            },
            {
                "start": 16.714269,
                "end": 16.83569745,
                "pitch": 61,
                "velocity": 58
            },
            {
                "start": 16.714269,
                "end": 16.842840300000002,
                "pitch": 70,
                "velocity": 57
            },
            {
                "start": 17.142840000000003,
                "end": 17.678553750000003,
                "pitch": 68,
                "velocity": 64
            },
            {
                "start": 17.142840000000003,
                "end": 17.678553750000003,
                "pitch": 59,
                "velocity": 64
            },
            {
                "start": 17.142840000000003,
                "end": 17.72141085,
                "pitch": 56,
                "velocity": 68
            },
            {
                "start": 17.142840000000003,
                "end": 17.728553700000003,
                "pitch": 63,
                "velocity": 64
            },
            {
                "start": 17.999982000000003,
                "end": 18.342838800000003,
                "pitch": 63,
                "velocity": 78
            },
            {
                "start": 17.999982000000003,
                "end": 18.349981650000004,
                "pitch": 68,
                "velocity": 59
            },
            {
                "start": 17.999982000000003,
                "end": 18.435695850000002,
                "pitch": 59,
                "velocity": 53
            },
            {
                "start": 17.999982000000003,
                "end": 18.592838550000003,
                "pitch": 56,
                "velocity": 66
            },
            {
                "start": 18.642838500000003,
                "end": 18.7285527,
                "pitch": 63,
                "velocity": 55
            },
            {
                "start": 18.642838500000003,
                "end": 18.7714098,
                "pitch": 59,
                "velocity": 57
            },
            {
                "start": 18.857124000000002,
                "end": 19.09283805,
                "pitch": 68,
                "velocity": 60
            },
            {
                "start": 18.857124000000002,
                "end": 19.107123750000003,
                "pitch": 63,
                "velocity": 85
            },
            {
                "start": 18.857124000000002,
                "end": 19.271409300000002,
                "pitch": 59,
                "velocity": 10
            },
            {
                "start": 18.857124000000002,
                "end": 19.385694900000004,
                "pitch": 56,
                "velocity": 76
            },
            {
                "start": 19.499980500000003,
                "end": 19.778551650000004,
                "pitch": 63,
                "velocity": 52
            },
            {
                "start": 19.499980500000003,
                "end": 19.778551650000004,
                "pitch": 68,
                "velocity": 55
            },
            {
                "start": 19.499980500000003,
                "end": 19.7856945,
                "pitch": 59,
                "velocity": 34
            },
            {
                "start": 19.499980500000003,
                "end": 19.9285515,
                "pitch": 56,
                "velocity": 62
            },
            {
                "start": 19.9285515,
                "end": 20.042837100000003,
                "pitch": 59,
                "velocity": 52
            },
            {
                "start": 19.9285515,
                "end": 20.064265650000003,
                "pitch": 63,
                "velocity": 53
            },
            {
                "start": 19.9285515,
                "end": 20.064265650000003,
                "pitch": 68,
                "velocity": 53
            },
            {
                "start": 20.142837000000004,
                "end": 20.24997975,
                "pitch": 59,
                "velocity": 60
            },
            {
                "start": 20.142837000000004,
                "end": 20.2714083,
                "pitch": 63,
                "velocity": 51
            },
            {
                "start": 20.142837000000004,
                "end": 20.278551150000002,
                "pitch": 68,
                "velocity": 55
            },
            {
                "start": 20.571408,
                "end": 21.049978950000003,
                "pitch": 66,
                "velocity": 64
            },
            {
                "start": 20.571408,
                "end": 21.049978950000003,
                "pitch": 63,
                "velocity": 64
            },
            {
                "start": 20.571408,
                "end": 21.049978950000003,
                "pitch": 59,
                "velocity": 64
            },
            {
                "start": 20.571408,
                "end": 21.099978900000004,
                "pitch": 54,
                "velocity": 68
            }
        ],
        "pitch_classes": [
            0,
            21,
            0,
            21,
            0,
            0,
            41,
            0,
            20,
            0,
            21,
            21
        ],
        "velocity_mean": 58.206896551724135,
        "pitch_mean": 62.779310344827586,
        "pitch_std": 4.970907036523118,
        "duration_mean": 0.3523149186206897,
        "song_name": "Whats_Up.4.mid",
        "tempo": 229.0911381820467,
        "time_signature": "4/4",
        "key": "Eb",
        "camelot_key": "2A",
        "maj_min": "minor"
    },
    "Whats_Up.4.mid_113.71428303333333_134.66664303333337": {
        "instrument_no": 6,
        "instrument_category": "Other",
        "program": 17,
        "is_drum": false,
        "section_start": 113.71428303333333,
        "section_end": 134.66664303333337,
        "notes": [
            {
                "start": 123.19273395000002,
                "end": 123.25701960000002,
                "pitch": 73,
                "velocity": 102
            },
            {
                "start": 123.47130510000001,
                "end": 123.49987650000001,
                "pitch": 73,
                "velocity": 80
            },
            {
                "start": 123.64273350000002,
                "end": 123.82844760000002,
                "pitch": 71,
                "velocity": 110
            },
            {
                "start": 123.85701900000002,
                "end": 123.97844745000002,
                "pitch": 73,
                "velocity": 100
            },
            {
                "start": 125.14273200000001,
                "end": 125.18558910000002,
                "pitch": 82,
                "velocity": 95
            },
            {
                "start": 125.33558895000002,
                "end": 125.42130315000001,
                "pitch": 82,
                "velocity": 116
            },
            {
                "start": 125.76415995000002,
                "end": 125.84273130000001,
                "pitch": 85,
                "velocity": 107
            },
            {
                "start": 126.24987375000002,
                "end": 126.32130225000002,
                "pitch": 85,
                "velocity": 95
            },
            {
                "start": 126.42844500000001,
                "end": 126.49987350000002,
                "pitch": 85,
                "velocity": 102
            },
            {
                "start": 126.64273050000001,
                "end": 126.75701610000002,
                "pitch": 75,
                "velocity": 107
            },
            {
                "start": 128.78558550000002,
                "end": 128.8998711,
                "pitch": 80,
                "velocity": 100
            },
            {
                "start": 129.22844220000002,
                "end": 129.30701355000002,
                "pitch": 80,
                "velocity": 100
            },
            {
                "start": 129.62844180000002,
                "end": 129.78558450000003,
                "pitch": 80,
                "velocity": 89
            },
            {
                "start": 129.86415585,
                "end": 129.94987005000002,
                "pitch": 82,
                "velocity": 105
            },
            {
                "start": 130.04986995000002,
                "end": 130.2712983,
                "pitch": 78,
                "velocity": 110
            },
            {
                "start": 130.49272665,
                "end": 130.88558340000003,
                "pitch": 75,
                "velocity": 107
            },
            {
                "start": 131.13558315000003,
                "end": 131.82129675000002,
                "pitch": 75,
                "velocity": 105
            },
            {
                "start": 132.2141535,
                "end": 132.29986770000002,
                "pitch": 80,
                "velocity": 80
            },
            {
                "start": 132.4141533,
                "end": 132.5141532,
                "pitch": 78,
                "velocity": 100
            },
            {
                "start": 132.82843860000003,
                "end": 132.92129565000002,
                "pitch": 78,
                "velocity": 98
            },
            {
                "start": 133.07129550000002,
                "end": 133.19272395000002,
                "pitch": 78,
                "velocity": 100
            },
            {
                "start": 133.47129510000002,
                "end": 133.56415215,
                "pitch": 82,
                "velocity": 93
            },
            {
                "start": 133.89986610000003,
                "end": 133.9855803,
                "pitch": 75,
                "velocity": 80
            },
            {
                "start": 134.1141516,
                "end": 134.20700865,
                "pitch": 73,
                "velocity": 107
            }
        ],
        "pitch_classes": [
            0,
            7,
            0,
            4,
            0,
            0,
            4,
            0,
            4,
            0,
            4,
            1
        ],
        "velocity_mean": 99.5,
        "pitch_mean": 78.25,
        "pitch_std": 4.13571839789252,
        "duration_mean": 0.13630938749999957,
        "song_name": "Whats_Up.4.mid",
        "tempo": 229.0911381820467,
        "time_signature": "4/4",
        "key": "Eb",
        "camelot_key": "2A",
        "maj_min": "minor"
    },
    "Whats_Up.4.mid_227.42856606666666_248.38092606666672": {
        "instrument_no": 6,
        "instrument_category": "Other",
        "program": 17,
        "is_drum": false,
        "section_start": 227.42856606666666,
        "section_end": 248.38092606666672,
        "notes": [
            {
                "start": 234.23577845000005,
                "end": 234.34061705833338,
                "pitch": 70,
                "velocity": 80
            },
            {
                "start": 234.4857782083334,
                "end": 234.57448780000004,
                "pitch": 70,
                "velocity": 85
            },
            {
                "start": 234.68739091666671,
                "end": 235.1228743666667,
                "pitch": 70,
                "velocity": 102
            },
            {
                "start": 235.20351945000004,
                "end": 235.30835805833337,
                "pitch": 70,
                "velocity": 70
            },
            {
                "start": 235.45351920833338,
                "end": 235.5583578166667,
                "pitch": 70,
                "velocity": 87
            },
            {
                "start": 235.67932544166672,
                "end": 235.80835757500003,
                "pitch": 70,
                "velocity": 100
            },
            {
                "start": 235.8728736416667,
                "end": 236.05029282500004,
                "pitch": 70,
                "velocity": 100
            },
            {
                "start": 236.35674414166672,
                "end": 236.43738922500003,
                "pitch": 70,
                "velocity": 74
            },
            {
                "start": 236.38900217500003,
                "end": 236.49384078333338,
                "pitch": 71,
                "velocity": 113
            },
            {
                "start": 236.87287267500005,
                "end": 236.96964677500006,
                "pitch": 73,
                "velocity": 107
            },
            {
                "start": 237.11480792500004,
                "end": 237.31642063333337,
                "pitch": 73,
                "velocity": 116
            },
            {
                "start": 237.60674293333338,
                "end": 237.8567426916667,
                "pitch": 68,
                "velocity": 107
            },
            {
                "start": 238.09061343333337,
                "end": 238.1954520416667,
                "pitch": 68,
                "velocity": 100
            },
            {
                "start": 238.30835515833337,
                "end": 238.51803237500005,
                "pitch": 68,
                "velocity": 100
            },
            {
                "start": 238.8002901666667,
                "end": 238.9696448416667,
                "pitch": 68,
                "velocity": 93
            },
            {
                "start": 239.30835419166672,
                "end": 239.52609591666672,
                "pitch": 68,
                "velocity": 57
            },
            {
                "start": 239.49383788333338,
                "end": 239.60674100000006,
                "pitch": 70,
                "velocity": 93
            },
            {
                "start": 239.51803140833337,
                "end": 239.6470635416667,
                "pitch": 73,
                "velocity": 102
            },
            {
                "start": 239.7680311666667,
                "end": 239.92932133333338,
                "pitch": 73,
                "velocity": 100
            },
            {
                "start": 240.31641773333337,
                "end": 240.38899830833338,
                "pitch": 68,
                "velocity": 105
            },
            {
                "start": 240.8002882333334,
                "end": 240.89706233333337,
                "pitch": 68,
                "velocity": 107
            },
            {
                "start": 240.9293203666667,
                "end": 241.00996545000004,
                "pitch": 70,
                "velocity": 105
            },
            {
                "start": 241.46964242500005,
                "end": 243.00996351666672,
                "pitch": 66,
                "velocity": 110
            },
            {
                "start": 243.91318845000004,
                "end": 244.00996255000004,
                "pitch": 66,
                "velocity": 100
            },
            {
                "start": 244.13899468333338,
                "end": 244.20351075000005,
                "pitch": 63,
                "velocity": 70
            },
            {
                "start": 244.3889944416667,
                "end": 244.46963952500005,
                "pitch": 66,
                "velocity": 98
            },
            {
                "start": 244.8648004333334,
                "end": 244.93738100833338,
                "pitch": 66,
                "velocity": 80
            },
            {
                "start": 245.1389937166667,
                "end": 245.1873807666667,
                "pitch": 70,
                "velocity": 95
            },
            {
                "start": 245.60673520000003,
                "end": 245.70350930000004,
                "pitch": 66,
                "velocity": 100
            }
        ],
        "pitch_classes": [
            0,
            4,
            0,
            1,
            0,
            0,
            5,
            0,
            7,
            0,
            11,
            1
        ],
        "velocity_mean": 95.03448275862068,
        "pitch_mean": 69.03448275862068,
        "pitch_std": 2.399464863050318,
        "duration_mean": 0.1804781347701133,
        "song_name": "Whats_Up.4.mid",
        "tempo": 229.0911381820467,
        "time_signature": "4/4",
        "key": "Eb",
        "camelot_key": "2A",
        "maj_min": "minor"
    },
    "Whats_Up.3.mid_0.0_24.733409523809534": {
        "instrument_no": 1,
        "instrument_category": "Bass",
        "program": 33,
        "is_drum": false,
        "section_start": 0.0,
        "section_end": 24.733409523809534,
        "notes": [
            {
                "start": 13.208919999999999,
                "end": 13.507426666666666,
                "pitch": 45,
                "velocity": 100
            },
            {
                "start": 13.432799999999999,
                "end": 13.582053333333333,
                "pitch": 44,
                "velocity": 87
            },
            {
                "start": 13.526083333333332,
                "end": 13.65668,
                "pitch": 43,
                "velocity": 79
            },
            {
                "start": 13.582053333333333,
                "end": 13.712649999999998,
                "pitch": 42,
                "velocity": 78
            },
            {
                "start": 13.638023333333333,
                "end": 13.759291666666666,
                "pitch": 41,
                "velocity": 74
            },
            {
                "start": 13.675336666666665,
                "end": 13.796605,
                "pitch": 40,
                "velocity": 71
            },
            {
                "start": 13.731306666666665,
                "end": 13.852574999999998,
                "pitch": 39,
                "velocity": 68
            },
            {
                "start": 13.815261666666666,
                "end": 13.93653,
                "pitch": 38,
                "velocity": 65
            },
            {
                "start": 13.908544999999998,
                "end": 14.048469999999998,
                "pitch": 37,
                "velocity": 62
            },
            {
                "start": 13.983171666666665,
                "end": 14.123096666666665,
                "pitch": 36,
                "velocity": 61
            },
            {
                "start": 14.085783333333332,
                "end": 14.225708333333332,
                "pitch": 35,
                "velocity": 60
            },
            {
                "start": 14.169738333333331,
                "end": 14.374961666666666,
                "pitch": 34,
                "velocity": 58
            },
            {
                "start": 14.328319999999998,
                "end": 15.242496666666666,
                "pitch": 33,
                "velocity": 100
            },
            {
                "start": 15.205183333333332,
                "end": 16.110031666666664,
                "pitch": 45,
                "velocity": 96
            },
            {
                "start": 16.11936,
                "end": 17.042865,
                "pitch": 33,
                "velocity": 100
            },
            {
                "start": 17.23876,
                "end": 17.434655,
                "pitch": 30,
                "velocity": 73
            },
            {
                "start": 17.462639999999997,
                "end": 17.845101666666665,
                "pitch": 36,
                "velocity": 100
            },
            {
                "start": 17.9104,
                "end": 19.25368,
                "pitch": 35,
                "velocity": 100
            },
            {
                "start": 19.477559999999997,
                "end": 19.51487333333333,
                "pitch": 35,
                "velocity": 91
            },
            {
                "start": 19.701439999999998,
                "end": 20.671586666666666,
                "pitch": 35,
                "velocity": 109
            },
            {
                "start": 20.820839999999997,
                "end": 21.044719999999998,
                "pitch": 30,
                "velocity": 76
            },
            {
                "start": 21.035391666666666,
                "end": 21.221958333333333,
                "pitch": 35,
                "velocity": 91
            },
            {
                "start": 21.259271666666663,
                "end": 21.43651,
                "pitch": 37,
                "velocity": 100
            },
            {
                "start": 21.492479999999997,
                "end": 23.23687833333333,
                "pitch": 38,
                "velocity": 100
            },
            {
                "start": 23.28352,
                "end": 23.815234999999998,
                "pitch": 38,
                "velocity": 109
            },
            {
                "start": 23.95516,
                "end": 24.141726666666663,
                "pitch": 38,
                "velocity": 64
            },
            {
                "start": 24.179039999999997,
                "end": 24.30030833333333,
                "pitch": 38,
                "velocity": 100
            },
            {
                "start": 24.393591666666666,
                "end": 24.561501666666665,
                "pitch": 38,
                "velocity": 100
            },
            {
                "start": 24.617471666666663,
                "end": 25.037246666666665,
                "pitch": 36,
                "velocity": 100
            }
        ],
        "pitch_classes": [
            3,
            2,
            6,
            1,
            1,
            1,
            3,
            1,
            1,
            4,
            1,
            5
        ],
        "velocity_mean": 85.24137931034483,
        "pitch_mean": 37.37931034482759,
        "pitch_std": 3.854364235812019,
        "duration_mean": 0.3879300000000001,
        "song_name": "Whats_Up.3.mid",
        "tempo": 194.06948303586273,
        "time_signature": "4/4",
        "key": "E",
        "camelot_key": "9A",
        "maj_min": "minor"
    },
    "Whats_Up.3.mid_116.57418273809523_141.30759226190477": {
        "instrument_no": 1,
        "instrument_category": "Bass",
        "program": 33,
        "is_drum": false,
        "section_start": 116.57418273809523,
        "section_end": 141.30759226190477,
        "notes": [
            {
                "start": 117.53699999999999,
                "end": 117.73289499999998,
                "pitch": 30,
                "velocity": 73
            },
            {
                "start": 117.76087999999999,
                "end": 118.14334166666666,
                "pitch": 36,
                "velocity": 100
            },
            {
                "start": 118.20863999999999,
                "end": 119.55192,
                "pitch": 35,
                "velocity": 100
            },
            {
                "start": 119.77579999999999,
                "end": 119.81311333333332,
                "pitch": 35,
                "velocity": 91
            },
            {
                "start": 119.99967999999998,
                "end": 120.96982666666666,
                "pitch": 35,
                "velocity": 109
            },
            {
                "start": 121.11908,
                "end": 121.34295999999999,
                "pitch": 30,
                "velocity": 76
            },
            {
                "start": 121.33363166666666,
                "end": 121.52019833333333,
                "pitch": 35,
                "velocity": 91
            },
            {
                "start": 121.55751166666666,
                "end": 121.73474999999999,
                "pitch": 37,
                "velocity": 100
            },
            {
                "start": 121.79072,
                "end": 122.41571833333332,
                "pitch": 38,
                "velocity": 100
            },
            {
                "start": 122.46235999999999,
                "end": 122.63959833333332,
                "pitch": 38,
                "velocity": 79
            },
            {
                "start": 122.68623999999998,
                "end": 124.16011666666665,
                "pitch": 38,
                "velocity": 109
            },
            {
                "start": 124.25339999999998,
                "end": 124.43996666666666,
                "pitch": 38,
                "velocity": 64
            },
            {
                "start": 124.47728,
                "end": 124.59854833333333,
                "pitch": 38,
                "velocity": 100
            },
            {
                "start": 124.69183166666666,
                "end": 124.85974166666665,
                "pitch": 38,
                "velocity": 100
            },
            {
                "start": 124.91571166666665,
                "end": 125.33548666666665,
                "pitch": 36,
                "velocity": 100
            },
            {
                "start": 125.37279999999998,
                "end": 127.55563,
                "pitch": 33,
                "velocity": 99
            },
            {
                "start": 127.60227166666665,
                "end": 127.80749499999999,
                "pitch": 28,
                "velocity": 78
            },
            {
                "start": 127.83547999999999,
                "end": 128.15264333333332,
                "pitch": 28,
                "velocity": 100
            },
            {
                "start": 128.27391166666666,
                "end": 128.45114999999998,
                "pitch": 28,
                "velocity": 73
            },
            {
                "start": 128.50712,
                "end": 128.647045,
                "pitch": 29,
                "velocity": 81
            },
            {
                "start": 128.57241833333333,
                "end": 128.68435833333334,
                "pitch": 30,
                "velocity": 75
            },
            {
                "start": 128.62838833333333,
                "end": 128.74965666666665,
                "pitch": 31,
                "velocity": 69
            },
            {
                "start": 128.67503,
                "end": 128.93622333333332,
                "pitch": 32,
                "velocity": 77
            },
            {
                "start": 128.95488,
                "end": 130.02763833333333,
                "pitch": 33,
                "velocity": 100
            },
            {
                "start": 130.73659166666667,
                "end": 130.91383,
                "pitch": 45,
                "velocity": 91
            },
            {
                "start": 130.96047166666665,
                "end": 131.1470383333333,
                "pitch": 45,
                "velocity": 82
            },
            {
                "start": 131.41755999999998,
                "end": 131.62278333333333,
                "pitch": 45,
                "velocity": 91
            },
            {
                "start": 131.86532,
                "end": 132.05188666666666,
                "pitch": 43,
                "velocity": 100
            },
            {
                "start": 132.09852833333332,
                "end": 132.341065,
                "pitch": 40,
                "velocity": 99
            },
            {
                "start": 132.25710999999998,
                "end": 132.397035,
                "pitch": 39,
                "velocity": 69
            },
            {
                "start": 132.35972166666664,
                "end": 132.47166166666665,
                "pitch": 38,
                "velocity": 69
            },
            {
                "start": 132.40636333333333,
                "end": 132.52763166666665,
                "pitch": 37,
                "velocity": 61
            },
            {
                "start": 132.49031833333333,
                "end": 132.6022583333333,
                "pitch": 36,
                "velocity": 55
            },
            {
                "start": 132.53696,
                "end": 133.88024,
                "pitch": 35,
                "velocity": 100
            },
            {
                "start": 134.10412,
                "end": 134.1414333333333,
                "pitch": 35,
                "velocity": 91
            },
            {
                "start": 134.328,
                "end": 135.25150499999998,
                "pitch": 35,
                "velocity": 100
            },
            {
                "start": 135.4474,
                "end": 135.67128,
                "pitch": 30,
                "velocity": 76
            },
            {
                "start": 135.66195166666665,
                "end": 135.84851833333332,
                "pitch": 35,
                "velocity": 91
            },
            {
                "start": 135.88583166666666,
                "end": 136.06306999999998,
                "pitch": 37,
                "velocity": 100
            },
            {
                "start": 136.11903999999998,
                "end": 136.63209833333332,
                "pitch": 38,
                "velocity": 100
            },
            {
                "start": 136.79067999999998,
                "end": 136.97724666666664,
                "pitch": 38,
                "velocity": 70
            },
            {
                "start": 137.01456,
                "end": 137.57425999999998,
                "pitch": 38,
                "velocity": 100
            },
            {
                "start": 137.68619999999999,
                "end": 137.72351333333333,
                "pitch": 38,
                "velocity": 81
            },
            {
                "start": 137.91008,
                "end": 138.85224166666666,
                "pitch": 38,
                "velocity": 109
            },
            {
                "start": 139.02015166666666,
                "end": 139.21604666666664,
                "pitch": 28,
                "velocity": 87
            },
            {
                "start": 139.24403166666664,
                "end": 139.673135,
                "pitch": 31,
                "velocity": 100
            },
            {
                "start": 139.70111999999997,
                "end": 141.97723333333332,
                "pitch": 33,
                "velocity": 99
            }
        ],
        "pitch_classes": [
            3,
            3,
            12,
            1,
            5,
            1,
            4,
            3,
            1,
            6,
            0,
            8
        ],
        "velocity_mean": 88.61702127659575,
        "pitch_mean": 35.4468085106383,
        "pitch_std": 4.384734207419511,
        "duration_mean": 0.44240117021276393,
        "song_name": "Whats_Up.3.mid",
        "tempo": 194.06948303586273,
        "time_signature": "4/4",
        "key": "D",
        "camelot_key": "10B",
        "maj_min": "major"
    },
    "Whats_Up.1.mid_0.0_24.34632407407498": {
        "instrument_no": 4,
        "instrument_category": "Other",
        "program": 50,
        "is_drum": false,
        "section_start": 0.0,
        "section_end": 24.34632407407498,
        "notes": [
            {
                "start": 10.464119531249999,
                "end": 13.313374739583333,
                "pitch": 61,
                "velocity": 75
            },
            {
                "start": 10.464119531249999,
                "end": 13.313374739583333,
                "pitch": 57,
                "velocity": 75
            },
            {
                "start": 13.33175703125,
                "end": 13.975137239583331,
                "pitch": 59,
                "velocity": 75
            },
            {
                "start": 13.33175703125,
                "end": 13.975137239583331,
                "pitch": 55,
                "velocity": 75
            },
            {
                "start": 13.993519531249998,
                "end": 16.84277473958333,
                "pitch": 62,
                "velocity": 75
            },
            {
                "start": 13.993519531249998,
                "end": 16.84277473958333,
                "pitch": 59,
                "velocity": 75
            },
            {
                "start": 16.86115703125,
                "end": 17.504537239583332,
                "pitch": 59,
                "velocity": 75
            },
            {
                "start": 16.86115703125,
                "end": 17.504537239583332,
                "pitch": 55,
                "velocity": 75
            },
            {
                "start": 17.522919531249997,
                "end": 20.372174739583333,
                "pitch": 62,
                "velocity": 75
            },
            {
                "start": 17.522919531249997,
                "end": 20.372174739583333,
                "pitch": 57,
                "velocity": 75
            },
            {
                "start": 20.390557031249998,
                "end": 21.03393723958333,
                "pitch": 59,
                "velocity": 75
            },
            {
                "start": 20.390557031249998,
                "end": 21.03393723958333,
                "pitch": 55,
                "velocity": 75
            },
            {
                "start": 21.05231953125,
                "end": 23.90157473958333,
                "pitch": 61,
                "velocity": 75
            },
            {
                "start": 21.05231953125,
                "end": 23.90157473958333,
                "pitch": 57,
                "velocity": 75
            },
            {
                "start": 23.919957031249997,
                "end": 24.56333723958333,
                "pitch": 59,
                "velocity": 75
            },
            {
                "start": 23.919957031249997,
                "end": 24.56333723958333,
                "pitch": 55,
                "velocity": 75
            }
        ],
        "pitch_classes": [
            0,
            2,
            2,
            0,
            0,
            0,
            0,
            4,
            0,
            3,
            0,
            5
        ],
        "velocity_mean": 75.0,
        "pitch_mean": 58.25,
        "pitch_std": 2.4109126902482387,
        "duration_mean": 1.7463177083333332,
        "song_name": "Whats_Up.1.mid",
        "tempo": 197.15501959949873,
        "time_signature": "4/4",
        "key": "D",
        "camelot_key": "10B",
        "maj_min": "major"
    },
    "Whats_Up.1.mid_118.00570796296248_142.35203203703745": {
        "instrument_no": 5,
        "instrument_category": "Other",
        "program": 87,
        "is_drum": false,
        "section_start": 118.00570796296248,
        "section_end": 142.35203203703745,
        "notes": [
            {
                "start": 118.00971692708332,
                "end": 118.40493619791665,
                "pitch": 62,
                "velocity": 101
            },
            {
                "start": 118.45089192708332,
                "end": 119.05750755208332,
                "pitch": 61,
                "velocity": 96
            },
            {
                "start": 119.11265442708333,
                "end": 119.35162421874999,
                "pitch": 57,
                "velocity": 96
            },
            {
                "start": 119.55382942708331,
                "end": 119.76522578124998,
                "pitch": 57,
                "velocity": 93
            },
            {
                "start": 119.77441692708332,
                "end": 122.21926171874999,
                "pitch": 57,
                "velocity": 94
            },
            {
                "start": 122.86264192708332,
                "end": 123.08322942708332,
                "pitch": 64,
                "velocity": 92
            },
            {
                "start": 123.08322942708332,
                "end": 123.30381692708332,
                "pitch": 64,
                "velocity": 102
            },
            {
                "start": 123.30381692708332,
                "end": 124.56759947916666,
                "pitch": 64,
                "velocity": 101
            },
            {
                "start": 125.28910442708332,
                "end": 125.50050078124998,
                "pitch": 73,
                "velocity": 106
            },
            {
                "start": 125.50969192708332,
                "end": 125.73947057291666,
                "pitch": 73,
                "velocity": 89
            },
            {
                "start": 125.95086692708333,
                "end": 126.15766770833332,
                "pitch": 76,
                "velocity": 100
            },
            {
                "start": 126.39204192708333,
                "end": 126.58046041666665,
                "pitch": 76,
                "velocity": 91
            },
            {
                "start": 126.61262942708332,
                "end": 126.81023906249999,
                "pitch": 76,
                "velocity": 106
            },
            {
                "start": 126.83321692708333,
                "end": 128.44166744791664,
                "pitch": 64,
                "velocity": 106
            },
            {
                "start": 128.59791692708333,
                "end": 128.767953125,
                "pitch": 66,
                "velocity": 100
            },
            {
                "start": 128.81850442708333,
                "end": 129.08964322916665,
                "pitch": 71,
                "velocity": 106
            },
            {
                "start": 129.4802669270833,
                "end": 129.6594942708333,
                "pitch": 71,
                "velocity": 106
            },
            {
                "start": 129.92144192708332,
                "end": 130.34423463541665,
                "pitch": 71,
                "velocity": 106
            },
            {
                "start": 130.3626169270833,
                "end": 130.57401328125,
                "pitch": 69,
                "velocity": 106
            },
            {
                "start": 130.58320442708333,
                "end": 132.74312369791664,
                "pitch": 66,
                "velocity": 93
            },
            {
                "start": 132.78907942708332,
                "end": 132.97290234374998,
                "pitch": 69,
                "velocity": 106
            },
            {
                "start": 133.2302544270833,
                "end": 133.44165078125,
                "pitch": 69,
                "velocity": 106
            },
            {
                "start": 133.67142942708332,
                "end": 133.87363463541666,
                "pitch": 69,
                "velocity": 106
            },
            {
                "start": 133.89201692708332,
                "end": 134.3194052083333,
                "pitch": 71,
                "velocity": 106
            },
            {
                "start": 134.33319192708333,
                "end": 136.157634375,
                "pitch": 69,
                "velocity": 106
            },
            {
                "start": 136.9802419270833,
                "end": 137.1870427083333,
                "pitch": 64,
                "velocity": 106
            },
            {
                "start": 137.2008294270833,
                "end": 137.40303463541665,
                "pitch": 64,
                "velocity": 106
            },
            {
                "start": 137.42141692708333,
                "end": 138.74953749999997,
                "pitch": 64,
                "velocity": 106
            },
            {
                "start": 139.40670442708333,
                "end": 139.61350520833332,
                "pitch": 73,
                "velocity": 106
            },
            {
                "start": 139.62729192708332,
                "end": 139.85707057291665,
                "pitch": 73,
                "velocity": 94
            },
            {
                "start": 140.0684669270833,
                "end": 140.27526770833333,
                "pitch": 76,
                "velocity": 107
            },
            {
                "start": 140.50964192708332,
                "end": 140.70265598958332,
                "pitch": 76,
                "velocity": 99
            },
            {
                "start": 140.73022942708332,
                "end": 140.96000807291665,
                "pitch": 76,
                "velocity": 106
            },
            {
                "start": 140.9508169270833,
                "end": 142.54088515625,
                "pitch": 64,
                "velocity": 106
            }
        ],
        "pitch_classes": [
            0,
            5,
            1,
            0,
            14,
            0,
            2,
            0,
            0,
            8,
            0,
            4
        ],
        "velocity_mean": 101.6470588235294,
        "pitch_mean": 68.08823529411765,
        "pitch_std": 5.710504495374774,
        "duration_mean": 0.5559291590073523,
        "song_name": "Whats_Up.1.mid",
        "tempo": 197.15501959949873,
        "time_signature": "4/4",
        "key": "D",
        "camelot_key": "10B",
        "maj_min": "major"
    },
    "Dreams.mid_124.91912894394113_143.2811093893922": {
        "instrument_no": 6,
        "instrument_category": "Other",
        "program": 81,
        "is_drum": false,
        "section_start": 124.91912894394113,
        "section_end": 143.2811093893922,
        "notes": [
            {
                "start": 140.74944,
                "end": 140.97969916666668,
                "pitch": 70,
                "velocity": 58
            },
            {
                "start": 140.975,
                "end": 141.24990125,
                "pitch": 82,
                "velocity": 58
            },
            {
                "start": 141.20056,
                "end": 141.45666458333332,
                "pitch": 70,
                "velocity": 58
            },
            {
                "start": 141.42612,
                "end": 141.63053374999998,
                "pitch": 82,
                "velocity": 58
            },
            {
                "start": 141.65168,
                "end": 141.905435,
                "pitch": 65,
                "velocity": 58
            },
            {
                "start": 141.87724,
                "end": 142.12159666666668,
                "pitch": 77,
                "velocity": 58
            },
            {
                "start": 142.1028,
                "end": 142.31661208333333,
                "pitch": 65,
                "velocity": 58
            },
            {
                "start": 142.32836,
                "end": 142.55157041666666,
                "pitch": 81,
                "velocity": 58
            }
        ],
        "pitch_classes": [
            0,
            0,
            0,
            0,
            0,
            3,
            0,
            0,
            0,
            1,
            4,
            0
        ],
        "velocity_mean": 58.0,
        "pitch_mean": 74.0,
        "pitch_std": 6.892024376045111,
        "duration_mean": 0.2376016145833333,
        "song_name": "Dreams.mid",
        "tempo": 261.4097109110651,
        "time_signature": "4/4",
        "key": "D",
        "camelot_key": "7A",
        "maj_min": "minor"
    },
    "Dreams.mid_249.83825788788226_268.20023833333335": {
        "instrument_no": 4,
        "instrument_category": "Other",
        "program": 81,
        "is_drum": false,
        "section_start": 249.83825788788226,
        "section_end": 268.20023833333335,
        "notes": [
            {
                "start": 249.92048,
                "end": 249.99566666666666,
                "pitch": 41,
                "velocity": 95
            },
            {
                "start": 250.03325999999998,
                "end": 250.10844666666665,
                "pitch": 41,
                "velocity": 95
            },
            {
                "start": 250.14604,
                "end": 250.22122666666667,
                "pitch": 29,
                "velocity": 95
            },
            {
                "start": 250.25882,
                "end": 250.33400666666665,
                "pitch": 41,
                "velocity": 95
            },
            {
                "start": 250.3716,
                "end": 250.44678666666667,
                "pitch": 41,
                "velocity": 95
            },
            {
                "start": 250.48438,
                "end": 250.55956666666665,
                "pitch": 29,
                "velocity": 95
            },
            {
                "start": 250.59716,
                "end": 250.67234666666667,
                "pitch": 41,
                "velocity": 95
            },
            {
                "start": 250.70994,
                "end": 250.78512666666666,
                "pitch": 29,
                "velocity": 95
            }
        ],
        "pitch_classes": [
            0,
            0,
            0,
            0,
            0,
            8,
            0,
            0,
            0,
            0,
            0,
            0
        ],
        "velocity_mean": 95.0,
        "pitch_mean": 36.5,
        "pitch_std": 5.809475019311125,
        "duration_mean": 0.07518666666666718,
        "song_name": "Dreams.mid",
        "tempo": 261.4097109110651,
        "time_signature": "4/4",
        "key": "C",
        "camelot_key": "8B",
        "maj_min": "major"
    },
    "Come_Take_My_Hand.mid_108.32300942559021_136.84449935565976": {
        "instrument_no": 7,
        "instrument_category": "Other",
        "program": 81,
        "is_drum": false,
        "section_start": 108.32300942559021,
        "section_end": 136.84449935565976,
        "notes": [
            {
                "start": 128.57148,
                "end": 128.75005149999998,
                "pitch": 65,
                "velocity": 117
            },
            {
                "start": 128.75005149999998,
                "end": 128.928623,
                "pitch": 57,
                "velocity": 117
            },
            {
                "start": 128.928623,
                "end": 129.1071945,
                "pitch": 64,
                "velocity": 117
            },
            {
                "start": 129.1071945,
                "end": 129.285766,
                "pitch": 57,
                "velocity": 117
            },
            {
                "start": 129.285766,
                "end": 129.4643375,
                "pitch": 62,
                "velocity": 117
            },
            {
                "start": 129.4643375,
                "end": 129.642909,
                "pitch": 57,
                "velocity": 117
            },
            {
                "start": 129.642909,
                "end": 129.8214805,
                "pitch": 64,
                "velocity": 117
            },
            {
                "start": 129.8214805,
                "end": 130.00005199999998,
                "pitch": 57,
                "velocity": 117
            },
            {
                "start": 130.00005199999998,
                "end": 130.1786235,
                "pitch": 65,
                "velocity": 117
            },
            {
                "start": 130.1786235,
                "end": 130.357195,
                "pitch": 57,
                "velocity": 117
            },
            {
                "start": 130.357195,
                "end": 130.5357665,
                "pitch": 64,
                "velocity": 117
            },
            {
                "start": 130.5357665,
                "end": 130.714338,
                "pitch": 57,
                "velocity": 117
            },
            {
                "start": 130.714338,
                "end": 130.8929095,
                "pitch": 65,
                "velocity": 117
            },
            {
                "start": 130.8929095,
                "end": 131.071481,
                "pitch": 57,
                "velocity": 117
            },
            {
                "start": 131.071481,
                "end": 131.2500525,
                "pitch": 67,
                "velocity": 117
            },
            {
                "start": 131.2500525,
                "end": 131.42862399999999,
                "pitch": 57,
                "velocity": 117
            },
            {
                "start": 131.42862399999999,
                "end": 131.6071955,
                "pitch": 64,
                "velocity": 117
            },
            {
                "start": 131.6071955,
                "end": 131.785767,
                "pitch": 57,
                "velocity": 117
            },
            {
                "start": 131.785767,
                "end": 131.9643385,
                "pitch": 62,
                "velocity": 117
            },
            {
                "start": 131.9643385,
                "end": 132.14291,
                "pitch": 57,
                "velocity": 117
            },
            {
                "start": 132.14291,
                "end": 132.3214815,
                "pitch": 60,
                "velocity": 117
            },
            {
                "start": 132.3214815,
                "end": 132.500053,
                "pitch": 57,
                "velocity": 117
            },
            {
                "start": 132.500053,
                "end": 132.67862449999998,
                "pitch": 62,
                "velocity": 117
            },
            {
                "start": 132.67862449999998,
                "end": 132.857196,
                "pitch": 57,
                "velocity": 117
            },
            {
                "start": 132.857196,
                "end": 133.0357675,
                "pitch": 64,
                "velocity": 117
            },
            {
                "start": 133.0357675,
                "end": 133.214339,
                "pitch": 57,
                "velocity": 117
            },
            {
                "start": 133.214339,
                "end": 133.3929105,
                "pitch": 62,
                "velocity": 117
            },
            {
                "start": 133.3929105,
                "end": 133.571482,
                "pitch": 57,
                "velocity": 117
            },
            {
                "start": 133.571482,
                "end": 133.7500535,
                "pitch": 64,
                "velocity": 117
            },
            {
                "start": 133.7500535,
                "end": 133.92862499999998,
                "pitch": 57,
                "velocity": 117
            },
            {
                "start": 133.92862499999998,
                "end": 134.1071965,
                "pitch": 65,
                "velocity": 117
            },
            {
                "start": 134.1071965,
                "end": 134.285768,
                "pitch": 57,
                "velocity": 117
            },
            {
                "start": 134.285768,
                "end": 134.4643395,
                "pitch": 67,
                "velocity": 117
            },
            {
                "start": 134.4643395,
                "end": 134.642911,
                "pitch": 60,
                "velocity": 117
            },
            {
                "start": 134.642911,
                "end": 134.8214825,
                "pitch": 65,
                "velocity": 117
            },
            {
                "start": 134.8214825,
                "end": 135.000054,
                "pitch": 60,
                "velocity": 117
            },
            {
                "start": 135.000054,
                "end": 135.1786255,
                "pitch": 64,
                "velocity": 117
            },
            {
                "start": 135.1786255,
                "end": 135.35719699999999,
                "pitch": 60,
                "velocity": 117
            },
            {
                "start": 135.35719699999999,
                "end": 135.5357685,
                "pitch": 65,
                "velocity": 117
            },
            {
                "start": 135.5357685,
                "end": 135.71434,
                "pitch": 60,
                "velocity": 117
            },
            {
                "start": 135.71434,
                "end": 135.8929115,
                "pitch": 67,
                "velocity": 117
            },
            {
                "start": 135.8929115,
                "end": 136.071483,
                "pitch": 60,
                "velocity": 117
            },
            {
                "start": 136.071483,
                "end": 136.2500545,
                "pitch": 65,
                "velocity": 117
            },
            {
                "start": 136.2500545,
                "end": 136.428626,
                "pitch": 60,
                "velocity": 117
            },
            {
                "start": 136.428626,
                "end": 136.60719749999998,
                "pitch": 67,
                "velocity": 117
            },
            {
                "start": 136.60719749999998,
                "end": 136.785769,
                "pitch": 60,
                "velocity": 117
            },
            {
                "start": 136.785769,
                "end": 136.9643405,
                "pitch": 69,
                "velocity": 117
            }
        ],
        "pitch_classes": [
            8,
            0,
            4,
            0,
            7,
            7,
            0,
            4,
            0,
            17,
            0,
            0
        ],
        "velocity_mean": 117.0,
        "pitch_mean": 61.276595744680854,
        "pitch_std": 3.711409250380734,
        "duration_mean": 0.17857149999999963,
        "song_name": "Come_Take_My_Hand.mid",
        "tempo": 168.29415334784005,
        "time_signature": "4/4",
        "key": "C",
        "camelot_key": "8B",
        "maj_min": "major"
    },
    "Let_Me_Be_Free.mid_0.0_18.526044205772173": {
        "instrument_no": 4,
        "instrument_category": "Other",
        "program": 90,
        "is_drum": false,
        "section_start": 0.0,
        "section_end": 18.526044205772173,
        "notes": [
            {
                "start": 5.333279999999999,
                "end": 7.071688541666666,
                "pitch": 57,
                "velocity": 82
            },
            {
                "start": 5.333279999999999,
                "end": 7.0809477083333325,
                "pitch": 60,
                "velocity": 91
            },
            {
                "start": 5.333279999999999,
                "end": 7.085577291666666,
                "pitch": 64,
                "velocity": 100
            },
            {
                "start": 7.111039999999999,
                "end": 8.849448541666666,
                "pitch": 53,
                "velocity": 82
            },
            {
                "start": 7.111039999999999,
                "end": 8.858707708333332,
                "pitch": 57,
                "velocity": 91
            },
            {
                "start": 7.111039999999999,
                "end": 8.863337291666666,
                "pitch": 60,
                "velocity": 100
            },
            {
                "start": 8.8888,
                "end": 10.627208541666665,
                "pitch": 55,
                "velocity": 82
            },
            {
                "start": 8.8888,
                "end": 10.636467708333331,
                "pitch": 59,
                "velocity": 91
            },
            {
                "start": 8.8888,
                "end": 10.641097291666666,
                "pitch": 62,
                "velocity": 100
            },
            {
                "start": 10.666559999999999,
                "end": 12.404968541666666,
                "pitch": 52,
                "velocity": 82
            },
            {
                "start": 10.666559999999999,
                "end": 12.414227708333332,
                "pitch": 55,
                "velocity": 91
            },
            {
                "start": 10.666559999999999,
                "end": 12.418857291666665,
                "pitch": 59,
                "velocity": 100
            },
            {
                "start": 12.444319999999998,
                "end": 14.182728541666664,
                "pitch": 57,
                "velocity": 82
            },
            {
                "start": 12.444319999999998,
                "end": 14.19198770833333,
                "pitch": 60,
                "velocity": 91
            },
            {
                "start": 12.444319999999998,
                "end": 14.196617291666666,
                "pitch": 64,
                "velocity": 100
            },
            {
                "start": 14.222079999999998,
                "end": 15.960488541666665,
                "pitch": 53,
                "velocity": 82
            },
            {
                "start": 14.222079999999998,
                "end": 15.969747708333331,
                "pitch": 57,
                "velocity": 91
            },
            {
                "start": 14.222079999999998,
                "end": 15.974377291666665,
                "pitch": 60,
                "velocity": 100
            },
            {
                "start": 15.999839999999999,
                "end": 17.738248541666664,
                "pitch": 55,
                "velocity": 82
            },
            {
                "start": 15.999839999999999,
                "end": 17.74750770833333,
                "pitch": 59,
                "velocity": 91
            },
            {
                "start": 15.999839999999999,
                "end": 17.752137291666664,
                "pitch": 62,
                "velocity": 100
            },
            {
                "start": 17.7776,
                "end": 19.516008541666665,
                "pitch": 52,
                "velocity": 82
            },
            {
                "start": 17.7776,
                "end": 19.52526770833333,
                "pitch": 55,
                "velocity": 91
            },
            {
                "start": 17.7776,
                "end": 19.529897291666664,
                "pitch": 59,
                "velocity": 100
            }
        ],
        "pitch_classes": [
            4,
            0,
            2,
            0,
            4,
            2,
            0,
            4,
            0,
            4,
            0,
            4
        ],
        "velocity_mean": 91.0,
        "pitch_mean": 57.75,
        "pitch_std": 3.442988043352266,
        "duration_mean": 1.7461245138888881,
        "song_name": "Let_Me_Be_Free.mid",
        "tempo": 259.0947072502645,
        "time_signature": "4/4",
        "key": "C",
        "camelot_key": "8B",
        "maj_min": "major"
    },
    "Let_Me_Be_Free.mid_95.2845435221139_113.81058772788609": {
        "instrument_no": 5,
        "instrument_category": "Other",
        "program": 81,
        "is_drum": false,
        "section_start": 95.2845435221139,
        "section_end": 113.81058772788609,
        "notes": [
            {
                "start": 95.33237999999999,
                "end": 95.40645333333332,
                "pitch": 65,
                "velocity": 82
            },
            {
                "start": 95.5546,
                "end": 95.63561770833333,
                "pitch": 69,
                "velocity": 98
            },
            {
                "start": 95.66570999999999,
                "end": 95.73978333333332,
                "pitch": 65,
                "velocity": 62
            },
            {
                "start": 95.77681999999999,
                "end": 95.853208125,
                "pitch": 72,
                "velocity": 95
            },
            {
                "start": 95.88792999999998,
                "end": 95.96894770833332,
                "pitch": 69,
                "velocity": 78
            },
            {
                "start": 96.11014999999999,
                "end": 96.18653812499998,
                "pitch": 72,
                "velocity": 75
            },
            {
                "start": 96.22125999999999,
                "end": 96.29533333333332,
                "pitch": 67,
                "velocity": 82
            },
            {
                "start": 96.44348,
                "end": 96.52449770833333,
                "pitch": 71,
                "velocity": 98
            },
            {
                "start": 96.55458999999999,
                "end": 96.62866333333332,
                "pitch": 67,
                "velocity": 62
            },
            {
                "start": 96.66569999999999,
                "end": 96.742088125,
                "pitch": 74,
                "velocity": 95
            },
            {
                "start": 96.77680999999998,
                "end": 96.85782770833332,
                "pitch": 71,
                "velocity": 78
            },
            {
                "start": 96.99902999999999,
                "end": 97.07541812499998,
                "pitch": 74,
                "velocity": 75
            },
            {
                "start": 97.11013999999999,
                "end": 97.18421333333332,
                "pitch": 67,
                "velocity": 82
            },
            {
                "start": 97.33236,
                "end": 97.41337770833333,
                "pitch": 71,
                "velocity": 98
            },
            {
                "start": 97.44346999999999,
                "end": 97.51754333333332,
                "pitch": 67,
                "velocity": 62
            },
            {
                "start": 97.55457999999999,
                "end": 97.63096812499998,
                "pitch": 74,
                "velocity": 95
            },
            {
                "start": 97.66568999999998,
                "end": 97.74670770833332,
                "pitch": 71,
                "velocity": 78
            },
            {
                "start": 97.88790999999999,
                "end": 97.96429812499998,
                "pitch": 74,
                "velocity": 75
            },
            {
                "start": 97.99901999999999,
                "end": 98.07309333333332,
                "pitch": 64,
                "velocity": 82
            },
            {
                "start": 98.22124,
                "end": 98.30225770833331,
                "pitch": 67,
                "velocity": 98
            },
            {
                "start": 98.33234999999999,
                "end": 98.40642333333332,
                "pitch": 64,
                "velocity": 62
            },
            {
                "start": 98.44345999999999,
                "end": 98.51984812499998,
                "pitch": 71,
                "velocity": 95
            },
            {
                "start": 98.55456999999998,
                "end": 98.63558770833332,
                "pitch": 67,
                "velocity": 78
            },
            {
                "start": 98.77678999999999,
                "end": 98.85317812499999,
                "pitch": 71,
                "velocity": 75
            },
            {
                "start": 98.88789999999999,
                "end": 98.96197333333332,
                "pitch": 64,
                "velocity": 82
            },
            {
                "start": 99.11012,
                "end": 99.19113770833332,
                "pitch": 67,
                "velocity": 98
            },
            {
                "start": 99.22122999999999,
                "end": 99.29530333333332,
                "pitch": 64,
                "velocity": 62
            },
            {
                "start": 99.33233999999999,
                "end": 99.40872812499998,
                "pitch": 71,
                "velocity": 95
            },
            {
                "start": 99.44344999999998,
                "end": 99.52446770833332,
                "pitch": 67,
                "velocity": 78
            },
            {
                "start": 99.66566999999999,
                "end": 99.74205812499999,
                "pitch": 71,
                "velocity": 75
            },
            {
                "start": 99.77677999999999,
                "end": 99.85085333333332,
                "pitch": 69,
                "velocity": 82
            },
            {
                "start": 99.99899999999998,
                "end": 100.08001770833332,
                "pitch": 72,
                "velocity": 98
            },
            {
                "start": 100.11010999999999,
                "end": 100.18418333333332,
                "pitch": 69,
                "velocity": 62
            },
            {
                "start": 100.22121999999999,
                "end": 100.29760812499998,
                "pitch": 76,
                "velocity": 95
            },
            {
                "start": 100.33232999999998,
                "end": 100.41334770833332,
                "pitch": 72,
                "velocity": 78
            },
            {
                "start": 100.55454999999999,
                "end": 100.63093812499999,
                "pitch": 76,
                "velocity": 75
            },
            {
                "start": 100.66565999999999,
                "end": 100.73973333333332,
                "pitch": 69,
                "velocity": 82
            },
            {
                "start": 100.88787999999998,
                "end": 100.96889770833332,
                "pitch": 72,
                "velocity": 98
            },
            {
                "start": 100.99898999999999,
                "end": 101.07306333333332,
                "pitch": 69,
                "velocity": 62
            },
            {
                "start": 101.11009999999999,
                "end": 101.18648812499998,
                "pitch": 76,
                "velocity": 95
            },
            {
                "start": 101.22120999999999,
                "end": 101.30222770833332,
                "pitch": 72,
                "velocity": 78
            },
            {
                "start": 101.44342999999999,
                "end": 101.51981812499999,
                "pitch": 76,
                "velocity": 75
            },
            {
                "start": 101.55453999999999,
                "end": 101.62861333333332,
                "pitch": 65,
                "velocity": 82
            },
            {
                "start": 101.77675999999998,
                "end": 101.85777770833332,
                "pitch": 69,
                "velocity": 98
            },
            {
                "start": 101.88786999999999,
                "end": 101.96194333333332,
                "pitch": 65,
                "velocity": 62
            },
            {
                "start": 101.99897999999999,
                "end": 102.07536812499998,
                "pitch": 72,
                "velocity": 95
            },
            {
                "start": 102.11008999999999,
                "end": 102.19110770833332,
                "pitch": 69,
                "velocity": 78
            },
            {
                "start": 102.33230999999999,
                "end": 102.40869812499999,
                "pitch": 72,
                "velocity": 75
            },
            {
                "start": 102.44341999999999,
                "end": 102.51749333333332,
                "pitch": 65,
                "velocity": 82
            },
            {
                "start": 102.66563999999998,
                "end": 102.74665770833332,
                "pitch": 69,
                "velocity": 98
            },
            {
                "start": 102.77674999999999,
                "end": 102.85082333333332,
                "pitch": 65,
                "velocity": 62
            },
            {
                "start": 102.88785999999999,
                "end": 102.96424812499998,
                "pitch": 72,
                "velocity": 95
            },
            {
                "start": 102.99896999999999,
                "end": 103.07998770833332,
                "pitch": 69,
                "velocity": 78
            },
            {
                "start": 103.22118999999999,
                "end": 103.29757812499999,
                "pitch": 72,
                "velocity": 75
            },
            {
                "start": 103.33229999999999,
                "end": 103.40637333333332,
                "pitch": 67,
                "velocity": 82
            },
            {
                "start": 103.55451999999998,
                "end": 103.63553770833332,
                "pitch": 71,
                "velocity": 98
            },
            {
                "start": 103.66563,
                "end": 103.73970333333332,
                "pitch": 67,
                "velocity": 62
            },
            {
                "start": 103.77673999999999,
                "end": 103.85312812499998,
                "pitch": 74,
                "velocity": 95
            },
            {
                "start": 103.88784999999999,
                "end": 103.96886770833332,
                "pitch": 71,
                "velocity": 78
            },
            {
                "start": 104.11007,
                "end": 104.18645812499999,
                "pitch": 74,
                "velocity": 75
            },
            {
                "start": 104.22117999999999,
                "end": 104.29525333333332,
                "pitch": 67,
                "velocity": 82
            },
            {
                "start": 104.44339999999998,
                "end": 104.52441770833332,
                "pitch": 71,
                "velocity": 98
            },
            {
                "start": 104.55451,
                "end": 104.62858333333332,
                "pitch": 67,
                "velocity": 62
            },
            {
                "start": 104.66561999999999,
                "end": 104.74200812499998,
                "pitch": 74,
                "velocity": 95
            },
            {
                "start": 104.77672999999999,
                "end": 104.85774770833332,
                "pitch": 71,
                "velocity": 78
            },
            {
                "start": 104.99895,
                "end": 105.07533812499999,
                "pitch": 74,
                "velocity": 75
            },
            {
                "start": 105.11005999999999,
                "end": 105.18413333333332,
                "pitch": 64,
                "velocity": 82
            },
            {
                "start": 105.33227999999998,
                "end": 105.41329770833332,
                "pitch": 67,
                "velocity": 98
            },
            {
                "start": 105.44339,
                "end": 105.51746333333332,
                "pitch": 64,
                "velocity": 62
            },
            {
                "start": 105.55449999999999,
                "end": 105.63088812499998,
                "pitch": 71,
                "velocity": 95
            },
            {
                "start": 105.66560999999999,
                "end": 105.74662770833332,
                "pitch": 67,
                "velocity": 78
            },
            {
                "start": 105.88783,
                "end": 105.96421812499999,
                "pitch": 71,
                "velocity": 75
            },
            {
                "start": 105.99893999999999,
                "end": 106.07301333333332,
                "pitch": 64,
                "velocity": 82
            },
            {
                "start": 106.22115999999998,
                "end": 106.30217770833332,
                "pitch": 67,
                "velocity": 98
            },
            {
                "start": 106.33227,
                "end": 106.40634333333333,
                "pitch": 64,
                "velocity": 62
            },
            {
                "start": 106.44337999999999,
                "end": 106.51976812499998,
                "pitch": 71,
                "velocity": 95
            },
            {
                "start": 106.55448999999999,
                "end": 106.63550770833332,
                "pitch": 67,
                "velocity": 78
            },
            {
                "start": 106.77670999999998,
                "end": 106.85309812499999,
                "pitch": 71,
                "velocity": 75
            }
        ],
        "pitch_classes": [
            10,
            0,
            8,
            0,
            12,
            6,
            0,
            16,
            0,
            10,
            0,
            16
        ],
        "velocity_mean": 81.66666666666667,
        "pitch_mean": 69.43589743589743,
        "pitch_std": 3.3877219620335888,
        "duration_mean": 0.07715972222221996,
        "song_name": "Let_Me_Be_Free.mid",
        "tempo": 259.0947072502645,
        "time_signature": "4/4",
        "key": "C",
        "camelot_key": "8B",
        "maj_min": "major"
    },
    "Let_Me_Be_Free.mid_190.5690870442278_209.09513124999998": {
        "instrument_no": 5,
        "instrument_category": "Other",
        "program": 81,
        "is_drum": false,
        "section_start": 190.5690870442278,
        "section_end": 209.09513124999998,
        "notes": [
            {
                "start": 190.66475999999997,
                "end": 190.74577770833332,
                "pitch": 67,
                "velocity": 98
            },
            {
                "start": 190.77586999999997,
                "end": 190.8499433333333,
                "pitch": 64,
                "velocity": 62
            },
            {
                "start": 190.88697999999997,
                "end": 190.963368125,
                "pitch": 71,
                "velocity": 95
            },
            {
                "start": 190.99809,
                "end": 191.0791077083333,
                "pitch": 67,
                "velocity": 78
            },
            {
                "start": 191.22030999999998,
                "end": 191.29669812499998,
                "pitch": 71,
                "velocity": 75
            },
            {
                "start": 191.33141999999998,
                "end": 191.4054933333333,
                "pitch": 64,
                "velocity": 82
            },
            {
                "start": 191.55363999999997,
                "end": 191.63465770833332,
                "pitch": 67,
                "velocity": 98
            },
            {
                "start": 191.66474999999997,
                "end": 191.7388233333333,
                "pitch": 64,
                "velocity": 62
            },
            {
                "start": 191.77585999999997,
                "end": 191.852248125,
                "pitch": 71,
                "velocity": 95
            },
            {
                "start": 191.88697,
                "end": 191.9679877083333,
                "pitch": 67,
                "velocity": 78
            },
            {
                "start": 192.10918999999998,
                "end": 192.18557812499998,
                "pitch": 71,
                "velocity": 75
            },
            {
                "start": 192.22029999999998,
                "end": 192.2943733333333,
                "pitch": 69,
                "velocity": 82
            },
            {
                "start": 192.44251999999997,
                "end": 192.52353770833332,
                "pitch": 72,
                "velocity": 98
            },
            {
                "start": 192.55362999999997,
                "end": 192.6277033333333,
                "pitch": 69,
                "velocity": 62
            },
            {
                "start": 192.66473999999997,
                "end": 192.741128125,
                "pitch": 76,
                "velocity": 95
            },
            {
                "start": 192.77584999999996,
                "end": 192.8568677083333,
                "pitch": 72,
                "velocity": 78
            },
            {
                "start": 192.99806999999998,
                "end": 193.07445812499998,
                "pitch": 76,
                "velocity": 75
            },
            {
                "start": 193.10917999999998,
                "end": 193.1832533333333,
                "pitch": 69,
                "velocity": 82
            },
            {
                "start": 193.33139999999997,
                "end": 193.41241770833332,
                "pitch": 72,
                "velocity": 98
            },
            {
                "start": 193.44250999999997,
                "end": 193.5165833333333,
                "pitch": 69,
                "velocity": 62
            },
            {
                "start": 193.55361999999997,
                "end": 193.630008125,
                "pitch": 76,
                "velocity": 95
            },
            {
                "start": 193.66472999999996,
                "end": 193.7457477083333,
                "pitch": 72,
                "velocity": 78
            },
            {
                "start": 193.88694999999998,
                "end": 193.96333812499998,
                "pitch": 76,
                "velocity": 75
            },
            {
                "start": 193.99805999999998,
                "end": 194.0721333333333,
                "pitch": 65,
                "velocity": 82
            },
            {
                "start": 194.22027999999997,
                "end": 194.30129770833332,
                "pitch": 69,
                "velocity": 98
            },
            {
                "start": 194.33138999999997,
                "end": 194.4054633333333,
                "pitch": 65,
                "velocity": 62
            },
            {
                "start": 194.44249999999997,
                "end": 194.518888125,
                "pitch": 72,
                "velocity": 95
            },
            {
                "start": 194.55360999999996,
                "end": 194.6346277083333,
                "pitch": 69,
                "velocity": 78
            },
            {
                "start": 194.77582999999998,
                "end": 194.85221812499998,
                "pitch": 72,
                "velocity": 75
            },
            {
                "start": 194.88693999999998,
                "end": 194.9610133333333,
                "pitch": 65,
                "velocity": 82
            },
            {
                "start": 195.10915999999997,
                "end": 195.19017770833332,
                "pitch": 69,
                "velocity": 98
            },
            {
                "start": 195.22026999999997,
                "end": 195.2943433333333,
                "pitch": 65,
                "velocity": 62
            },
            {
                "start": 195.33137999999997,
                "end": 195.407768125,
                "pitch": 72,
                "velocity": 95
            },
            {
                "start": 195.44248999999996,
                "end": 195.5235077083333,
                "pitch": 69,
                "velocity": 78
            },
            {
                "start": 195.66470999999999,
                "end": 195.74109812499998,
                "pitch": 72,
                "velocity": 75
            },
            {
                "start": 195.77581999999998,
                "end": 195.8498933333333,
                "pitch": 67,
                "velocity": 82
            },
            {
                "start": 195.99803999999997,
                "end": 196.07905770833332,
                "pitch": 71,
                "velocity": 98
            },
            {
                "start": 196.10914999999997,
                "end": 196.1832233333333,
                "pitch": 67,
                "velocity": 62
            },
            {
                "start": 196.22025999999997,
                "end": 196.296648125,
                "pitch": 74,
                "velocity": 95
            },
            {
                "start": 196.33136999999996,
                "end": 196.4123877083333,
                "pitch": 71,
                "velocity": 78
            },
            {
                "start": 196.55358999999999,
                "end": 196.62997812499998,
                "pitch": 74,
                "velocity": 75
            },
            {
                "start": 196.66469999999998,
                "end": 196.7387733333333,
                "pitch": 67,
                "velocity": 82
            },
            {
                "start": 196.88691999999998,
                "end": 196.96793770833332,
                "pitch": 71,
                "velocity": 98
            },
            {
                "start": 196.99802999999997,
                "end": 197.0721033333333,
                "pitch": 67,
                "velocity": 62
            },
            {
                "start": 197.10913999999997,
                "end": 197.18552812499996,
                "pitch": 74,
                "velocity": 95
            },
            {
                "start": 197.22024999999996,
                "end": 197.3012677083333,
                "pitch": 71,
                "velocity": 78
            },
            {
                "start": 197.44247,
                "end": 197.51885812499998,
                "pitch": 74,
                "velocity": 75
            },
            {
                "start": 197.55357999999998,
                "end": 197.6276533333333,
                "pitch": 64,
                "velocity": 82
            },
            {
                "start": 197.77579999999998,
                "end": 197.8568177083333,
                "pitch": 67,
                "velocity": 98
            },
            {
                "start": 197.88690999999997,
                "end": 197.9609833333333,
                "pitch": 64,
                "velocity": 62
            },
            {
                "start": 197.99801999999997,
                "end": 198.07440812499996,
                "pitch": 71,
                "velocity": 95
            },
            {
                "start": 198.10912999999996,
                "end": 198.1901477083333,
                "pitch": 67,
                "velocity": 78
            },
            {
                "start": 198.33135,
                "end": 198.40773812499998,
                "pitch": 71,
                "velocity": 75
            },
            {
                "start": 198.44245999999998,
                "end": 198.5165333333333,
                "pitch": 64,
                "velocity": 82
            },
            {
                "start": 198.66467999999998,
                "end": 198.7456977083333,
                "pitch": 67,
                "velocity": 98
            },
            {
                "start": 198.77578999999997,
                "end": 198.8498633333333,
                "pitch": 64,
                "velocity": 62
            },
            {
                "start": 198.88689999999997,
                "end": 198.96328812499996,
                "pitch": 71,
                "velocity": 95
            },
            {
                "start": 198.99800999999997,
                "end": 199.0790277083333,
                "pitch": 67,
                "velocity": 78
            },
            {
                "start": 199.22023,
                "end": 199.29661812499998,
                "pitch": 71,
                "velocity": 75
            },
            {
                "start": 199.33133999999998,
                "end": 199.4054133333333,
                "pitch": 69,
                "velocity": 82
            },
            {
                "start": 199.55355999999998,
                "end": 199.6345777083333,
                "pitch": 72,
                "velocity": 98
            },
            {
                "start": 199.66466999999997,
                "end": 199.7387433333333,
                "pitch": 69,
                "velocity": 62
            },
            {
                "start": 199.77577999999997,
                "end": 199.85216812499996,
                "pitch": 76,
                "velocity": 95
            },
            {
                "start": 199.88688999999997,
                "end": 199.9679077083333,
                "pitch": 72,
                "velocity": 78
            },
            {
                "start": 200.10911,
                "end": 200.18549812499998,
                "pitch": 76,
                "velocity": 75
            },
            {
                "start": 200.22021999999998,
                "end": 200.29429333333331,
                "pitch": 69,
                "velocity": 82
            },
            {
                "start": 200.44243999999998,
                "end": 200.5234577083333,
                "pitch": 72,
                "velocity": 98
            },
            {
                "start": 200.55354999999997,
                "end": 200.6276233333333,
                "pitch": 69,
                "velocity": 62
            },
            {
                "start": 200.66465999999997,
                "end": 200.74104812499996,
                "pitch": 76,
                "velocity": 95
            },
            {
                "start": 200.77576999999997,
                "end": 200.85678770833331,
                "pitch": 72,
                "velocity": 78
            },
            {
                "start": 200.99799,
                "end": 201.07437812499998,
                "pitch": 76,
                "velocity": 75
            },
            {
                "start": 201.10909999999998,
                "end": 201.18317333333331,
                "pitch": 65,
                "velocity": 82
            },
            {
                "start": 201.33131999999998,
                "end": 201.4123377083333,
                "pitch": 69,
                "velocity": 98
            },
            {
                "start": 201.44242999999997,
                "end": 201.5165033333333,
                "pitch": 65,
                "velocity": 62
            },
            {
                "start": 201.55353999999997,
                "end": 201.62992812499996,
                "pitch": 72,
                "velocity": 95
            },
            {
                "start": 201.66464999999997,
                "end": 201.74566770833331,
                "pitch": 69,
                "velocity": 78
            },
            {
                "start": 201.88687,
                "end": 201.96325812499998,
                "pitch": 72,
                "velocity": 75
            },
            {
                "start": 201.99797999999998,
                "end": 202.07205333333332,
                "pitch": 65,
                "velocity": 82
            },
            {
                "start": 202.22019999999998,
                "end": 202.3012177083333,
                "pitch": 69,
                "velocity": 98
            },
            {
                "start": 202.33130999999997,
                "end": 202.4053833333333,
                "pitch": 65,
                "velocity": 62
            },
            {
                "start": 202.44241999999997,
                "end": 202.51880812499996,
                "pitch": 72,
                "velocity": 95
            },
            {
                "start": 202.55352999999997,
                "end": 202.63454770833332,
                "pitch": 69,
                "velocity": 78
            },
            {
                "start": 202.77575,
                "end": 202.85213812499998,
                "pitch": 72,
                "velocity": 75
            },
            {
                "start": 202.88685999999998,
                "end": 202.96093333333332,
                "pitch": 67,
                "velocity": 82
            },
            {
                "start": 203.10907999999998,
                "end": 203.1900977083333,
                "pitch": 71,
                "velocity": 98
            },
            {
                "start": 203.22018999999997,
                "end": 203.2942633333333,
                "pitch": 67,
                "velocity": 62
            },
            {
                "start": 203.33129999999997,
                "end": 203.40768812499996,
                "pitch": 74,
                "velocity": 95
            },
            {
                "start": 203.44240999999997,
                "end": 203.52342770833332,
                "pitch": 71,
                "velocity": 78
            },
            {
                "start": 203.66463,
                "end": 203.74101812499998,
                "pitch": 74,
                "velocity": 75
            },
            {
                "start": 203.77573999999998,
                "end": 203.84981333333332,
                "pitch": 67,
                "velocity": 82
            },
            {
                "start": 203.99795999999998,
                "end": 204.0789777083333,
                "pitch": 71,
                "velocity": 98
            },
            {
                "start": 204.10906999999997,
                "end": 204.1831433333333,
                "pitch": 67,
                "velocity": 62
            },
            {
                "start": 204.22017999999997,
                "end": 204.29656812499996,
                "pitch": 74,
                "velocity": 95
            },
            {
                "start": 204.33128999999997,
                "end": 204.41230770833332,
                "pitch": 71,
                "velocity": 78
            },
            {
                "start": 204.55351,
                "end": 204.62989812499998,
                "pitch": 74,
                "velocity": 75
            },
            {
                "start": 204.66461999999999,
                "end": 204.73869333333332,
                "pitch": 64,
                "velocity": 82
            },
            {
                "start": 204.88683999999998,
                "end": 204.9678577083333,
                "pitch": 67,
                "velocity": 98
            },
            {
                "start": 204.99794999999997,
                "end": 205.0720233333333,
                "pitch": 64,
                "velocity": 62
            },
            {
                "start": 205.10905999999997,
                "end": 205.18544812499997,
                "pitch": 71,
                "velocity": 95
            },
            {
                "start": 205.22016999999997,
                "end": 205.30118770833332,
                "pitch": 67,
                "velocity": 78
            },
            {
                "start": 205.44239,
                "end": 205.51877812499998,
                "pitch": 71,
                "velocity": 75
            },
            {
                "start": 205.55349999999999,
                "end": 205.62757333333332,
                "pitch": 64,
                "velocity": 82
            },
            {
                "start": 205.77571999999998,
                "end": 205.8567377083333,
                "pitch": 67,
                "velocity": 98
            },
            {
                "start": 205.88682999999997,
                "end": 205.9609033333333,
                "pitch": 64,
                "velocity": 62
            },
            {
                "start": 205.99793999999997,
                "end": 206.07432812499997,
                "pitch": 71,
                "velocity": 95
            },
            {
                "start": 206.10904999999997,
                "end": 206.19006770833332,
                "pitch": 67,
                "velocity": 78
            },
            {
                "start": 206.33126999999996,
                "end": 206.40765812499998,
                "pitch": 71,
                "velocity": 75
            }
        ],
        "pitch_classes": [
            16,
            0,
            8,
            0,
            19,
            8,
            0,
            20,
            0,
            16,
            0,
            20
        ],
        "velocity_mean": 81.66355140186916,
        "pitch_mean": 69.53271028037383,
        "pitch_std": 3.443313327751613,
        "duration_mean": 0.07718856697819443,
        "song_name": "Let_Me_Be_Free.mid",
        "tempo": 259.0947072502645,
        "time_signature": "4/4",
        "key": "C",
        "camelot_key": "8B",
        "maj_min": "major"
    },
    "Never_Alone.mid_116.12920559830403_138.17743502669597": {
        "instrument_no": 10,
        "instrument_category": "Other",
        "program": 17,
        "is_drum": false,
        "section_start": 116.12920559830403,
        "section_end": 138.17743502669597,
        "notes": [
            {
                "start": 116.484375,
                "end": 116.602783203125,
                "pitch": 75,
                "velocity": 64
            },
            {
                "start": 116.484375,
                "end": 116.607666015625,
                "pitch": 72,
                "velocity": 64
            },
            {
                "start": 116.484375,
                "end": 116.612548828125,
                "pitch": 68,
                "velocity": 64
            },
            {
                "start": 116.8359375,
                "end": 116.954345703125,
                "pitch": 75,
                "velocity": 64
            },
            {
                "start": 116.8359375,
                "end": 116.964111328125,
                "pitch": 72,
                "velocity": 64
            },
            {
                "start": 116.8359375,
                "end": 116.983642578125,
                "pitch": 68,
                "velocity": 64
            },
            {
                "start": 117.1875,
                "end": 117.3193359375,
                "pitch": 75,
                "velocity": 64
            },
            {
                "start": 117.1875,
                "end": 117.32421875,
                "pitch": 72,
                "velocity": 64
            },
            {
                "start": 117.1875,
                "end": 117.325439453125,
                "pitch": 68,
                "velocity": 64
            },
            {
                "start": 117.5390625,
                "end": 117.67578125,
                "pitch": 72,
                "velocity": 64
            },
            {
                "start": 117.5390625,
                "end": 117.6806640625,
                "pitch": 75,
                "velocity": 64
            },
            {
                "start": 117.5390625,
                "end": 117.685546875,
                "pitch": 68,
                "velocity": 64
            },
            {
                "start": 117.890625,
                "end": 118.017578125,
                "pitch": 72,
                "velocity": 64
            },
            {
                "start": 117.890625,
                "end": 118.017578125,
                "pitch": 68,
                "velocity": 64
            },
            {
                "start": 117.890625,
                "end": 118.023681640625,
                "pitch": 75,
                "velocity": 64
            },
            {
                "start": 118.359375,
                "end": 118.477783203125,
                "pitch": 70,
                "velocity": 64
            },
            {
                "start": 118.359375,
                "end": 118.482666015625,
                "pitch": 66,
                "velocity": 64
            },
            {
                "start": 118.359375,
                "end": 118.487548828125,
                "pitch": 63,
                "velocity": 64
            },
            {
                "start": 118.7109375,
                "end": 118.829345703125,
                "pitch": 70,
                "velocity": 64
            },
            {
                "start": 118.7109375,
                "end": 118.839111328125,
                "pitch": 66,
                "velocity": 64
            },
            {
                "start": 118.7109375,
                "end": 118.858642578125,
                "pitch": 63,
                "velocity": 64
            },
            {
                "start": 119.0625,
                "end": 119.1943359375,
                "pitch": 70,
                "velocity": 64
            },
            {
                "start": 119.0625,
                "end": 119.19921875,
                "pitch": 66,
                "velocity": 64
            },
            {
                "start": 119.0625,
                "end": 119.200439453125,
                "pitch": 63,
                "velocity": 64
            },
            {
                "start": 119.4140625,
                "end": 119.55078125,
                "pitch": 66,
                "velocity": 64
            },
            {
                "start": 119.4140625,
                "end": 119.5556640625,
                "pitch": 70,
                "velocity": 64
            },
            {
                "start": 119.4140625,
                "end": 119.560546875,
                "pitch": 63,
                "velocity": 64
            },
            {
                "start": 119.765625,
                "end": 119.892578125,
                "pitch": 66,
                "velocity": 64
            },
            {
                "start": 119.765625,
                "end": 119.892578125,
                "pitch": 63,
                "velocity": 64
            },
            {
                "start": 119.765625,
                "end": 119.898681640625,
                "pitch": 70,
                "velocity": 64
            },
            {
                "start": 120.234375,
                "end": 120.352783203125,
                "pitch": 71,
                "velocity": 64
            },
            {
                "start": 120.234375,
                "end": 120.357666015625,
                "pitch": 68,
                "velocity": 64
            },
            {
                "start": 120.234375,
                "end": 120.362548828125,
                "pitch": 64,
                "velocity": 64
            },
            {
                "start": 120.5859375,
                "end": 120.704345703125,
                "pitch": 71,
                "velocity": 64
            },
            {
                "start": 120.5859375,
                "end": 120.714111328125,
                "pitch": 68,
                "velocity": 64
            },
            {
                "start": 120.5859375,
                "end": 120.733642578125,
                "pitch": 64,
                "velocity": 64
            },
            {
                "start": 120.9375,
                "end": 121.0693359375,
                "pitch": 71,
                "velocity": 64
            },
            {
                "start": 120.9375,
                "end": 121.07421875,
                "pitch": 68,
                "velocity": 64
            },
            {
                "start": 120.9375,
                "end": 121.075439453125,
                "pitch": 64,
                "velocity": 64
            },
            {
                "start": 121.2890625,
                "end": 121.42578125,
                "pitch": 68,
                "velocity": 64
            },
            {
                "start": 121.2890625,
                "end": 121.4306640625,
                "pitch": 71,
                "velocity": 64
            },
            {
                "start": 121.2890625,
                "end": 121.435546875,
                "pitch": 64,
                "velocity": 64
            },
            {
                "start": 121.640625,
                "end": 121.767578125,
                "pitch": 68,
                "velocity": 64
            },
            {
                "start": 121.640625,
                "end": 121.767578125,
                "pitch": 64,
                "velocity": 64
            },
            {
                "start": 121.640625,
                "end": 121.773681640625,
                "pitch": 71,
                "velocity": 64
            },
            {
                "start": 122.109375,
                "end": 122.227783203125,
                "pitch": 73,
                "velocity": 64
            },
            {
                "start": 122.109375,
                "end": 122.232666015625,
                "pitch": 70,
                "velocity": 64
            },
            {
                "start": 122.109375,
                "end": 122.237548828125,
                "pitch": 66,
                "velocity": 64
            },
            {
                "start": 122.4609375,
                "end": 122.579345703125,
                "pitch": 73,
                "velocity": 64
            },
            {
                "start": 122.4609375,
                "end": 122.589111328125,
                "pitch": 70,
                "velocity": 64
            },
            {
                "start": 122.4609375,
                "end": 122.608642578125,
                "pitch": 66,
                "velocity": 64
            },
            {
                "start": 122.8125,
                "end": 122.9443359375,
                "pitch": 73,
                "velocity": 64
            },
            {
                "start": 122.8125,
                "end": 122.94921875,
                "pitch": 70,
                "velocity": 64
            },
            {
                "start": 122.8125,
                "end": 122.950439453125,
                "pitch": 66,
                "velocity": 64
            },
            {
                "start": 123.1640625,
                "end": 123.30078125,
                "pitch": 70,
                "velocity": 64
            },
            {
                "start": 123.1640625,
                "end": 123.3056640625,
                "pitch": 73,
                "velocity": 64
            },
            {
                "start": 123.1640625,
                "end": 123.310546875,
                "pitch": 66,
                "velocity": 64
            },
            {
                "start": 123.515625,
                "end": 123.642578125,
                "pitch": 70,
                "velocity": 64
            },
            {
                "start": 123.515625,
                "end": 123.642578125,
                "pitch": 66,
                "velocity": 64
            },
            {
                "start": 123.515625,
                "end": 123.648681640625,
                "pitch": 73,
                "velocity": 64
            }
        ],
        "pitch_classes": [
            5,
            5,
            0,
            10,
            5,
            0,
            10,
            0,
            10,
            0,
            10,
            5
        ],
        "velocity_mean": 64.0,
        "pitch_mean": 68.83333333333333,
        "pitch_std": 3.5079275299748645,
        "duration_mean": 0.13216145833333334,
        "song_name": "Never_Alone.mid",
        "tempo": 217.7045560773666,
        "time_signature": "4/4",
        "key": "Ab",
        "camelot_key": "1A",
        "maj_min": "minor"
    },
    "Never_Alone.mid_232.25841119660805_254.306640625": {
        "instrument_no": 3,
        "instrument_category": "Other",
        "program": 49,
        "is_drum": false,
        "section_start": 232.25841119660805,
        "section_end": 254.306640625,
        "notes": [
            {
                "start": 232.451171875,
                "end": 233.4228515625,
                "pitch": 80,
                "velocity": 82
            },
            {
                "start": 233.385009765625,
                "end": 234.322509765625,
                "pitch": 83,
                "velocity": 82
            },
            {
                "start": 234.317626953125,
                "end": 236.240234375,
                "pitch": 85,
                "velocity": 82
            },
            {
                "start": 236.19140625,
                "end": 238.116455078125,
                "pitch": 80,
                "velocity": 82
            },
            {
                "start": 238.0859375,
                "end": 239.981689453125,
                "pitch": 82,
                "velocity": 82
            },
            {
                "start": 239.951171875,
                "end": 240.9228515625,
                "pitch": 80,
                "velocity": 82
            },
            {
                "start": 240.885009765625,
                "end": 241.822509765625,
                "pitch": 83,
                "velocity": 82
            },
            {
                "start": 241.817626953125,
                "end": 243.740234375,
                "pitch": 85,
                "velocity": 82
            }
        ],
        "pitch_classes": [
            0,
            2,
            0,
            0,
            0,
            0,
            0,
            0,
            3,
            0,
            1,
            2
        ],
        "velocity_mean": 82.0,
        "pitch_mean": 82.25,
        "pitch_std": 1.984313483298443,
        "duration_mean": 1.435546875,
        "song_name": "Never_Alone.mid",
        "tempo": 217.7045560773666,
        "time_signature": "4/4",
        "key": "Eb",
        "camelot_key": "2A",
        "maj_min": "minor"
    },
    "Dreams.1.mid_66.34468841375573_85.23022419457759": {
        "instrument_no": 2,
        "instrument_category": "Other",
        "program": 90,
        "is_drum": false,
        "section_start": 66.34468841375573,
        "section_end": 85.23022419457759,
        "notes": [
            {
                "start": 79.39835199999999,
                "end": 80.71413908333332,
                "pitch": 67,
                "velocity": 100
            },
            {
                "start": 80.75173299999999,
                "end": 80.95474014999999,
                "pitch": 69,
                "velocity": 100
            },
            {
                "start": 80.9772965,
                "end": 81.18030364999998,
                "pitch": 70,
                "velocity": 100
            },
            {
                "start": 81.09007824999999,
                "end": 82.59383491666665,
                "pitch": 63,
                "velocity": 100
            },
            {
                "start": 83.00736799999999,
                "end": 84.13518549999999,
                "pitch": 70,
                "velocity": 100
            },
            {
                "start": 84.13518549999999,
                "end": 84.33819265,
                "pitch": 72,
                "velocity": 100
            },
            {
                "start": 84.36074899999998,
                "end": 84.56375614999999,
                "pitch": 74,
                "velocity": 100
            },
            {
                "start": 84.58631249999999,
                "end": 84.96225166666666,
                "pitch": 74,
                "velocity": 100
            },
            {
                "start": 85.03743949999999,
                "end": 85.41337866666666,
                "pitch": 77,
                "velocity": 100
            }
        ],
        "pitch_classes": [
            1,
            0,
            2,
            1,
            0,
            1,
            0,
            1,
            0,
            1,
            2,
            0
        ],
        "velocity_mean": 100.0,
        "pitch_mean": 70.66666666666667,
        "pitch_std": 3.9440531887330774,
        "duration_mean": 0.6123631314814825,
        "song_name": "Dreams.1.mid",
        "tempo": 254.1627653939461,
        "time_signature": "4/4",
        "key": "G",
        "camelot_key": "6A",
        "maj_min": "minor"
    },
    "Dreams.1.mid_132.68937682751147_151.5749126083333": {
        "instrument_no": 6,
        "instrument_category": "Other",
        "program": 90,
        "is_drum": false,
        "section_start": 132.68937682751147,
        "section_end": 151.5749126083333,
        "notes": [
            {
                "start": 132.8569015,
                "end": 132.95840507499997,
                "pitch": 72,
                "velocity": 100
            },
            {
                "start": 132.96968324999997,
                "end": 133.07118682499998,
                "pitch": 70,
                "velocity": 100
            },
            {
                "start": 133.19524675,
                "end": 133.29675032499998,
                "pitch": 72,
                "velocity": 100
            },
            {
                "start": 133.30802849999998,
                "end": 133.409532075,
                "pitch": 70,
                "velocity": 100
            },
            {
                "start": 133.533592,
                "end": 133.63509557499998,
                "pitch": 70,
                "velocity": 100
            },
            {
                "start": 133.7591555,
                "end": 133.86065907499997,
                "pitch": 77,
                "velocity": 100
            },
            {
                "start": 133.98471899999998,
                "end": 134.086222575,
                "pitch": 70,
                "velocity": 100
            },
            {
                "start": 134.09750075,
                "end": 134.19900432499998,
                "pitch": 77,
                "velocity": 100
            },
            {
                "start": 134.32306425,
                "end": 134.424567825,
                "pitch": 70,
                "velocity": 100
            },
            {
                "start": 134.435846,
                "end": 134.53734957499998,
                "pitch": 77,
                "velocity": 100
            },
            {
                "start": 134.6614095,
                "end": 134.76291307499997,
                "pitch": 70,
                "velocity": 100
            },
            {
                "start": 134.77419124999997,
                "end": 134.87569482499998,
                "pitch": 77,
                "velocity": 100
            },
            {
                "start": 134.99975475,
                "end": 135.10125832499998,
                "pitch": 70,
                "velocity": 100
            },
            {
                "start": 135.11253649999998,
                "end": 135.21404007499999,
                "pitch": 77,
                "velocity": 100
            },
            {
                "start": 135.3381,
                "end": 135.43960357499998,
                "pitch": 70,
                "velocity": 100
            },
            {
                "start": 135.5636635,
                "end": 135.665167075,
                "pitch": 72,
                "velocity": 100
            },
            {
                "start": 135.78922699999998,
                "end": 135.890730575,
                "pitch": 70,
                "velocity": 100
            },
            {
                "start": 135.90200875,
                "end": 136.00351232499997,
                "pitch": 72,
                "velocity": 100
            },
            {
                "start": 136.12757225,
                "end": 136.229075825,
                "pitch": 70,
                "velocity": 100
            },
            {
                "start": 136.240354,
                "end": 136.34185757499998,
                "pitch": 72,
                "velocity": 100
            },
            {
                "start": 136.4659175,
                "end": 136.567421075,
                "pitch": 70,
                "velocity": 100
            },
            {
                "start": 136.57869924999997,
                "end": 136.68020282499998,
                "pitch": 72,
                "velocity": 100
            },
            {
                "start": 136.80426275,
                "end": 136.90576632499997,
                "pitch": 70,
                "velocity": 100
            },
            {
                "start": 136.91704449999997,
                "end": 137.01854807499998,
                "pitch": 74,
                "velocity": 100
            },
            {
                "start": 137.142608,
                "end": 137.24411157499998,
                "pitch": 72,
                "velocity": 100
            },
            {
                "start": 137.3681715,
                "end": 137.469675075,
                "pitch": 74,
                "velocity": 99
            },
            {
                "start": 137.59373499999998,
                "end": 137.695238575,
                "pitch": 72,
                "velocity": 98
            },
            {
                "start": 137.70651675,
                "end": 137.80802032499997,
                "pitch": 74,
                "velocity": 97
            },
            {
                "start": 137.93208024999998,
                "end": 138.033583825,
                "pitch": 72,
                "velocity": 96
            },
            {
                "start": 138.044862,
                "end": 138.14636557499998,
                "pitch": 74,
                "velocity": 95
            },
            {
                "start": 138.2704255,
                "end": 138.371929075,
                "pitch": 72,
                "velocity": 93
            },
            {
                "start": 138.38320725,
                "end": 138.48471082499998,
                "pitch": 74,
                "velocity": 93
            },
            {
                "start": 138.60877075,
                "end": 138.71027432499997,
                "pitch": 72,
                "velocity": 91
            },
            {
                "start": 138.72155249999997,
                "end": 138.82305607499998,
                "pitch": 74,
                "velocity": 91
            },
            {
                "start": 138.947116,
                "end": 139.04861957499998,
                "pitch": 70,
                "velocity": 89
            },
            {
                "start": 139.1726795,
                "end": 139.274183075,
                "pitch": 70,
                "velocity": 88
            },
            {
                "start": 139.39824299999998,
                "end": 139.499746575,
                "pitch": 72,
                "velocity": 86
            },
            {
                "start": 139.51102475,
                "end": 139.61252832499997,
                "pitch": 70,
                "velocity": 86
            },
            {
                "start": 139.73658824999998,
                "end": 139.838091825,
                "pitch": 72,
                "velocity": 84
            },
            {
                "start": 139.84937,
                "end": 139.95087357499997,
                "pitch": 70,
                "velocity": 84
            },
            {
                "start": 140.0749335,
                "end": 140.176437075,
                "pitch": 72,
                "velocity": 82
            },
            {
                "start": 140.18771525,
                "end": 140.28921882499998,
                "pitch": 70,
                "velocity": 82
            },
            {
                "start": 140.41327875,
                "end": 140.514782325,
                "pitch": 72,
                "velocity": 80
            },
            {
                "start": 140.52606049999997,
                "end": 140.62756407499998,
                "pitch": 70,
                "velocity": 79
            },
            {
                "start": 140.751624,
                "end": 140.85312757499997,
                "pitch": 70,
                "velocity": 78
            },
            {
                "start": 140.97718749999999,
                "end": 141.078691075,
                "pitch": 77,
                "velocity": 77
            },
            {
                "start": 141.20275099999998,
                "end": 141.304254575,
                "pitch": 70,
                "velocity": 75
            },
            {
                "start": 141.31553275,
                "end": 141.417036325,
                "pitch": 77,
                "velocity": 74
            },
            {
                "start": 141.54109624999998,
                "end": 141.642599825,
                "pitch": 70,
                "velocity": 73
            },
            {
                "start": 141.653878,
                "end": 141.75538157499997,
                "pitch": 77,
                "velocity": 72
            },
            {
                "start": 141.87944149999998,
                "end": 141.980945075,
                "pitch": 70,
                "velocity": 71
            },
            {
                "start": 141.99222325,
                "end": 142.09372682499998,
                "pitch": 77,
                "velocity": 70
            },
            {
                "start": 142.21778675,
                "end": 142.319290325,
                "pitch": 70,
                "velocity": 69
            },
            {
                "start": 142.3305685,
                "end": 142.43207207499998,
                "pitch": 77,
                "velocity": 68
            },
            {
                "start": 142.556132,
                "end": 142.65763557499997,
                "pitch": 70,
                "velocity": 67
            },
            {
                "start": 142.78169549999998,
                "end": 142.883199075,
                "pitch": 72,
                "velocity": 65
            },
            {
                "start": 143.00725899999998,
                "end": 143.108762575,
                "pitch": 70,
                "velocity": 64
            },
            {
                "start": 143.12004075,
                "end": 143.221544325,
                "pitch": 72,
                "velocity": 63
            },
            {
                "start": 143.34560424999998,
                "end": 143.447107825,
                "pitch": 70,
                "velocity": 62
            },
            {
                "start": 143.458386,
                "end": 143.55988957499997,
                "pitch": 72,
                "velocity": 61
            },
            {
                "start": 143.68394949999998,
                "end": 143.785453075,
                "pitch": 70,
                "velocity": 60
            },
            {
                "start": 143.79673125,
                "end": 143.89823482499997,
                "pitch": 72,
                "velocity": 59
            },
            {
                "start": 144.02229475,
                "end": 144.123798325,
                "pitch": 70,
                "velocity": 58
            },
            {
                "start": 144.1350765,
                "end": 144.23658007499998,
                "pitch": 74,
                "velocity": 57
            },
            {
                "start": 144.36064,
                "end": 144.46214357499997,
                "pitch": 72,
                "velocity": 55
            },
            {
                "start": 144.58620349999998,
                "end": 144.687707075,
                "pitch": 74,
                "velocity": 54
            },
            {
                "start": 144.81176699999997,
                "end": 144.91327057499998,
                "pitch": 72,
                "velocity": 53
            },
            {
                "start": 144.92454874999999,
                "end": 145.026052325,
                "pitch": 74,
                "velocity": 52
            },
            {
                "start": 145.15011224999998,
                "end": 145.251615825,
                "pitch": 72,
                "velocity": 51
            },
            {
                "start": 145.262894,
                "end": 145.364397575,
                "pitch": 74,
                "velocity": 50
            },
            {
                "start": 145.48845749999998,
                "end": 145.589961075,
                "pitch": 72,
                "velocity": 48
            },
            {
                "start": 145.60123925,
                "end": 145.70274282499997,
                "pitch": 74,
                "velocity": 48
            },
            {
                "start": 145.82680274999998,
                "end": 145.928306325,
                "pitch": 72,
                "velocity": 46
            },
            {
                "start": 145.9395845,
                "end": 146.04108807499998,
                "pitch": 74,
                "velocity": 46
            },
            {
                "start": 146.165148,
                "end": 146.266651575,
                "pitch": 70,
                "velocity": 44
            },
            {
                "start": 146.39071149999998,
                "end": 146.492215075,
                "pitch": 70,
                "velocity": 43
            },
            {
                "start": 146.61627499999997,
                "end": 146.71777857499998,
                "pitch": 72,
                "velocity": 41
            },
            {
                "start": 146.72905674999998,
                "end": 146.830560325,
                "pitch": 70,
                "velocity": 41
            },
            {
                "start": 146.95462024999998,
                "end": 147.056123825,
                "pitch": 72,
                "velocity": 39
            },
            {
                "start": 147.067402,
                "end": 147.168905575,
                "pitch": 70,
                "velocity": 39
            },
            {
                "start": 147.29296549999998,
                "end": 147.394469075,
                "pitch": 72,
                "velocity": 37
            },
            {
                "start": 147.40574725,
                "end": 147.50725082499997,
                "pitch": 70,
                "velocity": 36
            },
            {
                "start": 147.63131074999998,
                "end": 147.732814325,
                "pitch": 72,
                "velocity": 35
            },
            {
                "start": 147.7440925,
                "end": 147.84559607499997,
                "pitch": 70,
                "velocity": 34
            },
            {
                "start": 147.969656,
                "end": 148.071159575,
                "pitch": 70,
                "velocity": 33
            },
            {
                "start": 148.19521949999998,
                "end": 148.296723075,
                "pitch": 77,
                "velocity": 32
            },
            {
                "start": 148.42078299999997,
                "end": 148.52228657499998,
                "pitch": 70,
                "velocity": 30
            },
            {
                "start": 148.53356474999998,
                "end": 148.635068325,
                "pitch": 77,
                "velocity": 29
            },
            {
                "start": 148.75912824999997,
                "end": 148.86063182499998,
                "pitch": 70,
                "velocity": 28
            },
            {
                "start": 148.87190999999999,
                "end": 148.973413575,
                "pitch": 77,
                "velocity": 27
            },
            {
                "start": 149.09747349999998,
                "end": 149.198977075,
                "pitch": 70,
                "velocity": 26
            },
            {
                "start": 149.21025525,
                "end": 149.31175882499997,
                "pitch": 77,
                "velocity": 25
            },
            {
                "start": 149.43581874999998,
                "end": 149.537322325,
                "pitch": 70,
                "velocity": 24
            },
            {
                "start": 149.5486005,
                "end": 149.65010407499997,
                "pitch": 77,
                "velocity": 23
            },
            {
                "start": 149.77416399999998,
                "end": 149.875667575,
                "pitch": 70,
                "velocity": 22
            },
            {
                "start": 149.99972749999998,
                "end": 150.101231075,
                "pitch": 72,
                "velocity": 20
            },
            {
                "start": 150.22529099999997,
                "end": 150.32679457499998,
                "pitch": 70,
                "velocity": 19
            },
            {
                "start": 150.33807274999998,
                "end": 150.439576325,
                "pitch": 72,
                "velocity": 18
            },
            {
                "start": 150.56363624999997,
                "end": 150.66513982499998,
                "pitch": 70,
                "velocity": 17
            },
            {
                "start": 150.67641799999998,
                "end": 150.777921575,
                "pitch": 72,
                "velocity": 16
            },
            {
                "start": 150.90198149999998,
                "end": 151.003485075,
                "pitch": 70,
                "velocity": 15
            },
            {
                "start": 151.01476325,
                "end": 151.116266825,
                "pitch": 72,
                "velocity": 14
            },
            {
                "start": 151.24032674999998,
                "end": 151.341830325,
                "pitch": 70,
                "velocity": 13
            },
            {
                "start": 151.3531085,
                "end": 151.45461207499997,
                "pitch": 74,
                "velocity": 12
            }
        ],
        "pitch_classes": [
            32,
            0,
            13,
            0,
            0,
            15,
            0,
            0,
            0,
            0,
            44,
            0
        ],
        "velocity_mean": 66.0673076923077,
        "pitch_mean": 72.125,
        "pitch_std": 2.404672934741214,
        "duration_mean": 0.10150357499999939,
        "song_name": "Dreams.1.mid",
        "tempo": 254.1627653939461,
        "time_signature": "4/4",
        "key": "C",
        "camelot_key": "5A",
        "maj_min": "minor"
    },
    "I_Need_You.mid_109.68506887500007_133.50404612499995": {
        "instrument_no": 5,
        "instrument_category": "Other",
        "program": 50,
        "is_drum": false,
        "section_start": 109.68506887500007,
        "section_end": 133.50404612499995,
        "notes": [
            {
                "start": 110.16387200000001,
                "end": 112.11264138750002,
                "pitch": 61,
                "velocity": 62
            },
            {
                "start": 112.13108400000002,
                "end": 114.00198457916669,
                "pitch": 53,
                "velocity": 61
            },
            {
                "start": 114.09829600000002,
                "end": 116.03067195416668,
                "pitch": 52,
                "velocity": 55
            },
            {
                "start": 114.09829600000002,
                "end": 116.08804897083336,
                "pitch": 55,
                "velocity": 63
            },
            {
                "start": 112.13108400000002,
                "end": 117.99583477500002,
                "pitch": 60,
                "velocity": 69
            },
            {
                "start": 116.06550800000002,
                "end": 118.03886753750001,
                "pitch": 57,
                "velocity": 63
            },
            {
                "start": 118.03272000000001,
                "end": 119.93640744583335,
                "pitch": 61,
                "velocity": 73
            },
            {
                "start": 118.03272000000001,
                "end": 119.99993200000002,
                "pitch": 58,
                "velocity": 65
            },
            {
                "start": 116.06550800000002,
                "end": 120.84009545833335,
                "pitch": 53,
                "velocity": 65
            },
            {
                "start": 119.99993200000002,
                "end": 120.95484949166668,
                "pitch": 60,
                "velocity": 62
            },
            {
                "start": 119.99993200000002,
                "end": 121.00402979166668,
                "pitch": 57,
                "velocity": 61
            },
            {
                "start": 120.98353800000001,
                "end": 121.91796370000002,
                "pitch": 53,
                "velocity": 58
            },
            {
                "start": 120.98353800000001,
                "end": 122.02247183750002,
                "pitch": 58,
                "velocity": 61
            },
            {
                "start": 120.98353800000001,
                "end": 122.99993030000002,
                "pitch": 62,
                "velocity": 63
            },
            {
                "start": 121.96714400000002,
                "end": 123.89951995416668,
                "pitch": 64,
                "velocity": 65
            },
            {
                "start": 122.95075000000001,
                "end": 123.92820846250002,
                "pitch": 61,
                "velocity": 65
            },
            {
                "start": 121.96714400000002,
                "end": 125.77861725000001,
                "pitch": 57,
                "velocity": 59
            },
            {
                "start": 123.93435600000002,
                "end": 126.84214123750002,
                "pitch": 62,
                "velocity": 75
            },
            {
                "start": 123.93435600000002,
                "end": 126.84623959583335,
                "pitch": 65,
                "velocity": 67
            },
            {
                "start": 125.90156800000001,
                "end": 126.85033795416669,
                "pitch": 58,
                "velocity": 60
            },
            {
                "start": 126.88517400000002,
                "end": 127.82574723750001,
                "pitch": 60,
                "velocity": 69
            },
            {
                "start": 126.88517400000002,
                "end": 127.85648492500002,
                "pitch": 64,
                "velocity": 71
            },
            {
                "start": 126.88517400000002,
                "end": 127.88722261250001,
                "pitch": 67,
                "velocity": 58
            },
            {
                "start": 127.86878000000002,
                "end": 129.78681170000002,
                "pitch": 65,
                "velocity": 72
            },
            {
                "start": 127.86878000000002,
                "end": 129.83804117916668,
                "pitch": 69,
                "velocity": 57
            },
            {
                "start": 127.86878000000002,
                "end": 131.76017123750003,
                "pitch": 60,
                "velocity": 72
            },
            {
                "start": 129.835992,
                "end": 131.79910564166667,
                "pitch": 64,
                "velocity": 70
            },
            {
                "start": 129.835992,
                "end": 131.80115482083335,
                "pitch": 67,
                "velocity": 72
            },
            {
                "start": 131.80320400000002,
                "end": 133.80320286666668,
                "pitch": 62,
                "velocity": 66
            },
            {
                "start": 131.80320400000002,
                "end": 135.7704148666667,
                "pitch": 69,
                "velocity": 79
            },
            {
                "start": 131.80320400000002,
                "end": 137.70893835833334,
                "pitch": 65,
                "velocity": 68
            }
        ],
        "pitch_classes": [
            4,
            3,
            3,
            0,
            4,
            6,
            0,
            3,
            0,
            5,
            3,
            0
        ],
        "velocity_mean": 65.35483870967742,
        "pitch_mean": 60.61290322580645,
        "pitch_std": 4.61887725049615,
        "duration_mean": 2.263153133198925,
        "song_name": "I_Need_You.mid",
        "tempo": 201.51998759728554,
        "time_signature": "4/4",
        "key": "D",
        "camelot_key": "7A",
        "maj_min": "minor"
    },
    "Let_the_Beat_Control_Your_Body.mid_0.0_18.671657739101423": {
        "instrument_no": 0,
        "instrument_category": "Other",
        "program": 53,
        "is_drum": false,
        "section_start": 0.0,
        "section_end": 18.671657739101423,
        "notes": [
            {
                "start": 1.7142840000000001,
                "end": 1.7633910937500001,
                "pitch": 55,
                "velocity": 84
            },
            {
                "start": 1.9285695,
                "end": 2.03571225,
                "pitch": 55,
                "velocity": 83
            },
            {
                "start": 2.03571225,
                "end": 2.15624784375,
                "pitch": 56,
                "velocity": 83
            },
            {
                "start": 2.3571405000000003,
                "end": 2.45981896875,
                "pitch": 55,
                "velocity": 83
            },
            {
                "start": 2.571426,
                "end": 2.6852651718750002,
                "pitch": 55,
                "velocity": 82
            },
            {
                "start": 2.7857115,
                "end": 2.8816935468750002,
                "pitch": 55,
                "velocity": 82
            },
            {
                "start": 2.9999970000000005,
                "end": 3.2232110625000003,
                "pitch": 54,
                "velocity": 82
            },
            {
                "start": 3.2142825000000004,
                "end": 3.3482109375,
                "pitch": 53,
                "velocity": 81
            },
            {
                "start": 3.4285680000000003,
                "end": 3.4776750937500003,
                "pitch": 55,
                "velocity": 84
            },
            {
                "start": 3.6428535,
                "end": 3.74999625,
                "pitch": 55,
                "velocity": 83
            },
            {
                "start": 3.74999625,
                "end": 3.8705318437500003,
                "pitch": 56,
                "velocity": 83
            },
            {
                "start": 4.0714245,
                "end": 4.174102968750001,
                "pitch": 55,
                "velocity": 83
            },
            {
                "start": 4.28571,
                "end": 4.399549171875,
                "pitch": 55,
                "velocity": 82
            },
            {
                "start": 4.499995500000001,
                "end": 4.595977546875001,
                "pitch": 55,
                "velocity": 82
            },
            {
                "start": 4.714281000000001,
                "end": 4.9374950625,
                "pitch": 54,
                "velocity": 82
            },
            {
                "start": 4.9285665000000005,
                "end": 5.0624949375,
                "pitch": 53,
                "velocity": 81
            },
            {
                "start": 11.999988000000002,
                "end": 12.049095093750001,
                "pitch": 55,
                "velocity": 84
            },
            {
                "start": 12.214273500000001,
                "end": 12.32141625,
                "pitch": 55,
                "velocity": 83
            },
            {
                "start": 12.32141625,
                "end": 12.441951843750001,
                "pitch": 56,
                "velocity": 83
            },
            {
                "start": 12.6428445,
                "end": 12.74552296875,
                "pitch": 55,
                "velocity": 83
            },
            {
                "start": 12.857130000000002,
                "end": 12.970969171875002,
                "pitch": 55,
                "velocity": 82
            },
            {
                "start": 13.0714155,
                "end": 13.167397546875002,
                "pitch": 55,
                "velocity": 82
            },
            {
                "start": 13.285701000000001,
                "end": 13.508915062500002,
                "pitch": 54,
                "velocity": 82
            },
            {
                "start": 13.4999865,
                "end": 13.633914937500002,
                "pitch": 53,
                "velocity": 81
            },
            {
                "start": 13.714272000000001,
                "end": 13.763379093750002,
                "pitch": 55,
                "velocity": 84
            },
            {
                "start": 13.928557500000002,
                "end": 14.035700250000001,
                "pitch": 55,
                "velocity": 83
            },
            {
                "start": 14.035700250000001,
                "end": 14.156235843750002,
                "pitch": 56,
                "velocity": 83
            },
            {
                "start": 14.357128500000002,
                "end": 14.459806968750001,
                "pitch": 55,
                "velocity": 83
            },
            {
                "start": 14.571414,
                "end": 14.685253171875,
                "pitch": 55,
                "velocity": 82
            },
            {
                "start": 14.785699500000002,
                "end": 14.881681546875,
                "pitch": 55,
                "velocity": 82
            },
            {
                "start": 14.999985,
                "end": 15.2231990625,
                "pitch": 54,
                "velocity": 82
            },
            {
                "start": 15.214270500000001,
                "end": 15.348198937500001,
                "pitch": 53,
                "velocity": 81
            }
        ],
        "pitch_classes": [
            0,
            0,
            0,
            0,
            0,
            4,
            4,
            20,
            4,
            0,
            0,
            0
        ],
        "velocity_mean": 82.5,
        "pitch_mean": 54.75,
        "pitch_std": 0.82915619758885,
        "duration_mean": 0.11830345312500005,
        "song_name": "Let_the_Beat_Control_Your_Body.mid",
        "tempo": 257.07412095220855,
        "time_signature": "4/4",
        "key": "C",
        "camelot_key": "5A",
        "maj_min": "minor"
    },
    "Let_the_Beat_Control_Your_Body.mid_102.1997738804493_120.87143161955072": {
        "instrument_no": 8,
        "instrument_category": "Other",
        "program": 50,
        "is_drum": false,
        "section_start": 102.1997738804493,
        "section_end": 120.87143161955072,
        "notes": [
            {
                "start": 114.85702800000001,
                "end": 116.56684771875001,
                "pitch": 63,
                "velocity": 107
            },
            {
                "start": 114.85702800000001,
                "end": 116.56684771875001,
                "pitch": 68,
                "velocity": 107
            },
            {
                "start": 114.85702800000001,
                "end": 116.56684771875001,
                "pitch": 59,
                "velocity": 107
            },
            {
                "start": 116.571312,
                "end": 117.42398971875001,
                "pitch": 61,
                "velocity": 107
            },
            {
                "start": 116.571312,
                "end": 117.42398971875001,
                "pitch": 56,
                "velocity": 107
            },
            {
                "start": 116.571312,
                "end": 117.42398971875001,
                "pitch": 65,
                "velocity": 107
            },
            {
                "start": 117.42845400000002,
                "end": 118.28113171875,
                "pitch": 66,
                "velocity": 107
            },
            {
                "start": 117.42845400000002,
                "end": 118.28113171875,
                "pitch": 61,
                "velocity": 107
            },
            {
                "start": 117.42845400000002,
                "end": 118.28113171875,
                "pitch": 58,
                "velocity": 107
            },
            {
                "start": 118.28559600000001,
                "end": 119.99541571875001,
                "pitch": 63,
                "velocity": 107
            },
            {
                "start": 118.28559600000001,
                "end": 119.99541571875001,
                "pitch": 68,
                "velocity": 107
            },
            {
                "start": 118.28559600000001,
                "end": 119.99541571875001,
                "pitch": 59,
                "velocity": 107
            },
            {
                "start": 119.99988,
                "end": 120.85255771875,
                "pitch": 61,
                "velocity": 107
            },
            {
                "start": 119.99988,
                "end": 120.85255771875,
                "pitch": 56,
                "velocity": 107
            },
            {
                "start": 119.99988,
                "end": 120.85255771875,
                "pitch": 65,
                "velocity": 107
            },
            {
                "start": 120.85702200000001,
                "end": 121.70969971875002,
                "pitch": 58,
                "velocity": 107
            },
            {
                "start": 120.85702200000001,
                "end": 121.70969971875002,
                "pitch": 66,
                "velocity": 107
            },
            {
                "start": 120.85702200000001,
                "end": 121.70969971875002,
                "pitch": 61,
                "velocity": 107
            }
        ],
        "pitch_classes": [
            0,
            4,
            0,
            2,
            0,
            2,
            2,
            0,
            4,
            0,
            2,
            2
        ],
        "velocity_mean": 107.0,
        "pitch_mean": 61.888888888888886,
        "pitch_std": 3.725123247608936,
        "duration_mean": 1.138391718749998,
        "song_name": "Let_the_Beat_Control_Your_Body.mid",
        "tempo": 257.07412095220855,
        "time_signature": "4/4",
        "key": "Eb",
        "camelot_key": "2A",
        "maj_min": "minor"
    },
    "Let_the_Beat_Control_Your_Body.mid_204.3995477608986_223.07120550000002": {
        "instrument_no": 9,
        "instrument_category": "Other",
        "program": 48,
        "is_drum": false,
        "section_start": 204.3995477608986,
        "section_end": 223.07120550000002,
        "notes": [
            {
                "start": 221.142636,
                "end": 221.46406425,
                "pitch": 44,
                "velocity": 103
            },
            {
                "start": 221.142636,
                "end": 221.46406425,
                "pitch": 68,
                "velocity": 119
            },
            {
                "start": 221.142636,
                "end": 221.470760671875,
                "pitch": 56,
                "velocity": 119
            },
            {
                "start": 221.142636,
                "end": 221.48415351562502,
                "pitch": 51,
                "velocity": 115
            },
            {
                "start": 221.142636,
                "end": 221.48861779687502,
                "pitch": 75,
                "velocity": 123
            },
            {
                "start": 221.142636,
                "end": 221.493082078125,
                "pitch": 80,
                "velocity": 115
            }
        ],
        "pitch_classes": [
            0,
            0,
            0,
            2,
            0,
            0,
            0,
            0,
            4,
            0,
            0,
            0
        ],
        "velocity_mean": 115.66666666666667,
        "pitch_mean": 62.333333333333336,
        "pitch_std": 12.970050972229146,
        "duration_mean": 0.33482109375000374,
        "song_name": "Let_the_Beat_Control_Your_Body.mid",
        "tempo": 257.07412095220855,
        "time_signature": "4/4",
        "key": "C",
        "camelot_key": "5A",
        "maj_min": "minor"
    },
    "No_Limits.mid_0.0_19.59353741496608": {
        "instrument_no": 16,
        "instrument_category": "Drum",
        "program": 0,
        "is_drum": true,
        "section_start": 0.0,
        "section_end": 19.59353741496608,
        "notes": [
            {
                "start": 7.447916666666666,
                "end": 7.46875,
                "pitch": 40,
                "velocity": 59
            },
            {
                "start": 7.65625,
                "end": 7.671875,
                "pitch": 40,
                "velocity": 59
            },
            {
                "start": 7.864583333333333,
                "end": 7.885416666666666,
                "pitch": 40,
                "velocity": 69
            },
            {
                "start": 7.96875,
                "end": 7.989583333333333,
                "pitch": 40,
                "velocity": 71
            },
            {
                "start": 8.078125,
                "end": 8.09375,
                "pitch": 40,
                "velocity": 77
            },
            {
                "start": 8.177083333333332,
                "end": 8.197916666666666,
                "pitch": 40,
                "velocity": 81
            },
            {
                "start": 8.385416666666666,
                "end": 8.40625,
                "pitch": 40,
                "velocity": 91
            },
            {
                "start": 8.59375,
                "end": 8.614583333333332,
                "pitch": 40,
                "velocity": 99
            },
            {
                "start": 8.697916666666666,
                "end": 8.71875,
                "pitch": 40,
                "velocity": 105
            },
            {
                "start": 8.802083333333332,
                "end": 8.822916666666666,
                "pitch": 40,
                "velocity": 110
            },
            {
                "start": 8.911458333333332,
                "end": 8.927083333333332,
                "pitch": 40,
                "velocity": 114
            },
            {
                "start": 9.015625,
                "end": 9.036458333333332,
                "pitch": 40,
                "velocity": 119
            }
        ],
        "pitch_classes": [
            0,
            0,
            0,
            0,
            12,
            0,
            0,
            0,
            0,
            0,
            0,
            0
        ],
        "velocity_mean": 87.83333333333333,
        "pitch_mean": 40.0,
        "pitch_std": 0.0,
        "duration_mean": 0.01953125,
        "song_name": "No_Limits.mid",
        "tempo": 244.97873448485257,
        "time_signature": "4/4",
        "key": "C",
        "camelot_key": "8B",
        "maj_min": "major"
    },
    "No_Limits.mid_100.27224170918362_119.8657791241497": {
        "instrument_no": 17,
        "instrument_category": "Drum",
        "program": 0,
        "is_drum": true,
        "section_start": 100.27224170918362,
        "section_end": 119.8657791241497,
        "notes": [
            {
                "start": 100.67708333333333,
                "end": 100.68229166666666,
                "pitch": 36,
                "velocity": 127
            },
            {
                "start": 101.09375,
                "end": 101.09895833333333,
                "pitch": 36,
                "velocity": 127
            },
            {
                "start": 101.51041666666666,
                "end": 101.515625,
                "pitch": 36,
                "velocity": 127
            },
            {
                "start": 101.92708333333333,
                "end": 101.93229166666666,
                "pitch": 36,
                "velocity": 127
            },
            {
                "start": 102.34895833333333,
                "end": 102.35416666666666,
                "pitch": 36,
                "velocity": 127
            },
            {
                "start": 102.765625,
                "end": 102.77083333333333,
                "pitch": 36,
                "velocity": 127
            },
            {
                "start": 103.18229166666666,
                "end": 103.1875,
                "pitch": 36,
                "velocity": 127
            },
            {
                "start": 103.59895833333333,
                "end": 103.60416666666666,
                "pitch": 36,
                "velocity": 127
            },
            {
                "start": 104.02083333333333,
                "end": 104.02604166666666,
                "pitch": 36,
                "velocity": 127
            },
            {
                "start": 104.4375,
                "end": 104.44270833333333,
                "pitch": 36,
                "velocity": 127
            },
            {
                "start": 104.85416666666666,
                "end": 104.859375,
                "pitch": 36,
                "velocity": 127
            },
            {
                "start": 105.27604166666666,
                "end": 105.28125,
                "pitch": 36,
                "velocity": 127
            },
            {
                "start": 105.69270833333333,
                "end": 105.69791666666666,
                "pitch": 36,
                "velocity": 127
            },
            {
                "start": 106.109375,
                "end": 106.11458333333333,
                "pitch": 36,
                "velocity": 127
            },
            {
                "start": 106.52604166666666,
                "end": 106.53125,
                "pitch": 36,
                "velocity": 127
            },
            {
                "start": 106.94791666666666,
                "end": 106.953125,
                "pitch": 36,
                "velocity": 127
            },
            {
                "start": 107.36458333333333,
                "end": 107.36979166666666,
                "pitch": 36,
                "velocity": 127
            },
            {
                "start": 107.78125,
                "end": 107.78645833333333,
                "pitch": 36,
                "velocity": 127
            },
            {
                "start": 108.19791666666666,
                "end": 108.203125,
                "pitch": 36,
                "velocity": 127
            },
            {
                "start": 108.61979166666666,
                "end": 108.625,
                "pitch": 36,
                "velocity": 127
            },
            {
                "start": 109.03645833333333,
                "end": 109.04166666666666,
                "pitch": 36,
                "velocity": 127
            },
            {
                "start": 109.453125,
                "end": 109.45833333333333,
                "pitch": 36,
                "velocity": 127
            },
            {
                "start": 109.86979166666666,
                "end": 109.875,
                "pitch": 36,
                "velocity": 127
            },
            {
                "start": 110.29166666666666,
                "end": 110.296875,
                "pitch": 36,
                "velocity": 127
            },
            {
                "start": 110.70833333333333,
                "end": 110.71354166666666,
                "pitch": 36,
                "velocity": 127
            },
            {
                "start": 111.125,
                "end": 111.13020833333333,
                "pitch": 36,
                "velocity": 127
            },
            {
                "start": 111.546875,
                "end": 111.55208333333333,
                "pitch": 36,
                "velocity": 127
            },
            {
                "start": 111.96354166666666,
                "end": 111.96875,
                "pitch": 36,
                "velocity": 127
            },
            {
                "start": 112.38020833333333,
                "end": 112.38541666666666,
                "pitch": 36,
                "velocity": 127
            },
            {
                "start": 112.80208333333333,
                "end": 112.80729166666666,
                "pitch": 36,
                "velocity": 127
            },
            {
                "start": 113.21875,
                "end": 113.22395833333333,
                "pitch": 36,
                "velocity": 127
            },
            {
                "start": 113.63541666666666,
                "end": 113.640625,
                "pitch": 36,
                "velocity": 127
            },
            {
                "start": 114.05208333333333,
                "end": 114.05729166666666,
                "pitch": 36,
                "velocity": 127
            },
            {
                "start": 114.47395833333333,
                "end": 114.47916666666666,
                "pitch": 36,
                "velocity": 127
            },
            {
                "start": 114.890625,
                "end": 114.89583333333333,
                "pitch": 36,
                "velocity": 127
            },
            {
                "start": 115.30729166666666,
                "end": 115.3125,
                "pitch": 36,
                "velocity": 127
            },
            {
                "start": 115.72395833333333,
                "end": 115.72916666666666,
                "pitch": 36,
                "velocity": 127
            },
            {
                "start": 116.14583333333333,
                "end": 116.15104166666666,
                "pitch": 36,
                "velocity": 127
            },
            {
                "start": 116.5625,
                "end": 116.56770833333333,
                "pitch": 36,
                "velocity": 127
            },
            {
                "start": 116.97916666666666,
                "end": 116.984375,
                "pitch": 36,
                "velocity": 127
            },
            {
                "start": 117.40104166666666,
                "end": 117.40625,
                "pitch": 36,
                "velocity": 127
            },
            {
                "start": 117.81770833333333,
                "end": 117.82291666666666,
                "pitch": 36,
                "velocity": 127
            },
            {
                "start": 118.234375,
                "end": 118.23958333333333,
                "pitch": 36,
                "velocity": 127
            },
            {
                "start": 118.65104166666666,
                "end": 118.65625,
                "pitch": 36,
                "velocity": 127
            },
            {
                "start": 119.06770833333333,
                "end": 119.07291666666666,
                "pitch": 36,
                "velocity": 127
            },
            {
                "start": 119.48958333333333,
                "end": 119.49479166666666,
                "pitch": 36,
                "velocity": 127
            }
        ],
        "pitch_classes": [
            46,
            0,
            0,
            0,
            0,
            0,
            0,
            0,
            0,
            0,
            0,
            0
        ],
        "velocity_mean": 127.0,
        "pitch_mean": 36.0,
        "pitch_std": 0.0,
        "duration_mean": 0.0052083333333335395,
        "song_name": "No_Limits.mid",
        "tempo": 244.97873448485257,
        "time_signature": "4/4",
        "key": "C",
        "camelot_key": "8B",
        "maj_min": "major"
    },
    "No_Limits.mid_200.54448341836724_220.13802083333331": {
        "instrument_no": 3,
        "instrument_category": "Other",
        "program": 95,
        "is_drum": false,
        "section_start": 200.54448341836724,
        "section_end": 220.13802083333331,
        "notes": [
            {
                "start": 203.00520833333331,
                "end": 204.671875,
                "pitch": 66,
                "velocity": 78
            },
            {
                "start": 203.00520833333331,
                "end": 204.671875,
                "pitch": 73,
                "velocity": 78
            },
            {
                "start": 203.00520833333331,
                "end": 204.671875,
                "pitch": 70,
                "velocity": 78
            },
            {
                "start": 203.0,
                "end": 204.671875,
                "pitch": 54,
                "velocity": 106
            },
            {
                "start": 203.00520833333331,
                "end": 204.671875,
                "pitch": 42,
                "velocity": 106
            },
            {
                "start": 203.08333333333331,
                "end": 204.75,
                "pitch": 78,
                "velocity": 78
            },
            {
                "start": 204.75,
                "end": 206.41666666666666,
                "pitch": 49,
                "velocity": 106
            },
            {
                "start": 204.75,
                "end": 206.41666666666666,
                "pitch": 77,
                "velocity": 78
            },
            {
                "start": 204.75,
                "end": 206.41666666666666,
                "pitch": 73,
                "velocity": 78
            },
            {
                "start": 204.75,
                "end": 206.41666666666666,
                "pitch": 37,
                "velocity": 106
            },
            {
                "start": 204.75,
                "end": 206.41666666666666,
                "pitch": 61,
                "velocity": 78
            },
            {
                "start": 204.75,
                "end": 206.41666666666666,
                "pitch": 68,
                "velocity": 78
            },
            {
                "start": 206.4375,
                "end": 209.68229166666666,
                "pitch": 44,
                "velocity": 106
            },
            {
                "start": 206.4375,
                "end": 209.68229166666666,
                "pitch": 75,
                "velocity": 78
            },
            {
                "start": 206.4375,
                "end": 209.68229166666666,
                "pitch": 56,
                "velocity": 106
            },
            {
                "start": 206.4375,
                "end": 209.68229166666666,
                "pitch": 71,
                "velocity": 78
            },
            {
                "start": 206.52083333333331,
                "end": 209.765625,
                "pitch": 80,
                "velocity": 78
            },
            {
                "start": 209.765625,
                "end": 211.4375,
                "pitch": 54,
                "velocity": 106
            },
            {
                "start": 209.765625,
                "end": 211.4375,
                "pitch": 78,
                "velocity": 78
            },
            {
                "start": 209.765625,
                "end": 211.4375,
                "pitch": 73,
                "velocity": 78
            },
            {
                "start": 209.765625,
                "end": 211.4375,
                "pitch": 42,
                "velocity": 106
            },
            {
                "start": 209.765625,
                "end": 211.4375,
                "pitch": 66,
                "velocity": 78
            },
            {
                "start": 209.765625,
                "end": 211.4375,
                "pitch": 70,
                "velocity": 78
            },
            {
                "start": 211.4375,
                "end": 213.10416666666666,
                "pitch": 49,
                "velocity": 106
            },
            {
                "start": 211.4375,
                "end": 213.10416666666666,
                "pitch": 77,
                "velocity": 78
            },
            {
                "start": 211.4375,
                "end": 213.10416666666666,
                "pitch": 73,
                "velocity": 78
            },
            {
                "start": 211.4375,
                "end": 213.10416666666666,
                "pitch": 37,
                "velocity": 106
            },
            {
                "start": 211.4375,
                "end": 213.10416666666666,
                "pitch": 61,
                "velocity": 78
            },
            {
                "start": 211.4375,
                "end": 213.10416666666666,
                "pitch": 68,
                "velocity": 78
            }
        ],
        "pitch_classes": [
            0,
            10,
            0,
            1,
            0,
            2,
            8,
            0,
            5,
            0,
            2,
            1
        ],
        "velocity_mean": 87.65517241379311,
        "pitch_mean": 62.827586206896555,
        "pitch_std": 13.274473729466358,
        "duration_mean": 1.9400143678160906,
        "song_name": "No_Limits.mid",
        "tempo": 244.97873448485257,
        "time_signature": "4/4",
        "key": "Eb",
        "camelot_key": "2A",
        "maj_min": "minor"
    },
    "Get_Ready_for_This.mid_0.0_18.663302752293536": {
        "instrument_no": 11,
        "instrument_category": "Other",
        "program": 48,
        "is_drum": false,
        "section_start": 0.0,
        "section_end": 18.663302752293536,
        "notes": [
            {
                "start": 15.36,
                "end": 15.368,
                "pitch": 36,
                "velocity": 100
            },
            {
                "start": 15.368,
                "end": 15.376,
                "pitch": 55,
                "velocity": 100
            }
        ],
        "pitch_classes": [
            1,
            0,
            0,
            0,
            0,
            0,
            0,
            1,
            0,
            0,
            0,
            0
        ],
        "velocity_mean": 100.0,
        "pitch_mean": 45.5,
        "pitch_std": 9.5,
        "duration_mean": 0.008000000000000007,
        "song_name": "Get_Ready_for_This.mid",
        "tempo": 257.189205131987,
        "time_signature": "4/4",
        "key": "C",
        "camelot_key": "8B",
        "maj_min": "major"
    },
    "Get_Ready_for_This.mid_209.78834862385324_228.45165137614677": {
        "instrument_no": 5,
        "instrument_category": "Other",
        "program": 48,
        "is_drum": false,
        "section_start": 209.78834862385324,
        "section_end": 228.45165137614677,
        "notes": [
            {
                "start": 211.20000000000002,
                "end": 213.116,
                "pitch": 59,
                "velocity": 73
            },
            {
                "start": 211.20000000000002,
                "end": 213.116,
                "pitch": 64,
                "velocity": 73
            },
            {
                "start": 211.20000000000002,
                "end": 213.116,
                "pitch": 67,
                "velocity": 73
            },
            {
                "start": 213.12,
                "end": 216.95600000000002,
                "pitch": 59,
                "velocity": 73
            },
            {
                "start": 213.12,
                "end": 216.95600000000002,
                "pitch": 64,
                "velocity": 73
            },
            {
                "start": 213.12,
                "end": 216.95600000000002,
                "pitch": 67,
                "velocity": 73
            },
            {
                "start": 216.96,
                "end": 218.876,
                "pitch": 57,
                "velocity": 73
            },
            {
                "start": 216.96,
                "end": 218.876,
                "pitch": 62,
                "velocity": 73
            },
            {
                "start": 216.96,
                "end": 218.876,
                "pitch": 66,
                "velocity": 73
            },
            {
                "start": 218.88,
                "end": 220.796,
                "pitch": 59,
                "velocity": 73
            },
            {
                "start": 218.88,
                "end": 220.796,
                "pitch": 64,
                "velocity": 73
            },
            {
                "start": 218.88,
                "end": 220.796,
                "pitch": 67,
                "velocity": 73
            },
            {
                "start": 220.8,
                "end": 221.756,
                "pitch": 60,
                "velocity": 73
            },
            {
                "start": 220.8,
                "end": 221.756,
                "pitch": 69,
                "velocity": 73
            },
            {
                "start": 220.8,
                "end": 221.756,
                "pitch": 67,
                "velocity": 73
            },
            {
                "start": 220.8,
                "end": 221.756,
                "pitch": 64,
                "velocity": 73
            },
            {
                "start": 221.76,
                "end": 222.716,
                "pitch": 63,
                "velocity": 73
            },
            {
                "start": 221.76,
                "end": 222.716,
                "pitch": 71,
                "velocity": 73
            },
            {
                "start": 221.76,
                "end": 222.716,
                "pitch": 69,
                "velocity": 73
            },
            {
                "start": 221.76,
                "end": 222.716,
                "pitch": 66,
                "velocity": 73
            },
            {
                "start": 222.72,
                "end": 224.636,
                "pitch": 62,
                "velocity": 73
            },
            {
                "start": 222.72,
                "end": 224.636,
                "pitch": 71,
                "velocity": 73
            },
            {
                "start": 222.72,
                "end": 224.636,
                "pitch": 67,
                "velocity": 73
            },
            {
                "start": 222.72,
                "end": 224.636,
                "pitch": 64,
                "velocity": 73
            },
            {
                "start": 224.64000000000001,
                "end": 225.596,
                "pitch": 60,
                "velocity": 73
            },
            {
                "start": 224.64000000000001,
                "end": 225.596,
                "pitch": 69,
                "velocity": 73
            },
            {
                "start": 224.64000000000001,
                "end": 225.596,
                "pitch": 67,
                "velocity": 73
            },
            {
                "start": 224.64000000000001,
                "end": 225.596,
                "pitch": 64,
                "velocity": 73
            },
            {
                "start": 225.6,
                "end": 226.556,
                "pitch": 63,
                "velocity": 73
            },
            {
                "start": 225.6,
                "end": 226.556,
                "pitch": 71,
                "velocity": 73
            },
            {
                "start": 225.6,
                "end": 226.556,
                "pitch": 69,
                "velocity": 73
            },
            {
                "start": 225.6,
                "end": 226.556,
                "pitch": 66,
                "velocity": 73
            },
            {
                "start": 226.56,
                "end": 228.476,
                "pitch": 62,
                "velocity": 73
            },
            {
                "start": 226.56,
                "end": 228.476,
                "pitch": 71,
                "velocity": 73
            },
            {
                "start": 226.56,
                "end": 228.476,
                "pitch": 67,
                "velocity": 73
            },
            {
                "start": 226.56,
                "end": 228.476,
                "pitch": 64,
                "velocity": 73
            }
        ],
        "pitch_classes": [
            2,
            0,
            3,
            2,
            7,
            0,
            3,
            7,
            0,
            5,
            0,
            7
        ],
        "velocity_mean": 73.0,
        "pitch_mean": 65.02777777777777,
        "pitch_std": 3.737840368084752,
        "duration_mean": 1.6493333333333342,
        "song_name": "Get_Ready_for_This.mid",
        "tempo": 257.189205131987,
        "time_signature": "4/4",
        "key": "E",
        "camelot_key": "9A",
        "maj_min": "minor"
    },
    "Get_Ready_for_This.mid_419.5766972477065_438.24": {
        "instrument_no": 4,
        "instrument_category": "Other",
        "program": 55,
        "is_drum": false,
        "section_start": 419.5766972477065,
        "section_end": 438.24,
        "notes": [
            {
                "start": 419.76,
                "end": 419.996,
                "pitch": 91,
                "velocity": 92
            },
            {
                "start": 420.48,
                "end": 420.68,
                "pitch": 88,
                "velocity": 92
            },
            {
                "start": 420.72,
                "end": 420.8,
                "pitch": 86,
                "velocity": 92
            },
            {
                "start": 420.84000000000003,
                "end": 421.04,
                "pitch": 88,
                "velocity": 92
            },
            {
                "start": 421.08,
                "end": 421.16,
                "pitch": 86,
                "velocity": 92
            },
            {
                "start": 421.2,
                "end": 421.38,
                "pitch": 88,
                "velocity": 92
            },
            {
                "start": 421.44,
                "end": 421.64,
                "pitch": 81,
                "velocity": 92
            },
            {
                "start": 421.68,
                "end": 421.916,
                "pitch": 81,
                "velocity": 92
            },
            {
                "start": 421.92,
                "end": 422.12,
                "pitch": 83,
                "velocity": 92
            },
            {
                "start": 422.16,
                "end": 422.396,
                "pitch": 83,
                "velocity": 92
            },
            {
                "start": 422.40000000000003,
                "end": 422.68,
                "pitch": 88,
                "velocity": 92
            },
            {
                "start": 422.76,
                "end": 423.04,
                "pitch": 88,
                "velocity": 92
            },
            {
                "start": 423.12,
                "end": 423.34000000000003,
                "pitch": 88,
                "velocity": 92
            },
            {
                "start": 423.36,
                "end": 423.54,
                "pitch": 81,
                "velocity": 92
            },
            {
                "start": 423.6,
                "end": 423.78000000000003,
                "pitch": 81,
                "velocity": 92
            },
            {
                "start": 423.84000000000003,
                "end": 424.02,
                "pitch": 83,
                "velocity": 92
            },
            {
                "start": 424.08,
                "end": 424.26,
                "pitch": 83,
                "velocity": 92
            },
            {
                "start": 424.32,
                "end": 424.6,
                "pitch": 88,
                "velocity": 92
            },
            {
                "start": 424.68,
                "end": 424.96000000000004,
                "pitch": 88,
                "velocity": 92
            },
            {
                "start": 425.04,
                "end": 425.32,
                "pitch": 88,
                "velocity": 92
            },
            {
                "start": 425.28000000000003,
                "end": 425.46000000000004,
                "pitch": 91,
                "velocity": 92
            },
            {
                "start": 425.52,
                "end": 425.7,
                "pitch": 91,
                "velocity": 92
            },
            {
                "start": 425.76,
                "end": 425.94,
                "pitch": 93,
                "velocity": 92
            },
            {
                "start": 426.0,
                "end": 426.18,
                "pitch": 93,
                "velocity": 92
            },
            {
                "start": 426.24,
                "end": 426.52,
                "pitch": 88,
                "velocity": 92
            },
            {
                "start": 426.6,
                "end": 426.88,
                "pitch": 88,
                "velocity": 92
            },
            {
                "start": 426.96000000000004,
                "end": 427.18,
                "pitch": 88,
                "velocity": 92
            },
            {
                "start": 427.2,
                "end": 427.38,
                "pitch": 81,
                "velocity": 92
            },
            {
                "start": 427.44,
                "end": 427.62,
                "pitch": 81,
                "velocity": 92
            },
            {
                "start": 427.68,
                "end": 427.86,
                "pitch": 83,
                "velocity": 92
            },
            {
                "start": 427.92,
                "end": 428.1,
                "pitch": 83,
                "velocity": 92
            },
            {
                "start": 428.16,
                "end": 428.44,
                "pitch": 88,
                "velocity": 92
            },
            {
                "start": 428.52,
                "end": 428.8,
                "pitch": 88,
                "velocity": 92
            },
            {
                "start": 428.88,
                "end": 429.16,
                "pitch": 88,
                "velocity": 92
            },
            {
                "start": 429.12,
                "end": 429.3,
                "pitch": 91,
                "velocity": 92
            },
            {
                "start": 429.36,
                "end": 429.54,
                "pitch": 91,
                "velocity": 92
            },
            {
                "start": 429.6,
                "end": 429.78000000000003,
                "pitch": 93,
                "velocity": 92
            },
            {
                "start": 429.84000000000003,
                "end": 430.02,
                "pitch": 93,
                "velocity": 92
            },
            {
                "start": 430.08,
                "end": 430.36,
                "pitch": 88,
                "velocity": 92
            },
            {
                "start": 430.44,
                "end": 430.72,
                "pitch": 88,
                "velocity": 92
            },
            {
                "start": 430.8,
                "end": 431.02,
                "pitch": 88,
                "velocity": 92
            },
            {
                "start": 431.04,
                "end": 431.22,
                "pitch": 81,
                "velocity": 92
            },
            {
                "start": 431.28000000000003,
                "end": 431.46000000000004,
                "pitch": 81,
                "velocity": 92
            },
            {
                "start": 431.52,
                "end": 431.7,
                "pitch": 83,
                "velocity": 92
            },
            {
                "start": 431.76,
                "end": 431.94,
                "pitch": 83,
                "velocity": 92
            },
            {
                "start": 432.0,
                "end": 432.28000000000003,
                "pitch": 88,
                "velocity": 92
            },
            {
                "start": 432.36,
                "end": 432.64,
                "pitch": 88,
                "velocity": 92
            },
            {
                "start": 432.72,
                "end": 433.0,
                "pitch": 88,
                "velocity": 92
            },
            {
                "start": 432.96000000000004,
                "end": 433.14,
                "pitch": 91,
                "velocity": 92
            },
            {
                "start": 433.2,
                "end": 433.38,
                "pitch": 91,
                "velocity": 92
            },
            {
                "start": 433.44,
                "end": 433.62,
                "pitch": 93,
                "velocity": 92
            },
            {
                "start": 433.68,
                "end": 433.86,
                "pitch": 93,
                "velocity": 92
            },
            {
                "start": 433.92,
                "end": 434.2,
                "pitch": 88,
                "velocity": 92
            },
            {
                "start": 434.28000000000003,
                "end": 434.56,
                "pitch": 88,
                "velocity": 92
            },
            {
                "start": 434.64,
                "end": 434.86,
                "pitch": 88,
                "velocity": 92
            },
            {
                "start": 434.88,
                "end": 435.06,
                "pitch": 81,
                "velocity": 92
            },
            {
                "start": 435.12,
                "end": 435.3,
                "pitch": 81,
                "velocity": 92
            },
            {
                "start": 435.36,
                "end": 435.54,
                "pitch": 83,
                "velocity": 92
            },
            {
                "start": 435.6,
                "end": 435.78000000000003,
                "pitch": 83,
                "velocity": 92
            },
            {
                "start": 435.84000000000003,
                "end": 436.12,
                "pitch": 88,
                "velocity": 92
            },
            {
                "start": 436.2,
                "end": 436.48,
                "pitch": 88,
                "velocity": 92
            },
            {
                "start": 436.56,
                "end": 436.84000000000003,
                "pitch": 88,
                "velocity": 92
            },
            {
                "start": 436.8,
                "end": 436.98,
                "pitch": 91,
                "velocity": 92
            },
            {
                "start": 437.04,
                "end": 437.22,
                "pitch": 91,
                "velocity": 92
            },
            {
                "start": 437.28000000000003,
                "end": 437.46000000000004,
                "pitch": 93,
                "velocity": 92
            },
            {
                "start": 437.76,
                "end": 437.94,
                "pitch": 76,
                "velocity": 92
            }
        ],
        "pitch_classes": [
            0,
            0,
            2,
            0,
            28,
            0,
            0,
            9,
            0,
            17,
            0,
            10
        ],
        "velocity_mean": 92.0,
        "pitch_mean": 86.87878787878788,
        "pitch_std": 4.017066438731928,
        "duration_mean": 0.21345454545454579,
        "song_name": "Get_Ready_for_This.mid",
        "tempo": 257.189205131987,
        "time_signature": "4/4",
        "key": "C",
        "camelot_key": "8B",
        "maj_min": "major"
    },
    "No_One.1.mid_0.0_17.991110365453956": {
        "instrument_no": 3,
        "instrument_category": "Other",
        "program": 82,
        "is_drum": false,
        "section_start": 0.0,
        "section_end": 17.991110365453956,
        "notes": [
            {
                "start": 3.846327598958333,
                "end": 3.952060489583333,
                "pitch": 58,
                "velocity": 81
            },
            {
                "start": 3.8439779791666666,
                "end": 3.954410109375,
                "pitch": 63,
                "velocity": 85
            },
            {
                "start": 4.071891098958333,
                "end": 4.177623989583333,
                "pitch": 58,
                "velocity": 49
            },
            {
                "start": 4.069541479166666,
                "end": 4.179973609375,
                "pitch": 63,
                "velocity": 53
            },
            {
                "start": 4.302153838541666,
                "end": 4.396138630208333,
                "pitch": 58,
                "velocity": 85
            },
            {
                "start": 4.295104979166666,
                "end": 4.396138630208333,
                "pitch": 63,
                "velocity": 84
            },
            {
                "start": 4.515969239583333,
                "end": 4.621702130208333,
                "pitch": 63,
                "velocity": 59
            },
            {
                "start": 4.520668479166666,
                "end": 4.62405175,
                "pitch": 58,
                "velocity": 53
            },
            {
                "start": 4.743882359375,
                "end": 4.844916010416666,
                "pitch": 63,
                "velocity": 87
            },
            {
                "start": 4.748581598958333,
                "end": 4.847265630208333,
                "pitch": 58,
                "velocity": 82
            },
            {
                "start": 4.9717954791666665,
                "end": 5.070479510416666,
                "pitch": 63,
                "velocity": 57
            },
            {
                "start": 4.969445859375,
                "end": 5.072829130208333,
                "pitch": 58,
                "velocity": 53
            },
            {
                "start": 5.1879605,
                "end": 5.296043010416667,
                "pitch": 58,
                "velocity": 53
            },
            {
                "start": 5.197358979166666,
                "end": 5.296043010416667,
                "pitch": 63,
                "velocity": 94
            },
            {
                "start": 5.195009359375,
                "end": 5.30074225,
                "pitch": 55,
                "velocity": 81
            },
            {
                "start": 5.415873619791666,
                "end": 5.5216065104166665,
                "pitch": 55,
                "velocity": 49
            },
            {
                "start": 5.4205728593749996,
                "end": 5.523956130208333,
                "pitch": 63,
                "velocity": 66
            },
            {
                "start": 5.6390875,
                "end": 5.747170010416666,
                "pitch": 55,
                "velocity": 49
            },
            {
                "start": 5.643786739583333,
                "end": 5.7518692499999995,
                "pitch": 62,
                "velocity": 98
            },
            {
                "start": 5.646136359374999,
                "end": 5.754218869791666,
                "pitch": 58,
                "velocity": 85
            },
            {
                "start": 5.871699859375,
                "end": 5.972733510416666,
                "pitch": 62,
                "velocity": 66
            },
            {
                "start": 5.871699859375,
                "end": 5.975083130208333,
                "pitch": 58,
                "velocity": 53
            },
            {
                "start": 6.101962598958333,
                "end": 6.20299625,
                "pitch": 58,
                "velocity": 85
            },
            {
                "start": 6.097263359375,
                "end": 6.20299625,
                "pitch": 62,
                "velocity": 89
            },
            {
                "start": 6.315778,
                "end": 6.426210130208333,
                "pitch": 62,
                "velocity": 57
            },
            {
                "start": 6.325176479166666,
                "end": 6.42855975,
                "pitch": 58,
                "velocity": 53
            },
            {
                "start": 6.543691119791666,
                "end": 6.649424010416666,
                "pitch": 62,
                "velocity": 93
            },
            {
                "start": 6.553089598958333,
                "end": 6.651773630208333,
                "pitch": 58,
                "velocity": 84
            },
            {
                "start": 6.778653098958333,
                "end": 6.874987510416666,
                "pitch": 58,
                "velocity": 49
            },
            {
                "start": 6.776303479166666,
                "end": 6.874987510416666,
                "pitch": 62,
                "velocity": 66
            },
            {
                "start": 7.001866979166667,
                "end": 7.100551010416666,
                "pitch": 62,
                "velocity": 89
            },
            {
                "start": 6.999517359375,
                "end": 7.102900630208333,
                "pitch": 58,
                "velocity": 49
            },
            {
                "start": 7.004216598958333,
                "end": 7.105250249999999,
                "pitch": 55,
                "velocity": 73
            },
            {
                "start": 7.225080859375,
                "end": 7.326114510416666,
                "pitch": 55,
                "velocity": 41
            },
            {
                "start": 7.222731239583333,
                "end": 7.328464130208333,
                "pitch": 62,
                "velocity": 57
            },
            {
                "start": 7.448294739583333,
                "end": 7.5469787708333325,
                "pitch": 60,
                "velocity": 89
            },
            {
                "start": 7.450644359375,
                "end": 7.549328390625,
                "pitch": 58,
                "velocity": 89
            },
            {
                "start": 7.445945119791666,
                "end": 7.554027630208333,
                "pitch": 62,
                "velocity": 57
            },
            {
                "start": 7.673858239583333,
                "end": 7.767843031249999,
                "pitch": 60,
                "velocity": 57
            },
            {
                "start": 7.678557479166666,
                "end": 7.770192651041667,
                "pitch": 58,
                "velocity": 57
            },
            {
                "start": 7.899421739583333,
                "end": 7.99340653125,
                "pitch": 60,
                "velocity": 89
            },
            {
                "start": 7.901771359374999,
                "end": 7.998105770833333,
                "pitch": 58,
                "velocity": 89
            },
            {
                "start": 8.122635619791666,
                "end": 8.230718130208333,
                "pitch": 60,
                "velocity": 57
            },
            {
                "start": 8.127334859374999,
                "end": 8.23306775,
                "pitch": 58,
                "velocity": 57
            },
            {
                "start": 8.357597598958332,
                "end": 8.446883151041666,
                "pitch": 60,
                "velocity": 89
            },
            {
                "start": 8.35994721875,
                "end": 8.456281630208332,
                "pitch": 58,
                "velocity": 89
            },
            {
                "start": 8.578461859374999,
                "end": 8.67009703125,
                "pitch": 60,
                "velocity": 57
            },
            {
                "start": 8.580811479166666,
                "end": 8.68419475,
                "pitch": 58,
                "velocity": 57
            },
            {
                "start": 8.7969765,
                "end": 8.89566053125,
                "pitch": 60,
                "velocity": 57
            },
            {
                "start": 8.799326119791667,
                "end": 8.905059010416666,
                "pitch": 58,
                "velocity": 57
            },
            {
                "start": 8.804025359375,
                "end": 9.015491140624999,
                "pitch": 56,
                "velocity": 81
            },
            {
                "start": 8.808724598958333,
                "end": 9.02254,
                "pitch": 65,
                "velocity": 98
            },
            {
                "start": 9.024889619791667,
                "end": 9.231656161458332,
                "pitch": 56,
                "velocity": 49
            },
            {
                "start": 9.029588859375,
                "end": 9.23400578125,
                "pitch": 65,
                "velocity": 66
            },
            {
                "start": 9.259851598958333,
                "end": 9.339738671874999,
                "pitch": 63,
                "velocity": 81
            },
            {
                "start": 9.255152359375,
                "end": 9.34678753125,
                "pitch": 56,
                "velocity": 89
            },
            {
                "start": 9.480715859375,
                "end": 9.562952552083333,
                "pitch": 63,
                "velocity": 49
            },
            {
                "start": 9.478366239583332,
                "end": 9.57235103125,
                "pitch": 56,
                "velocity": 57
            },
            {
                "start": 9.703929739583332,
                "end": 9.788516052083333,
                "pitch": 63,
                "velocity": 49
            },
            {
                "start": 9.706279359375,
                "end": 9.910696281249999,
                "pitch": 56,
                "velocity": 89
            },
            {
                "start": 9.710978598958333,
                "end": 9.927143619791666,
                "pitch": 65,
                "velocity": 98
            },
            {
                "start": 9.924793999999999,
                "end": 10.05167346875,
                "pitch": 56,
                "velocity": 57
            },
            {
                "start": 9.934192479166667,
                "end": 10.098665864583333,
                "pitch": 65,
                "velocity": 66
            },
            {
                "start": 10.157406359374999,
                "end": 10.249041531249999,
                "pitch": 56,
                "velocity": 77
            },
            {
                "start": 10.155056739583333,
                "end": 10.296033927083332,
                "pitch": 63,
                "velocity": 85
            },
            {
                "start": 10.387669098958332,
                "end": 10.458157692708333,
                "pitch": 56,
                "velocity": 81
            },
            {
                "start": 10.392368338541665,
                "end": 10.476954651041666,
                "pitch": 65,
                "velocity": 98
            },
            {
                "start": 10.382969859374999,
                "end": 10.521597427083332,
                "pitch": 63,
                "velocity": 53
            },
            {
                "start": 10.610882979166666,
                "end": 10.681371572916666,
                "pitch": 56,
                "velocity": 49
            },
            {
                "start": 10.613232598958332,
                "end": 10.702518151041666,
                "pitch": 65,
                "velocity": 66
            },
            {
                "start": 10.603834119791665,
                "end": 10.747160927083332,
                "pitch": 63,
                "velocity": 53
            },
            {
                "start": 10.831747239583333,
                "end": 10.906935072916665,
                "pitch": 56,
                "velocity": 49
            },
            {
                "start": 11.066709218749999,
                "end": 11.170092489583332,
                "pitch": 58,
                "velocity": 81
            },
            {
                "start": 11.062009979166666,
                "end": 11.170092489583332,
                "pitch": 63,
                "velocity": 85
            },
            {
                "start": 11.289923098958333,
                "end": 11.395655989583332,
                "pitch": 58,
                "velocity": 49
            },
            {
                "start": 11.287573479166666,
                "end": 11.398005609375,
                "pitch": 63,
                "velocity": 53
            },
            {
                "start": 11.513136979166665,
                "end": 11.611821010416666,
                "pitch": 63,
                "velocity": 83
            },
            {
                "start": 11.517836218749999,
                "end": 11.614170630208333,
                "pitch": 58,
                "velocity": 85
            },
            {
                "start": 11.731651619791666,
                "end": 11.839734130208333,
                "pitch": 63,
                "velocity": 59
            },
            {
                "start": 11.738700479166665,
                "end": 11.842083749999999,
                "pitch": 58,
                "velocity": 53
            },
            {
                "start": 11.96896321875,
                "end": 12.062948010416665,
                "pitch": 58,
                "velocity": 81
            },
            {
                "start": 11.961914359375,
                "end": 12.062948010416665,
                "pitch": 63,
                "velocity": 89
            },
            {
                "start": 12.189827479166667,
                "end": 12.288511510416665,
                "pitch": 63,
                "velocity": 57
            },
            {
                "start": 12.185128239583333,
                "end": 12.290861130208333,
                "pitch": 58,
                "velocity": 53
            },
            {
                "start": 12.4059925,
                "end": 12.514075010416667,
                "pitch": 58,
                "velocity": 53
            },
            {
                "start": 12.413041359374999,
                "end": 12.514075010416667,
                "pitch": 63,
                "velocity": 92
            },
            {
                "start": 12.410691739583333,
                "end": 12.516424630208332,
                "pitch": 55,
                "velocity": 81
            },
            {
                "start": 12.633905619791665,
                "end": 12.739638510416667,
                "pitch": 55,
                "velocity": 49
            },
            {
                "start": 12.636255239583333,
                "end": 12.741988130208332,
                "pitch": 63,
                "velocity": 66
            },
            {
                "start": 12.8571195,
                "end": 12.965202010416666,
                "pitch": 55,
                "velocity": 49
            },
            {
                "start": 12.861818739583333,
                "end": 12.96990125,
                "pitch": 62,
                "velocity": 98
            },
            {
                "start": 12.864168359374998,
                "end": 12.972250869791665,
                "pitch": 58,
                "velocity": 85
            },
            {
                "start": 13.085032619791665,
                "end": 13.190765510416666,
                "pitch": 62,
                "velocity": 66
            },
            {
                "start": 13.089731859375,
                "end": 13.193115130208332,
                "pitch": 58,
                "velocity": 53
            },
            {
                "start": 13.317644979166666,
                "end": 13.416329010416666,
                "pitch": 62,
                "velocity": 89
            },
            {
                "start": 13.317644979166666,
                "end": 13.418678630208333,
                "pitch": 58,
                "velocity": 85
            },
            {
                "start": 13.545558098958333,
                "end": 13.648941369791666,
                "pitch": 58,
                "velocity": 53
            },
            {
                "start": 13.538509239583332,
                "end": 13.648941369791666,
                "pitch": 62,
                "velocity": 57
            },
            {
                "start": 13.761723119791666,
                "end": 13.867456010416666,
                "pitch": 62,
                "velocity": 93
            },
            {
                "start": 13.768771979166665,
                "end": 13.869805630208333,
                "pitch": 58,
                "velocity": 86
            },
            {
                "start": 13.994335479166665,
                "end": 14.093019510416665,
                "pitch": 58,
                "velocity": 49
            },
            {
                "start": 13.989636239583332,
                "end": 14.093019510416665,
                "pitch": 62,
                "velocity": 66
            },
            {
                "start": 14.219898979166667,
                "end": 14.318583010416665,
                "pitch": 62,
                "velocity": 89
            },
            {
                "start": 14.222248598958332,
                "end": 14.320932630208333,
                "pitch": 55,
                "velocity": 73
            },
            {
                "start": 14.217549359374999,
                "end": 14.320932630208333,
                "pitch": 58,
                "velocity": 49
            },
            {
                "start": 14.443112859374999,
                "end": 14.544146510416665,
                "pitch": 55,
                "velocity": 41
            },
            {
                "start": 14.440763239583333,
                "end": 14.546496130208332,
                "pitch": 62,
                "velocity": 57
            },
            {
                "start": 14.663977119791666,
                "end": 14.772059630208332,
                "pitch": 60,
                "velocity": 89
            },
            {
                "start": 14.6616275,
                "end": 14.772059630208332,
                "pitch": 62,
                "velocity": 57
            },
            {
                "start": 14.668676359374999,
                "end": 14.776758869791665,
                "pitch": 58,
                "velocity": 89
            },
            {
                "start": 14.896589479166666,
                "end": 14.995273510416666,
                "pitch": 60,
                "velocity": 57
            },
            {
                "start": 14.898939098958332,
                "end": 14.997623130208332,
                "pitch": 58,
                "velocity": 57
            },
            {
                "start": 15.117453739583333,
                "end": 15.220837010416666,
                "pitch": 60,
                "velocity": 89
            },
            {
                "start": 15.124502598958333,
                "end": 15.223186630208332,
                "pitch": 58,
                "velocity": 89
            },
            {
                "start": 15.340667619791665,
                "end": 15.448750130208332,
                "pitch": 60,
                "velocity": 57
            },
            {
                "start": 15.345366859375,
                "end": 15.45109975,
                "pitch": 58,
                "velocity": 57
            },
            {
                "start": 15.575629598958333,
                "end": 15.664915151041665,
                "pitch": 60,
                "velocity": 89
            },
            {
                "start": 15.575629598958333,
                "end": 15.671964010416666,
                "pitch": 58,
                "velocity": 89
            },
            {
                "start": 15.796493859375,
                "end": 15.88812903125,
                "pitch": 60,
                "velocity": 57
            },
            {
                "start": 15.798843479166665,
                "end": 15.897527510416666,
                "pitch": 58,
                "velocity": 57
            },
            {
                "start": 16.0150085,
                "end": 16.11369253125,
                "pitch": 60,
                "velocity": 57
            },
            {
                "start": 16.017358119791666,
                "end": 16.12544063020833,
                "pitch": 58,
                "velocity": 57
            },
            {
                "start": 16.022057359374998,
                "end": 16.231173520833334,
                "pitch": 56,
                "velocity": 81
            },
            {
                "start": 16.024406979166667,
                "end": 16.23822238020833,
                "pitch": 65,
                "velocity": 98
            },
            {
                "start": 16.242921619791666,
                "end": 16.444988921874998,
                "pitch": 56,
                "velocity": 49
            },
            {
                "start": 16.247620859374997,
                "end": 16.45203778125,
                "pitch": 65,
                "velocity": 66
            },
            {
                "start": 16.477883598958332,
                "end": 16.557770671874998,
                "pitch": 63,
                "velocity": 81
            },
            {
                "start": 16.473184359375,
                "end": 16.56481953125,
                "pitch": 56,
                "velocity": 89
            },
            {
                "start": 16.698747859375,
                "end": 16.780984552083332,
                "pitch": 63,
                "velocity": 49
            },
            {
                "start": 16.698747859375,
                "end": 16.79038303125,
                "pitch": 56,
                "velocity": 57
            },
            {
                "start": 16.92196173958333,
                "end": 17.006548052083332,
                "pitch": 63,
                "velocity": 49
            },
            {
                "start": 16.926660979166666,
                "end": 17.135777140625,
                "pitch": 56,
                "velocity": 89
            },
            {
                "start": 16.926660979166666,
                "end": 17.145175619791665,
                "pitch": 65,
                "velocity": 98
            },
            {
                "start": 17.14752523958333,
                "end": 17.26970546875,
                "pitch": 56,
                "velocity": 57
            },
            {
                "start": 17.152224479166666,
                "end": 17.316697864583332,
                "pitch": 65,
                "velocity": 66
            },
            {
                "start": 17.377787979166666,
                "end": 17.471772770833333,
                "pitch": 56,
                "velocity": 77
            },
            {
                "start": 17.37308873958333,
                "end": 17.514065927083333,
                "pitch": 63,
                "velocity": 85
            },
            {
                "start": 17.60570109895833,
                "end": 17.6785393125,
                "pitch": 56,
                "velocity": 81
            },
            {
                "start": 17.610400338541666,
                "end": 17.694986651041667,
                "pitch": 65,
                "velocity": 98
            },
            {
                "start": 17.601001859375,
                "end": 17.739629427083333,
                "pitch": 63,
                "velocity": 53
            },
            {
                "start": 17.828914979166665,
                "end": 17.899403572916665,
                "pitch": 56,
                "velocity": 49
            },
            {
                "start": 17.83361421875,
                "end": 17.920550151041667,
                "pitch": 65,
                "velocity": 66
            },
            {
                "start": 17.824215739583334,
                "end": 17.965192927083333,
                "pitch": 63,
                "velocity": 53
            }
        ],
        "pitch_classes": [
            14,
            0,
            18,
            28,
            0,
            12,
            0,
            10,
            19,
            0,
            42,
            0
        ],
        "velocity_mean": 69.5034965034965,
        "pitch_mean": 59.79020979020979,
        "pitch_std": 3.060812879034521,
        "duration_mean": 0.11141798466637523,
        "song_name": "No_One.1.mid",
        "tempo": 266.7984300300236,
        "time_signature": "4/4",
        "key": "C",
        "camelot_key": "5A",
        "maj_min": "minor"
    },
    "No_One.1.mid_95.45561784591885_113.4467282113728": {
        "instrument_no": 8,
        "instrument_category": "Other",
        "program": 70,
        "is_drum": false,
        "section_start": 95.45561784591885,
        "section_end": 113.4467282113728,
        "notes": [
            {
                "start": 110.30760035937499,
                "end": 110.41098363020832,
                "pitch": 72,
                "velocity": 71
            },
            {
                "start": 110.74462964062499,
                "end": 111.00308781770832,
                "pitch": 72,
                "velocity": 75
            },
            {
                "start": 110.970193140625,
                "end": 111.14641462499999,
                "pitch": 75,
                "velocity": 67
            },
            {
                "start": 111.20515511979166,
                "end": 111.29913991145833,
                "pitch": 72,
                "velocity": 71
            },
            {
                "start": 111.44011709895832,
                "end": 111.50825607291667,
                "pitch": 72,
                "velocity": 67
            },
            {
                "start": 111.65628211979165,
                "end": 111.886544859375,
                "pitch": 72,
                "velocity": 75
            },
            {
                "start": 111.87009752083333,
                "end": 112.13560455729166,
                "pitch": 75,
                "velocity": 71
            },
            {
                "start": 112.09566102083333,
                "end": 112.23193896874999,
                "pitch": 72,
                "velocity": 63
            }
        ],
        "pitch_classes": [
            6,
            0,
            0,
            2,
            0,
            0,
            0,
            0,
            0,
            0,
            0,
            0
        ],
        "velocity_mean": 70.0,
        "pitch_mean": 72.75,
        "pitch_std": 1.299038105676658,
        "duration_mean": 0.16652930273437327,
        "song_name": "No_One.1.mid",
        "tempo": 266.7984300300236,
        "time_signature": "4/4",
        "key": "C",
        "camelot_key": "5A",
        "maj_min": "minor"
    },
    "No_One.1.mid_190.9112356918377_208.90234605729165": {
        "instrument_no": 6,
        "instrument_category": "Other",
        "program": 62,
        "is_drum": false,
        "section_start": 190.9112356918377,
        "section_end": 208.90234605729165,
        "notes": [
            {
                "start": 192.84034516145832,
                "end": 193.06825828125,
                "pitch": 60,
                "velocity": 73
            },
            {
                "start": 193.09175447916667,
                "end": 193.38310733333333,
                "pitch": 67,
                "velocity": 90
            },
            {
                "start": 193.40190429166665,
                "end": 193.72615182291665,
                "pitch": 65,
                "velocity": 84
            },
            {
                "start": 193.74964802083332,
                "end": 194.07859479166666,
                "pitch": 65,
                "velocity": 84
            },
            {
                "start": 194.09739174999999,
                "end": 194.41224080208332,
                "pitch": 65,
                "velocity": 90
            },
            {
                "start": 194.44513547916665,
                "end": 195.85020811458332,
                "pitch": 63,
                "velocity": 84
            },
            {
                "start": 197.37746097916664,
                "end": 197.74165204687498,
                "pitch": 77,
                "velocity": 93
            },
            {
                "start": 197.83328721875,
                "end": 198.22332410416666,
                "pitch": 75,
                "velocity": 93
            },
            {
                "start": 198.27736535937498,
                "end": 199.61899826041665,
                "pitch": 72,
                "velocity": 93
            }
        ],
        "pitch_classes": [
            2,
            0,
            0,
            2,
            0,
            4,
            0,
            1,
            0,
            0,
            0,
            0
        ],
        "velocity_mean": 87.11111111111111,
        "pitch_mean": 67.66666666666667,
        "pitch_std": 5.395471352079548,
        "duration_mean": 0.5542492019675933,
        "song_name": "No_One.1.mid",
        "tempo": 266.7984300300236,
        "time_signature": "4/4",
        "key": "C",
        "camelot_key": "5A",
        "maj_min": "minor"
    },
    "Twilight_Zone.2.mid_0.0_18.380761921128826": {
        "instrument_no": 7,
        "instrument_category": "Other",
        "program": 55,
        "is_drum": false,
        "section_start": 0.0,
        "section_end": 18.380761921128826,
        "notes": [
            {
                "start": 12.53856,
                "end": 12.568087499999997,
                "pitch": 82,
                "velocity": 112
            },
            {
                "start": 12.656669999999998,
                "end": 12.686197499999999,
                "pitch": 82,
                "velocity": 109
            },
            {
                "start": 12.892889999999998,
                "end": 12.922417499999998,
                "pitch": 82,
                "velocity": 112
            },
            {
                "start": 13.011,
                "end": 13.0405275,
                "pitch": 82,
                "velocity": 116
            },
            {
                "start": 13.247219999999999,
                "end": 13.276747499999999,
                "pitch": 82,
                "velocity": 120
            },
            {
                "start": 13.36533,
                "end": 13.394857499999997,
                "pitch": 82,
                "velocity": 112
            },
            {
                "start": 13.60155,
                "end": 13.6310775,
                "pitch": 82,
                "velocity": 117
            },
            {
                "start": 13.719659999999998,
                "end": 13.749187499999998,
                "pitch": 82,
                "velocity": 119
            },
            {
                "start": 13.955879999999997,
                "end": 13.985407499999997,
                "pitch": 83,
                "velocity": 119
            },
            {
                "start": 14.1921,
                "end": 14.2216275,
                "pitch": 80,
                "velocity": 118
            },
            {
                "start": 14.42832,
                "end": 14.4578475,
                "pitch": 82,
                "velocity": 122
            },
            {
                "start": 14.546429999999997,
                "end": 14.575957499999998,
                "pitch": 82,
                "velocity": 119
            },
            {
                "start": 14.78265,
                "end": 14.812177499999997,
                "pitch": 82,
                "velocity": 109
            },
            {
                "start": 14.900759999999998,
                "end": 14.930287499999999,
                "pitch": 82,
                "velocity": 110
            },
            {
                "start": 15.136979999999998,
                "end": 15.166507499999998,
                "pitch": 82,
                "velocity": 120
            },
            {
                "start": 15.25509,
                "end": 15.2846175,
                "pitch": 82,
                "velocity": 122
            },
            {
                "start": 15.491309999999999,
                "end": 15.520837499999999,
                "pitch": 82,
                "velocity": 118
            },
            {
                "start": 15.60942,
                "end": 15.638947499999997,
                "pitch": 82,
                "velocity": 114
            },
            {
                "start": 15.84564,
                "end": 15.8751675,
                "pitch": 83,
                "velocity": 108
            },
            {
                "start": 16.08186,
                "end": 16.1113875,
                "pitch": 80,
                "velocity": 118
            },
            {
                "start": 16.31808,
                "end": 16.3476075,
                "pitch": 82,
                "velocity": 118
            },
            {
                "start": 16.43619,
                "end": 16.465717499999997,
                "pitch": 82,
                "velocity": 106
            },
            {
                "start": 16.67241,
                "end": 16.7019375,
                "pitch": 82,
                "velocity": 115
            },
            {
                "start": 16.790519999999997,
                "end": 16.820047499999998,
                "pitch": 82,
                "velocity": 118
            },
            {
                "start": 17.026739999999997,
                "end": 17.056267499999997,
                "pitch": 82,
                "velocity": 105
            },
            {
                "start": 17.144849999999998,
                "end": 17.1743775,
                "pitch": 82,
                "velocity": 105
            },
            {
                "start": 17.381069999999998,
                "end": 17.410597499999998,
                "pitch": 82,
                "velocity": 108
            },
            {
                "start": 17.49918,
                "end": 17.528707499999996,
                "pitch": 82,
                "velocity": 111
            },
            {
                "start": 17.7354,
                "end": 17.7649275,
                "pitch": 83,
                "velocity": 109
            },
            {
                "start": 17.971619999999998,
                "end": 18.0011475,
                "pitch": 80,
                "velocity": 110
            },
            {
                "start": 18.207839999999997,
                "end": 18.237367499999998,
                "pitch": 82,
                "velocity": 107
            }
        ],
        "pitch_classes": [
            0,
            0,
            0,
            0,
            0,
            0,
            0,
            0,
            3,
            0,
            25,
            3
        ],
        "velocity_mean": 113.74193548387096,
        "pitch_mean": 81.90322580645162,
        "pitch_std": 0.6888437581955685,
        "duration_mean": 0.029527499999999686,
        "song_name": "Twilight_Zone.2.mid",
        "tempo": 261.14260228148447,
        "time_signature": "4/4",
        "key": "Eb",
        "camelot_key": "2A",
        "maj_min": "minor"
    },
    "No_One.mid_0.0_18.22438703379956": {
        "instrument_no": 10,
        "instrument_category": "Other",
        "program": 119,
        "is_drum": false,
        "section_start": 0.0,
        "section_end": 18.22438703379956,
        "notes": [
            {
                "start": 4.5112,
                "end": 5.415789583333333,
                "pitch": 60,
                "velocity": 73
            }
        ],
        "pitch_classes": [
            1,
            0,
            0,
            0,
            0,
            0,
            0,
            0,
            0,
            0,
            0,
            0
        ],
        "velocity_mean": 73.0,
        "pitch_mean": 60.0,
        "pitch_std": 0.0,
        "duration_mean": 0.9045895833333333,
        "song_name": "No_One.mid",
        "tempo": 263.3833440377314,
        "time_signature": "4/4",
        "key": "C",
        "camelot_key": "8B",
        "maj_min": "major"
    },
    "No_One.mid_96.12799356643355_114.3523806002331": {
        "instrument_no": 6,
        "instrument_category": "Other",
        "program": 82,
        "is_drum": false,
        "section_start": 96.12799356643355,
        "section_end": 114.3523806002331,
        "notes": [
            {
                "start": 96.53733041666666,
                "end": 96.62661458333334,
                "pitch": 60,
                "velocity": 72
            },
            {
                "start": 96.53733041666666,
                "end": 96.64071208333333,
                "pitch": 55,
                "velocity": 64
            },
            {
                "start": 96.53498083333334,
                "end": 96.64776083333334,
                "pitch": 58,
                "velocity": 64
            },
            {
                "start": 96.98845041666667,
                "end": 97.07773458333334,
                "pitch": 60,
                "velocity": 72
            },
            {
                "start": 96.98845041666667,
                "end": 97.09183208333333,
                "pitch": 55,
                "velocity": 64
            },
            {
                "start": 96.98610083333334,
                "end": 97.09888083333333,
                "pitch": 58,
                "velocity": 64
            },
            {
                "start": 97.43957041666667,
                "end": 97.526505,
                "pitch": 63,
                "velocity": 64
            },
            {
                "start": 97.43957041666667,
                "end": 97.52885458333333,
                "pitch": 65,
                "velocity": 72
            },
            {
                "start": 97.43957041666667,
                "end": 97.54295208333333,
                "pitch": 56,
                "velocity": 64
            },
            {
                "start": 97.43722083333333,
                "end": 97.55000083333333,
                "pitch": 60,
                "velocity": 64
            },
            {
                "start": 97.89069041666667,
                "end": 97.977625,
                "pitch": 63,
                "velocity": 64
            },
            {
                "start": 97.89069041666667,
                "end": 97.97997458333333,
                "pitch": 65,
                "velocity": 72
            },
            {
                "start": 97.89069041666667,
                "end": 97.99407208333334,
                "pitch": 56,
                "velocity": 64
            },
            {
                "start": 97.88834083333333,
                "end": 98.00112083333333,
                "pitch": 60,
                "velocity": 64
            },
            {
                "start": 98.34181041666666,
                "end": 98.42874499999999,
                "pitch": 63,
                "velocity": 64
            },
            {
                "start": 98.34181041666666,
                "end": 98.43109458333333,
                "pitch": 65,
                "velocity": 72
            },
            {
                "start": 98.34181041666666,
                "end": 98.44519208333334,
                "pitch": 56,
                "velocity": 64
            },
            {
                "start": 98.33946083333333,
                "end": 98.45224083333333,
                "pitch": 60,
                "velocity": 64
            },
            {
                "start": 98.79293041666666,
                "end": 98.879865,
                "pitch": 63,
                "velocity": 64
            },
            {
                "start": 98.79293041666666,
                "end": 98.88221458333334,
                "pitch": 65,
                "velocity": 72
            },
            {
                "start": 98.79293041666666,
                "end": 98.89631208333333,
                "pitch": 56,
                "velocity": 64
            },
            {
                "start": 98.79058083333334,
                "end": 98.90336083333334,
                "pitch": 60,
                "velocity": 64
            },
            {
                "start": 99.69517041666667,
                "end": 99.782105,
                "pitch": 60,
                "velocity": 64
            },
            {
                "start": 99.69517041666667,
                "end": 99.78445458333333,
                "pitch": 63,
                "velocity": 72
            },
            {
                "start": 99.69517041666667,
                "end": 99.79855208333333,
                "pitch": 55,
                "velocity": 64
            },
            {
                "start": 99.69282083333333,
                "end": 99.80560083333333,
                "pitch": 58,
                "velocity": 64
            },
            {
                "start": 100.14629041666666,
                "end": 100.233225,
                "pitch": 60,
                "velocity": 64
            },
            {
                "start": 100.14629041666666,
                "end": 100.23557458333333,
                "pitch": 63,
                "velocity": 72
            },
            {
                "start": 100.14629041666666,
                "end": 100.24967208333334,
                "pitch": 55,
                "velocity": 64
            },
            {
                "start": 100.14394083333333,
                "end": 100.25672083333333,
                "pitch": 58,
                "velocity": 64
            },
            {
                "start": 100.59741041666666,
                "end": 100.684345,
                "pitch": 60,
                "velocity": 64
            },
            {
                "start": 100.59741041666666,
                "end": 100.68669458333333,
                "pitch": 63,
                "velocity": 72
            },
            {
                "start": 100.59741041666666,
                "end": 100.70079208333333,
                "pitch": 55,
                "velocity": 64
            },
            {
                "start": 100.59506083333333,
                "end": 100.70784083333334,
                "pitch": 58,
                "velocity": 64
            },
            {
                "start": 101.04853041666667,
                "end": 101.135465,
                "pitch": 60,
                "velocity": 64
            },
            {
                "start": 101.04853041666667,
                "end": 101.13781458333334,
                "pitch": 62,
                "velocity": 72
            },
            {
                "start": 101.04853041666667,
                "end": 101.15191208333333,
                "pitch": 55,
                "velocity": 64
            },
            {
                "start": 101.04618083333334,
                "end": 101.15896083333334,
                "pitch": 58,
                "velocity": 64
            },
            {
                "start": 101.49965041666667,
                "end": 101.586585,
                "pitch": 60,
                "velocity": 64
            },
            {
                "start": 101.49965041666667,
                "end": 101.58893458333333,
                "pitch": 62,
                "velocity": 72
            },
            {
                "start": 101.49965041666667,
                "end": 101.60303208333333,
                "pitch": 55,
                "velocity": 64
            },
            {
                "start": 101.49730083333333,
                "end": 101.61008083333333,
                "pitch": 58,
                "velocity": 64
            },
            {
                "start": 101.95077041666667,
                "end": 102.037705,
                "pitch": 60,
                "velocity": 64
            },
            {
                "start": 101.95077041666667,
                "end": 102.04005458333333,
                "pitch": 62,
                "velocity": 72
            },
            {
                "start": 101.95077041666667,
                "end": 102.05415208333334,
                "pitch": 55,
                "velocity": 64
            },
            {
                "start": 101.94842083333333,
                "end": 102.06120083333333,
                "pitch": 58,
                "velocity": 64
            },
            {
                "start": 102.40189041666666,
                "end": 102.48882499999999,
                "pitch": 60,
                "velocity": 64
            },
            {
                "start": 102.40189041666666,
                "end": 102.49117458333333,
                "pitch": 62,
                "velocity": 72
            },
            {
                "start": 102.40189041666666,
                "end": 102.50527208333334,
                "pitch": 55,
                "velocity": 64
            },
            {
                "start": 102.39954083333333,
                "end": 102.51232083333333,
                "pitch": 58,
                "velocity": 64
            },
            {
                "start": 102.85301041666666,
                "end": 102.94229458333334,
                "pitch": 60,
                "velocity": 72
            },
            {
                "start": 102.85301041666666,
                "end": 102.95639208333333,
                "pitch": 55,
                "velocity": 64
            },
            {
                "start": 102.85066083333334,
                "end": 102.96344083333334,
                "pitch": 58,
                "velocity": 64
            },
            {
                "start": 103.30413041666667,
                "end": 103.39341458333332,
                "pitch": 60,
                "velocity": 72
            },
            {
                "start": 103.30413041666667,
                "end": 103.40751208333333,
                "pitch": 55,
                "velocity": 64
            },
            {
                "start": 103.30178083333332,
                "end": 103.41456083333333,
                "pitch": 58,
                "velocity": 64
            },
            {
                "start": 103.75525041666667,
                "end": 103.84453458333333,
                "pitch": 60,
                "velocity": 72
            },
            {
                "start": 103.75525041666667,
                "end": 103.85863208333333,
                "pitch": 55,
                "velocity": 64
            },
            {
                "start": 103.75290083333333,
                "end": 103.86568083333333,
                "pitch": 58,
                "velocity": 64
            },
            {
                "start": 104.20637041666666,
                "end": 104.29565458333333,
                "pitch": 60,
                "velocity": 72
            },
            {
                "start": 104.20637041666666,
                "end": 104.30975208333334,
                "pitch": 55,
                "velocity": 64
            },
            {
                "start": 104.20402083333333,
                "end": 104.31680083333333,
                "pitch": 58,
                "velocity": 64
            },
            {
                "start": 104.65749041666666,
                "end": 104.74442499999999,
                "pitch": 63,
                "velocity": 64
            },
            {
                "start": 104.65749041666666,
                "end": 104.74677458333333,
                "pitch": 65,
                "velocity": 72
            },
            {
                "start": 104.65749041666666,
                "end": 104.76087208333333,
                "pitch": 56,
                "velocity": 64
            },
            {
                "start": 104.65514083333333,
                "end": 104.76792083333333,
                "pitch": 60,
                "velocity": 64
            },
            {
                "start": 105.10861041666666,
                "end": 105.195545,
                "pitch": 63,
                "velocity": 64
            },
            {
                "start": 105.10861041666666,
                "end": 105.19789458333334,
                "pitch": 65,
                "velocity": 72
            },
            {
                "start": 105.10861041666666,
                "end": 105.21199208333333,
                "pitch": 56,
                "velocity": 64
            },
            {
                "start": 105.10626083333334,
                "end": 105.21904083333334,
                "pitch": 60,
                "velocity": 64
            },
            {
                "start": 105.55973041666667,
                "end": 105.646665,
                "pitch": 63,
                "velocity": 64
            },
            {
                "start": 105.55973041666667,
                "end": 105.64901458333333,
                "pitch": 65,
                "velocity": 72
            },
            {
                "start": 105.55973041666667,
                "end": 105.66311208333333,
                "pitch": 56,
                "velocity": 64
            },
            {
                "start": 105.55738083333333,
                "end": 105.67016083333333,
                "pitch": 60,
                "velocity": 64
            },
            {
                "start": 106.01085041666667,
                "end": 106.097785,
                "pitch": 63,
                "velocity": 64
            },
            {
                "start": 106.01085041666667,
                "end": 106.10013458333333,
                "pitch": 65,
                "velocity": 72
            },
            {
                "start": 106.01085041666667,
                "end": 106.11423208333333,
                "pitch": 56,
                "velocity": 64
            },
            {
                "start": 106.00850083333333,
                "end": 106.12128083333333,
                "pitch": 60,
                "velocity": 64
            }
        ],
        "pitch_classes": [
            21,
            0,
            4,
            11,
            0,
            8,
            0,
            13,
            8,
            0,
            13,
            0
        ],
        "velocity_mean": 66.15384615384616,
        "pitch_mean": 59.46153846153846,
        "pitch_std": 3.1973238316470454,
        "duration_mean": 0.0989536057692305,
        "song_name": "No_One.mid",
        "tempo": 263.3833440377314,
        "time_signature": "4/4",
        "key": "C",
        "camelot_key": "5A",
        "maj_min": "minor"
    },
    "No_One.mid_192.2559871328671_210.48037416666665": {
        "instrument_no": 8,
        "instrument_category": "Other",
        "program": 11,
        "is_drum": false,
        "section_start": 192.2559871328671,
        "section_end": 210.48037416666665,
        "notes": [
            {
                "start": 192.40033041666666,
                "end": 192.487265,
                "pitch": 62,
                "velocity": 64
            },
            {
                "start": 192.40033041666666,
                "end": 192.48961458333332,
                "pitch": 63,
                "velocity": 63
            },
            {
                "start": 192.40033041666666,
                "end": 192.50371208333334,
                "pitch": 58,
                "velocity": 55
            },
            {
                "start": 192.62589041666666,
                "end": 192.72927208333334,
                "pitch": 58,
                "velocity": 55
            },
            {
                "start": 192.62589041666666,
                "end": 192.73162166666665,
                "pitch": 65,
                "velocity": 73
            },
            {
                "start": 192.62589041666666,
                "end": 192.73397125,
                "pitch": 62,
                "velocity": 64
            },
            {
                "start": 193.07936,
                "end": 194.88853916666667,
                "pitch": 60,
                "velocity": 52
            },
            {
                "start": 193.07936,
                "end": 194.88853916666667,
                "pitch": 63,
                "velocity": 60
            },
            {
                "start": 193.07936,
                "end": 194.88853916666667,
                "pitch": 67,
                "velocity": 52
            },
            {
                "start": 200.29728,
                "end": 202.10645916666667,
                "pitch": 60,
                "velocity": 52
            },
            {
                "start": 200.29728,
                "end": 202.10645916666667,
                "pitch": 63,
                "velocity": 60
            },
            {
                "start": 200.29728,
                "end": 202.10645916666667,
                "pitch": 67,
                "velocity": 52
            }
        ],
        "pitch_classes": [
            2,
            0,
            2,
            3,
            0,
            1,
            0,
            2,
            0,
            0,
            2,
            0
        ],
        "velocity_mean": 58.5,
        "pitch_mean": 62.333333333333336,
        "pitch_std": 2.896357866163795,
        "duration_mean": 0.9543224305555569,
        "song_name": "No_One.mid",
        "tempo": 263.3833440377314,
        "time_signature": "4/4",
        "key": "C",
        "camelot_key": "5A",
        "maj_min": "minor"
    },
    "No_Limit.mid_0.0_19.59353741496608": {
        "instrument_no": 16,
        "instrument_category": "Drum",
        "program": 0,
        "is_drum": true,
        "section_start": 0.0,
        "section_end": 19.59353741496608,
        "notes": [
            {
                "start": 7.447916666666666,
                "end": 7.46875,
                "pitch": 40,
                "velocity": 59
            },
            {
                "start": 7.65625,
                "end": 7.671875,
                "pitch": 40,
                "velocity": 59
            },
            {
                "start": 7.864583333333333,
                "end": 7.885416666666666,
                "pitch": 40,
                "velocity": 69
            },
            {
                "start": 7.96875,
                "end": 7.989583333333333,
                "pitch": 40,
                "velocity": 71
            },
            {
                "start": 8.078125,
                "end": 8.09375,
                "pitch": 40,
                "velocity": 77
            },
            {
                "start": 8.177083333333332,
                "end": 8.197916666666666,
                "pitch": 40,
                "velocity": 81
            },
            {
                "start": 8.385416666666666,
                "end": 8.40625,
                "pitch": 40,
                "velocity": 91
            },
            {
                "start": 8.59375,
                "end": 8.614583333333332,
                "pitch": 40,
                "velocity": 99
            },
            {
                "start": 8.697916666666666,
                "end": 8.71875,
                "pitch": 40,
                "velocity": 105
            },
            {
                "start": 8.802083333333332,
                "end": 8.822916666666666,
                "pitch": 40,
                "velocity": 110
            },
            {
                "start": 8.911458333333332,
                "end": 8.927083333333332,
                "pitch": 40,
                "velocity": 114
            },
            {
                "start": 9.015625,
                "end": 9.036458333333332,
                "pitch": 40,
                "velocity": 119
            }
        ],
        "pitch_classes": [
            0,
            0,
            0,
            0,
            12,
            0,
            0,
            0,
            0,
            0,
            0,
            0
        ],
        "velocity_mean": 87.83333333333333,
        "pitch_mean": 40.0,
        "pitch_std": 0.0,
        "duration_mean": 0.01953125,
        "song_name": "No_Limit.mid",
        "tempo": 244.97873448485257,
        "time_signature": "4/4",
        "key": "C",
        "camelot_key": "8B",
        "maj_min": "major"
    },
    "No_Limit.mid_100.27224170918362_119.8657791241497": {
        "instrument_no": 17,
        "instrument_category": "Drum",
        "program": 0,
        "is_drum": true,
        "section_start": 100.27224170918362,
        "section_end": 119.8657791241497,
        "notes": [
            {
                "start": 100.67708333333333,
                "end": 100.68229166666666,
                "pitch": 36,
                "velocity": 127
            },
            {
                "start": 101.09375,
                "end": 101.09895833333333,
                "pitch": 36,
                "velocity": 127
            },
            {
                "start": 101.51041666666666,
                "end": 101.515625,
                "pitch": 36,
                "velocity": 127
            },
            {
                "start": 101.92708333333333,
                "end": 101.93229166666666,
                "pitch": 36,
                "velocity": 127
            },
            {
                "start": 102.34895833333333,
                "end": 102.35416666666666,
                "pitch": 36,
                "velocity": 127
            },
            {
                "start": 102.765625,
                "end": 102.77083333333333,
                "pitch": 36,
                "velocity": 127
            },
            {
                "start": 103.18229166666666,
                "end": 103.1875,
                "pitch": 36,
                "velocity": 127
            },
            {
                "start": 103.59895833333333,
                "end": 103.60416666666666,
                "pitch": 36,
                "velocity": 127
            },
            {
                "start": 104.02083333333333,
                "end": 104.02604166666666,
                "pitch": 36,
                "velocity": 127
            },
            {
                "start": 104.4375,
                "end": 104.44270833333333,
                "pitch": 36,
                "velocity": 127
            },
            {
                "start": 104.85416666666666,
                "end": 104.859375,
                "pitch": 36,
                "velocity": 127
            },
            {
                "start": 105.27604166666666,
                "end": 105.28125,
                "pitch": 36,
                "velocity": 127
            },
            {
                "start": 105.69270833333333,
                "end": 105.69791666666666,
                "pitch": 36,
                "velocity": 127
            },
            {
                "start": 106.109375,
                "end": 106.11458333333333,
                "pitch": 36,
                "velocity": 127
            },
            {
                "start": 106.52604166666666,
                "end": 106.53125,
                "pitch": 36,
                "velocity": 127
            },
            {
                "start": 106.94791666666666,
                "end": 106.953125,
                "pitch": 36,
                "velocity": 127
            },
            {
                "start": 107.36458333333333,
                "end": 107.36979166666666,
                "pitch": 36,
                "velocity": 127
            },
            {
                "start": 107.78125,
                "end": 107.78645833333333,
                "pitch": 36,
                "velocity": 127
            },
            {
                "start": 108.19791666666666,
                "end": 108.203125,
                "pitch": 36,
                "velocity": 127
            },
            {
                "start": 108.61979166666666,
                "end": 108.625,
                "pitch": 36,
                "velocity": 127
            },
            {
                "start": 109.03645833333333,
                "end": 109.04166666666666,
                "pitch": 36,
                "velocity": 127
            },
            {
                "start": 109.453125,
                "end": 109.45833333333333,
                "pitch": 36,
                "velocity": 127
            },
            {
                "start": 109.86979166666666,
                "end": 109.875,
                "pitch": 36,
                "velocity": 127
            },
            {
                "start": 110.29166666666666,
                "end": 110.296875,
                "pitch": 36,
                "velocity": 127
            },
            {
                "start": 110.70833333333333,
                "end": 110.71354166666666,
                "pitch": 36,
                "velocity": 127
            },
            {
                "start": 111.125,
                "end": 111.13020833333333,
                "pitch": 36,
                "velocity": 127
            },
            {
                "start": 111.546875,
                "end": 111.55208333333333,
                "pitch": 36,
                "velocity": 127
            },
            {
                "start": 111.96354166666666,
                "end": 111.96875,
                "pitch": 36,
                "velocity": 127
            },
            {
                "start": 112.38020833333333,
                "end": 112.38541666666666,
                "pitch": 36,
                "velocity": 127
            },
            {
                "start": 112.80208333333333,
                "end": 112.80729166666666,
                "pitch": 36,
                "velocity": 127
            },
            {
                "start": 113.21875,
                "end": 113.22395833333333,
                "pitch": 36,
                "velocity": 127
            },
            {
                "start": 113.63541666666666,
                "end": 113.640625,
                "pitch": 36,
                "velocity": 127
            },
            {
                "start": 114.05208333333333,
                "end": 114.05729166666666,
                "pitch": 36,
                "velocity": 127
            },
            {
                "start": 114.47395833333333,
                "end": 114.47916666666666,
                "pitch": 36,
                "velocity": 127
            },
            {
                "start": 114.890625,
                "end": 114.89583333333333,
                "pitch": 36,
                "velocity": 127
            },
            {
                "start": 115.30729166666666,
                "end": 115.3125,
                "pitch": 36,
                "velocity": 127
            },
            {
                "start": 115.72395833333333,
                "end": 115.72916666666666,
                "pitch": 36,
                "velocity": 127
            },
            {
                "start": 116.14583333333333,
                "end": 116.15104166666666,
                "pitch": 36,
                "velocity": 127
            },
            {
                "start": 116.5625,
                "end": 116.56770833333333,
                "pitch": 36,
                "velocity": 127
            },
            {
                "start": 116.97916666666666,
                "end": 116.984375,
                "pitch": 36,
                "velocity": 127
            },
            {
                "start": 117.40104166666666,
                "end": 117.40625,
                "pitch": 36,
                "velocity": 127
            },
            {
                "start": 117.81770833333333,
                "end": 117.82291666666666,
                "pitch": 36,
                "velocity": 127
            },
            {
                "start": 118.234375,
                "end": 118.23958333333333,
                "pitch": 36,
                "velocity": 127
            },
            {
                "start": 118.65104166666666,
                "end": 118.65625,
                "pitch": 36,
                "velocity": 127
            },
            {
                "start": 119.06770833333333,
                "end": 119.07291666666666,
                "pitch": 36,
                "velocity": 127
            },
            {
                "start": 119.48958333333333,
                "end": 119.49479166666666,
                "pitch": 36,
                "velocity": 127
            }
        ],
        "pitch_classes": [
            46,
            0,
            0,
            0,
            0,
            0,
            0,
            0,
            0,
            0,
            0,
            0
        ],
        "velocity_mean": 127.0,
        "pitch_mean": 36.0,
        "pitch_std": 0.0,
        "duration_mean": 0.0052083333333335395,
        "song_name": "No_Limit.mid",
        "tempo": 244.97873448485257,
        "time_signature": "4/4",
        "key": "C",
        "camelot_key": "8B",
        "maj_min": "major"
    },
    "No_Limit.mid_200.54448341836724_220.13802083333331": {
        "instrument_no": 3,
        "instrument_category": "Other",
        "program": 95,
        "is_drum": false,
        "section_start": 200.54448341836724,
        "section_end": 220.13802083333331,
        "notes": [
            {
                "start": 203.00520833333331,
                "end": 204.671875,
                "pitch": 42,
                "velocity": 106
            },
            {
                "start": 203.00520833333331,
                "end": 204.671875,
                "pitch": 73,
                "velocity": 78
            },
            {
                "start": 203.00520833333331,
                "end": 204.671875,
                "pitch": 70,
                "velocity": 78
            },
            {
                "start": 203.00520833333331,
                "end": 204.671875,
                "pitch": 66,
                "velocity": 78
            },
            {
                "start": 203.0,
                "end": 204.671875,
                "pitch": 54,
                "velocity": 106
            },
            {
                "start": 203.08333333333331,
                "end": 204.75,
                "pitch": 78,
                "velocity": 78
            },
            {
                "start": 204.75,
                "end": 206.41666666666666,
                "pitch": 49,
                "velocity": 106
            },
            {
                "start": 204.75,
                "end": 206.41666666666666,
                "pitch": 61,
                "velocity": 78
            },
            {
                "start": 204.75,
                "end": 206.41666666666666,
                "pitch": 68,
                "velocity": 78
            },
            {
                "start": 204.75,
                "end": 206.41666666666666,
                "pitch": 73,
                "velocity": 78
            },
            {
                "start": 204.75,
                "end": 206.41666666666666,
                "pitch": 77,
                "velocity": 78
            },
            {
                "start": 204.75,
                "end": 206.41666666666666,
                "pitch": 37,
                "velocity": 106
            },
            {
                "start": 206.4375,
                "end": 209.68229166666666,
                "pitch": 44,
                "velocity": 106
            },
            {
                "start": 206.4375,
                "end": 209.68229166666666,
                "pitch": 75,
                "velocity": 78
            },
            {
                "start": 206.4375,
                "end": 209.68229166666666,
                "pitch": 71,
                "velocity": 78
            },
            {
                "start": 206.4375,
                "end": 209.68229166666666,
                "pitch": 56,
                "velocity": 106
            },
            {
                "start": 206.52083333333331,
                "end": 209.765625,
                "pitch": 80,
                "velocity": 78
            },
            {
                "start": 209.765625,
                "end": 211.4375,
                "pitch": 54,
                "velocity": 106
            },
            {
                "start": 209.765625,
                "end": 211.4375,
                "pitch": 66,
                "velocity": 78
            },
            {
                "start": 209.765625,
                "end": 211.4375,
                "pitch": 70,
                "velocity": 78
            },
            {
                "start": 209.765625,
                "end": 211.4375,
                "pitch": 73,
                "velocity": 78
            },
            {
                "start": 209.765625,
                "end": 211.4375,
                "pitch": 78,
                "velocity": 78
            },
            {
                "start": 209.765625,
                "end": 211.4375,
                "pitch": 42,
                "velocity": 106
            },
            {
                "start": 211.4375,
                "end": 213.10416666666666,
                "pitch": 49,
                "velocity": 106
            },
            {
                "start": 211.4375,
                "end": 213.10416666666666,
                "pitch": 61,
                "velocity": 78
            },
            {
                "start": 211.4375,
                "end": 213.10416666666666,
                "pitch": 68,
                "velocity": 78
            },
            {
                "start": 211.4375,
                "end": 213.10416666666666,
                "pitch": 73,
                "velocity": 78
            },
            {
                "start": 211.4375,
                "end": 213.10416666666666,
                "pitch": 77,
                "velocity": 78
            },
            {
                "start": 211.4375,
                "end": 213.10416666666666,
                "pitch": 37,
                "velocity": 106
            }
        ],
        "pitch_classes": [
            0,
            10,
            0,
            1,
            0,
            2,
            8,
            0,
            5,
            0,
            2,
            1
        ],
        "velocity_mean": 87.65517241379311,
        "pitch_mean": 62.827586206896555,
        "pitch_std": 13.274473729466358,
        "duration_mean": 1.9400143678160906,
        "song_name": "No_Limit.mid",
        "tempo": 244.97873448485257,
        "time_signature": "4/4",
        "key": "Eb",
        "camelot_key": "2A",
        "maj_min": "minor"
    },
    "Here_I_Go.mid_91.36032089669666_108.59883399913667": {
        "instrument_no": 7,
        "instrument_category": "Other",
        "program": 81,
        "is_drum": false,
        "section_start": 91.36032089669666,
        "section_end": 108.59883399913667,
        "notes": [
            {
                "start": 91.3925525,
                "end": 91.43719520833334,
                "pitch": 43,
                "velocity": 127
            },
            {
                "start": 91.49969499999999,
                "end": 91.54433770833333,
                "pitch": 43,
                "velocity": 127
            },
            {
                "start": 91.6068375,
                "end": 91.65148020833333,
                "pitch": 55,
                "velocity": 127
            },
            {
                "start": 91.71397999999999,
                "end": 91.75862270833333,
                "pitch": 55,
                "velocity": 127
            },
            {
                "start": 91.8211225,
                "end": 91.86576520833333,
                "pitch": 43,
                "velocity": 127
            },
            {
                "start": 91.928265,
                "end": 91.97290770833332,
                "pitch": 43,
                "velocity": 127
            },
            {
                "start": 92.03540749999999,
                "end": 92.08005020833333,
                "pitch": 55,
                "velocity": 127
            },
            {
                "start": 92.14255,
                "end": 92.18719270833333,
                "pitch": 55,
                "velocity": 127
            },
            {
                "start": 92.2496925,
                "end": 92.29433520833332,
                "pitch": 43,
                "velocity": 127
            },
            {
                "start": 92.35683499999999,
                "end": 92.40147770833333,
                "pitch": 43,
                "velocity": 127
            },
            {
                "start": 92.4639775,
                "end": 92.50862020833333,
                "pitch": 55,
                "velocity": 127
            },
            {
                "start": 92.57112,
                "end": 92.61576270833334,
                "pitch": 55,
                "velocity": 127
            },
            {
                "start": 92.6782625,
                "end": 92.72290520833333,
                "pitch": 43,
                "velocity": 127
            },
            {
                "start": 92.785405,
                "end": 92.83004770833332,
                "pitch": 43,
                "velocity": 127
            },
            {
                "start": 92.89254749999999,
                "end": 92.93719020833333,
                "pitch": 55,
                "velocity": 127
            },
            {
                "start": 92.99969,
                "end": 93.04433270833333,
                "pitch": 55,
                "velocity": 127
            },
            {
                "start": 93.1068325,
                "end": 93.15147520833332,
                "pitch": 43,
                "velocity": 127
            },
            {
                "start": 93.21397499999999,
                "end": 93.25861770833333,
                "pitch": 43,
                "velocity": 127
            },
            {
                "start": 93.3211175,
                "end": 93.36576020833333,
                "pitch": 55,
                "velocity": 127
            },
            {
                "start": 93.42826,
                "end": 93.47290270833332,
                "pitch": 55,
                "velocity": 127
            },
            {
                "start": 93.53540249999999,
                "end": 93.58004520833333,
                "pitch": 43,
                "velocity": 127
            },
            {
                "start": 93.642545,
                "end": 93.68718770833333,
                "pitch": 43,
                "velocity": 127
            },
            {
                "start": 93.7496875,
                "end": 93.79433020833334,
                "pitch": 55,
                "velocity": 127
            },
            {
                "start": 93.85683,
                "end": 93.90147270833333,
                "pitch": 55,
                "velocity": 127
            },
            {
                "start": 93.9639725,
                "end": 94.00861520833332,
                "pitch": 43,
                "velocity": 127
            },
            {
                "start": 94.07111499999999,
                "end": 94.11575770833333,
                "pitch": 43,
                "velocity": 127
            },
            {
                "start": 94.1782575,
                "end": 94.22290020833333,
                "pitch": 55,
                "velocity": 127
            },
            {
                "start": 94.2854,
                "end": 94.33004270833332,
                "pitch": 55,
                "velocity": 127
            },
            {
                "start": 94.39254249999999,
                "end": 94.43718520833333,
                "pitch": 43,
                "velocity": 127
            },
            {
                "start": 94.499685,
                "end": 94.54432770833333,
                "pitch": 43,
                "velocity": 127
            },
            {
                "start": 94.6068275,
                "end": 94.65147020833332,
                "pitch": 55,
                "velocity": 127
            },
            {
                "start": 94.71396999999999,
                "end": 94.75861270833333,
                "pitch": 55,
                "velocity": 127
            },
            {
                "start": 94.8211125,
                "end": 94.86575520833333,
                "pitch": 43,
                "velocity": 127
            },
            {
                "start": 94.928255,
                "end": 94.97289770833333,
                "pitch": 43,
                "velocity": 127
            },
            {
                "start": 95.0353975,
                "end": 95.08004020833333,
                "pitch": 55,
                "velocity": 127
            },
            {
                "start": 95.14254,
                "end": 95.18718270833332,
                "pitch": 55,
                "velocity": 127
            },
            {
                "start": 95.24968249999999,
                "end": 95.29432520833333,
                "pitch": 43,
                "velocity": 127
            },
            {
                "start": 95.356825,
                "end": 95.40146770833333,
                "pitch": 43,
                "velocity": 127
            },
            {
                "start": 95.4639675,
                "end": 95.50861020833332,
                "pitch": 55,
                "velocity": 127
            },
            {
                "start": 95.57110999999999,
                "end": 95.61575270833333,
                "pitch": 55,
                "velocity": 127
            },
            {
                "start": 95.6782525,
                "end": 95.72289520833333,
                "pitch": 43,
                "velocity": 127
            },
            {
                "start": 95.785395,
                "end": 95.83003770833332,
                "pitch": 43,
                "velocity": 127
            },
            {
                "start": 95.89253749999999,
                "end": 95.93718020833333,
                "pitch": 55,
                "velocity": 127
            },
            {
                "start": 95.99968,
                "end": 96.04432270833333,
                "pitch": 55,
                "velocity": 127
            },
            {
                "start": 96.10682249999999,
                "end": 96.15146520833333,
                "pitch": 43,
                "velocity": 127
            },
            {
                "start": 96.213965,
                "end": 96.25860770833333,
                "pitch": 43,
                "velocity": 127
            },
            {
                "start": 96.3211075,
                "end": 96.36575020833332,
                "pitch": 55,
                "velocity": 127
            },
            {
                "start": 96.42824999999999,
                "end": 96.47289270833333,
                "pitch": 55,
                "velocity": 127
            },
            {
                "start": 96.5353925,
                "end": 96.58003520833333,
                "pitch": 43,
                "velocity": 127
            },
            {
                "start": 96.642535,
                "end": 96.68717770833332,
                "pitch": 43,
                "velocity": 127
            },
            {
                "start": 96.74967749999999,
                "end": 96.79432020833333,
                "pitch": 55,
                "velocity": 127
            },
            {
                "start": 96.85682,
                "end": 96.90146270833333,
                "pitch": 55,
                "velocity": 127
            },
            {
                "start": 96.9639625,
                "end": 97.00860520833332,
                "pitch": 43,
                "velocity": 127
            },
            {
                "start": 97.07110499999999,
                "end": 97.11574770833333,
                "pitch": 43,
                "velocity": 127
            },
            {
                "start": 97.1782475,
                "end": 97.22289020833333,
                "pitch": 55,
                "velocity": 127
            },
            {
                "start": 97.28538999999999,
                "end": 97.33003270833333,
                "pitch": 55,
                "velocity": 127
            },
            {
                "start": 97.3925325,
                "end": 97.43717520833333,
                "pitch": 43,
                "velocity": 127
            },
            {
                "start": 97.499675,
                "end": 97.54431770833332,
                "pitch": 43,
                "velocity": 127
            },
            {
                "start": 97.60681749999999,
                "end": 97.65146020833333,
                "pitch": 55,
                "velocity": 127
            },
            {
                "start": 97.71396,
                "end": 97.75860270833333,
                "pitch": 55,
                "velocity": 127
            },
            {
                "start": 97.8211025,
                "end": 97.86574520833332,
                "pitch": 43,
                "velocity": 127
            },
            {
                "start": 97.92824499999999,
                "end": 97.97288770833333,
                "pitch": 43,
                "velocity": 127
            },
            {
                "start": 98.0353875,
                "end": 98.08003020833333,
                "pitch": 55,
                "velocity": 127
            },
            {
                "start": 98.14253,
                "end": 98.18717270833334,
                "pitch": 55,
                "velocity": 127
            },
            {
                "start": 98.24967249999999,
                "end": 98.29431520833333,
                "pitch": 43,
                "velocity": 127
            },
            {
                "start": 98.356815,
                "end": 98.40145770833333,
                "pitch": 43,
                "velocity": 127
            },
            {
                "start": 98.46395749999999,
                "end": 98.50860020833333,
                "pitch": 55,
                "velocity": 127
            },
            {
                "start": 98.5711,
                "end": 98.61574270833333,
                "pitch": 55,
                "velocity": 127
            },
            {
                "start": 98.6782425,
                "end": 98.72288520833332,
                "pitch": 43,
                "velocity": 127
            },
            {
                "start": 98.78538499999999,
                "end": 98.83002770833333,
                "pitch": 43,
                "velocity": 127
            },
            {
                "start": 98.8925275,
                "end": 98.93717020833333,
                "pitch": 55,
                "velocity": 127
            },
            {
                "start": 98.99967,
                "end": 99.04431270833332,
                "pitch": 55,
                "velocity": 127
            },
            {
                "start": 99.10681249999999,
                "end": 99.15145520833333,
                "pitch": 43,
                "velocity": 127
            },
            {
                "start": 99.213955,
                "end": 99.25859770833333,
                "pitch": 43,
                "velocity": 127
            },
            {
                "start": 99.3210975,
                "end": 99.36574020833334,
                "pitch": 55,
                "velocity": 127
            },
            {
                "start": 99.42823999999999,
                "end": 99.47288270833333,
                "pitch": 55,
                "velocity": 127
            },
            {
                "start": 99.5353825,
                "end": 99.58002520833332,
                "pitch": 43,
                "velocity": 127
            },
            {
                "start": 99.64252499999999,
                "end": 99.68716770833333,
                "pitch": 43,
                "velocity": 127
            },
            {
                "start": 99.7496675,
                "end": 99.79431020833333,
                "pitch": 55,
                "velocity": 127
            },
            {
                "start": 99.85681,
                "end": 99.90145270833332,
                "pitch": 55,
                "velocity": 127
            },
            {
                "start": 99.96395249999999,
                "end": 100.00859520833333,
                "pitch": 43,
                "velocity": 127
            },
            {
                "start": 100.071095,
                "end": 100.11573770833333,
                "pitch": 43,
                "velocity": 127
            },
            {
                "start": 100.1782375,
                "end": 100.22288020833332,
                "pitch": 55,
                "velocity": 127
            },
            {
                "start": 100.28537999999999,
                "end": 100.33002270833333,
                "pitch": 55,
                "velocity": 127
            },
            {
                "start": 100.3925225,
                "end": 100.43716520833333,
                "pitch": 43,
                "velocity": 127
            },
            {
                "start": 100.499665,
                "end": 100.54430770833333,
                "pitch": 43,
                "velocity": 127
            },
            {
                "start": 100.60680749999999,
                "end": 100.65145020833333,
                "pitch": 55,
                "velocity": 127
            },
            {
                "start": 100.71395,
                "end": 100.75859270833332,
                "pitch": 55,
                "velocity": 127
            },
            {
                "start": 100.82109249999999,
                "end": 100.86573520833333,
                "pitch": 43,
                "velocity": 127
            },
            {
                "start": 100.928235,
                "end": 100.97287770833333,
                "pitch": 43,
                "velocity": 127
            },
            {
                "start": 101.0353775,
                "end": 101.08002020833332,
                "pitch": 55,
                "velocity": 127
            }
        ],
        "pitch_classes": [
            0,
            0,
            0,
            0,
            0,
            0,
            0,
            91,
            0,
            0,
            0,
            0
        ],
        "velocity_mean": 127.0,
        "pitch_mean": 48.934065934065934,
        "pitch_std": 5.999637713974854,
        "duration_mean": 0.0446427083333334,
        "song_name": "Here_I_Go.mid",
        "tempo": 278.44628892735466,
        "time_signature": "4/4",
        "key": "C",
        "camelot_key": "8B",
        "maj_min": "major"
    },
    "Here_I_Go.mid_182.72064179339333_199.95915489583334": {
        "instrument_no": 7,
        "instrument_category": "Other",
        "program": 81,
        "is_drum": false,
        "section_start": 182.72064179339333,
        "section_end": 199.95915489583334,
        "notes": [
            {
                "start": 182.785105,
                "end": 182.82974770833331,
                "pitch": 43,
                "velocity": 127
            },
            {
                "start": 182.8922475,
                "end": 182.93689020833332,
                "pitch": 55,
                "velocity": 127
            },
            {
                "start": 182.99938999999998,
                "end": 183.04403270833333,
                "pitch": 55,
                "velocity": 127
            },
            {
                "start": 183.1065325,
                "end": 183.1511752083333,
                "pitch": 43,
                "velocity": 127
            },
            {
                "start": 183.213675,
                "end": 183.25831770833332,
                "pitch": 43,
                "velocity": 127
            },
            {
                "start": 183.3208175,
                "end": 183.36546020833333,
                "pitch": 55,
                "velocity": 127
            },
            {
                "start": 183.42795999999998,
                "end": 183.4726027083333,
                "pitch": 55,
                "velocity": 127
            },
            {
                "start": 183.5351025,
                "end": 183.57974520833332,
                "pitch": 43,
                "velocity": 127
            },
            {
                "start": 183.642245,
                "end": 183.68688770833333,
                "pitch": 43,
                "velocity": 127
            },
            {
                "start": 183.74938749999998,
                "end": 183.7940302083333,
                "pitch": 55,
                "velocity": 127
            },
            {
                "start": 183.85653,
                "end": 183.90117270833332,
                "pitch": 55,
                "velocity": 127
            },
            {
                "start": 183.9636725,
                "end": 184.00831520833333,
                "pitch": 43,
                "velocity": 127
            },
            {
                "start": 184.07081499999998,
                "end": 184.11545770833334,
                "pitch": 43,
                "velocity": 127
            },
            {
                "start": 184.1779575,
                "end": 184.22260020833332,
                "pitch": 55,
                "velocity": 127
            },
            {
                "start": 184.2851,
                "end": 184.32974270833333,
                "pitch": 55,
                "velocity": 127
            },
            {
                "start": 184.39224249999998,
                "end": 184.43688520833334,
                "pitch": 43,
                "velocity": 127
            },
            {
                "start": 184.499385,
                "end": 184.54402770833332,
                "pitch": 43,
                "velocity": 127
            },
            {
                "start": 184.6065275,
                "end": 184.65117020833333,
                "pitch": 55,
                "velocity": 127
            },
            {
                "start": 184.71366999999998,
                "end": 184.75831270833334,
                "pitch": 55,
                "velocity": 127
            },
            {
                "start": 184.8208125,
                "end": 184.86545520833332,
                "pitch": 43,
                "velocity": 127
            },
            {
                "start": 184.927955,
                "end": 184.97259770833332,
                "pitch": 43,
                "velocity": 127
            },
            {
                "start": 185.03509749999998,
                "end": 185.07974020833333,
                "pitch": 55,
                "velocity": 127
            },
            {
                "start": 185.14224,
                "end": 185.18688270833331,
                "pitch": 55,
                "velocity": 127
            },
            {
                "start": 185.2493825,
                "end": 185.29402520833332,
                "pitch": 43,
                "velocity": 127
            },
            {
                "start": 185.356525,
                "end": 185.40116770833333,
                "pitch": 43,
                "velocity": 127
            },
            {
                "start": 185.46366749999999,
                "end": 185.5083102083333,
                "pitch": 55,
                "velocity": 127
            },
            {
                "start": 185.57081,
                "end": 185.61545270833332,
                "pitch": 55,
                "velocity": 127
            },
            {
                "start": 185.6779525,
                "end": 185.72259520833333,
                "pitch": 43,
                "velocity": 127
            },
            {
                "start": 185.78509499999998,
                "end": 185.8297377083333,
                "pitch": 43,
                "velocity": 127
            },
            {
                "start": 185.8922375,
                "end": 185.93688020833332,
                "pitch": 55,
                "velocity": 127
            },
            {
                "start": 185.99938,
                "end": 186.04402270833333,
                "pitch": 55,
                "velocity": 127
            },
            {
                "start": 186.10652249999998,
                "end": 186.1511652083333,
                "pitch": 43,
                "velocity": 127
            },
            {
                "start": 186.213665,
                "end": 186.25830770833332,
                "pitch": 43,
                "velocity": 127
            },
            {
                "start": 186.3208075,
                "end": 186.36545020833333,
                "pitch": 55,
                "velocity": 127
            },
            {
                "start": 186.42794999999998,
                "end": 186.47259270833334,
                "pitch": 55,
                "velocity": 127
            },
            {
                "start": 186.5350925,
                "end": 186.57973520833332,
                "pitch": 43,
                "velocity": 127
            },
            {
                "start": 186.642235,
                "end": 186.68687770833333,
                "pitch": 43,
                "velocity": 127
            },
            {
                "start": 186.74937749999998,
                "end": 186.79402020833334,
                "pitch": 55,
                "velocity": 127
            },
            {
                "start": 186.85652,
                "end": 186.90116270833332,
                "pitch": 55,
                "velocity": 127
            },
            {
                "start": 186.9636625,
                "end": 187.00830520833333,
                "pitch": 43,
                "velocity": 127
            },
            {
                "start": 187.07080499999998,
                "end": 187.11544770833333,
                "pitch": 43,
                "velocity": 127
            },
            {
                "start": 187.1779475,
                "end": 187.22259020833332,
                "pitch": 55,
                "velocity": 127
            },
            {
                "start": 187.28509,
                "end": 187.32973270833332,
                "pitch": 55,
                "velocity": 127
            },
            {
                "start": 187.39223249999998,
                "end": 187.43687520833333,
                "pitch": 43,
                "velocity": 127
            },
            {
                "start": 187.499375,
                "end": 187.5440177083333,
                "pitch": 43,
                "velocity": 127
            },
            {
                "start": 187.6065175,
                "end": 187.65116020833332,
                "pitch": 55,
                "velocity": 127
            },
            {
                "start": 187.71366,
                "end": 187.75830270833333,
                "pitch": 55,
                "velocity": 127
            },
            {
                "start": 187.82080249999999,
                "end": 187.8654452083333,
                "pitch": 43,
                "velocity": 127
            },
            {
                "start": 187.927945,
                "end": 187.97258770833332,
                "pitch": 43,
                "velocity": 127
            },
            {
                "start": 188.0350875,
                "end": 188.07973020833333,
                "pitch": 55,
                "velocity": 127
            },
            {
                "start": 188.14222999999998,
                "end": 188.1868727083333,
                "pitch": 55,
                "velocity": 127
            },
            {
                "start": 188.2493725,
                "end": 188.29401520833332,
                "pitch": 43,
                "velocity": 127
            },
            {
                "start": 188.356515,
                "end": 188.40115770833333,
                "pitch": 43,
                "velocity": 127
            },
            {
                "start": 188.46365749999998,
                "end": 188.5083002083333,
                "pitch": 55,
                "velocity": 127
            },
            {
                "start": 188.5708,
                "end": 188.61544270833332,
                "pitch": 55,
                "velocity": 127
            },
            {
                "start": 188.6779425,
                "end": 188.72258520833333,
                "pitch": 43,
                "velocity": 127
            },
            {
                "start": 188.78508499999998,
                "end": 188.82972770833334,
                "pitch": 43,
                "velocity": 127
            },
            {
                "start": 188.8922275,
                "end": 188.93687020833332,
                "pitch": 55,
                "velocity": 127
            },
            {
                "start": 188.99937,
                "end": 189.04401270833333,
                "pitch": 55,
                "velocity": 127
            },
            {
                "start": 189.10651249999998,
                "end": 189.15115520833334,
                "pitch": 43,
                "velocity": 127
            },
            {
                "start": 189.213655,
                "end": 189.25829770833332,
                "pitch": 43,
                "velocity": 127
            },
            {
                "start": 189.3207975,
                "end": 189.36544020833333,
                "pitch": 55,
                "velocity": 127
            },
            {
                "start": 189.42793999999998,
                "end": 189.47258270833333,
                "pitch": 55,
                "velocity": 127
            },
            {
                "start": 189.5350825,
                "end": 189.57972520833331,
                "pitch": 43,
                "velocity": 127
            },
            {
                "start": 189.642225,
                "end": 189.68686770833332,
                "pitch": 43,
                "velocity": 127
            },
            {
                "start": 189.74936749999998,
                "end": 189.79401020833333,
                "pitch": 55,
                "velocity": 127
            },
            {
                "start": 189.85651,
                "end": 189.9011527083333,
                "pitch": 55,
                "velocity": 127
            },
            {
                "start": 189.9636525,
                "end": 190.00829520833332,
                "pitch": 43,
                "velocity": 127
            },
            {
                "start": 190.070795,
                "end": 190.11543770833333,
                "pitch": 43,
                "velocity": 127
            },
            {
                "start": 190.17793749999998,
                "end": 190.2225802083333,
                "pitch": 55,
                "velocity": 127
            },
            {
                "start": 190.28508,
                "end": 190.32972270833332,
                "pitch": 55,
                "velocity": 127
            },
            {
                "start": 190.3922225,
                "end": 190.43686520833333,
                "pitch": 43,
                "velocity": 127
            },
            {
                "start": 190.49936499999998,
                "end": 190.5440077083333,
                "pitch": 43,
                "velocity": 127
            },
            {
                "start": 190.6065075,
                "end": 190.65115020833332,
                "pitch": 55,
                "velocity": 127
            },
            {
                "start": 190.71365,
                "end": 190.75829270833333,
                "pitch": 55,
                "velocity": 127
            },
            {
                "start": 190.82079249999998,
                "end": 190.86543520833334,
                "pitch": 43,
                "velocity": 127
            },
            {
                "start": 190.927935,
                "end": 190.97257770833332,
                "pitch": 43,
                "velocity": 127
            },
            {
                "start": 191.0350775,
                "end": 191.07972020833333,
                "pitch": 55,
                "velocity": 127
            },
            {
                "start": 191.14221999999998,
                "end": 191.18686270833334,
                "pitch": 55,
                "velocity": 127
            },
            {
                "start": 191.2493625,
                "end": 191.29400520833332,
                "pitch": 43,
                "velocity": 127
            },
            {
                "start": 191.356505,
                "end": 191.40114770833333,
                "pitch": 43,
                "velocity": 127
            },
            {
                "start": 191.46364749999998,
                "end": 191.50829020833334,
                "pitch": 55,
                "velocity": 127
            },
            {
                "start": 191.57079,
                "end": 191.61543270833332,
                "pitch": 55,
                "velocity": 127
            },
            {
                "start": 191.6779325,
                "end": 191.72257520833332,
                "pitch": 43,
                "velocity": 127
            },
            {
                "start": 191.78507499999998,
                "end": 191.82971770833333,
                "pitch": 43,
                "velocity": 127
            },
            {
                "start": 191.8922175,
                "end": 191.93686020833331,
                "pitch": 55,
                "velocity": 127
            }
        ],
        "pitch_classes": [
            0,
            0,
            0,
            0,
            0,
            0,
            0,
            86,
            0,
            0,
            0,
            0
        ],
        "velocity_mean": 127.0,
        "pitch_mean": 49.0,
        "pitch_std": 6.0,
        "duration_mean": 0.04464270833333324,
        "song_name": "Here_I_Go.mid",
        "tempo": 278.44628892735466,
        "time_signature": "4/4",
        "key": "C",
        "camelot_key": "8B",
        "maj_min": "major"
    },
    "Twilight_Zone.mid_0.0_20.338779621890506": {
        "instrument_no": 5,
        "instrument_category": "Other",
        "program": 87,
        "is_drum": false,
        "section_start": 0.0,
        "section_end": 20.338779621890506,
        "notes": [
            {
                "start": 4.0,
                "end": 4.054166666666666,
                "pitch": 74,
                "velocity": 127
            },
            {
                "start": 4.0,
                "end": 4.054166666666666,
                "pitch": 86,
                "velocity": 127
            },
            {
                "start": 4.145833333333333,
                "end": 4.2125,
                "pitch": 74,
                "velocity": 117
            },
            {
                "start": 4.141666666666667,
                "end": 4.220833333333333,
                "pitch": 86,
                "velocity": 112
            },
            {
                "start": 4.4,
                "end": 4.445833333333333,
                "pitch": 86,
                "velocity": 123
            },
            {
                "start": 4.4,
                "end": 4.45,
                "pitch": 74,
                "velocity": 125
            },
            {
                "start": 4.5,
                "end": 4.625,
                "pitch": 74,
                "velocity": 112
            },
            {
                "start": 4.5125,
                "end": 4.6375,
                "pitch": 86,
                "velocity": 113
            },
            {
                "start": 4.745833333333334,
                "end": 4.808333333333334,
                "pitch": 74,
                "velocity": 127
            },
            {
                "start": 4.766666666666667,
                "end": 4.829166666666667,
                "pitch": 86,
                "velocity": 127
            },
            {
                "start": 4.870833333333334,
                "end": 4.995833333333334,
                "pitch": 74,
                "velocity": 127
            },
            {
                "start": 4.875,
                "end": 5.0,
                "pitch": 86,
                "velocity": 127
            },
            {
                "start": 5.125,
                "end": 5.179166666666666,
                "pitch": 86,
                "velocity": 125
            },
            {
                "start": 5.125,
                "end": 5.1875,
                "pitch": 74,
                "velocity": 127
            },
            {
                "start": 5.233333333333333,
                "end": 5.358333333333333,
                "pitch": 74,
                "velocity": 126
            },
            {
                "start": 5.25,
                "end": 5.375,
                "pitch": 86,
                "velocity": 126
            },
            {
                "start": 5.491666666666666,
                "end": 5.616666666666666,
                "pitch": 87,
                "velocity": 127
            },
            {
                "start": 5.495833333333334,
                "end": 5.620833333333334,
                "pitch": 75,
                "velocity": 127
            },
            {
                "start": 5.745833333333334,
                "end": 5.870833333333334,
                "pitch": 84,
                "velocity": 100
            },
            {
                "start": 5.758333333333333,
                "end": 5.883333333333333,
                "pitch": 72,
                "velocity": 100
            },
            {
                "start": 6.0,
                "end": 6.054166666666666,
                "pitch": 74,
                "velocity": 127
            },
            {
                "start": 6.0,
                "end": 6.054166666666666,
                "pitch": 86,
                "velocity": 127
            },
            {
                "start": 6.145833333333333,
                "end": 6.2125,
                "pitch": 74,
                "velocity": 117
            },
            {
                "start": 6.141666666666667,
                "end": 6.220833333333333,
                "pitch": 86,
                "velocity": 112
            },
            {
                "start": 6.4,
                "end": 6.445833333333333,
                "pitch": 86,
                "velocity": 123
            },
            {
                "start": 6.4,
                "end": 6.45,
                "pitch": 74,
                "velocity": 125
            },
            {
                "start": 6.5,
                "end": 6.625,
                "pitch": 74,
                "velocity": 112
            },
            {
                "start": 6.5125,
                "end": 6.6375,
                "pitch": 86,
                "velocity": 113
            },
            {
                "start": 6.745833333333334,
                "end": 6.808333333333334,
                "pitch": 74,
                "velocity": 127
            },
            {
                "start": 6.766666666666667,
                "end": 6.829166666666667,
                "pitch": 86,
                "velocity": 127
            },
            {
                "start": 6.870833333333334,
                "end": 6.995833333333334,
                "pitch": 74,
                "velocity": 127
            },
            {
                "start": 6.875,
                "end": 7.0,
                "pitch": 86,
                "velocity": 127
            },
            {
                "start": 7.125,
                "end": 7.179166666666666,
                "pitch": 86,
                "velocity": 125
            },
            {
                "start": 7.125,
                "end": 7.1875,
                "pitch": 74,
                "velocity": 127
            },
            {
                "start": 7.233333333333333,
                "end": 7.358333333333333,
                "pitch": 74,
                "velocity": 126
            },
            {
                "start": 7.25,
                "end": 7.375,
                "pitch": 86,
                "velocity": 126
            },
            {
                "start": 7.491666666666666,
                "end": 7.616666666666666,
                "pitch": 87,
                "velocity": 127
            },
            {
                "start": 7.495833333333334,
                "end": 7.620833333333334,
                "pitch": 75,
                "velocity": 127
            },
            {
                "start": 7.745833333333334,
                "end": 7.870833333333334,
                "pitch": 84,
                "velocity": 100
            },
            {
                "start": 7.758333333333333,
                "end": 7.883333333333333,
                "pitch": 72,
                "velocity": 100
            },
            {
                "start": 8.0,
                "end": 8.054166666666667,
                "pitch": 74,
                "velocity": 127
            },
            {
                "start": 8.0,
                "end": 8.054166666666667,
                "pitch": 86,
                "velocity": 127
            },
            {
                "start": 8.145833333333334,
                "end": 8.2125,
                "pitch": 74,
                "velocity": 117
            },
            {
                "start": 8.141666666666666,
                "end": 8.220833333333333,
                "pitch": 86,
                "velocity": 112
            },
            {
                "start": 8.4,
                "end": 8.445833333333333,
                "pitch": 86,
                "velocity": 123
            },
            {
                "start": 8.4,
                "end": 8.45,
                "pitch": 74,
                "velocity": 125
            },
            {
                "start": 8.5,
                "end": 8.625,
                "pitch": 74,
                "velocity": 112
            },
            {
                "start": 8.5125,
                "end": 8.6375,
                "pitch": 86,
                "velocity": 113
            },
            {
                "start": 8.745833333333334,
                "end": 8.808333333333334,
                "pitch": 74,
                "velocity": 127
            },
            {
                "start": 8.766666666666666,
                "end": 8.829166666666666,
                "pitch": 86,
                "velocity": 127
            },
            {
                "start": 8.870833333333334,
                "end": 8.995833333333334,
                "pitch": 74,
                "velocity": 127
            },
            {
                "start": 8.875,
                "end": 9.0,
                "pitch": 86,
                "velocity": 127
            },
            {
                "start": 9.125,
                "end": 9.179166666666667,
                "pitch": 86,
                "velocity": 125
            },
            {
                "start": 9.125,
                "end": 9.1875,
                "pitch": 74,
                "velocity": 127
            },
            {
                "start": 9.233333333333333,
                "end": 9.358333333333333,
                "pitch": 74,
                "velocity": 126
            },
            {
                "start": 9.25,
                "end": 9.375,
                "pitch": 86,
                "velocity": 126
            },
            {
                "start": 9.491666666666667,
                "end": 9.616666666666667,
                "pitch": 87,
                "velocity": 127
            },
            {
                "start": 9.495833333333334,
                "end": 9.620833333333334,
                "pitch": 75,
                "velocity": 127
            },
            {
                "start": 9.745833333333334,
                "end": 9.870833333333334,
                "pitch": 84,
                "velocity": 100
            },
            {
                "start": 9.758333333333333,
                "end": 9.883333333333333,
                "pitch": 72,
                "velocity": 100
            },
            {
                "start": 10.020833333333334,
                "end": 10.141666666666666,
                "pitch": 74,
                "velocity": 96
            },
            {
                "start": 10.025,
                "end": 10.158333333333333,
                "pitch": 86,
                "velocity": 105
            },
            {
                "start": 10.254166666666666,
                "end": 10.383333333333333,
                "pitch": 74,
                "velocity": 92
            },
            {
                "start": 10.25,
                "end": 10.404166666666667,
                "pitch": 86,
                "velocity": 104
            },
            {
                "start": 10.520833333333334,
                "end": 10.683333333333334,
                "pitch": 74,
                "velocity": 95
            },
            {
                "start": 10.5125,
                "end": 10.704166666666666,
                "pitch": 86,
                "velocity": 100
            },
            {
                "start": 10.7625,
                "end": 10.85,
                "pitch": 84,
                "velocity": 98
            },
            {
                "start": 10.758333333333333,
                "end": 10.85,
                "pitch": 72,
                "velocity": 92
            },
            {
                "start": 10.9125,
                "end": 11.045833333333333,
                "pitch": 86,
                "velocity": 111
            },
            {
                "start": 10.908333333333333,
                "end": 11.045833333333333,
                "pitch": 74,
                "velocity": 100
            },
            {
                "start": 12.0,
                "end": 12.054166666666667,
                "pitch": 74,
                "velocity": 127
            },
            {
                "start": 12.0,
                "end": 12.054166666666667,
                "pitch": 86,
                "velocity": 127
            },
            {
                "start": 12.145833333333334,
                "end": 12.2125,
                "pitch": 74,
                "velocity": 117
            },
            {
                "start": 12.141666666666666,
                "end": 12.220833333333333,
                "pitch": 86,
                "velocity": 112
            },
            {
                "start": 12.4,
                "end": 12.445833333333333,
                "pitch": 86,
                "velocity": 123
            },
            {
                "start": 12.4,
                "end": 12.45,
                "pitch": 74,
                "velocity": 125
            },
            {
                "start": 12.5,
                "end": 12.625,
                "pitch": 74,
                "velocity": 112
            },
            {
                "start": 12.5125,
                "end": 12.6375,
                "pitch": 86,
                "velocity": 113
            },
            {
                "start": 12.745833333333334,
                "end": 12.808333333333334,
                "pitch": 74,
                "velocity": 127
            },
            {
                "start": 12.766666666666666,
                "end": 12.829166666666666,
                "pitch": 86,
                "velocity": 127
            },
            {
                "start": 12.870833333333334,
                "end": 12.995833333333334,
                "pitch": 74,
                "velocity": 127
            },
            {
                "start": 12.875,
                "end": 13.0,
                "pitch": 86,
                "velocity": 127
            },
            {
                "start": 13.125,
                "end": 13.179166666666667,
                "pitch": 86,
                "velocity": 125
            },
            {
                "start": 13.125,
                "end": 13.1875,
                "pitch": 74,
                "velocity": 127
            },
            {
                "start": 13.233333333333333,
                "end": 13.358333333333333,
                "pitch": 74,
                "velocity": 126
            },
            {
                "start": 13.25,
                "end": 13.375,
                "pitch": 86,
                "velocity": 126
            },
            {
                "start": 13.491666666666667,
                "end": 13.616666666666667,
                "pitch": 87,
                "velocity": 127
            },
            {
                "start": 13.495833333333334,
                "end": 13.620833333333334,
                "pitch": 75,
                "velocity": 127
            },
            {
                "start": 13.745833333333334,
                "end": 13.870833333333334,
                "pitch": 84,
                "velocity": 100
            },
            {
                "start": 13.758333333333333,
                "end": 13.883333333333333,
                "pitch": 72,
                "velocity": 100
            },
            {
                "start": 14.0,
                "end": 14.054166666666667,
                "pitch": 74,
                "velocity": 127
            },
            {
                "start": 14.0,
                "end": 14.054166666666667,
                "pitch": 86,
                "velocity": 127
            },
            {
                "start": 14.145833333333334,
                "end": 14.2125,
                "pitch": 74,
                "velocity": 117
            },
            {
                "start": 14.141666666666666,
                "end": 14.220833333333333,
                "pitch": 86,
                "velocity": 112
            },
            {
                "start": 14.4,
                "end": 14.445833333333333,
                "pitch": 86,
                "velocity": 123
            },
            {
                "start": 14.4,
                "end": 14.45,
                "pitch": 74,
                "velocity": 125
            },
            {
                "start": 14.5,
                "end": 14.625,
                "pitch": 74,
                "velocity": 112
            },
            {
                "start": 14.5125,
                "end": 14.6375,
                "pitch": 86,
                "velocity": 113
            },
            {
                "start": 14.745833333333334,
                "end": 14.808333333333334,
                "pitch": 74,
                "velocity": 127
            },
            {
                "start": 14.766666666666666,
                "end": 14.829166666666666,
                "pitch": 86,
                "velocity": 127
            },
            {
                "start": 14.870833333333334,
                "end": 14.995833333333334,
                "pitch": 74,
                "velocity": 127
            },
            {
                "start": 14.875,
                "end": 15.0,
                "pitch": 86,
                "velocity": 127
            },
            {
                "start": 15.125,
                "end": 15.179166666666667,
                "pitch": 86,
                "velocity": 125
            },
            {
                "start": 15.125,
                "end": 15.1875,
                "pitch": 74,
                "velocity": 127
            },
            {
                "start": 15.233333333333333,
                "end": 15.358333333333333,
                "pitch": 74,
                "velocity": 126
            },
            {
                "start": 15.25,
                "end": 15.375,
                "pitch": 86,
                "velocity": 126
            },
            {
                "start": 15.491666666666667,
                "end": 15.616666666666667,
                "pitch": 87,
                "velocity": 127
            },
            {
                "start": 15.495833333333334,
                "end": 15.620833333333334,
                "pitch": 75,
                "velocity": 127
            },
            {
                "start": 15.745833333333334,
                "end": 15.870833333333334,
                "pitch": 84,
                "velocity": 100
            },
            {
                "start": 15.758333333333333,
                "end": 15.883333333333333,
                "pitch": 72,
                "velocity": 100
            },
            {
                "start": 16.0,
                "end": 16.054166666666667,
                "pitch": 74,
                "velocity": 127
            },
            {
                "start": 16.0,
                "end": 16.054166666666667,
                "pitch": 86,
                "velocity": 127
            },
            {
                "start": 16.145833333333332,
                "end": 16.2125,
                "pitch": 74,
                "velocity": 117
            },
            {
                "start": 16.141666666666666,
                "end": 16.22083333333333,
                "pitch": 86,
                "velocity": 112
            },
            {
                "start": 16.4,
                "end": 16.445833333333333,
                "pitch": 86,
                "velocity": 123
            },
            {
                "start": 16.4,
                "end": 16.45,
                "pitch": 74,
                "velocity": 125
            },
            {
                "start": 16.5,
                "end": 16.625,
                "pitch": 74,
                "velocity": 112
            },
            {
                "start": 16.5125,
                "end": 16.6375,
                "pitch": 86,
                "velocity": 113
            },
            {
                "start": 16.745833333333334,
                "end": 16.808333333333334,
                "pitch": 74,
                "velocity": 127
            },
            {
                "start": 16.766666666666666,
                "end": 16.829166666666666,
                "pitch": 86,
                "velocity": 127
            },
            {
                "start": 16.870833333333334,
                "end": 16.995833333333334,
                "pitch": 74,
                "velocity": 127
            },
            {
                "start": 16.875,
                "end": 17.0,
                "pitch": 86,
                "velocity": 127
            },
            {
                "start": 17.125,
                "end": 17.179166666666667,
                "pitch": 86,
                "velocity": 125
            },
            {
                "start": 17.125,
                "end": 17.1875,
                "pitch": 74,
                "velocity": 127
            },
            {
                "start": 17.233333333333334,
                "end": 17.358333333333334,
                "pitch": 74,
                "velocity": 126
            },
            {
                "start": 17.25,
                "end": 17.375,
                "pitch": 86,
                "velocity": 126
            },
            {
                "start": 17.491666666666667,
                "end": 17.616666666666667,
                "pitch": 87,
                "velocity": 127
            },
            {
                "start": 17.495833333333334,
                "end": 17.620833333333334,
                "pitch": 75,
                "velocity": 127
            },
            {
                "start": 17.745833333333334,
                "end": 17.870833333333334,
                "pitch": 84,
                "velocity": 100
            },
            {
                "start": 17.758333333333333,
                "end": 17.883333333333333,
                "pitch": 72,
                "velocity": 100
            },
            {
                "start": 18.020833333333332,
                "end": 18.141666666666666,
                "pitch": 74,
                "velocity": 96
            },
            {
                "start": 18.025,
                "end": 18.15833333333333,
                "pitch": 86,
                "velocity": 105
            },
            {
                "start": 18.254166666666666,
                "end": 18.383333333333333,
                "pitch": 74,
                "velocity": 92
            },
            {
                "start": 18.25,
                "end": 18.404166666666665,
                "pitch": 86,
                "velocity": 104
            },
            {
                "start": 18.520833333333332,
                "end": 18.683333333333334,
                "pitch": 74,
                "velocity": 95
            },
            {
                "start": 18.5125,
                "end": 18.704166666666666,
                "pitch": 86,
                "velocity": 100
            },
            {
                "start": 18.7625,
                "end": 18.85,
                "pitch": 84,
                "velocity": 98
            },
            {
                "start": 18.758333333333333,
                "end": 18.85,
                "pitch": 72,
                "velocity": 92
            },
            {
                "start": 18.9125,
                "end": 19.045833333333334,
                "pitch": 86,
                "velocity": 111
            },
            {
                "start": 18.90833333333333,
                "end": 19.045833333333334,
                "pitch": 74,
                "velocity": 100
            },
            {
                "start": 20.0,
                "end": 20.054166666666667,
                "pitch": 74,
                "velocity": 127
            },
            {
                "start": 20.0,
                "end": 20.054166666666667,
                "pitch": 86,
                "velocity": 127
            },
            {
                "start": 20.145833333333332,
                "end": 20.2125,
                "pitch": 74,
                "velocity": 117
            },
            {
                "start": 20.141666666666666,
                "end": 20.22083333333333,
                "pitch": 86,
                "velocity": 112
            }
        ],
        "pitch_classes": [
            16,
            0,
            116,
            12,
            0,
            0,
            0,
            0,
            0,
            0,
            0,
            0
        ],
        "velocity_mean": 118.0625,
        "pitch_mean": 79.86111111111111,
        "pitch_std": 6.0422253892354085,
        "duration_mean": 0.09713541666666667,
        "song_name": "Twilight_Zone.mid",
        "tempo": 236.0023604776065,
        "time_signature": "4/4",
        "key": "C",
        "camelot_key": "5A",
        "maj_min": "minor"
    },
    "Twilight_Zone.mid_73.30098278905474_93.63976241094525": {
        "instrument_no": 5,
        "instrument_category": "Other",
        "program": 87,
        "is_drum": false,
        "section_start": 73.30098278905474,
        "section_end": 93.63976241094525,
        "notes": [
            {
                "start": 73.49166666666666,
                "end": 73.61666666666666,
                "pitch": 87,
                "velocity": 127
            },
            {
                "start": 73.49583333333334,
                "end": 73.62083333333334,
                "pitch": 75,
                "velocity": 127
            },
            {
                "start": 73.74583333333334,
                "end": 73.87083333333334,
                "pitch": 84,
                "velocity": 100
            },
            {
                "start": 73.75833333333333,
                "end": 73.88333333333333,
                "pitch": 72,
                "velocity": 100
            },
            {
                "start": 74.0,
                "end": 74.05416666666666,
                "pitch": 74,
                "velocity": 127
            },
            {
                "start": 74.0,
                "end": 74.05416666666666,
                "pitch": 86,
                "velocity": 127
            },
            {
                "start": 74.14583333333333,
                "end": 74.2125,
                "pitch": 74,
                "velocity": 117
            },
            {
                "start": 74.14166666666667,
                "end": 74.22083333333333,
                "pitch": 86,
                "velocity": 112
            },
            {
                "start": 74.4,
                "end": 74.44583333333333,
                "pitch": 86,
                "velocity": 123
            },
            {
                "start": 74.4,
                "end": 74.45,
                "pitch": 74,
                "velocity": 125
            },
            {
                "start": 74.5,
                "end": 74.625,
                "pitch": 74,
                "velocity": 112
            },
            {
                "start": 74.5125,
                "end": 74.6375,
                "pitch": 86,
                "velocity": 113
            },
            {
                "start": 74.74583333333334,
                "end": 74.80833333333334,
                "pitch": 74,
                "velocity": 127
            },
            {
                "start": 74.76666666666667,
                "end": 74.82916666666667,
                "pitch": 86,
                "velocity": 127
            },
            {
                "start": 74.87083333333334,
                "end": 74.99583333333334,
                "pitch": 74,
                "velocity": 127
            },
            {
                "start": 74.875,
                "end": 75.0,
                "pitch": 86,
                "velocity": 127
            },
            {
                "start": 75.125,
                "end": 75.17916666666666,
                "pitch": 86,
                "velocity": 125
            },
            {
                "start": 75.125,
                "end": 75.1875,
                "pitch": 74,
                "velocity": 127
            },
            {
                "start": 75.23333333333333,
                "end": 75.35833333333333,
                "pitch": 74,
                "velocity": 126
            },
            {
                "start": 75.25,
                "end": 75.375,
                "pitch": 86,
                "velocity": 126
            },
            {
                "start": 75.49166666666666,
                "end": 75.61666666666666,
                "pitch": 87,
                "velocity": 127
            },
            {
                "start": 75.49583333333334,
                "end": 75.62083333333334,
                "pitch": 75,
                "velocity": 127
            },
            {
                "start": 75.74583333333334,
                "end": 75.87083333333334,
                "pitch": 84,
                "velocity": 100
            },
            {
                "start": 75.75833333333333,
                "end": 75.88333333333333,
                "pitch": 72,
                "velocity": 100
            },
            {
                "start": 76.0,
                "end": 76.05416666666666,
                "pitch": 74,
                "velocity": 127
            },
            {
                "start": 76.0,
                "end": 76.05416666666666,
                "pitch": 86,
                "velocity": 127
            },
            {
                "start": 76.14583333333333,
                "end": 76.2125,
                "pitch": 74,
                "velocity": 117
            },
            {
                "start": 76.14166666666667,
                "end": 76.22083333333333,
                "pitch": 86,
                "velocity": 112
            },
            {
                "start": 76.4,
                "end": 76.44583333333333,
                "pitch": 86,
                "velocity": 123
            },
            {
                "start": 76.4,
                "end": 76.45,
                "pitch": 74,
                "velocity": 125
            },
            {
                "start": 76.5,
                "end": 76.625,
                "pitch": 74,
                "velocity": 112
            },
            {
                "start": 76.5125,
                "end": 76.6375,
                "pitch": 86,
                "velocity": 113
            },
            {
                "start": 76.74583333333334,
                "end": 76.80833333333334,
                "pitch": 74,
                "velocity": 127
            },
            {
                "start": 76.76666666666667,
                "end": 76.82916666666667,
                "pitch": 86,
                "velocity": 127
            },
            {
                "start": 76.87083333333334,
                "end": 76.99583333333334,
                "pitch": 74,
                "velocity": 127
            },
            {
                "start": 76.875,
                "end": 77.0,
                "pitch": 86,
                "velocity": 127
            },
            {
                "start": 77.125,
                "end": 77.17916666666666,
                "pitch": 86,
                "velocity": 125
            },
            {
                "start": 77.125,
                "end": 77.1875,
                "pitch": 74,
                "velocity": 127
            },
            {
                "start": 77.23333333333333,
                "end": 77.35833333333333,
                "pitch": 74,
                "velocity": 126
            },
            {
                "start": 77.25,
                "end": 77.375,
                "pitch": 86,
                "velocity": 126
            },
            {
                "start": 77.49166666666666,
                "end": 77.61666666666666,
                "pitch": 87,
                "velocity": 127
            },
            {
                "start": 77.49583333333334,
                "end": 77.62083333333334,
                "pitch": 75,
                "velocity": 127
            },
            {
                "start": 77.74583333333334,
                "end": 77.87083333333334,
                "pitch": 84,
                "velocity": 100
            },
            {
                "start": 77.75833333333333,
                "end": 77.88333333333333,
                "pitch": 72,
                "velocity": 100
            },
            {
                "start": 78.02083333333333,
                "end": 78.14166666666667,
                "pitch": 74,
                "velocity": 96
            },
            {
                "start": 78.025,
                "end": 78.15833333333333,
                "pitch": 86,
                "velocity": 105
            },
            {
                "start": 78.25416666666666,
                "end": 78.38333333333333,
                "pitch": 74,
                "velocity": 92
            },
            {
                "start": 78.25,
                "end": 78.40416666666667,
                "pitch": 86,
                "velocity": 104
            },
            {
                "start": 78.52083333333333,
                "end": 78.68333333333334,
                "pitch": 74,
                "velocity": 95
            },
            {
                "start": 78.5125,
                "end": 78.70416666666667,
                "pitch": 86,
                "velocity": 100
            },
            {
                "start": 78.7625,
                "end": 78.85,
                "pitch": 84,
                "velocity": 98
            },
            {
                "start": 78.75833333333333,
                "end": 78.85,
                "pitch": 72,
                "velocity": 92
            },
            {
                "start": 78.9125,
                "end": 79.04583333333333,
                "pitch": 86,
                "velocity": 111
            },
            {
                "start": 78.90833333333333,
                "end": 79.04583333333333,
                "pitch": 74,
                "velocity": 100
            },
            {
                "start": 80.0,
                "end": 80.05416666666666,
                "pitch": 74,
                "velocity": 127
            },
            {
                "start": 80.0,
                "end": 80.05416666666666,
                "pitch": 86,
                "velocity": 127
            },
            {
                "start": 80.14583333333333,
                "end": 80.2125,
                "pitch": 74,
                "velocity": 117
            },
            {
                "start": 80.14166666666667,
                "end": 80.22083333333333,
                "pitch": 86,
                "velocity": 112
            },
            {
                "start": 80.4,
                "end": 80.44583333333333,
                "pitch": 86,
                "velocity": 123
            },
            {
                "start": 80.4,
                "end": 80.45,
                "pitch": 74,
                "velocity": 125
            },
            {
                "start": 80.5,
                "end": 80.625,
                "pitch": 74,
                "velocity": 112
            },
            {
                "start": 80.5125,
                "end": 80.6375,
                "pitch": 86,
                "velocity": 113
            },
            {
                "start": 80.74583333333334,
                "end": 80.80833333333334,
                "pitch": 74,
                "velocity": 127
            },
            {
                "start": 80.76666666666667,
                "end": 80.82916666666667,
                "pitch": 86,
                "velocity": 127
            },
            {
                "start": 80.87083333333334,
                "end": 80.99583333333334,
                "pitch": 74,
                "velocity": 127
            },
            {
                "start": 80.875,
                "end": 81.0,
                "pitch": 86,
                "velocity": 127
            },
            {
                "start": 81.125,
                "end": 81.17916666666666,
                "pitch": 86,
                "velocity": 125
            },
            {
                "start": 81.125,
                "end": 81.1875,
                "pitch": 74,
                "velocity": 127
            },
            {
                "start": 81.23333333333333,
                "end": 81.35833333333333,
                "pitch": 74,
                "velocity": 126
            },
            {
                "start": 81.25,
                "end": 81.375,
                "pitch": 86,
                "velocity": 126
            },
            {
                "start": 81.49166666666666,
                "end": 81.61666666666666,
                "pitch": 87,
                "velocity": 127
            },
            {
                "start": 81.49583333333334,
                "end": 81.62083333333334,
                "pitch": 75,
                "velocity": 127
            },
            {
                "start": 81.74583333333334,
                "end": 81.87083333333334,
                "pitch": 84,
                "velocity": 100
            },
            {
                "start": 81.75833333333333,
                "end": 81.88333333333333,
                "pitch": 72,
                "velocity": 100
            },
            {
                "start": 82.0,
                "end": 82.05416666666666,
                "pitch": 74,
                "velocity": 127
            },
            {
                "start": 82.0,
                "end": 82.05416666666666,
                "pitch": 86,
                "velocity": 127
            },
            {
                "start": 82.14583333333333,
                "end": 82.2125,
                "pitch": 74,
                "velocity": 117
            },
            {
                "start": 82.14166666666667,
                "end": 82.22083333333333,
                "pitch": 86,
                "velocity": 112
            },
            {
                "start": 82.4,
                "end": 82.44583333333333,
                "pitch": 86,
                "velocity": 123
            },
            {
                "start": 82.4,
                "end": 82.45,
                "pitch": 74,
                "velocity": 125
            },
            {
                "start": 82.5,
                "end": 82.625,
                "pitch": 74,
                "velocity": 112
            },
            {
                "start": 82.5125,
                "end": 82.6375,
                "pitch": 86,
                "velocity": 113
            },
            {
                "start": 82.74583333333334,
                "end": 82.80833333333334,
                "pitch": 74,
                "velocity": 127
            },
            {
                "start": 82.76666666666667,
                "end": 82.82916666666667,
                "pitch": 86,
                "velocity": 127
            },
            {
                "start": 82.87083333333334,
                "end": 82.99583333333334,
                "pitch": 74,
                "velocity": 127
            },
            {
                "start": 82.875,
                "end": 83.0,
                "pitch": 86,
                "velocity": 127
            },
            {
                "start": 83.125,
                "end": 83.17916666666666,
                "pitch": 86,
                "velocity": 125
            },
            {
                "start": 83.125,
                "end": 83.1875,
                "pitch": 74,
                "velocity": 127
            },
            {
                "start": 83.23333333333333,
                "end": 83.35833333333333,
                "pitch": 74,
                "velocity": 126
            },
            {
                "start": 83.25,
                "end": 83.375,
                "pitch": 86,
                "velocity": 126
            },
            {
                "start": 83.49166666666666,
                "end": 83.61666666666666,
                "pitch": 87,
                "velocity": 127
            },
            {
                "start": 83.49583333333334,
                "end": 83.62083333333334,
                "pitch": 75,
                "velocity": 127
            },
            {
                "start": 83.74583333333334,
                "end": 83.87083333333334,
                "pitch": 84,
                "velocity": 100
            },
            {
                "start": 83.75833333333333,
                "end": 83.88333333333333,
                "pitch": 72,
                "velocity": 100
            },
            {
                "start": 84.0,
                "end": 84.05416666666666,
                "pitch": 74,
                "velocity": 127
            },
            {
                "start": 84.0,
                "end": 84.05416666666666,
                "pitch": 86,
                "velocity": 127
            },
            {
                "start": 84.14583333333333,
                "end": 84.2125,
                "pitch": 74,
                "velocity": 117
            },
            {
                "start": 84.14166666666667,
                "end": 84.22083333333333,
                "pitch": 86,
                "velocity": 112
            },
            {
                "start": 84.4,
                "end": 84.44583333333333,
                "pitch": 86,
                "velocity": 123
            },
            {
                "start": 84.4,
                "end": 84.45,
                "pitch": 74,
                "velocity": 125
            },
            {
                "start": 84.5,
                "end": 84.625,
                "pitch": 74,
                "velocity": 112
            },
            {
                "start": 84.5125,
                "end": 84.6375,
                "pitch": 86,
                "velocity": 113
            },
            {
                "start": 84.74583333333334,
                "end": 84.80833333333334,
                "pitch": 74,
                "velocity": 127
            },
            {
                "start": 84.76666666666667,
                "end": 84.82916666666667,
                "pitch": 86,
                "velocity": 127
            },
            {
                "start": 84.87083333333334,
                "end": 84.99583333333334,
                "pitch": 74,
                "velocity": 127
            },
            {
                "start": 84.875,
                "end": 85.0,
                "pitch": 86,
                "velocity": 127
            },
            {
                "start": 85.125,
                "end": 85.17916666666666,
                "pitch": 86,
                "velocity": 125
            },
            {
                "start": 85.125,
                "end": 85.1875,
                "pitch": 74,
                "velocity": 127
            },
            {
                "start": 85.23333333333333,
                "end": 85.35833333333333,
                "pitch": 74,
                "velocity": 126
            },
            {
                "start": 85.25,
                "end": 85.375,
                "pitch": 86,
                "velocity": 126
            },
            {
                "start": 85.49166666666666,
                "end": 85.61666666666666,
                "pitch": 87,
                "velocity": 127
            },
            {
                "start": 85.49583333333334,
                "end": 85.62083333333334,
                "pitch": 75,
                "velocity": 127
            },
            {
                "start": 85.74583333333334,
                "end": 85.87083333333334,
                "pitch": 84,
                "velocity": 100
            },
            {
                "start": 85.75833333333333,
                "end": 85.88333333333333,
                "pitch": 72,
                "velocity": 100
            },
            {
                "start": 86.02083333333333,
                "end": 86.14166666666667,
                "pitch": 74,
                "velocity": 96
            },
            {
                "start": 86.025,
                "end": 86.15833333333333,
                "pitch": 86,
                "velocity": 105
            },
            {
                "start": 86.25416666666666,
                "end": 86.38333333333333,
                "pitch": 74,
                "velocity": 92
            },
            {
                "start": 86.25,
                "end": 86.40416666666667,
                "pitch": 86,
                "velocity": 104
            },
            {
                "start": 86.52083333333333,
                "end": 86.68333333333334,
                "pitch": 74,
                "velocity": 95
            },
            {
                "start": 86.5125,
                "end": 86.70416666666667,
                "pitch": 86,
                "velocity": 100
            },
            {
                "start": 86.7625,
                "end": 86.85,
                "pitch": 84,
                "velocity": 98
            },
            {
                "start": 86.75833333333333,
                "end": 86.85,
                "pitch": 72,
                "velocity": 92
            },
            {
                "start": 86.9125,
                "end": 87.04583333333333,
                "pitch": 86,
                "velocity": 111
            },
            {
                "start": 86.90833333333333,
                "end": 87.04583333333333,
                "pitch": 74,
                "velocity": 100
            },
            {
                "start": 87.9875,
                "end": 88.12916666666666,
                "pitch": 74,
                "velocity": 124
            },
            {
                "start": 88.00416666666666,
                "end": 88.14583333333333,
                "pitch": 86,
                "velocity": 115
            },
            {
                "start": 88.25833333333333,
                "end": 88.42083333333333,
                "pitch": 74,
                "velocity": 100
            },
            {
                "start": 88.25416666666666,
                "end": 88.425,
                "pitch": 86,
                "velocity": 104
            },
            {
                "start": 88.48333333333333,
                "end": 88.72916666666667,
                "pitch": 72,
                "velocity": 99
            },
            {
                "start": 88.49583333333334,
                "end": 88.74583333333334,
                "pitch": 84,
                "velocity": 108
            },
            {
                "start": 88.75,
                "end": 88.84583333333333,
                "pitch": 74,
                "velocity": 98
            },
            {
                "start": 88.725,
                "end": 88.86666666666666,
                "pitch": 86,
                "velocity": 93
            },
            {
                "start": 88.85,
                "end": 89.125,
                "pitch": 82,
                "velocity": 84
            },
            {
                "start": 88.875,
                "end": 89.12916666666666,
                "pitch": 70,
                "velocity": 89
            },
            {
                "start": 89.1375,
                "end": 89.2375,
                "pitch": 74,
                "velocity": 91
            },
            {
                "start": 89.125,
                "end": 89.25,
                "pitch": 86,
                "velocity": 84
            },
            {
                "start": 89.22083333333333,
                "end": 89.47083333333333,
                "pitch": 69,
                "velocity": 75
            },
            {
                "start": 89.24166666666666,
                "end": 89.525,
                "pitch": 81,
                "velocity": 84
            },
            {
                "start": 89.47916666666667,
                "end": 89.73333333333333,
                "pitch": 67,
                "velocity": 79
            },
            {
                "start": 89.50833333333333,
                "end": 89.75833333333333,
                "pitch": 79,
                "velocity": 83
            },
            {
                "start": 89.74583333333334,
                "end": 89.87083333333334,
                "pitch": 77,
                "velocity": 83
            },
            {
                "start": 89.77083333333333,
                "end": 89.875,
                "pitch": 65,
                "velocity": 82
            },
            {
                "start": 90.0,
                "end": 90.125,
                "pitch": 74,
                "velocity": 83
            },
            {
                "start": 90.00416666666666,
                "end": 90.14583333333333,
                "pitch": 86,
                "velocity": 115
            },
            {
                "start": 90.25833333333333,
                "end": 90.42083333333333,
                "pitch": 74,
                "velocity": 100
            },
            {
                "start": 90.25416666666666,
                "end": 90.425,
                "pitch": 86,
                "velocity": 104
            },
            {
                "start": 90.48333333333333,
                "end": 90.72916666666667,
                "pitch": 72,
                "velocity": 99
            },
            {
                "start": 90.49583333333334,
                "end": 90.74583333333334,
                "pitch": 84,
                "velocity": 108
            },
            {
                "start": 90.75,
                "end": 90.84583333333333,
                "pitch": 74,
                "velocity": 98
            },
            {
                "start": 90.725,
                "end": 90.86666666666666,
                "pitch": 86,
                "velocity": 93
            },
            {
                "start": 90.85,
                "end": 91.125,
                "pitch": 82,
                "velocity": 84
            },
            {
                "start": 90.875,
                "end": 91.12916666666666,
                "pitch": 70,
                "velocity": 89
            },
            {
                "start": 91.1375,
                "end": 91.2375,
                "pitch": 74,
                "velocity": 91
            },
            {
                "start": 91.125,
                "end": 91.25,
                "pitch": 86,
                "velocity": 84
            },
            {
                "start": 91.22083333333333,
                "end": 91.47083333333333,
                "pitch": 69,
                "velocity": 75
            },
            {
                "start": 91.24166666666666,
                "end": 91.525,
                "pitch": 81,
                "velocity": 84
            },
            {
                "start": 91.47916666666667,
                "end": 91.73333333333333,
                "pitch": 67,
                "velocity": 79
            },
            {
                "start": 91.50833333333333,
                "end": 91.75833333333333,
                "pitch": 79,
                "velocity": 83
            },
            {
                "start": 91.74583333333334,
                "end": 91.87083333333334,
                "pitch": 77,
                "velocity": 83
            },
            {
                "start": 91.77083333333333,
                "end": 91.875,
                "pitch": 65,
                "velocity": 82
            },
            {
                "start": 92.0,
                "end": 92.125,
                "pitch": 74,
                "velocity": 83
            },
            {
                "start": 92.00833333333333,
                "end": 92.15,
                "pitch": 86,
                "velocity": 115
            },
            {
                "start": 92.2625,
                "end": 92.425,
                "pitch": 74,
                "velocity": 100
            },
            {
                "start": 92.25833333333333,
                "end": 92.42916666666666,
                "pitch": 86,
                "velocity": 104
            },
            {
                "start": 92.4875,
                "end": 92.73333333333333,
                "pitch": 72,
                "velocity": 99
            },
            {
                "start": 92.5,
                "end": 92.75,
                "pitch": 84,
                "velocity": 108
            },
            {
                "start": 92.75416666666666,
                "end": 92.85,
                "pitch": 74,
                "velocity": 98
            },
            {
                "start": 92.72916666666667,
                "end": 92.87083333333334,
                "pitch": 86,
                "velocity": 93
            },
            {
                "start": 92.85416666666667,
                "end": 93.12916666666666,
                "pitch": 82,
                "velocity": 84
            },
            {
                "start": 92.87916666666666,
                "end": 93.13333333333333,
                "pitch": 70,
                "velocity": 89
            },
            {
                "start": 93.14166666666667,
                "end": 93.24166666666666,
                "pitch": 74,
                "velocity": 91
            },
            {
                "start": 93.12916666666666,
                "end": 93.25416666666666,
                "pitch": 86,
                "velocity": 84
            },
            {
                "start": 93.225,
                "end": 93.475,
                "pitch": 69,
                "velocity": 75
            },
            {
                "start": 93.24583333333334,
                "end": 93.52916666666667,
                "pitch": 81,
                "velocity": 84
            },
            {
                "start": 93.48333333333333,
                "end": 93.7375,
                "pitch": 67,
                "velocity": 79
            },
            {
                "start": 93.5125,
                "end": 93.7625,
                "pitch": 79,
                "velocity": 83
            }
        ],
        "pitch_classes": [
            22,
            0,
            120,
            12,
            0,
            4,
            0,
            6,
            0,
            6,
            6,
            0
        ],
        "velocity_mean": 109.81818181818181,
        "pitch_mean": 79.06818181818181,
        "pitch_std": 6.3725181524500805,
        "duration_mean": 0.12637310606060545,
        "song_name": "Twilight_Zone.mid",
        "tempo": 236.0023604776065,
        "time_signature": "4/4",
        "key": "G",
        "camelot_key": "6A",
        "maj_min": "minor"
    },
    "Twilight_Zone.mid_146.60196557810949_166.94074519999998": {
        "instrument_no": 6,
        "instrument_category": "Other",
        "program": 118,
        "is_drum": false,
        "section_start": 146.60196557810949,
        "section_end": 166.94074519999998,
        "notes": [
            {
                "start": 154.51237396666667,
                "end": 154.8067375666667,
                "pitch": 67,
                "velocity": 100
            },
            {
                "start": 155.1014330666667,
                "end": 155.3961285666667,
                "pitch": 67,
                "velocity": 100
            },
            {
                "start": 155.6911738166667,
                "end": 155.99636181666668,
                "pitch": 67,
                "velocity": 100
            },
            {
                "start": 156.3015498166667,
                "end": 156.60673781666668,
                "pitch": 67,
                "velocity": 100
            },
            {
                "start": 156.9119258166667,
                "end": 157.2297323666667,
                "pitch": 67,
                "velocity": 100
            },
            {
                "start": 157.54786586666668,
                "end": 157.8659993666667,
                "pitch": 67,
                "velocity": 100
            },
            {
                "start": 158.18638456666667,
                "end": 158.54162541666668,
                "pitch": 67,
                "velocity": 100
            },
            {
                "start": 158.89665491666668,
                "end": 159.25168441666668,
                "pitch": 67,
                "velocity": 100
            },
            {
                "start": 159.60714953333334,
                "end": 160.0110873666667,
                "pitch": 67,
                "velocity": 100
            },
            {
                "start": 160.4164928666667,
                "end": 160.8218983666667,
                "pitch": 67,
                "velocity": 100
            },
            {
                "start": 161.22758345,
                "end": 161.70264969999997,
                "pitch": 67,
                "velocity": 100
            },
            {
                "start": 162.17884019999997,
                "end": 162.65503069999997,
                "pitch": 67,
                "velocity": 100
            },
            {
                "start": 163.13122119999997,
                "end": 166.94074519999998,
                "pitch": 67,
                "velocity": 100
            }
        ],
        "pitch_classes": [
            0,
            0,
            0,
            0,
            0,
            0,
            0,
            13,
            0,
            0,
            0,
            0
        ],
        "velocity_mean": 100.0,
        "pitch_mean": 67.0,
        "pitch_std": 0.0,
        "duration_mean": 0.62428996794872,
        "song_name": "Twilight_Zone.mid",
        "tempo": 236.0023604776065,
        "time_signature": "4/4",
        "key": "C",
        "camelot_key": "8B",
        "maj_min": "major"
    },
    "The_Real_Thing.1.mid_0.0_18.80867067833699": {
        "instrument_no": 3,
        "instrument_category": "Other",
        "program": 106,
        "is_drum": false,
        "section_start": 0.0,
        "section_end": 18.80867067833699,
        "notes": [
            {
                "start": 8.369746875,
                "end": 8.470271250000001,
                "pitch": 33,
                "velocity": 91
            },
            {
                "start": 8.684431875000001,
                "end": 8.78495625,
                "pitch": 33,
                "velocity": 66
            },
            {
                "start": 8.999116875,
                "end": 9.110567812500001,
                "pitch": 33,
                "velocity": 66
            },
            {
                "start": 9.313801875000001,
                "end": 9.4033996875,
                "pitch": 33,
                "velocity": 66
            },
            {
                "start": 9.628486875,
                "end": 9.698416875000001,
                "pitch": 33,
                "velocity": 49
            },
            {
                "start": 9.838276875,
                "end": 9.919133437500001,
                "pitch": 33,
                "velocity": 66
            },
            {
                "start": 10.048066875000002,
                "end": 10.14859125,
                "pitch": 33,
                "velocity": 91
            },
            {
                "start": 10.362751875,
                "end": 10.463276250000002,
                "pitch": 33,
                "velocity": 66
            },
            {
                "start": 10.677436875000001,
                "end": 10.7888878125,
                "pitch": 33,
                "velocity": 66
            },
            {
                "start": 10.992121875,
                "end": 11.081719687500001,
                "pitch": 33,
                "velocity": 66
            },
            {
                "start": 11.306806875000001,
                "end": 11.376736875,
                "pitch": 33,
                "velocity": 49
            },
            {
                "start": 11.516596875000001,
                "end": 11.5974534375,
                "pitch": 33,
                "velocity": 66
            },
            {
                "start": 11.726386875000001,
                "end": 11.82691125,
                "pitch": 33,
                "velocity": 91
            },
            {
                "start": 12.041071875000002,
                "end": 12.141596250000001,
                "pitch": 33,
                "velocity": 66
            },
            {
                "start": 12.355756875,
                "end": 12.467207812500002,
                "pitch": 33,
                "velocity": 66
            },
            {
                "start": 12.670441875000002,
                "end": 12.7600396875,
                "pitch": 33,
                "velocity": 66
            },
            {
                "start": 12.985126875,
                "end": 13.055056875000002,
                "pitch": 33,
                "velocity": 49
            },
            {
                "start": 13.194916875,
                "end": 13.275773437500002,
                "pitch": 33,
                "velocity": 66
            },
            {
                "start": 13.404706875,
                "end": 13.505231250000001,
                "pitch": 33,
                "velocity": 91
            },
            {
                "start": 13.719391875000001,
                "end": 13.81991625,
                "pitch": 33,
                "velocity": 66
            },
            {
                "start": 14.034076875000002,
                "end": 14.145527812500001,
                "pitch": 33,
                "velocity": 66
            },
            {
                "start": 14.348761875000001,
                "end": 14.438359687500002,
                "pitch": 33,
                "velocity": 66
            },
            {
                "start": 14.663446875000002,
                "end": 14.733376875000001,
                "pitch": 33,
                "velocity": 49
            },
            {
                "start": 14.873236875000002,
                "end": 14.954093437500001,
                "pitch": 33,
                "velocity": 66
            }
        ],
        "pitch_classes": [
            0,
            0,
            0,
            0,
            0,
            0,
            0,
            0,
            0,
            24,
            0,
            0
        ],
        "velocity_mean": 67.33333333333333,
        "pitch_mean": 33.0,
        "pitch_std": 0.0,
        "duration_mean": 0.09214734375,
        "song_name": "The_Real_Thing.1.mid",
        "tempo": 255.20144842178726,
        "time_signature": "4/4",
        "key": "C",
        "camelot_key": "8B",
        "maj_min": "major"
    },
    "The_Real_Thing.2.mid_0.0_18.808670678337": {
        "instrument_no": 9,
        "instrument_category": "Other",
        "program": 106,
        "is_drum": false,
        "section_start": 0.0,
        "section_end": 18.808670678337,
        "notes": [
            {
                "start": 10.048066875000002,
                "end": 10.14859125,
                "pitch": 33,
                "velocity": 91
            },
            {
                "start": 10.362751875,
                "end": 10.463276250000002,
                "pitch": 33,
                "velocity": 66
            },
            {
                "start": 10.677436875000001,
                "end": 10.7888878125,
                "pitch": 33,
                "velocity": 66
            },
            {
                "start": 10.992121875,
                "end": 11.081719687500001,
                "pitch": 33,
                "velocity": 66
            },
            {
                "start": 11.306806875000001,
                "end": 11.376736875,
                "pitch": 33,
                "velocity": 49
            },
            {
                "start": 11.516596875000001,
                "end": 11.5974534375,
                "pitch": 33,
                "velocity": 66
            },
            {
                "start": 11.726386875000001,
                "end": 11.82691125,
                "pitch": 33,
                "velocity": 91
            },
            {
                "start": 12.041071875000002,
                "end": 12.141596250000001,
                "pitch": 33,
                "velocity": 66
            },
            {
                "start": 12.355756875,
                "end": 12.467207812500002,
                "pitch": 33,
                "velocity": 66
            },
            {
                "start": 12.670441875000002,
                "end": 12.7600396875,
                "pitch": 33,
                "velocity": 66
            },
            {
                "start": 12.985126875,
                "end": 13.055056875000002,
                "pitch": 33,
                "velocity": 49
            },
            {
                "start": 13.194916875,
                "end": 13.275773437500002,
                "pitch": 33,
                "velocity": 66
            },
            {
                "start": 13.404706875,
                "end": 13.505231250000001,
                "pitch": 33,
                "velocity": 91
            },
            {
                "start": 13.719391875000001,
                "end": 13.81991625,
                "pitch": 33,
                "velocity": 66
            },
            {
                "start": 14.034076875000002,
                "end": 14.145527812500001,
                "pitch": 33,
                "velocity": 66
            },
            {
                "start": 14.348761875000001,
                "end": 14.438359687500002,
                "pitch": 33,
                "velocity": 66
            },
            {
                "start": 14.663446875000002,
                "end": 14.733376875000001,
                "pitch": 33,
                "velocity": 49
            },
            {
                "start": 14.873236875000002,
                "end": 14.954093437500001,
                "pitch": 33,
                "velocity": 66
            },
            {
                "start": 15.083026875000002,
                "end": 15.18355125,
                "pitch": 33,
                "velocity": 91
            },
            {
                "start": 15.397711875,
                "end": 15.498236250000001,
                "pitch": 33,
                "velocity": 66
            },
            {
                "start": 15.712396875000001,
                "end": 15.823847812500002,
                "pitch": 33,
                "velocity": 66
            },
            {
                "start": 16.027081875,
                "end": 16.116679687500003,
                "pitch": 33,
                "velocity": 66
            },
            {
                "start": 16.341766875,
                "end": 16.411696875,
                "pitch": 33,
                "velocity": 49
            },
            {
                "start": 16.551556875000003,
                "end": 16.632413437500002,
                "pitch": 33,
                "velocity": 66
            }
        ],
        "pitch_classes": [
            0,
            0,
            0,
            0,
            0,
            0,
            0,
            0,
            0,
            24,
            0,
            0
        ],
        "velocity_mean": 67.33333333333333,
        "pitch_mean": 33.0,
        "pitch_std": 0.0,
        "duration_mean": 0.09214734375,
        "song_name": "The_Real_Thing.2.mid",
        "tempo": 255.20144842178715,
        "time_signature": "4/4",
        "key": "C",
        "camelot_key": "8B",
        "maj_min": "major"
    },
    "The_Real_Thing.mid_0.0_18.04507999999998": {
        "instrument_no": 2,
        "instrument_category": "Other",
        "program": 17,
        "is_drum": false,
        "section_start": 0.0,
        "section_end": 18.04507999999998,
        "notes": [
            {
                "start": 14.436063999999998,
                "end": 14.887191,
                "pitch": 45,
                "velocity": 120
            },
            {
                "start": 14.887191,
                "end": 15.338318,
                "pitch": 45,
                "velocity": 120
            },
            {
                "start": 15.338318,
                "end": 15.789444999999999,
                "pitch": 45,
                "velocity": 120
            },
            {
                "start": 15.789444999999999,
                "end": 16.240572,
                "pitch": 48,
                "velocity": 120
            },
            {
                "start": 16.240572,
                "end": 16.691699,
                "pitch": 45,
                "velocity": 120
            },
            {
                "start": 16.691699,
                "end": 17.142826,
                "pitch": 45,
                "velocity": 120
            },
            {
                "start": 17.142826,
                "end": 17.593953,
                "pitch": 45,
                "velocity": 120
            },
            {
                "start": 17.593953,
                "end": 18.04508,
                "pitch": 41,
                "velocity": 120
            }
        ],
        "pitch_classes": [
            1,
            0,
            0,
            0,
            0,
            1,
            0,
            0,
            0,
            6,
            0,
            0
        ],
        "velocity_mean": 120.0,
        "pitch_mean": 44.875,
        "pitch_std": 1.7633419974582356,
        "duration_mean": 0.45112700000000006,
        "song_name": "The_Real_Thing.mid",
        "tempo": 266.00048323421146,
        "time_signature": "4/4",
        "key": "C",
        "camelot_key": "8B",
        "maj_min": "major"
    },
    "The_Real_Thing.mid_99.699067_117.74414699999998": {
        "instrument_no": 6,
        "instrument_category": "Other",
        "program": 43,
        "is_drum": false,
        "section_start": 99.699067,
        "section_end": 117.74414699999998,
        "notes": [
            {
                "start": 101.052448,
                "end": 101.27801149999999,
                "pitch": 69,
                "velocity": 120
            },
            {
                "start": 101.052448,
                "end": 101.27801149999999,
                "pitch": 72,
                "velocity": 120
            },
            {
                "start": 101.27801149999999,
                "end": 101.72913849999999,
                "pitch": 72,
                "velocity": 120
            },
            {
                "start": 101.27801149999999,
                "end": 101.72913849999999,
                "pitch": 69,
                "velocity": 120
            },
            {
                "start": 101.72913849999999,
                "end": 102.18026549999999,
                "pitch": 71,
                "velocity": 120
            },
            {
                "start": 101.72913849999999,
                "end": 102.18026549999999,
                "pitch": 64,
                "velocity": 120
            },
            {
                "start": 102.18026549999999,
                "end": 102.63139249999999,
                "pitch": 64,
                "velocity": 120
            },
            {
                "start": 102.18026549999999,
                "end": 102.63139249999999,
                "pitch": 69,
                "velocity": 120
            },
            {
                "start": 102.63139249999999,
                "end": 102.856956,
                "pitch": 64,
                "velocity": 120
            },
            {
                "start": 102.856956,
                "end": 103.08251949999999,
                "pitch": 72,
                "velocity": 120
            },
            {
                "start": 102.856956,
                "end": 103.08251949999999,
                "pitch": 65,
                "velocity": 120
            },
            {
                "start": 103.08251949999999,
                "end": 103.53364649999999,
                "pitch": 72,
                "velocity": 120
            },
            {
                "start": 103.08251949999999,
                "end": 103.53364649999999,
                "pitch": 65,
                "velocity": 120
            },
            {
                "start": 103.53364649999999,
                "end": 103.98477349999999,
                "pitch": 67,
                "velocity": 120
            },
            {
                "start": 103.53364649999999,
                "end": 103.98477349999999,
                "pitch": 71,
                "velocity": 120
            },
            {
                "start": 103.98477349999999,
                "end": 104.43590049999999,
                "pitch": 69,
                "velocity": 120
            },
            {
                "start": 103.98477349999999,
                "end": 104.43590049999999,
                "pitch": 65,
                "velocity": 120
            },
            {
                "start": 104.43590049999999,
                "end": 104.661464,
                "pitch": 64,
                "velocity": 120
            },
            {
                "start": 104.661464,
                "end": 104.88702749999999,
                "pitch": 67,
                "velocity": 120
            },
            {
                "start": 104.661464,
                "end": 104.88702749999999,
                "pitch": 71,
                "velocity": 120
            },
            {
                "start": 104.88702749999999,
                "end": 105.33815449999999,
                "pitch": 71,
                "velocity": 120
            },
            {
                "start": 104.88702749999999,
                "end": 105.33815449999999,
                "pitch": 67,
                "velocity": 120
            },
            {
                "start": 105.33815449999999,
                "end": 105.78928149999999,
                "pitch": 69,
                "velocity": 120
            },
            {
                "start": 105.33815449999999,
                "end": 105.78928149999999,
                "pitch": 72,
                "velocity": 120
            },
            {
                "start": 105.78928149999999,
                "end": 106.24040849999999,
                "pitch": 71,
                "velocity": 120
            },
            {
                "start": 105.78928149999999,
                "end": 106.24040849999999,
                "pitch": 67,
                "velocity": 120
            },
            {
                "start": 106.24040849999999,
                "end": 106.6915355,
                "pitch": 64,
                "velocity": 120
            },
            {
                "start": 106.24040849999999,
                "end": 106.6915355,
                "pitch": 71,
                "velocity": 120
            },
            {
                "start": 106.6915355,
                "end": 107.1426625,
                "pitch": 64,
                "velocity": 120
            },
            {
                "start": 106.6915355,
                "end": 107.1426625,
                "pitch": 69,
                "velocity": 120
            },
            {
                "start": 107.1426625,
                "end": 107.36822599999999,
                "pitch": 69,
                "velocity": 120
            },
            {
                "start": 107.1426625,
                "end": 107.36822599999999,
                "pitch": 64,
                "velocity": 120
            },
            {
                "start": 108.27047999999999,
                "end": 108.4960435,
                "pitch": 69,
                "velocity": 120
            },
            {
                "start": 108.27047999999999,
                "end": 108.4960435,
                "pitch": 72,
                "velocity": 120
            },
            {
                "start": 108.4960435,
                "end": 108.9471705,
                "pitch": 72,
                "velocity": 120
            },
            {
                "start": 108.4960435,
                "end": 108.9471705,
                "pitch": 69,
                "velocity": 120
            },
            {
                "start": 108.9471705,
                "end": 109.3982975,
                "pitch": 71,
                "velocity": 120
            },
            {
                "start": 108.9471705,
                "end": 109.3982975,
                "pitch": 64,
                "velocity": 120
            },
            {
                "start": 109.3982975,
                "end": 109.8494245,
                "pitch": 64,
                "velocity": 120
            },
            {
                "start": 109.3982975,
                "end": 109.8494245,
                "pitch": 69,
                "velocity": 120
            },
            {
                "start": 109.8494245,
                "end": 110.07498799999999,
                "pitch": 64,
                "velocity": 120
            },
            {
                "start": 110.07498799999999,
                "end": 110.3005515,
                "pitch": 72,
                "velocity": 120
            },
            {
                "start": 110.07498799999999,
                "end": 110.3005515,
                "pitch": 65,
                "velocity": 120
            },
            {
                "start": 110.3005515,
                "end": 110.7516785,
                "pitch": 72,
                "velocity": 120
            },
            {
                "start": 110.3005515,
                "end": 110.7516785,
                "pitch": 65,
                "velocity": 120
            },
            {
                "start": 110.7516785,
                "end": 111.2028055,
                "pitch": 67,
                "velocity": 120
            },
            {
                "start": 110.7516785,
                "end": 111.2028055,
                "pitch": 71,
                "velocity": 120
            },
            {
                "start": 111.2028055,
                "end": 111.6539325,
                "pitch": 69,
                "velocity": 120
            },
            {
                "start": 111.2028055,
                "end": 111.6539325,
                "pitch": 65,
                "velocity": 120
            },
            {
                "start": 111.6539325,
                "end": 111.87949599999999,
                "pitch": 64,
                "velocity": 120
            },
            {
                "start": 111.87949599999999,
                "end": 112.1050595,
                "pitch": 67,
                "velocity": 120
            },
            {
                "start": 111.87949599999999,
                "end": 112.1050595,
                "pitch": 71,
                "velocity": 120
            },
            {
                "start": 112.1050595,
                "end": 112.5561865,
                "pitch": 71,
                "velocity": 120
            },
            {
                "start": 112.1050595,
                "end": 112.5561865,
                "pitch": 67,
                "velocity": 120
            },
            {
                "start": 112.5561865,
                "end": 113.0073135,
                "pitch": 69,
                "velocity": 120
            },
            {
                "start": 112.5561865,
                "end": 113.0073135,
                "pitch": 72,
                "velocity": 120
            },
            {
                "start": 113.0073135,
                "end": 113.4584405,
                "pitch": 71,
                "velocity": 120
            },
            {
                "start": 113.0073135,
                "end": 113.4584405,
                "pitch": 67,
                "velocity": 120
            },
            {
                "start": 113.4584405,
                "end": 113.68400399999999,
                "pitch": 71,
                "velocity": 120
            },
            {
                "start": 113.4584405,
                "end": 113.68400399999999,
                "pitch": 64,
                "velocity": 120
            },
            {
                "start": 113.68400399999999,
                "end": 113.9095675,
                "pitch": 71,
                "velocity": 120
            },
            {
                "start": 113.68400399999999,
                "end": 113.9095675,
                "pitch": 64,
                "velocity": 120
            },
            {
                "start": 113.9095675,
                "end": 114.3606945,
                "pitch": 64,
                "velocity": 120
            },
            {
                "start": 113.9095675,
                "end": 114.3606945,
                "pitch": 69,
                "velocity": 120
            },
            {
                "start": 114.3606945,
                "end": 114.58625799999999,
                "pitch": 69,
                "velocity": 120
            },
            {
                "start": 114.3606945,
                "end": 114.58625799999999,
                "pitch": 64,
                "velocity": 120
            },
            {
                "start": 114.8118215,
                "end": 115.03738499999999,
                "pitch": 69,
                "velocity": 120
            },
            {
                "start": 114.8118215,
                "end": 115.03738499999999,
                "pitch": 72,
                "velocity": 120
            },
            {
                "start": 115.03738499999999,
                "end": 115.2629485,
                "pitch": 74,
                "velocity": 120
            },
            {
                "start": 115.03738499999999,
                "end": 115.2629485,
                "pitch": 69,
                "velocity": 120
            },
            {
                "start": 115.2629485,
                "end": 115.48851199999999,
                "pitch": 76,
                "velocity": 120
            },
            {
                "start": 115.2629485,
                "end": 115.48851199999999,
                "pitch": 69,
                "velocity": 120
            },
            {
                "start": 116.61632949999999,
                "end": 116.841893,
                "pitch": 67,
                "velocity": 120
            },
            {
                "start": 116.61632949999999,
                "end": 116.841893,
                "pitch": 74,
                "velocity": 120
            },
            {
                "start": 116.841893,
                "end": 117.06745649999999,
                "pitch": 72,
                "velocity": 120
            },
            {
                "start": 116.841893,
                "end": 117.06745649999999,
                "pitch": 65,
                "velocity": 120
            },
            {
                "start": 117.06745649999999,
                "end": 117.29302,
                "pitch": 65,
                "velocity": 120
            },
            {
                "start": 117.06745649999999,
                "end": 117.29302,
                "pitch": 74,
                "velocity": 120
            }
        ],
        "pitch_classes": [
            12,
            0,
            3,
            0,
            16,
            8,
            0,
            9,
            0,
            17,
            0,
            13
        ],
        "velocity_mean": 120.0,
        "pitch_mean": 68.47435897435898,
        "pitch_std": 3.2054615211300073,
        "duration_mean": 0.3470207692307689,
        "song_name": "The_Real_Thing.mid",
        "tempo": 266.00048323421146,
        "time_signature": "4/4",
        "key": "C",
        "camelot_key": "8B",
        "maj_min": "major"
    },
    "The_Real_Thing.mid_199.398134_217.44321399999998": {
        "instrument_no": 6,
        "instrument_category": "Other",
        "program": 43,
        "is_drum": false,
        "section_start": 199.398134,
        "section_end": 217.44321399999998,
        "notes": [
            {
                "start": 199.6236975,
                "end": 200.07482449999998,
                "pitch": 64,
                "velocity": 120
            },
            {
                "start": 199.6236975,
                "end": 200.07482449999998,
                "pitch": 71,
                "velocity": 120
            },
            {
                "start": 200.07482449999998,
                "end": 200.5259515,
                "pitch": 71,
                "velocity": 120
            },
            {
                "start": 200.07482449999998,
                "end": 200.5259515,
                "pitch": 64,
                "velocity": 120
            },
            {
                "start": 200.5259515,
                "end": 200.75151499999998,
                "pitch": 64,
                "velocity": 120
            },
            {
                "start": 200.5259515,
                "end": 200.75151499999998,
                "pitch": 69,
                "velocity": 120
            },
            {
                "start": 200.75151499999998,
                "end": 200.97707849999998,
                "pitch": 64,
                "velocity": 120
            },
            {
                "start": 200.75151499999998,
                "end": 200.97707849999998,
                "pitch": 67,
                "velocity": 120
            },
            {
                "start": 200.97707849999998,
                "end": 201.202642,
                "pitch": 69,
                "velocity": 120
            },
            {
                "start": 200.97707849999998,
                "end": 201.202642,
                "pitch": 64,
                "velocity": 120
            }
        ],
        "pitch_classes": [
            0,
            0,
            0,
            0,
            5,
            0,
            0,
            1,
            0,
            2,
            0,
            2
        ],
        "velocity_mean": 120.0,
        "pitch_mean": 66.7,
        "pitch_std": 2.9000000000000004,
        "duration_mean": 0.31578890000000115,
        "song_name": "The_Real_Thing.mid",
        "tempo": 266.00048323421146,
        "time_signature": "4/4",
        "key": "C",
        "camelot_key": "8B",
        "maj_min": "major"
    },
    "Tribal_Dance_edit_.mid_103.63528527198315_121.66989050926685": {
        "instrument_no": 9,
        "instrument_category": "Other",
        "program": 81,
        "is_drum": false,
        "section_start": 103.63528527198315,
        "section_end": 121.66989050926685,
        "notes": [
            {
                "start": 106.87744140625,
                "end": 107.06298828125,
                "pitch": 65,
                "velocity": 88
            },
            {
                "start": 106.87744140625,
                "end": 107.06298828125,
                "pitch": 62,
                "velocity": 88
            },
            {
                "start": 107.578125,
                "end": 107.763671875,
                "pitch": 65,
                "velocity": 80
            },
            {
                "start": 107.578125,
                "end": 107.763671875,
                "pitch": 62,
                "velocity": 88
            },
            {
                "start": 108.515625,
                "end": 108.7255859375,
                "pitch": 63,
                "velocity": 84
            },
            {
                "start": 108.515625,
                "end": 108.7255859375,
                "pitch": 60,
                "velocity": 92
            },
            {
                "start": 108.75,
                "end": 108.935546875,
                "pitch": 65,
                "velocity": 84
            },
            {
                "start": 108.75,
                "end": 108.935546875,
                "pitch": 62,
                "velocity": 84
            },
            {
                "start": 109.453125,
                "end": 109.60693359375,
                "pitch": 65,
                "velocity": 84
            },
            {
                "start": 109.453125,
                "end": 109.6240234375,
                "pitch": 62,
                "velocity": 76
            },
            {
                "start": 109.921875,
                "end": 110.107421875,
                "pitch": 65,
                "velocity": 80
            },
            {
                "start": 109.921875,
                "end": 110.107421875,
                "pitch": 62,
                "velocity": 80
            },
            {
                "start": 110.15625,
                "end": 110.32958984375,
                "pitch": 68,
                "velocity": 72
            },
            {
                "start": 110.15625,
                "end": 110.32958984375,
                "pitch": 65,
                "velocity": 84
            },
            {
                "start": 110.390625,
                "end": 110.56396484375,
                "pitch": 68,
                "velocity": 81
            },
            {
                "start": 110.390625,
                "end": 110.56396484375,
                "pitch": 65,
                "velocity": 80
            },
            {
                "start": 110.62744140625,
                "end": 110.81298828125,
                "pitch": 65,
                "velocity": 88
            },
            {
                "start": 110.62744140625,
                "end": 110.81298828125,
                "pitch": 62,
                "velocity": 88
            },
            {
                "start": 111.328125,
                "end": 111.513671875,
                "pitch": 65,
                "velocity": 80
            },
            {
                "start": 111.328125,
                "end": 111.513671875,
                "pitch": 62,
                "velocity": 88
            },
            {
                "start": 112.265625,
                "end": 112.4755859375,
                "pitch": 63,
                "velocity": 84
            },
            {
                "start": 112.265625,
                "end": 112.4755859375,
                "pitch": 60,
                "velocity": 92
            },
            {
                "start": 112.5,
                "end": 112.685546875,
                "pitch": 65,
                "velocity": 84
            },
            {
                "start": 112.5,
                "end": 112.685546875,
                "pitch": 62,
                "velocity": 84
            },
            {
                "start": 113.203125,
                "end": 113.35693359375,
                "pitch": 65,
                "velocity": 84
            },
            {
                "start": 113.203125,
                "end": 113.3740234375,
                "pitch": 62,
                "velocity": 76
            },
            {
                "start": 113.671875,
                "end": 113.857421875,
                "pitch": 65,
                "velocity": 80
            },
            {
                "start": 113.671875,
                "end": 113.857421875,
                "pitch": 62,
                "velocity": 80
            },
            {
                "start": 113.90625,
                "end": 114.07958984375,
                "pitch": 68,
                "velocity": 72
            },
            {
                "start": 113.90625,
                "end": 114.07958984375,
                "pitch": 65,
                "velocity": 84
            },
            {
                "start": 114.140625,
                "end": 114.31396484375,
                "pitch": 68,
                "velocity": 81
            },
            {
                "start": 114.140625,
                "end": 114.31396484375,
                "pitch": 65,
                "velocity": 80
            },
            {
                "start": 114.37744140625,
                "end": 114.56298828125,
                "pitch": 65,
                "velocity": 88
            },
            {
                "start": 114.37744140625,
                "end": 114.56298828125,
                "pitch": 62,
                "velocity": 88
            },
            {
                "start": 115.078125,
                "end": 115.263671875,
                "pitch": 65,
                "velocity": 80
            },
            {
                "start": 115.078125,
                "end": 115.263671875,
                "pitch": 62,
                "velocity": 88
            },
            {
                "start": 116.015625,
                "end": 116.2255859375,
                "pitch": 63,
                "velocity": 84
            },
            {
                "start": 116.015625,
                "end": 116.2255859375,
                "pitch": 60,
                "velocity": 92
            },
            {
                "start": 116.25,
                "end": 116.435546875,
                "pitch": 65,
                "velocity": 84
            },
            {
                "start": 116.25,
                "end": 116.435546875,
                "pitch": 62,
                "velocity": 84
            },
            {
                "start": 116.953125,
                "end": 117.10693359375,
                "pitch": 65,
                "velocity": 84
            },
            {
                "start": 116.953125,
                "end": 117.1240234375,
                "pitch": 62,
                "velocity": 76
            },
            {
                "start": 117.421875,
                "end": 117.607421875,
                "pitch": 65,
                "velocity": 80
            },
            {
                "start": 117.421875,
                "end": 117.607421875,
                "pitch": 62,
                "velocity": 80
            },
            {
                "start": 117.65625,
                "end": 117.82958984375,
                "pitch": 68,
                "velocity": 72
            },
            {
                "start": 117.65625,
                "end": 117.82958984375,
                "pitch": 65,
                "velocity": 84
            },
            {
                "start": 117.890625,
                "end": 118.06396484375,
                "pitch": 68,
                "velocity": 81
            },
            {
                "start": 117.890625,
                "end": 118.06396484375,
                "pitch": 65,
                "velocity": 80
            },
            {
                "start": 118.12744140625,
                "end": 118.31298828125,
                "pitch": 65,
                "velocity": 88
            },
            {
                "start": 118.12744140625,
                "end": 118.31298828125,
                "pitch": 62,
                "velocity": 88
            },
            {
                "start": 118.828125,
                "end": 119.013671875,
                "pitch": 65,
                "velocity": 80
            },
            {
                "start": 118.828125,
                "end": 119.013671875,
                "pitch": 62,
                "velocity": 88
            },
            {
                "start": 119.765625,
                "end": 119.9755859375,
                "pitch": 63,
                "velocity": 84
            },
            {
                "start": 119.765625,
                "end": 119.9755859375,
                "pitch": 60,
                "velocity": 92
            },
            {
                "start": 120.0,
                "end": 120.185546875,
                "pitch": 65,
                "velocity": 84
            },
            {
                "start": 120.0,
                "end": 120.185546875,
                "pitch": 62,
                "velocity": 84
            },
            {
                "start": 120.703125,
                "end": 120.85693359375,
                "pitch": 65,
                "velocity": 84
            },
            {
                "start": 120.703125,
                "end": 120.8740234375,
                "pitch": 62,
                "velocity": 76
            },
            {
                "start": 121.171875,
                "end": 121.357421875,
                "pitch": 65,
                "velocity": 80
            },
            {
                "start": 121.171875,
                "end": 121.357421875,
                "pitch": 62,
                "velocity": 80
            },
            {
                "start": 121.40625,
                "end": 121.57958984375,
                "pitch": 68,
                "velocity": 72
            },
            {
                "start": 121.40625,
                "end": 121.57958984375,
                "pitch": 65,
                "velocity": 84
            },
            {
                "start": 121.640625,
                "end": 121.81396484375,
                "pitch": 68,
                "velocity": 81
            },
            {
                "start": 121.640625,
                "end": 121.81396484375,
                "pitch": 65,
                "velocity": 80
            }
        ],
        "pitch_classes": [
            4,
            0,
            20,
            4,
            0,
            28,
            0,
            0,
            8,
            0,
            0,
            0
        ],
        "velocity_mean": 82.8125,
        "pitch_mean": 64.0,
        "pitch_std": 2.179449471770337,
        "duration_mean": 0.182647705078125,
        "song_name": "Tribal_Dance_edit_.mid",
        "tempo": 266.15498020864686,
        "time_signature": "4/4",
        "key": "C",
        "camelot_key": "5A",
        "maj_min": "minor"
    },
    "Tribal_Dance_edit_.mid_207.2705705439663_225.30517578125": {
        "instrument_no": 6,
        "instrument_category": "Other",
        "program": 55,
        "is_drum": false,
        "section_start": 207.2705705439663,
        "section_end": 225.30517578125,
        "notes": [
            {
                "start": 223.12255859375,
                "end": 223.28125,
                "pitch": 65,
                "velocity": 112
            }
        ],
        "pitch_classes": [
            0,
            0,
            0,
            0,
            0,
            1,
            0,
            0,
            0,
            0,
            0,
            0
        ],
        "velocity_mean": 112.0,
        "pitch_mean": 65.0,
        "pitch_std": 0.0,
        "duration_mean": 0.15869140625,
        "song_name": "Tribal_Dance_edit_.mid",
        "tempo": 266.15498020864686,
        "time_signature": "4/4",
        "key": "C",
        "camelot_key": "8B",
        "maj_min": "major"
    },
    "No_Limit_extended_.mid_164.22017360123056_182.36071358626947": {
        "instrument_no": 6,
        "instrument_category": "Other",
        "program": 87,
        "is_drum": false,
        "section_start": 164.22017360123056,
        "section_end": 182.36071358626947,
        "notes": [
            {
                "start": 177.02048000000002,
                "end": 177.09583427083336,
                "pitch": 58,
                "velocity": 101
            },
            {
                "start": 177.233245,
                "end": 177.30859927083335,
                "pitch": 70,
                "velocity": 101
            },
            {
                "start": 177.44601000000003,
                "end": 177.52136427083335,
                "pitch": 58,
                "velocity": 101
            },
            {
                "start": 177.65877500000002,
                "end": 177.73412927083336,
                "pitch": 70,
                "velocity": 101
            },
            {
                "start": 177.87154,
                "end": 177.94689427083335,
                "pitch": 58,
                "velocity": 101
            },
            {
                "start": 178.08430500000003,
                "end": 178.15965927083334,
                "pitch": 70,
                "velocity": 101
            },
            {
                "start": 178.29707000000002,
                "end": 178.37242427083336,
                "pitch": 58,
                "velocity": 101
            },
            {
                "start": 178.509835,
                "end": 178.58518927083335,
                "pitch": 70,
                "velocity": 101
            },
            {
                "start": 178.72260000000003,
                "end": 178.79795427083334,
                "pitch": 58,
                "velocity": 101
            },
            {
                "start": 178.93536500000002,
                "end": 179.01071927083336,
                "pitch": 70,
                "velocity": 101
            },
            {
                "start": 179.14813,
                "end": 179.22348427083335,
                "pitch": 58,
                "velocity": 101
            },
            {
                "start": 179.36089500000003,
                "end": 179.43624927083334,
                "pitch": 70,
                "velocity": 101
            },
            {
                "start": 179.57366000000002,
                "end": 179.64901427083336,
                "pitch": 58,
                "velocity": 101
            },
            {
                "start": 179.786425,
                "end": 179.86177927083335,
                "pitch": 70,
                "velocity": 101
            },
            {
                "start": 179.99919000000003,
                "end": 180.07454427083334,
                "pitch": 58,
                "velocity": 101
            },
            {
                "start": 180.21195500000002,
                "end": 180.28730927083336,
                "pitch": 70,
                "velocity": 101
            },
            {
                "start": 180.3183375,
                "end": 180.39369177083336,
                "pitch": 70,
                "velocity": 101
            },
            {
                "start": 180.42472,
                "end": 180.50007427083335,
                "pitch": 58,
                "velocity": 101
            },
            {
                "start": 180.63748500000003,
                "end": 180.71283927083334,
                "pitch": 70,
                "velocity": 101
            },
            {
                "start": 180.85025000000002,
                "end": 180.92560427083336,
                "pitch": 58,
                "velocity": 101
            },
            {
                "start": 181.063015,
                "end": 181.13836927083335,
                "pitch": 70,
                "velocity": 101
            },
            {
                "start": 181.27578000000003,
                "end": 181.35113427083334,
                "pitch": 58,
                "velocity": 101
            },
            {
                "start": 181.48854500000002,
                "end": 181.56389927083336,
                "pitch": 70,
                "velocity": 101
            },
            {
                "start": 181.70131,
                "end": 181.77666427083335,
                "pitch": 58,
                "velocity": 101
            },
            {
                "start": 181.91407500000003,
                "end": 181.98942927083334,
                "pitch": 70,
                "velocity": 101
            },
            {
                "start": 182.12684000000002,
                "end": 182.20219427083336,
                "pitch": 63,
                "velocity": 101
            },
            {
                "start": 182.33960500000003,
                "end": 182.41495927083335,
                "pitch": 75,
                "velocity": 101
            }
        ],
        "pitch_classes": [
            0,
            0,
            0,
            2,
            0,
            0,
            0,
            0,
            0,
            0,
            25,
            0
        ],
        "velocity_mean": 101.0,
        "pitch_mean": 64.5925925925926,
        "pitch_std": 6.123780357839122,
        "duration_mean": 0.07535427083333464,
        "song_name": "No_Limit_extended_.mid",
        "tempo": 264.60072323970047,
        "time_signature": "4/4",
        "key": "C",
        "camelot_key": "5A",
        "maj_min": "minor"
    },
    "No_Limit_extended_.mid_328.4403472024611_346.5808871875": {
        "instrument_no": 3,
        "instrument_category": "Other",
        "program": 48,
        "is_drum": false,
        "section_start": 328.4403472024611,
        "section_end": 346.5808871875,
        "notes": [
            {
                "start": 328.50916,
                "end": 330.16473765625005,
                "pitch": 63,
                "velocity": 82
            },
            {
                "start": 328.50916,
                "end": 330.1758191666667,
                "pitch": 58,
                "velocity": 82
            },
            {
                "start": 328.50916,
                "end": 330.184684375,
                "pitch": 67,
                "velocity": 82
            }
        ],
        "pitch_classes": [
            0,
            0,
            0,
            1,
            0,
            0,
            0,
            1,
            0,
            0,
            1,
            0
        ],
        "velocity_mean": 82.0,
        "pitch_mean": 62.666666666666664,
        "pitch_std": 3.6817870057290873,
        "duration_mean": 1.6659203993055864,
        "song_name": "No_Limit_extended_.mid",
        "tempo": 264.60072323970047,
        "time_signature": "4/4",
        "key": "C",
        "camelot_key": "5A",
        "maj_min": "minor"
    },
    "No_Limit.1.mid_0.0_17.99163349746764": {
        "instrument_no": 7,
        "instrument_category": "Drum",
        "program": 25,
        "is_drum": true,
        "section_start": 0.0,
        "section_end": 17.99163349746764,
        "notes": [
            {
                "start": 11.914840000000002,
                "end": 11.941435625,
                "pitch": 44,
                "velocity": 29
            },
            {
                "start": 11.914840000000002,
                "end": 11.941435625,
                "pitch": 39,
                "velocity": 89
            },
            {
                "start": 12.127605,
                "end": 12.145335416666668,
                "pitch": 46,
                "velocity": 61
            },
            {
                "start": 12.127605,
                "end": 12.163065833333334,
                "pitch": 38,
                "velocity": 115
            },
            {
                "start": 12.127605,
                "end": 12.1674984375,
                "pitch": 32,
                "velocity": 91
            },
            {
                "start": 12.340370000000002,
                "end": 12.366965625,
                "pitch": 44,
                "velocity": 37
            },
            {
                "start": 12.340370000000002,
                "end": 12.366965625,
                "pitch": 39,
                "velocity": 89
            },
            {
                "start": 12.340370000000002,
                "end": 12.380263437500002,
                "pitch": 32,
                "velocity": 91
            },
            {
                "start": 12.553135000000001,
                "end": 12.570865416666669,
                "pitch": 46,
                "velocity": 74
            },
            {
                "start": 12.553135000000001,
                "end": 12.588595833333335,
                "pitch": 38,
                "velocity": 115
            },
            {
                "start": 12.553135000000001,
                "end": 12.593028437500001,
                "pitch": 32,
                "velocity": 91
            },
            {
                "start": 12.765900000000002,
                "end": 12.792495625,
                "pitch": 44,
                "velocity": 41
            },
            {
                "start": 12.765900000000002,
                "end": 12.792495625,
                "pitch": 39,
                "velocity": 89
            },
            {
                "start": 12.978665000000001,
                "end": 12.996395416666669,
                "pitch": 46,
                "velocity": 71
            },
            {
                "start": 12.978665000000001,
                "end": 13.014125833333335,
                "pitch": 38,
                "velocity": 115
            },
            {
                "start": 12.978665000000001,
                "end": 13.018558437500001,
                "pitch": 32,
                "velocity": 91
            },
            {
                "start": 13.085047500000002,
                "end": 13.124940937500002,
                "pitch": 32,
                "velocity": 91
            },
            {
                "start": 13.191430000000002,
                "end": 13.218025625000001,
                "pitch": 44,
                "velocity": 35
            },
            {
                "start": 13.191430000000002,
                "end": 13.218025625000001,
                "pitch": 39,
                "velocity": 89
            },
            {
                "start": 13.404195000000001,
                "end": 13.421925416666667,
                "pitch": 46,
                "velocity": 69
            },
            {
                "start": 13.404195000000001,
                "end": 13.439655833333335,
                "pitch": 38,
                "velocity": 115
            },
            {
                "start": 13.404195000000001,
                "end": 13.444088437500001,
                "pitch": 32,
                "velocity": 91
            },
            {
                "start": 13.510577500000002,
                "end": 13.537173125,
                "pitch": 39,
                "velocity": 84
            },
            {
                "start": 13.510577500000002,
                "end": 13.550470937500002,
                "pitch": 32,
                "velocity": 91
            },
            {
                "start": 13.616960000000002,
                "end": 13.643555625000001,
                "pitch": 44,
                "velocity": 29
            },
            {
                "start": 13.616960000000002,
                "end": 13.643555625000001,
                "pitch": 39,
                "velocity": 89
            },
            {
                "start": 13.829725000000002,
                "end": 13.847455416666667,
                "pitch": 46,
                "velocity": 61
            },
            {
                "start": 13.829725000000002,
                "end": 13.865185833333335,
                "pitch": 38,
                "velocity": 115
            },
            {
                "start": 13.829725000000002,
                "end": 13.869618437500002,
                "pitch": 32,
                "velocity": 91
            },
            {
                "start": 14.04249,
                "end": 14.069085625000001,
                "pitch": 44,
                "velocity": 37
            },
            {
                "start": 14.04249,
                "end": 14.069085625000001,
                "pitch": 39,
                "velocity": 89
            },
            {
                "start": 14.04249,
                "end": 14.0823834375,
                "pitch": 32,
                "velocity": 91
            },
            {
                "start": 14.255255000000002,
                "end": 14.272985416666668,
                "pitch": 46,
                "velocity": 74
            },
            {
                "start": 14.255255000000002,
                "end": 14.290715833333335,
                "pitch": 38,
                "velocity": 115
            },
            {
                "start": 14.255255000000002,
                "end": 14.295148437500002,
                "pitch": 32,
                "velocity": 91
            },
            {
                "start": 14.468020000000001,
                "end": 14.494615625000002,
                "pitch": 44,
                "velocity": 41
            },
            {
                "start": 14.468020000000001,
                "end": 14.494615625000002,
                "pitch": 39,
                "velocity": 89
            },
            {
                "start": 14.680785000000002,
                "end": 14.698515416666668,
                "pitch": 46,
                "velocity": 71
            },
            {
                "start": 14.680785000000002,
                "end": 14.716245833333335,
                "pitch": 38,
                "velocity": 115
            },
            {
                "start": 14.680785000000002,
                "end": 14.720678437500002,
                "pitch": 32,
                "velocity": 91
            },
            {
                "start": 14.787167500000002,
                "end": 14.827060937500002,
                "pitch": 32,
                "velocity": 91
            },
            {
                "start": 14.893550000000001,
                "end": 14.920145625000002,
                "pitch": 44,
                "velocity": 35
            },
            {
                "start": 14.893550000000001,
                "end": 14.920145625000002,
                "pitch": 39,
                "velocity": 89
            },
            {
                "start": 15.106315000000002,
                "end": 15.124045416666668,
                "pitch": 46,
                "velocity": 69
            },
            {
                "start": 15.106315000000002,
                "end": 15.141775833333336,
                "pitch": 38,
                "velocity": 115
            },
            {
                "start": 15.106315000000002,
                "end": 15.146208437500002,
                "pitch": 32,
                "velocity": 91
            },
            {
                "start": 15.2126975,
                "end": 15.239293125000001,
                "pitch": 39,
                "velocity": 84
            },
            {
                "start": 15.2126975,
                "end": 15.2525909375,
                "pitch": 32,
                "velocity": 91
            },
            {
                "start": 15.319080000000001,
                "end": 15.345675625000002,
                "pitch": 44,
                "velocity": 29
            },
            {
                "start": 15.319080000000001,
                "end": 15.345675625000002,
                "pitch": 39,
                "velocity": 89
            },
            {
                "start": 15.531845000000002,
                "end": 15.549575416666668,
                "pitch": 46,
                "velocity": 61
            },
            {
                "start": 15.531845000000002,
                "end": 15.567305833333336,
                "pitch": 38,
                "velocity": 115
            },
            {
                "start": 15.531845000000002,
                "end": 15.571738437500002,
                "pitch": 32,
                "velocity": 91
            },
            {
                "start": 15.744610000000002,
                "end": 15.771205625000002,
                "pitch": 44,
                "velocity": 37
            },
            {
                "start": 15.744610000000002,
                "end": 15.771205625000002,
                "pitch": 39,
                "velocity": 89
            },
            {
                "start": 15.744610000000002,
                "end": 15.784503437500002,
                "pitch": 32,
                "velocity": 91
            },
            {
                "start": 15.957375000000003,
                "end": 15.975105416666668,
                "pitch": 46,
                "velocity": 74
            },
            {
                "start": 15.957375000000003,
                "end": 15.992835833333334,
                "pitch": 38,
                "velocity": 115
            },
            {
                "start": 15.957375000000003,
                "end": 15.997268437500002,
                "pitch": 32,
                "velocity": 91
            },
            {
                "start": 16.170140000000004,
                "end": 16.196735625000002,
                "pitch": 44,
                "velocity": 41
            },
            {
                "start": 16.170140000000004,
                "end": 16.196735625000002,
                "pitch": 39,
                "velocity": 89
            },
            {
                "start": 16.382905,
                "end": 16.400635416666667,
                "pitch": 46,
                "velocity": 71
            },
            {
                "start": 16.382905,
                "end": 16.418365833333336,
                "pitch": 38,
                "velocity": 115
            },
            {
                "start": 16.382905,
                "end": 16.422798437500003,
                "pitch": 32,
                "velocity": 91
            },
            {
                "start": 16.489287500000003,
                "end": 16.5291809375,
                "pitch": 32,
                "velocity": 91
            },
            {
                "start": 16.595670000000002,
                "end": 16.622265625,
                "pitch": 44,
                "velocity": 35
            },
            {
                "start": 16.595670000000002,
                "end": 16.622265625,
                "pitch": 39,
                "velocity": 89
            },
            {
                "start": 16.808435000000003,
                "end": 16.82616541666667,
                "pitch": 46,
                "velocity": 69
            },
            {
                "start": 16.808435000000003,
                "end": 16.843895833333335,
                "pitch": 38,
                "velocity": 115
            },
            {
                "start": 16.808435000000003,
                "end": 16.8483284375,
                "pitch": 32,
                "velocity": 91
            },
            {
                "start": 16.9148175,
                "end": 16.941413125,
                "pitch": 39,
                "velocity": 84
            },
            {
                "start": 16.9148175,
                "end": 16.954710937500003,
                "pitch": 32,
                "velocity": 91
            },
            {
                "start": 17.0212,
                "end": 17.047795625000003,
                "pitch": 44,
                "velocity": 29
            },
            {
                "start": 17.0212,
                "end": 17.047795625000003,
                "pitch": 39,
                "velocity": 89
            },
            {
                "start": 17.233965,
                "end": 17.251695416666667,
                "pitch": 46,
                "velocity": 61
            },
            {
                "start": 17.233965,
                "end": 17.269425833333337,
                "pitch": 38,
                "velocity": 115
            },
            {
                "start": 17.233965,
                "end": 17.273858437500003,
                "pitch": 32,
                "velocity": 91
            },
            {
                "start": 17.446730000000002,
                "end": 17.473325625,
                "pitch": 44,
                "velocity": 37
            },
            {
                "start": 17.446730000000002,
                "end": 17.473325625,
                "pitch": 39,
                "velocity": 89
            },
            {
                "start": 17.446730000000002,
                "end": 17.4866234375,
                "pitch": 32,
                "velocity": 91
            },
            {
                "start": 17.659495000000003,
                "end": 17.67722541666667,
                "pitch": 46,
                "velocity": 74
            },
            {
                "start": 17.659495000000003,
                "end": 17.694955833333335,
                "pitch": 38,
                "velocity": 115
            },
            {
                "start": 17.659495000000003,
                "end": 17.6993884375,
                "pitch": 32,
                "velocity": 91
            },
            {
                "start": 17.87226,
                "end": 17.898855625000003,
                "pitch": 44,
                "velocity": 41
            },
            {
                "start": 17.87226,
                "end": 17.898855625000003,
                "pitch": 39,
                "velocity": 89
            }
        ],
        "pitch_classes": [
            0,
            0,
            14,
            18,
            0,
            0,
            0,
            0,
            39,
            0,
            14,
            0
        ],
        "velocity_mean": 80.87058823529412,
        "pitch_mean": 38.89411764705882,
        "pitch_std": 5.145011357471635,
        "duration_mean": 0.030350301470588068,
        "song_name": "No_Limit.1.mid",
        "tempo": 266.79067249094476,
        "time_signature": "4/4",
        "key": "C",
        "camelot_key": "5A",
        "maj_min": "minor"
    },
    "No_Limit.1.mid_99.41681595959953_117.40844945706718": {
        "instrument_no": 1,
        "instrument_category": "Bass",
        "program": 39,
        "is_drum": false,
        "section_start": 99.41681595959953,
        "section_end": 117.40844945706718,
        "notes": [
            {
                "start": 99.57402,
                "end": 99.64937427083335,
                "pitch": 34,
                "velocity": 116
            },
            {
                "start": 99.78678500000001,
                "end": 99.86213927083334,
                "pitch": 34,
                "velocity": 116
            },
            {
                "start": 99.99955000000001,
                "end": 100.07490427083334,
                "pitch": 34,
                "velocity": 116
            },
            {
                "start": 100.21231500000002,
                "end": 100.28766927083335,
                "pitch": 34,
                "velocity": 116
            },
            {
                "start": 100.42508000000001,
                "end": 100.50043427083334,
                "pitch": 27,
                "velocity": 116
            },
            {
                "start": 100.63784500000001,
                "end": 100.71319927083334,
                "pitch": 27,
                "velocity": 116
            },
            {
                "start": 100.85061000000002,
                "end": 100.92596427083335,
                "pitch": 27,
                "velocity": 116
            },
            {
                "start": 101.06337500000001,
                "end": 101.13872927083334,
                "pitch": 27,
                "velocity": 116
            },
            {
                "start": 101.27614000000001,
                "end": 101.35149427083334,
                "pitch": 29,
                "velocity": 116
            },
            {
                "start": 101.48890500000002,
                "end": 101.56425927083335,
                "pitch": 27,
                "velocity": 116
            },
            {
                "start": 101.70167000000001,
                "end": 101.77702427083335,
                "pitch": 32,
                "velocity": 116
            },
            {
                "start": 101.91443500000001,
                "end": 101.98978927083334,
                "pitch": 32,
                "velocity": 116
            },
            {
                "start": 103.82932000000001,
                "end": 103.90467427083334,
                "pitch": 34,
                "velocity": 116
            },
            {
                "start": 104.04208500000001,
                "end": 104.11743927083334,
                "pitch": 34,
                "velocity": 116
            },
            {
                "start": 104.04208500000001,
                "end": 104.11743927083334,
                "pitch": 46,
                "velocity": 116
            },
            {
                "start": 104.25485,
                "end": 104.33020427083335,
                "pitch": 34,
                "velocity": 116
            },
            {
                "start": 104.46761500000001,
                "end": 104.54296927083334,
                "pitch": 34,
                "velocity": 116
            },
            {
                "start": 104.46761500000001,
                "end": 104.54296927083334,
                "pitch": 46,
                "velocity": 116
            },
            {
                "start": 104.68038000000001,
                "end": 104.75573427083334,
                "pitch": 34,
                "velocity": 116
            },
            {
                "start": 104.89314500000002,
                "end": 104.96849927083335,
                "pitch": 34,
                "velocity": 116
            },
            {
                "start": 104.89314500000002,
                "end": 104.96849927083335,
                "pitch": 46,
                "velocity": 116
            },
            {
                "start": 105.10591000000001,
                "end": 105.18126427083334,
                "pitch": 34,
                "velocity": 116
            },
            {
                "start": 105.31867500000001,
                "end": 105.39402927083334,
                "pitch": 34,
                "velocity": 116
            },
            {
                "start": 105.31867500000001,
                "end": 105.39402927083334,
                "pitch": 46,
                "velocity": 116
            },
            {
                "start": 105.53144000000002,
                "end": 105.60679427083335,
                "pitch": 34,
                "velocity": 116
            },
            {
                "start": 105.74420500000001,
                "end": 105.81955927083335,
                "pitch": 34,
                "velocity": 116
            },
            {
                "start": 105.74420500000001,
                "end": 105.81955927083335,
                "pitch": 46,
                "velocity": 116
            },
            {
                "start": 105.95697000000001,
                "end": 106.03232427083334,
                "pitch": 34,
                "velocity": 116
            },
            {
                "start": 106.16973500000002,
                "end": 106.24508927083335,
                "pitch": 34,
                "velocity": 116
            },
            {
                "start": 106.16973500000002,
                "end": 106.24508927083335,
                "pitch": 46,
                "velocity": 116
            },
            {
                "start": 106.38250000000001,
                "end": 106.45785427083335,
                "pitch": 34,
                "velocity": 116
            },
            {
                "start": 106.59526500000001,
                "end": 106.67061927083334,
                "pitch": 34,
                "velocity": 116
            },
            {
                "start": 106.59526500000001,
                "end": 106.67061927083334,
                "pitch": 46,
                "velocity": 116
            },
            {
                "start": 106.80803000000002,
                "end": 106.88338427083335,
                "pitch": 34,
                "velocity": 116
            },
            {
                "start": 107.020795,
                "end": 107.09614927083335,
                "pitch": 34,
                "velocity": 116
            },
            {
                "start": 107.020795,
                "end": 107.09614927083335,
                "pitch": 46,
                "velocity": 116
            },
            {
                "start": 107.23356000000001,
                "end": 107.30891427083334,
                "pitch": 34,
                "velocity": 116
            },
            {
                "start": 107.44632500000002,
                "end": 107.52167927083335,
                "pitch": 34,
                "velocity": 116
            },
            {
                "start": 107.44632500000002,
                "end": 107.52167927083335,
                "pitch": 46,
                "velocity": 116
            },
            {
                "start": 107.65909,
                "end": 107.73444427083335,
                "pitch": 34,
                "velocity": 116
            },
            {
                "start": 107.87185500000001,
                "end": 107.94720927083334,
                "pitch": 34,
                "velocity": 116
            },
            {
                "start": 107.87185500000001,
                "end": 107.94720927083334,
                "pitch": 46,
                "velocity": 116
            },
            {
                "start": 108.08462000000002,
                "end": 108.15997427083335,
                "pitch": 34,
                "velocity": 116
            },
            {
                "start": 108.297385,
                "end": 108.37273927083335,
                "pitch": 34,
                "velocity": 116
            },
            {
                "start": 108.297385,
                "end": 108.37273927083335,
                "pitch": 46,
                "velocity": 116
            },
            {
                "start": 108.51015000000001,
                "end": 108.58550427083334,
                "pitch": 34,
                "velocity": 116
            },
            {
                "start": 108.72291500000001,
                "end": 108.79826927083334,
                "pitch": 34,
                "velocity": 116
            },
            {
                "start": 108.72291500000001,
                "end": 108.79826927083334,
                "pitch": 46,
                "velocity": 116
            },
            {
                "start": 108.93568000000002,
                "end": 109.01103427083335,
                "pitch": 27,
                "velocity": 116
            },
            {
                "start": 109.14844500000001,
                "end": 109.22379927083334,
                "pitch": 27,
                "velocity": 116
            },
            {
                "start": 109.14844500000001,
                "end": 109.22379927083334,
                "pitch": 51,
                "velocity": 116
            },
            {
                "start": 109.36121000000001,
                "end": 109.43656427083334,
                "pitch": 27,
                "velocity": 116
            },
            {
                "start": 109.57397500000002,
                "end": 109.64932927083335,
                "pitch": 27,
                "velocity": 116
            },
            {
                "start": 109.57397500000002,
                "end": 109.64932927083335,
                "pitch": 51,
                "velocity": 116
            },
            {
                "start": 109.78674000000001,
                "end": 109.86209427083334,
                "pitch": 29,
                "velocity": 116
            },
            {
                "start": 109.99950500000001,
                "end": 110.07485927083334,
                "pitch": 27,
                "velocity": 116
            },
            {
                "start": 109.99950500000001,
                "end": 110.07485927083334,
                "pitch": 51,
                "velocity": 116
            },
            {
                "start": 110.21227000000002,
                "end": 110.28762427083335,
                "pitch": 29,
                "velocity": 116
            },
            {
                "start": 110.21227000000002,
                "end": 110.28762427083335,
                "pitch": 53,
                "velocity": 116
            },
            {
                "start": 110.42503500000001,
                "end": 110.50038927083335,
                "pitch": 32,
                "velocity": 116
            },
            {
                "start": 110.42503500000001,
                "end": 110.50038927083335,
                "pitch": 56,
                "velocity": 116
            },
            {
                "start": 110.63780000000001,
                "end": 110.71315427083334,
                "pitch": 34,
                "velocity": 116
            },
            {
                "start": 110.85056500000002,
                "end": 110.92591927083335,
                "pitch": 34,
                "velocity": 116
            },
            {
                "start": 110.85056500000002,
                "end": 110.92591927083335,
                "pitch": 46,
                "velocity": 116
            },
            {
                "start": 111.06333000000001,
                "end": 111.13868427083335,
                "pitch": 34,
                "velocity": 116
            },
            {
                "start": 111.27609500000001,
                "end": 111.35144927083334,
                "pitch": 34,
                "velocity": 116
            },
            {
                "start": 111.27609500000001,
                "end": 111.35144927083334,
                "pitch": 46,
                "velocity": 116
            },
            {
                "start": 111.48886000000002,
                "end": 111.56421427083335,
                "pitch": 34,
                "velocity": 116
            },
            {
                "start": 111.701625,
                "end": 111.77697927083335,
                "pitch": 34,
                "velocity": 116
            },
            {
                "start": 111.701625,
                "end": 111.77697927083335,
                "pitch": 46,
                "velocity": 116
            },
            {
                "start": 111.91439000000001,
                "end": 111.98974427083334,
                "pitch": 34,
                "velocity": 116
            },
            {
                "start": 112.12715500000002,
                "end": 112.20250927083335,
                "pitch": 34,
                "velocity": 116
            },
            {
                "start": 112.12715500000002,
                "end": 112.20250927083335,
                "pitch": 46,
                "velocity": 116
            },
            {
                "start": 112.33992,
                "end": 112.41527427083335,
                "pitch": 34,
                "velocity": 116
            },
            {
                "start": 112.55268500000001,
                "end": 112.62803927083334,
                "pitch": 34,
                "velocity": 116
            },
            {
                "start": 112.55268500000001,
                "end": 112.62803927083334,
                "pitch": 46,
                "velocity": 116
            },
            {
                "start": 112.76545000000002,
                "end": 112.84080427083335,
                "pitch": 34,
                "velocity": 116
            },
            {
                "start": 112.978215,
                "end": 113.05356927083335,
                "pitch": 34,
                "velocity": 116
            },
            {
                "start": 112.978215,
                "end": 113.05356927083335,
                "pitch": 46,
                "velocity": 116
            },
            {
                "start": 113.19098000000001,
                "end": 113.26633427083334,
                "pitch": 34,
                "velocity": 116
            },
            {
                "start": 113.40374500000001,
                "end": 113.47909927083334,
                "pitch": 34,
                "velocity": 116
            },
            {
                "start": 113.40374500000001,
                "end": 113.47909927083334,
                "pitch": 46,
                "velocity": 116
            },
            {
                "start": 113.61651000000002,
                "end": 113.69186427083335,
                "pitch": 34,
                "velocity": 116
            },
            {
                "start": 113.82927500000001,
                "end": 113.90462927083334,
                "pitch": 34,
                "velocity": 116
            },
            {
                "start": 113.82927500000001,
                "end": 113.90462927083334,
                "pitch": 46,
                "velocity": 116
            },
            {
                "start": 114.04204000000001,
                "end": 114.11739427083334,
                "pitch": 34,
                "velocity": 116
            },
            {
                "start": 114.25480500000002,
                "end": 114.33015927083335,
                "pitch": 34,
                "velocity": 116
            },
            {
                "start": 114.25480500000002,
                "end": 114.33015927083335,
                "pitch": 46,
                "velocity": 116
            },
            {
                "start": 114.46757000000001,
                "end": 114.54292427083334,
                "pitch": 34,
                "velocity": 116
            },
            {
                "start": 114.68033500000001,
                "end": 114.75568927083334,
                "pitch": 34,
                "velocity": 116
            },
            {
                "start": 114.68033500000001,
                "end": 114.75568927083334,
                "pitch": 46,
                "velocity": 116
            },
            {
                "start": 114.89310000000002,
                "end": 114.96845427083335,
                "pitch": 34,
                "velocity": 116
            },
            {
                "start": 115.10586500000001,
                "end": 115.18121927083335,
                "pitch": 34,
                "velocity": 116
            },
            {
                "start": 115.10586500000001,
                "end": 115.18121927083335,
                "pitch": 46,
                "velocity": 116
            },
            {
                "start": 115.31863000000001,
                "end": 115.39398427083334,
                "pitch": 34,
                "velocity": 116
            },
            {
                "start": 115.53139500000002,
                "end": 115.60674927083335,
                "pitch": 34,
                "velocity": 116
            },
            {
                "start": 115.53139500000002,
                "end": 115.60674927083335,
                "pitch": 46,
                "velocity": 116
            },
            {
                "start": 115.74416000000001,
                "end": 115.81951427083335,
                "pitch": 27,
                "velocity": 116
            },
            {
                "start": 115.95692500000001,
                "end": 116.03227927083334,
                "pitch": 27,
                "velocity": 116
            },
            {
                "start": 115.95692500000001,
                "end": 116.03227927083334,
                "pitch": 51,
                "velocity": 116
            },
            {
                "start": 116.16969000000002,
                "end": 116.24504427083335,
                "pitch": 27,
                "velocity": 116
            },
            {
                "start": 116.38245500000001,
                "end": 116.45780927083335,
                "pitch": 27,
                "velocity": 116
            },
            {
                "start": 116.38245500000001,
                "end": 116.45780927083335,
                "pitch": 51,
                "velocity": 116
            },
            {
                "start": 116.59522000000001,
                "end": 116.67057427083334,
                "pitch": 29,
                "velocity": 116
            },
            {
                "start": 116.80798500000002,
                "end": 116.88333927083335,
                "pitch": 27,
                "velocity": 116
            },
            {
                "start": 116.80798500000002,
                "end": 116.88333927083335,
                "pitch": 51,
                "velocity": 116
            },
            {
                "start": 117.02075,
                "end": 117.09610427083335,
                "pitch": 32,
                "velocity": 116
            },
            {
                "start": 117.23351500000001,
                "end": 117.30886927083334,
                "pitch": 32,
                "velocity": 116
            },
            {
                "start": 117.23351500000001,
                "end": 117.30886927083334,
                "pitch": 56,
                "velocity": 116
            }
        ],
        "pitch_classes": [
            0,
            0,
            0,
            21,
            0,
            5,
            0,
            0,
            7,
            0,
            76,
            0
        ],
        "velocity_mean": 116.0,
        "pitch_mean": 36.91743119266055,
        "pitch_std": 7.690251711282293,
        "duration_mean": 0.07535427083333317,
        "song_name": "No_Limit.1.mid",
        "tempo": 266.79067249094476,
        "time_signature": "4/4",
        "key": "C",
        "camelot_key": "5A",
        "maj_min": "minor"
    },
    "No_Limit.1.mid_198.83363191919906_216.8252654166667": {
        "instrument_no": 1,
        "instrument_category": "Bass",
        "program": 39,
        "is_drum": false,
        "section_start": 198.83363191919906,
        "section_end": 216.8252654166667,
        "notes": [
            {
                "start": 199.14804,
                "end": 199.22339427083335,
                "pitch": 34,
                "velocity": 116
            },
            {
                "start": 199.36080500000003,
                "end": 199.43615927083334,
                "pitch": 34,
                "velocity": 116
            },
            {
                "start": 199.57357000000002,
                "end": 199.64892427083336,
                "pitch": 34,
                "velocity": 116
            },
            {
                "start": 199.786335,
                "end": 199.86168927083335,
                "pitch": 34,
                "velocity": 116
            },
            {
                "start": 199.99910000000003,
                "end": 200.07445427083334,
                "pitch": 34,
                "velocity": 116
            },
            {
                "start": 200.21186500000002,
                "end": 200.28721927083336,
                "pitch": 34,
                "velocity": 116
            },
            {
                "start": 200.42463000000004,
                "end": 200.49998427083335,
                "pitch": 34,
                "velocity": 116
            },
            {
                "start": 200.63739500000003,
                "end": 200.71274927083334,
                "pitch": 34,
                "velocity": 116
            },
            {
                "start": 200.85016000000002,
                "end": 200.92551427083336,
                "pitch": 34,
                "velocity": 116
            },
            {
                "start": 201.06292500000004,
                "end": 201.13827927083335,
                "pitch": 34,
                "velocity": 116
            },
            {
                "start": 201.27569000000003,
                "end": 201.35104427083334,
                "pitch": 34,
                "velocity": 116
            },
            {
                "start": 201.48845500000002,
                "end": 201.56380927083336,
                "pitch": 34,
                "velocity": 116
            },
            {
                "start": 201.70122000000003,
                "end": 201.77657427083335,
                "pitch": 34,
                "velocity": 116
            },
            {
                "start": 201.91398500000003,
                "end": 201.98933927083337,
                "pitch": 34,
                "velocity": 116
            },
            {
                "start": 202.12675000000002,
                "end": 202.20210427083336,
                "pitch": 34,
                "velocity": 116
            },
            {
                "start": 202.33951500000003,
                "end": 202.41486927083335,
                "pitch": 34,
                "velocity": 116
            },
            {
                "start": 202.55228000000002,
                "end": 202.62763427083337,
                "pitch": 34,
                "velocity": 116
            },
            {
                "start": 202.76504500000001,
                "end": 202.84039927083336,
                "pitch": 34,
                "velocity": 116
            },
            {
                "start": 202.97781000000003,
                "end": 203.05316427083335,
                "pitch": 34,
                "velocity": 116
            },
            {
                "start": 203.19057500000002,
                "end": 203.26592927083337,
                "pitch": 34,
                "velocity": 116
            },
            {
                "start": 203.40334000000001,
                "end": 203.47869427083336,
                "pitch": 34,
                "velocity": 116
            },
            {
                "start": 203.61610500000003,
                "end": 203.69145927083335,
                "pitch": 34,
                "velocity": 116
            },
            {
                "start": 203.82887000000002,
                "end": 203.90422427083337,
                "pitch": 34,
                "velocity": 116
            },
            {
                "start": 204.041635,
                "end": 204.11698927083336,
                "pitch": 34,
                "velocity": 116
            },
            {
                "start": 204.25440000000003,
                "end": 204.32975427083335,
                "pitch": 27,
                "velocity": 116
            },
            {
                "start": 204.46716500000002,
                "end": 204.54251927083337,
                "pitch": 27,
                "velocity": 116
            },
            {
                "start": 204.67993,
                "end": 204.75528427083336,
                "pitch": 27,
                "velocity": 116
            },
            {
                "start": 204.89269500000003,
                "end": 204.96804927083335,
                "pitch": 27,
                "velocity": 116
            },
            {
                "start": 205.10546000000002,
                "end": 205.18081427083337,
                "pitch": 29,
                "velocity": 116
            },
            {
                "start": 205.318225,
                "end": 205.39357927083336,
                "pitch": 27,
                "velocity": 116
            },
            {
                "start": 205.53099000000003,
                "end": 205.60634427083335,
                "pitch": 32,
                "velocity": 116
            },
            {
                "start": 205.74375500000002,
                "end": 205.81910927083337,
                "pitch": 32,
                "velocity": 116
            },
            {
                "start": 205.95652,
                "end": 206.03187427083336,
                "pitch": 34,
                "velocity": 116
            },
            {
                "start": 206.16928500000003,
                "end": 206.24463927083335,
                "pitch": 34,
                "velocity": 116
            },
            {
                "start": 206.38205000000002,
                "end": 206.45740427083336,
                "pitch": 34,
                "velocity": 116
            },
            {
                "start": 206.594815,
                "end": 206.67016927083336,
                "pitch": 34,
                "velocity": 116
            },
            {
                "start": 206.80758000000003,
                "end": 206.88293427083335,
                "pitch": 34,
                "velocity": 116
            },
            {
                "start": 207.02034500000002,
                "end": 207.09569927083336,
                "pitch": 34,
                "velocity": 116
            },
            {
                "start": 207.23311,
                "end": 207.30846427083335,
                "pitch": 34,
                "velocity": 116
            },
            {
                "start": 207.44587500000003,
                "end": 207.52122927083335,
                "pitch": 34,
                "velocity": 116
            },
            {
                "start": 207.65864000000002,
                "end": 207.73399427083336,
                "pitch": 34,
                "velocity": 116
            },
            {
                "start": 207.871405,
                "end": 207.94675927083335,
                "pitch": 34,
                "velocity": 116
            },
            {
                "start": 208.08417000000003,
                "end": 208.15952427083334,
                "pitch": 34,
                "velocity": 116
            },
            {
                "start": 208.29693500000002,
                "end": 208.37228927083336,
                "pitch": 34,
                "velocity": 116
            },
            {
                "start": 208.5097,
                "end": 208.58505427083335,
                "pitch": 34,
                "velocity": 116
            },
            {
                "start": 208.72246500000003,
                "end": 208.79781927083334,
                "pitch": 34,
                "velocity": 116
            },
            {
                "start": 208.93523000000002,
                "end": 209.01058427083336,
                "pitch": 34,
                "velocity": 116
            },
            {
                "start": 209.14799500000004,
                "end": 209.22334927083335,
                "pitch": 34,
                "velocity": 116
            },
            {
                "start": 209.36076000000003,
                "end": 209.43611427083334,
                "pitch": 34,
                "velocity": 116
            },
            {
                "start": 209.57352500000002,
                "end": 209.64887927083336,
                "pitch": 34,
                "velocity": 116
            },
            {
                "start": 209.78629000000004,
                "end": 209.86164427083335,
                "pitch": 34,
                "velocity": 116
            },
            {
                "start": 209.99905500000003,
                "end": 210.07440927083334,
                "pitch": 34,
                "velocity": 116
            },
            {
                "start": 210.21182000000002,
                "end": 210.28717427083336,
                "pitch": 34,
                "velocity": 116
            },
            {
                "start": 210.42458500000004,
                "end": 210.49993927083335,
                "pitch": 34,
                "velocity": 116
            },
            {
                "start": 210.63735000000003,
                "end": 210.71270427083337,
                "pitch": 34,
                "velocity": 116
            },
            {
                "start": 210.85011500000002,
                "end": 210.92546927083336,
                "pitch": 34,
                "velocity": 116
            },
            {
                "start": 211.06288000000004,
                "end": 211.13823427083335,
                "pitch": 27,
                "velocity": 116
            },
            {
                "start": 211.27564500000003,
                "end": 211.35099927083337,
                "pitch": 27,
                "velocity": 116
            },
            {
                "start": 211.48841000000002,
                "end": 211.56376427083336,
                "pitch": 27,
                "velocity": 116
            },
            {
                "start": 211.70117500000003,
                "end": 211.77652927083335,
                "pitch": 27,
                "velocity": 116
            },
            {
                "start": 211.91394000000003,
                "end": 211.98929427083337,
                "pitch": 29,
                "velocity": 116
            },
            {
                "start": 212.12670500000002,
                "end": 212.20205927083336,
                "pitch": 27,
                "velocity": 116
            },
            {
                "start": 212.33947000000003,
                "end": 212.41482427083335,
                "pitch": 32,
                "velocity": 116
            },
            {
                "start": 212.55223500000002,
                "end": 212.62758927083337,
                "pitch": 32,
                "velocity": 116
            },
            {
                "start": 212.76500000000001,
                "end": 212.84035427083336,
                "pitch": 34,
                "velocity": 116
            }
        ],
        "pitch_classes": [
            0,
            0,
            0,
            10,
            0,
            2,
            0,
            0,
            4,
            0,
            49,
            0
        ],
        "velocity_mean": 116.0,
        "pitch_mean": 32.646153846153844,
        "pitch_std": 2.592478880446691,
        "duration_mean": 0.07535427083333275,
        "song_name": "No_Limit.1.mid",
        "tempo": 266.79067249094476,
        "time_signature": "4/4",
        "key": "C",
        "camelot_key": "5A",
        "maj_min": "minor"
    },
    "Let_the_Beat_Control_Your_Body.3.mid_0.0_18.671657739101423": {
        "instrument_no": 0,
        "instrument_category": "Other",
        "program": 53,
        "is_drum": false,
        "section_start": 0.0,
        "section_end": 18.671657739101423,
        "notes": [
            {
                "start": 1.7142840000000001,
                "end": 1.7633910937500001,
                "pitch": 55,
                "velocity": 84
            },
            {
                "start": 1.9285695,
                "end": 2.03571225,
                "pitch": 55,
                "velocity": 83
            },
            {
                "start": 2.03571225,
                "end": 2.15624784375,
                "pitch": 56,
                "velocity": 83
            },
            {
                "start": 2.3571405000000003,
                "end": 2.45981896875,
                "pitch": 55,
                "velocity": 83
            },
            {
                "start": 2.571426,
                "end": 2.6852651718750002,
                "pitch": 55,
                "velocity": 82
            },
            {
                "start": 2.7857115,
                "end": 2.8816935468750002,
                "pitch": 55,
                "velocity": 82
            },
            {
                "start": 2.9999970000000005,
                "end": 3.2232110625000003,
                "pitch": 54,
                "velocity": 82
            },
            {
                "start": 3.2142825000000004,
                "end": 3.3482109375,
                "pitch": 53,
                "velocity": 81
            },
            {
                "start": 3.4285680000000003,
                "end": 3.4776750937500003,
                "pitch": 55,
                "velocity": 84
            },
            {
                "start": 3.6428535,
                "end": 3.74999625,
                "pitch": 55,
                "velocity": 83
            },
            {
                "start": 3.74999625,
                "end": 3.8705318437500003,
                "pitch": 56,
                "velocity": 83
            },
            {
                "start": 4.0714245,
                "end": 4.174102968750001,
                "pitch": 55,
                "velocity": 83
            },
            {
                "start": 4.28571,
                "end": 4.399549171875,
                "pitch": 55,
                "velocity": 82
            },
            {
                "start": 4.499995500000001,
                "end": 4.595977546875001,
                "pitch": 55,
                "velocity": 82
            },
            {
                "start": 4.714281000000001,
                "end": 4.9374950625,
                "pitch": 54,
                "velocity": 82
            },
            {
                "start": 4.9285665000000005,
                "end": 5.0624949375,
                "pitch": 53,
                "velocity": 81
            },
            {
                "start": 11.999988000000002,
                "end": 12.049095093750001,
                "pitch": 55,
                "velocity": 84
            },
            {
                "start": 12.214273500000001,
                "end": 12.32141625,
                "pitch": 55,
                "velocity": 83
            },
            {
                "start": 12.32141625,
                "end": 12.441951843750001,
                "pitch": 56,
                "velocity": 83
            },
            {
                "start": 12.6428445,
                "end": 12.74552296875,
                "pitch": 55,
                "velocity": 83
            },
            {
                "start": 12.857130000000002,
                "end": 12.970969171875002,
                "pitch": 55,
                "velocity": 82
            },
            {
                "start": 13.0714155,
                "end": 13.167397546875002,
                "pitch": 55,
                "velocity": 82
            },
            {
                "start": 13.285701000000001,
                "end": 13.508915062500002,
                "pitch": 54,
                "velocity": 82
            },
            {
                "start": 13.4999865,
                "end": 13.633914937500002,
                "pitch": 53,
                "velocity": 81
            },
            {
                "start": 13.714272000000001,
                "end": 13.763379093750002,
                "pitch": 55,
                "velocity": 84
            },
            {
                "start": 13.928557500000002,
                "end": 14.035700250000001,
                "pitch": 55,
                "velocity": 83
            },
            {
                "start": 14.035700250000001,
                "end": 14.156235843750002,
                "pitch": 56,
                "velocity": 83
            },
            {
                "start": 14.357128500000002,
                "end": 14.459806968750001,
                "pitch": 55,
                "velocity": 83
            },
            {
                "start": 14.571414,
                "end": 14.685253171875,
                "pitch": 55,
                "velocity": 82
            },
            {
                "start": 14.785699500000002,
                "end": 14.881681546875,
                "pitch": 55,
                "velocity": 82
            },
            {
                "start": 14.999985,
                "end": 15.2231990625,
                "pitch": 54,
                "velocity": 82
            },
            {
                "start": 15.214270500000001,
                "end": 15.348198937500001,
                "pitch": 53,
                "velocity": 81
            }
        ],
        "pitch_classes": [
            0,
            0,
            0,
            0,
            0,
            4,
            4,
            20,
            4,
            0,
            0,
            0
        ],
        "velocity_mean": 82.5,
        "pitch_mean": 54.75,
        "pitch_std": 0.82915619758885,
        "duration_mean": 0.11830345312500005,
        "song_name": "Let_the_Beat_Control_Your_Body.3.mid",
        "tempo": 257.07412095220855,
        "time_signature": "4/4",
        "key": "C",
        "camelot_key": "5A",
        "maj_min": "minor"
    },
    "Let_the_Beat_Control_Your_Body.3.mid_102.1997738804493_120.87143161955072": {
        "instrument_no": 8,
        "instrument_category": "Other",
        "program": 50,
        "is_drum": false,
        "section_start": 102.1997738804493,
        "section_end": 120.87143161955072,
        "notes": [
            {
                "start": 114.85702800000001,
                "end": 116.56684771875001,
                "pitch": 63,
                "velocity": 107
            },
            {
                "start": 114.85702800000001,
                "end": 116.56684771875001,
                "pitch": 68,
                "velocity": 107
            },
            {
                "start": 114.85702800000001,
                "end": 116.56684771875001,
                "pitch": 59,
                "velocity": 107
            },
            {
                "start": 116.571312,
                "end": 117.42398971875001,
                "pitch": 61,
                "velocity": 107
            },
            {
                "start": 116.571312,
                "end": 117.42398971875001,
                "pitch": 56,
                "velocity": 107
            },
            {
                "start": 116.571312,
                "end": 117.42398971875001,
                "pitch": 65,
                "velocity": 107
            },
            {
                "start": 117.42845400000002,
                "end": 118.28113171875,
                "pitch": 66,
                "velocity": 107
            },
            {
                "start": 117.42845400000002,
                "end": 118.28113171875,
                "pitch": 61,
                "velocity": 107
            },
            {
                "start": 117.42845400000002,
                "end": 118.28113171875,
                "pitch": 58,
                "velocity": 107
            },
            {
                "start": 118.28559600000001,
                "end": 119.99541571875001,
                "pitch": 63,
                "velocity": 107
            },
            {
                "start": 118.28559600000001,
                "end": 119.99541571875001,
                "pitch": 68,
                "velocity": 107
            },
            {
                "start": 118.28559600000001,
                "end": 119.99541571875001,
                "pitch": 59,
                "velocity": 107
            },
            {
                "start": 119.99988,
                "end": 120.85255771875,
                "pitch": 61,
                "velocity": 107
            },
            {
                "start": 119.99988,
                "end": 120.85255771875,
                "pitch": 56,
                "velocity": 107
            },
            {
                "start": 119.99988,
                "end": 120.85255771875,
                "pitch": 65,
                "velocity": 107
            },
            {
                "start": 120.85702200000001,
                "end": 121.70969971875002,
                "pitch": 58,
                "velocity": 107
            },
            {
                "start": 120.85702200000001,
                "end": 121.70969971875002,
                "pitch": 66,
                "velocity": 107
            },
            {
                "start": 120.85702200000001,
                "end": 121.70969971875002,
                "pitch": 61,
                "velocity": 107
            }
        ],
        "pitch_classes": [
            0,
            4,
            0,
            2,
            0,
            2,
            2,
            0,
            4,
            0,
            2,
            2
        ],
        "velocity_mean": 107.0,
        "pitch_mean": 61.888888888888886,
        "pitch_std": 3.725123247608936,
        "duration_mean": 1.138391718749998,
        "song_name": "Let_the_Beat_Control_Your_Body.3.mid",
        "tempo": 257.07412095220855,
        "time_signature": "4/4",
        "key": "Eb",
        "camelot_key": "2A",
        "maj_min": "minor"
    },
    "Let_the_Beat_Control_Your_Body.3.mid_204.3995477608986_223.07120550000002": {
        "instrument_no": 9,
        "instrument_category": "Other",
        "program": 48,
        "is_drum": false,
        "section_start": 204.3995477608986,
        "section_end": 223.07120550000002,
        "notes": [
            {
                "start": 221.142636,
                "end": 221.46406425,
                "pitch": 44,
                "velocity": 103
            },
            {
                "start": 221.142636,
                "end": 221.46406425,
                "pitch": 68,
                "velocity": 119
            },
            {
                "start": 221.142636,
                "end": 221.470760671875,
                "pitch": 56,
                "velocity": 119
            },
            {
                "start": 221.142636,
                "end": 221.48415351562502,
                "pitch": 51,
                "velocity": 115
            },
            {
                "start": 221.142636,
                "end": 221.48861779687502,
                "pitch": 75,
                "velocity": 123
            },
            {
                "start": 221.142636,
                "end": 221.493082078125,
                "pitch": 80,
                "velocity": 115
            }
        ],
        "pitch_classes": [
            0,
            0,
            0,
            2,
            0,
            0,
            0,
            0,
            4,
            0,
            0,
            0
        ],
        "velocity_mean": 115.66666666666667,
        "pitch_mean": 62.333333333333336,
        "pitch_std": 12.970050972229146,
        "duration_mean": 0.33482109375000374,
        "song_name": "Let_the_Beat_Control_Your_Body.3.mid",
        "tempo": 257.07412095220855,
        "time_signature": "4/4",
        "key": "C",
        "camelot_key": "5A",
        "maj_min": "minor"
    },
    "Let_the_Beat_Control_Your_Body.2.mid_0.0_17.517606043594498": {
        "instrument_no": 3,
        "instrument_category": "Other",
        "program": 62,
        "is_drum": false,
        "section_start": 0.0,
        "section_end": 17.517606043594498,
        "notes": [
            {
                "start": 13.519744,
                "end": 13.739791916666666,
                "pitch": 32,
                "velocity": 75
            },
            {
                "start": 16.89968,
                "end": 17.119727916666665,
                "pitch": 32,
                "velocity": 75
            }
        ],
        "pitch_classes": [
            0,
            0,
            0,
            0,
            0,
            0,
            0,
            0,
            2,
            0,
            0,
            0
        ],
        "velocity_mean": 75.0,
        "pitch_mean": 32.0,
        "pitch_std": 0.0,
        "duration_mean": 0.22004791666666623,
        "song_name": "Let_the_Beat_Control_Your_Body.2.mid",
        "tempo": 274.01004384130283,
        "time_signature": "4/4",
        "key": "C",
        "camelot_key": "5A",
        "maj_min": "minor"
    },
    "Let_the_Beat_Control_Your_Body.2.mid_101.31356585320275_118.83117189679724": {
        "instrument_no": 7,
        "instrument_category": "Other",
        "program": 50,
        "is_drum": false,
        "section_start": 101.31356585320275,
        "section_end": 118.83117189679724,
        "notes": [
            {
                "start": 114.917824,
                "end": 116.56378241666665,
                "pitch": 68,
                "velocity": 60
            },
            {
                "start": 114.917824,
                "end": 116.57258433333332,
                "pitch": 59,
                "velocity": 60
            },
            {
                "start": 114.917824,
                "end": 116.58578720833333,
                "pitch": 63,
                "velocity": 60
            },
            {
                "start": 116.60779199999999,
                "end": 117.40876641666667,
                "pitch": 65,
                "velocity": 60
            },
            {
                "start": 116.60779199999999,
                "end": 117.413167375,
                "pitch": 56,
                "velocity": 60
            },
            {
                "start": 117.452776,
                "end": 118.26255233333333,
                "pitch": 58,
                "velocity": 60
            },
            {
                "start": 117.452776,
                "end": 118.27135424999999,
                "pitch": 66,
                "velocity": 60
            },
            {
                "start": 116.60779199999999,
                "end": 118.27135424999999,
                "pitch": 61,
                "velocity": 60
            },
            {
                "start": 118.29776,
                "end": 119.94371841666666,
                "pitch": 68,
                "velocity": 60
            },
            {
                "start": 118.29776,
                "end": 119.95252033333333,
                "pitch": 59,
                "velocity": 60
            },
            {
                "start": 118.29776,
                "end": 119.96572320833333,
                "pitch": 63,
                "velocity": 60
            }
        ],
        "pitch_classes": [
            0,
            1,
            0,
            2,
            0,
            1,
            1,
            0,
            3,
            0,
            1,
            2
        ],
        "velocity_mean": 60.0,
        "pitch_mean": 62.36363636363637,
        "pitch_std": 3.9143727530201793,
        "duration_mean": 1.3486936856060587,
        "song_name": "Let_the_Beat_Control_Your_Body.2.mid",
        "tempo": 274.01004384130283,
        "time_signature": "4/4",
        "key": "Eb",
        "camelot_key": "2A",
        "maj_min": "minor"
    },
    "Let_the_Beat_Control_Your_Body.2.mid_202.6271317064055_220.14473775": {
        "instrument_no": 9,
        "instrument_category": "Other",
        "program": 55,
        "is_drum": false,
        "section_start": 202.6271317064055,
        "section_end": 220.14473775,
        "notes": [
            {
                "start": 219.69583999999998,
                "end": 220.14473775,
                "pitch": 68,
                "velocity": 110
            }
        ],
        "pitch_classes": [
            0,
            0,
            0,
            0,
            0,
            0,
            0,
            0,
            1,
            0,
            0,
            0
        ],
        "velocity_mean": 110.0,
        "pitch_mean": 68.0,
        "pitch_std": 0.0,
        "duration_mean": 0.44889775000001464,
        "song_name": "Let_the_Beat_Control_Your_Body.2.mid",
        "tempo": 274.01004384130283,
        "time_signature": "4/4",
        "key": "C",
        "camelot_key": "5A",
        "maj_min": "minor"
    },
    "No_Limit.2.mid_0.0_19.495507625786203": {
        "instrument_no": 3,
        "instrument_category": "Other",
        "program": 122,
        "is_drum": false,
        "section_start": 0.0,
        "section_end": 19.495507625786203,
        "notes": [
            {
                "start": 16.0543428125,
                "end": 17.847894635416665,
                "pitch": 69,
                "velocity": 100
            },
            {
                "start": 16.0543428125,
                "end": 17.847894635416665,
                "pitch": 67,
                "velocity": 100
            },
            {
                "start": 16.0543428125,
                "end": 17.847894635416665,
                "pitch": 65,
                "velocity": 100
            },
            {
                "start": 16.0543428125,
                "end": 17.847894635416665,
                "pitch": 64,
                "velocity": 100
            },
            {
                "start": 16.0543428125,
                "end": 17.847894635416665,
                "pitch": 62,
                "velocity": 100
            },
            {
                "start": 16.0543428125,
                "end": 17.847894635416665,
                "pitch": 60,
                "velocity": 100
            }
        ],
        "pitch_classes": [
            1,
            0,
            1,
            0,
            1,
            1,
            0,
            1,
            0,
            1,
            0,
            0
        ],
        "velocity_mean": 100.0,
        "pitch_mean": 64.5,
        "pitch_std": 2.9860788111948193,
        "duration_mean": 1.7935518229166654,
        "song_name": "No_Limit.2.mid",
        "tempo": 246.21056769258803,
        "time_signature": "4/4",
        "key": "C",
        "camelot_key": "8B",
        "maj_min": "major"
    },
    "Have_a_Nice_Day.mid_173.05208333333337_193.0": {
        "instrument_no": 21,
        "instrument_category": "Other",
        "program": 57,
        "is_drum": false,
        "section_start": 173.05208333333337,
        "section_end": 193.0,
        "notes": [
            {
                "start": 174.33333333333334,
                "end": 174.925,
                "pitch": 43,
                "velocity": 75
            },
            {
                "start": 175.0,
                "end": 175.1625,
                "pitch": 43,
                "velocity": 75
            },
            {
                "start": 175.5,
                "end": 175.6625,
                "pitch": 43,
                "velocity": 75
            },
            {
                "start": 176.0,
                "end": 176.81458333333333,
                "pitch": 48,
                "velocity": 75
            },
            {
                "start": 176.83333333333334,
                "end": 177.9375,
                "pitch": 48,
                "velocity": 75
            },
            {
                "start": 178.33333333333334,
                "end": 179.975,
                "pitch": 48,
                "velocity": 69
            },
            {
                "start": 180.0,
                "end": 181.91458333333333,
                "pitch": 45,
                "velocity": 69
            },
            {
                "start": 188.83333333333334,
                "end": 192.975,
                "pitch": 41,
                "velocity": 40
            }
        ],
        "pitch_classes": [
            3,
            0,
            0,
            0,
            0,
            1,
            0,
            3,
            0,
            1,
            0,
            0
        ],
        "velocity_mean": 69.125,
        "pitch_mean": 44.875,
        "pitch_std": 2.6190408549696205,
        "duration_mean": 1.3166666666666593,
        "song_name": "Have_a_Nice_Day.mid",
        "tempo": 240.6266318537862,
        "time_signature": "4/4",
        "key": "C",
        "camelot_key": "8B",
        "maj_min": "major"
    },
    "I_Wont_Let_You_Down.mid_0.0_18.637934745762674": {
        "instrument_no": 3,
        "instrument_category": "Other",
        "program": 57,
        "is_drum": false,
        "section_start": 0.0,
        "section_end": 18.637934745762674,
        "notes": [
            {
                "start": 5.949894843749999,
                "end": 6.029259843749999,
                "pitch": 75,
                "velocity": 96
            },
            {
                "start": 6.18798984375,
                "end": 6.391362656249999,
                "pitch": 77,
                "velocity": 96
            },
            {
                "start": 6.426084843749999,
                "end": 6.495529218749999,
                "pitch": 75,
                "velocity": 69
            },
            {
                "start": 6.545132343749999,
                "end": 6.666659999999999,
                "pitch": 77,
                "velocity": 96
            },
            {
                "start": 6.902274843749999,
                "end": 7.1031675,
                "pitch": 79,
                "velocity": 101
            },
            {
                "start": 7.854654843749999,
                "end": 7.943940468749999,
                "pitch": 75,
                "velocity": 78
            },
            {
                "start": 8.09274984375,
                "end": 8.244039375,
                "pitch": 77,
                "velocity": 106
            },
            {
                "start": 8.330844843749999,
                "end": 8.4176503125,
                "pitch": 75,
                "velocity": 68
            },
            {
                "start": 8.44989234375,
                "end": 8.566459687499998,
                "pitch": 77,
                "velocity": 88
            },
            {
                "start": 8.687987343749999,
                "end": 8.854157812499999,
                "pitch": 79,
                "velocity": 100
            },
            {
                "start": 9.045129843749999,
                "end": 9.3005859375,
                "pitch": 72,
                "velocity": 96
            },
            {
                "start": 9.75941484375,
                "end": 9.85366078125,
                "pitch": 75,
                "velocity": 78
            },
            {
                "start": 9.997509843749999,
                "end": 10.173600937499998,
                "pitch": 77,
                "velocity": 106
            },
            {
                "start": 10.235604843749998,
                "end": 10.31745,
                "pitch": 75,
                "velocity": 58
            },
            {
                "start": 10.354652343749999,
                "end": 10.47866015625,
                "pitch": 77,
                "velocity": 92
            },
            {
                "start": 10.711794843749999,
                "end": 10.907727187499999,
                "pitch": 79,
                "velocity": 104
            },
            {
                "start": 11.664174843749999,
                "end": 11.755940625,
                "pitch": 75,
                "velocity": 78
            },
            {
                "start": 11.902269843749998,
                "end": 12.08332125,
                "pitch": 77,
                "velocity": 100
            },
            {
                "start": 12.140364843749998,
                "end": 12.222209999999999,
                "pitch": 75,
                "velocity": 64
            },
            {
                "start": 12.259412343749998,
                "end": 12.363578906249998,
                "pitch": 77,
                "velocity": 92
            },
            {
                "start": 12.497507343749998,
                "end": 12.641356406249999,
                "pitch": 79,
                "velocity": 96
            },
            {
                "start": 12.854649843749998,
                "end": 13.058022656249998,
                "pitch": 72,
                "velocity": 96
            },
            {
                "start": 13.55405390625,
                "end": 13.633418906249998,
                "pitch": 75,
                "velocity": 96
            },
            {
                "start": 13.792148906249999,
                "end": 13.995521718749998,
                "pitch": 77,
                "velocity": 96
            },
            {
                "start": 14.030243906249998,
                "end": 14.099688281249998,
                "pitch": 75,
                "velocity": 69
            },
            {
                "start": 14.149291406249999,
                "end": 14.270819062499998,
                "pitch": 77,
                "velocity": 96
            },
            {
                "start": 14.506433906249999,
                "end": 14.707326562499999,
                "pitch": 79,
                "velocity": 101
            },
            {
                "start": 15.458813906249999,
                "end": 15.548099531249997,
                "pitch": 75,
                "velocity": 78
            },
            {
                "start": 15.696908906249998,
                "end": 15.848198437499999,
                "pitch": 77,
                "velocity": 106
            },
            {
                "start": 15.935003906249998,
                "end": 16.021809374999997,
                "pitch": 75,
                "velocity": 68
            },
            {
                "start": 16.054051406249997,
                "end": 16.17061875,
                "pitch": 77,
                "velocity": 88
            },
            {
                "start": 16.292146406249998,
                "end": 16.458316874999998,
                "pitch": 79,
                "velocity": 100
            },
            {
                "start": 16.64928890625,
                "end": 16.904745,
                "pitch": 72,
                "velocity": 96
            },
            {
                "start": 17.363573906249997,
                "end": 17.45781984375,
                "pitch": 75,
                "velocity": 78
            },
            {
                "start": 17.601668906249998,
                "end": 17.777759999999997,
                "pitch": 77,
                "velocity": 106
            },
            {
                "start": 17.83976390625,
                "end": 17.921609062499996,
                "pitch": 75,
                "velocity": 58
            },
            {
                "start": 17.95881140625,
                "end": 18.082819218749997,
                "pitch": 77,
                "velocity": 92
            },
            {
                "start": 18.315953906249998,
                "end": 18.511886249999996,
                "pitch": 79,
                "velocity": 104
            }
        ],
        "pitch_classes": [
            3,
            0,
            0,
            14,
            0,
            14,
            0,
            7,
            0,
            0,
            0,
            0
        ],
        "velocity_mean": 89.21052631578948,
        "pitch_mean": 76.23684210526316,
        "pitch_std": 1.8978410244318729,
        "duration_mean": 0.13764867187499985,
        "song_name": "I_Wont_Let_You_Down.mid",
        "tempo": 257.53926416612643,
        "time_signature": "4/4",
        "key": "C",
        "camelot_key": "5A",
        "maj_min": "minor"
    },
    "I_Wont_Let_You_Down.mid_113.56037403336866_132.19830877913134": {
        "instrument_no": 3,
        "instrument_category": "Other",
        "program": 57,
        "is_drum": false,
        "section_start": 113.56037403336866,
        "section_end": 132.19830877913134,
        "notes": [
            {
                "start": 115.70920968749999,
                "end": 115.94482453124999,
                "pitch": 80,
                "velocity": 119
            },
            {
                "start": 116.18787984374998,
                "end": 116.48549859374998,
                "pitch": 79,
                "velocity": 119
            },
            {
                "start": 119.52120984374999,
                "end": 119.75682468749999,
                "pitch": 80,
                "velocity": 119
            },
            {
                "start": 119.99739984374999,
                "end": 120.18837187499999,
                "pitch": 79,
                "velocity": 119
            },
            {
                "start": 120.23549484374999,
                "end": 120.40414546874999,
                "pitch": 79,
                "velocity": 109
            },
            {
                "start": 120.48847078124999,
                "end": 120.61743890624999,
                "pitch": 79,
                "velocity": 106
            },
            {
                "start": 120.72408562499999,
                "end": 120.87289499999999,
                "pitch": 79,
                "velocity": 92
            },
            {
                "start": 120.98946234374999,
                "end": 121.15563281249999,
                "pitch": 79,
                "velocity": 96
            },
            {
                "start": 121.32180328124998,
                "end": 121.47805312499999,
                "pitch": 77,
                "velocity": 110
            },
            {
                "start": 121.65166406249999,
                "end": 121.77567187499999,
                "pitch": 75,
                "velocity": 110
            },
            {
                "start": 121.80543374999999,
                "end": 121.94680265624999,
                "pitch": 77,
                "velocity": 92
            },
            {
                "start": 121.96912406249999,
                "end": 122.31882609374999,
                "pitch": 75,
                "velocity": 110
            },
            {
                "start": 123.10999593749999,
                "end": 123.28360687499999,
                "pitch": 72,
                "velocity": 106
            },
            {
                "start": 123.46465828124998,
                "end": 123.62834859374999,
                "pitch": 72,
                "velocity": 110
            },
            {
                "start": 123.81932062499999,
                "end": 124.04005453125,
                "pitch": 70,
                "velocity": 116
            },
            {
                "start": 124.07973703124999,
                "end": 124.24342734374999,
                "pitch": 75,
                "velocity": 116
            },
            {
                "start": 127.85453484374999,
                "end": 128.02318546874997,
                "pitch": 79,
                "velocity": 109
            },
            {
                "start": 128.10751078125,
                "end": 128.23647890625,
                "pitch": 79,
                "velocity": 106
            },
            {
                "start": 128.343125625,
                "end": 128.49193499999998,
                "pitch": 79,
                "velocity": 92
            },
            {
                "start": 128.60850234375,
                "end": 128.77467281249997,
                "pitch": 79,
                "velocity": 96
            },
            {
                "start": 128.94084328124998,
                "end": 129.097093125,
                "pitch": 77,
                "velocity": 110
            },
            {
                "start": 129.2707040625,
                "end": 129.39471187499998,
                "pitch": 75,
                "velocity": 110
            },
            {
                "start": 129.42447374999998,
                "end": 129.56584265625,
                "pitch": 77,
                "velocity": 92
            },
            {
                "start": 129.5881640625,
                "end": 129.93786609375,
                "pitch": 75,
                "velocity": 110
            },
            {
                "start": 130.7290359375,
                "end": 130.902646875,
                "pitch": 72,
                "velocity": 106
            },
            {
                "start": 131.08369828124998,
                "end": 131.24738859374997,
                "pitch": 72,
                "velocity": 110
            },
            {
                "start": 131.43836062499997,
                "end": 131.65909453125,
                "pitch": 70,
                "velocity": 116
            },
            {
                "start": 131.69877703125,
                "end": 131.86246734374998,
                "pitch": 75,
                "velocity": 116
            }
        ],
        "pitch_classes": [
            4,
            0,
            0,
            6,
            0,
            4,
            0,
            10,
            2,
            0,
            2,
            0
        ],
        "velocity_mean": 107.92857142857143,
        "pitch_mean": 76.28571428571429,
        "pitch_std": 3.080551236121118,
        "duration_mean": 0.18468306361607034,
        "song_name": "I_Wont_Let_You_Down.mid",
        "tempo": 257.53926416612643,
        "time_signature": "4/4",
        "key": "C",
        "camelot_key": "5A",
        "maj_min": "minor"
    },
    "Come_Take_My_Hand.mid_216.64601885118043_245.16750878124998": {
        "instrument_no": 7,
        "instrument_category": "Other",
        "program": 81,
        "is_drum": false,
        "section_start": 216.64601885118043,
        "section_end": 245.16750878124998,
        "notes": [
            {
                "start": 220.000088,
                "end": 220.17865949999998,
                "pitch": 65,
                "velocity": 117
            },
            {
                "start": 220.17865949999998,
                "end": 220.35723099999998,
                "pitch": 57,
                "velocity": 117
            },
            {
                "start": 220.35723099999998,
                "end": 220.5358025,
                "pitch": 64,
                "velocity": 117
            },
            {
                "start": 220.5358025,
                "end": 220.714374,
                "pitch": 57,
                "velocity": 117
            },
            {
                "start": 220.714374,
                "end": 220.8929455,
                "pitch": 62,
                "velocity": 117
            },
            {
                "start": 220.8929455,
                "end": 221.071517,
                "pitch": 57,
                "velocity": 117
            },
            {
                "start": 221.071517,
                "end": 221.2500885,
                "pitch": 64,
                "velocity": 117
            },
            {
                "start": 221.2500885,
                "end": 221.42865999999998,
                "pitch": 57,
                "velocity": 117
            },
            {
                "start": 221.42865999999998,
                "end": 221.60723149999998,
                "pitch": 65,
                "velocity": 117
            },
            {
                "start": 221.60723149999998,
                "end": 221.785803,
                "pitch": 57,
                "velocity": 117
            },
            {
                "start": 221.785803,
                "end": 221.9643745,
                "pitch": 64,
                "velocity": 117
            },
            {
                "start": 221.9643745,
                "end": 222.142946,
                "pitch": 57,
                "velocity": 117
            },
            {
                "start": 222.142946,
                "end": 222.3215175,
                "pitch": 65,
                "velocity": 117
            },
            {
                "start": 222.3215175,
                "end": 222.500089,
                "pitch": 57,
                "velocity": 117
            },
            {
                "start": 222.500089,
                "end": 222.6786605,
                "pitch": 67,
                "velocity": 117
            },
            {
                "start": 222.6786605,
                "end": 222.85723199999998,
                "pitch": 57,
                "velocity": 117
            },
            {
                "start": 222.85723199999998,
                "end": 223.0358035,
                "pitch": 64,
                "velocity": 117
            },
            {
                "start": 223.0358035,
                "end": 223.214375,
                "pitch": 57,
                "velocity": 117
            },
            {
                "start": 223.214375,
                "end": 223.3929465,
                "pitch": 62,
                "velocity": 117
            },
            {
                "start": 223.3929465,
                "end": 223.571518,
                "pitch": 57,
                "velocity": 117
            },
            {
                "start": 223.571518,
                "end": 223.7500895,
                "pitch": 60,
                "velocity": 117
            },
            {
                "start": 223.7500895,
                "end": 223.928661,
                "pitch": 57,
                "velocity": 117
            },
            {
                "start": 223.928661,
                "end": 224.10723249999998,
                "pitch": 62,
                "velocity": 117
            },
            {
                "start": 224.28580399999998,
                "end": 224.4643755,
                "pitch": 64,
                "velocity": 117
            },
            {
                "start": 224.10723249999998,
                "end": 224.642947,
                "pitch": 57,
                "velocity": 117
            },
            {
                "start": 224.4643755,
                "end": 224.642947,
                "pitch": 57,
                "velocity": 117
            },
            {
                "start": 224.642947,
                "end": 224.8215185,
                "pitch": 62,
                "velocity": 117
            },
            {
                "start": 224.8215185,
                "end": 225.00009,
                "pitch": 57,
                "velocity": 117
            },
            {
                "start": 225.00009,
                "end": 225.1786615,
                "pitch": 64,
                "velocity": 117
            },
            {
                "start": 225.1786615,
                "end": 225.35723299999998,
                "pitch": 57,
                "velocity": 117
            },
            {
                "start": 225.35723299999998,
                "end": 225.53580449999998,
                "pitch": 65,
                "velocity": 117
            },
            {
                "start": 225.53580449999998,
                "end": 225.714376,
                "pitch": 57,
                "velocity": 117
            },
            {
                "start": 225.714376,
                "end": 225.8929475,
                "pitch": 67,
                "velocity": 117
            },
            {
                "start": 225.8929475,
                "end": 226.071519,
                "pitch": 60,
                "velocity": 117
            },
            {
                "start": 226.071519,
                "end": 226.2500905,
                "pitch": 65,
                "velocity": 117
            },
            {
                "start": 226.2500905,
                "end": 226.428662,
                "pitch": 60,
                "velocity": 117
            },
            {
                "start": 226.428662,
                "end": 226.6072335,
                "pitch": 64,
                "velocity": 117
            },
            {
                "start": 226.6072335,
                "end": 226.78580499999998,
                "pitch": 60,
                "velocity": 117
            },
            {
                "start": 226.78580499999998,
                "end": 226.9643765,
                "pitch": 65,
                "velocity": 117
            },
            {
                "start": 227.142948,
                "end": 227.3215195,
                "pitch": 67,
                "velocity": 117
            },
            {
                "start": 226.9643765,
                "end": 227.500091,
                "pitch": 60,
                "velocity": 117
            },
            {
                "start": 227.3215195,
                "end": 227.500091,
                "pitch": 60,
                "velocity": 117
            },
            {
                "start": 227.500091,
                "end": 227.6786625,
                "pitch": 65,
                "velocity": 117
            },
            {
                "start": 227.6786625,
                "end": 227.857234,
                "pitch": 60,
                "velocity": 117
            },
            {
                "start": 227.857234,
                "end": 228.03580549999998,
                "pitch": 67,
                "velocity": 117
            },
            {
                "start": 228.03580549999998,
                "end": 228.21437699999998,
                "pitch": 60,
                "velocity": 117
            },
            {
                "start": 228.21437699999998,
                "end": 228.3929485,
                "pitch": 69,
                "velocity": 117
            },
            {
                "start": 228.3929485,
                "end": 228.57152,
                "pitch": 60,
                "velocity": 117
            },
            {
                "start": 228.57152,
                "end": 228.7500915,
                "pitch": 62,
                "velocity": 117
            },
            {
                "start": 228.7500915,
                "end": 228.928663,
                "pitch": 55,
                "velocity": 117
            },
            {
                "start": 228.928663,
                "end": 229.1072345,
                "pitch": 60,
                "velocity": 117
            },
            {
                "start": 229.1072345,
                "end": 229.28580599999998,
                "pitch": 55,
                "velocity": 117
            },
            {
                "start": 229.28580599999998,
                "end": 229.46437749999998,
                "pitch": 58,
                "velocity": 117
            },
            {
                "start": 229.46437749999998,
                "end": 229.642949,
                "pitch": 55,
                "velocity": 117
            },
            {
                "start": 229.642949,
                "end": 229.8215205,
                "pitch": 60,
                "velocity": 117
            },
            {
                "start": 230.000092,
                "end": 230.1786635,
                "pitch": 62,
                "velocity": 117
            },
            {
                "start": 229.8215205,
                "end": 230.357235,
                "pitch": 55,
                "velocity": 117
            },
            {
                "start": 230.1786635,
                "end": 230.357235,
                "pitch": 55,
                "velocity": 117
            },
            {
                "start": 230.357235,
                "end": 230.53580649999998,
                "pitch": 60,
                "velocity": 117
            },
            {
                "start": 230.53580649999998,
                "end": 230.71437799999998,
                "pitch": 55,
                "velocity": 117
            },
            {
                "start": 230.71437799999998,
                "end": 230.8929495,
                "pitch": 62,
                "velocity": 117
            },
            {
                "start": 230.8929495,
                "end": 231.071521,
                "pitch": 55,
                "velocity": 117
            },
            {
                "start": 231.071521,
                "end": 231.2500925,
                "pitch": 64,
                "velocity": 117
            },
            {
                "start": 231.2500925,
                "end": 231.428664,
                "pitch": 55,
                "velocity": 117
            },
            {
                "start": 231.428664,
                "end": 231.6072355,
                "pitch": 65,
                "velocity": 117
            },
            {
                "start": 231.6072355,
                "end": 231.785807,
                "pitch": 57,
                "velocity": 117
            },
            {
                "start": 231.785807,
                "end": 231.96437849999998,
                "pitch": 64,
                "velocity": 117
            },
            {
                "start": 231.96437849999998,
                "end": 232.14294999999998,
                "pitch": 57,
                "velocity": 117
            },
            {
                "start": 232.14294999999998,
                "end": 232.3215215,
                "pitch": 62,
                "velocity": 117
            },
            {
                "start": 232.3215215,
                "end": 232.500093,
                "pitch": 57,
                "velocity": 117
            },
            {
                "start": 232.500093,
                "end": 232.6786645,
                "pitch": 64,
                "velocity": 117
            },
            {
                "start": 232.6786645,
                "end": 232.857236,
                "pitch": 57,
                "velocity": 117
            },
            {
                "start": 232.857236,
                "end": 233.0358075,
                "pitch": 65,
                "velocity": 117
            },
            {
                "start": 233.0358075,
                "end": 233.21437899999998,
                "pitch": 57,
                "velocity": 117
            },
            {
                "start": 233.21437899999998,
                "end": 233.39295049999998,
                "pitch": 64,
                "velocity": 117
            },
            {
                "start": 233.39295049999998,
                "end": 233.571522,
                "pitch": 57,
                "velocity": 117
            },
            {
                "start": 233.571522,
                "end": 233.7500935,
                "pitch": 65,
                "velocity": 117
            },
            {
                "start": 233.7500935,
                "end": 233.928665,
                "pitch": 57,
                "velocity": 117
            },
            {
                "start": 233.928665,
                "end": 234.1072365,
                "pitch": 67,
                "velocity": 117
            },
            {
                "start": 234.1072365,
                "end": 234.285808,
                "pitch": 57,
                "velocity": 117
            },
            {
                "start": 234.285808,
                "end": 234.46437949999998,
                "pitch": 64,
                "velocity": 117
            },
            {
                "start": 234.46437949999998,
                "end": 234.64295099999998,
                "pitch": 57,
                "velocity": 117
            },
            {
                "start": 234.64295099999998,
                "end": 234.8215225,
                "pitch": 62,
                "velocity": 117
            },
            {
                "start": 234.8215225,
                "end": 235.000094,
                "pitch": 57,
                "velocity": 117
            },
            {
                "start": 235.000094,
                "end": 235.1786655,
                "pitch": 60,
                "velocity": 117
            },
            {
                "start": 235.1786655,
                "end": 235.357237,
                "pitch": 57,
                "velocity": 117
            },
            {
                "start": 235.357237,
                "end": 235.5358085,
                "pitch": 62,
                "velocity": 117
            },
            {
                "start": 235.71438,
                "end": 235.89295149999998,
                "pitch": 64,
                "velocity": 117
            },
            {
                "start": 235.5358085,
                "end": 236.07152299999998,
                "pitch": 57,
                "velocity": 117
            },
            {
                "start": 235.89295149999998,
                "end": 236.07152299999998,
                "pitch": 57,
                "velocity": 117
            },
            {
                "start": 236.07152299999998,
                "end": 236.2500945,
                "pitch": 62,
                "velocity": 117
            },
            {
                "start": 236.2500945,
                "end": 236.428666,
                "pitch": 57,
                "velocity": 117
            },
            {
                "start": 236.428666,
                "end": 236.6072375,
                "pitch": 64,
                "velocity": 117
            },
            {
                "start": 236.6072375,
                "end": 236.785809,
                "pitch": 57,
                "velocity": 117
            },
            {
                "start": 236.785809,
                "end": 236.9643805,
                "pitch": 65,
                "velocity": 117
            },
            {
                "start": 236.9643805,
                "end": 237.14295199999998,
                "pitch": 57,
                "velocity": 117
            },
            {
                "start": 237.14295199999998,
                "end": 237.32152349999998,
                "pitch": 67,
                "velocity": 117
            },
            {
                "start": 237.32152349999998,
                "end": 237.500095,
                "pitch": 60,
                "velocity": 117
            },
            {
                "start": 237.500095,
                "end": 237.6786665,
                "pitch": 65,
                "velocity": 117
            },
            {
                "start": 237.6786665,
                "end": 237.857238,
                "pitch": 60,
                "velocity": 117
            },
            {
                "start": 237.857238,
                "end": 238.0358095,
                "pitch": 64,
                "velocity": 117
            },
            {
                "start": 238.0358095,
                "end": 238.214381,
                "pitch": 60,
                "velocity": 117
            },
            {
                "start": 238.214381,
                "end": 238.39295249999998,
                "pitch": 65,
                "velocity": 117
            },
            {
                "start": 238.57152399999998,
                "end": 238.7500955,
                "pitch": 67,
                "velocity": 117
            },
            {
                "start": 238.39295249999998,
                "end": 238.928667,
                "pitch": 60,
                "velocity": 117
            },
            {
                "start": 238.7500955,
                "end": 238.928667,
                "pitch": 60,
                "velocity": 117
            },
            {
                "start": 238.928667,
                "end": 239.1072385,
                "pitch": 65,
                "velocity": 117
            },
            {
                "start": 239.1072385,
                "end": 239.28581,
                "pitch": 60,
                "velocity": 117
            },
            {
                "start": 239.28581,
                "end": 239.4643815,
                "pitch": 67,
                "velocity": 117
            },
            {
                "start": 239.4643815,
                "end": 239.642953,
                "pitch": 60,
                "velocity": 117
            },
            {
                "start": 239.642953,
                "end": 239.82152449999998,
                "pitch": 69,
                "velocity": 117
            },
            {
                "start": 239.82152449999998,
                "end": 240.00009599999998,
                "pitch": 60,
                "velocity": 117
            },
            {
                "start": 240.00009599999998,
                "end": 240.1786675,
                "pitch": 62,
                "velocity": 117
            },
            {
                "start": 240.1786675,
                "end": 240.357239,
                "pitch": 55,
                "velocity": 117
            },
            {
                "start": 240.357239,
                "end": 240.5358105,
                "pitch": 60,
                "velocity": 117
            },
            {
                "start": 240.5358105,
                "end": 240.714382,
                "pitch": 55,
                "velocity": 117
            },
            {
                "start": 240.714382,
                "end": 240.8929535,
                "pitch": 58,
                "velocity": 117
            },
            {
                "start": 240.8929535,
                "end": 241.07152499999998,
                "pitch": 55,
                "velocity": 117
            },
            {
                "start": 241.07152499999998,
                "end": 241.25009649999998,
                "pitch": 60,
                "velocity": 117
            },
            {
                "start": 241.428668,
                "end": 241.6072395,
                "pitch": 62,
                "velocity": 117
            },
            {
                "start": 241.25009649999998,
                "end": 241.785811,
                "pitch": 55,
                "velocity": 117
            },
            {
                "start": 241.6072395,
                "end": 241.785811,
                "pitch": 55,
                "velocity": 117
            },
            {
                "start": 241.785811,
                "end": 241.9643825,
                "pitch": 60,
                "velocity": 117
            },
            {
                "start": 241.9643825,
                "end": 242.142954,
                "pitch": 55,
                "velocity": 117
            },
            {
                "start": 242.142954,
                "end": 242.32152549999998,
                "pitch": 62,
                "velocity": 117
            },
            {
                "start": 242.32152549999998,
                "end": 242.50009699999998,
                "pitch": 55,
                "velocity": 117
            },
            {
                "start": 242.50009699999998,
                "end": 242.6786685,
                "pitch": 64,
                "velocity": 117
            },
            {
                "start": 242.6786685,
                "end": 242.85724,
                "pitch": 55,
                "velocity": 117
            }
        ],
        "pitch_classes": [
            24,
            0,
            14,
            0,
            16,
            14,
            0,
            24,
            0,
            34,
            2,
            0
        ],
        "velocity_mean": 117.0,
        "pitch_mean": 60.4375,
        "pitch_std": 3.8400642898264086,
        "duration_mean": 0.19531257812500002,
        "song_name": "Come_Take_My_Hand.mid",
        "tempo": 168.29415334784005,
        "time_signature": "4/4",
        "key": "D",
        "camelot_key": "7A",
        "maj_min": "minor"
    },
    "Never_Alone.1.mid_0.0_21.397837004950357": {
        "instrument_no": 3,
        "instrument_category": "Other",
        "program": 70,
        "is_drum": false,
        "section_start": 0.0,
        "section_end": 21.397837004950357,
        "notes": [
            {
                "start": 4.6368805208333335,
                "end": 4.8115103125,
                "pitch": 69,
                "velocity": 67
            },
            {
                "start": 4.850572239583333,
                "end": 5.036690833333333,
                "pitch": 72,
                "velocity": 76
            },
            {
                "start": 5.071157239583333,
                "end": 5.45258546875,
                "pitch": 74,
                "velocity": 76
            },
            {
                "start": 6.17638,
                "end": 6.360200833333334,
                "pitch": 74,
                "velocity": 85
            },
            {
                "start": 6.394667239583334,
                "end": 6.566999270833334,
                "pitch": 72,
                "velocity": 67
            },
            {
                "start": 6.606061197916667,
                "end": 6.780690989583333,
                "pitch": 74,
                "velocity": 76
            },
            {
                "start": 6.828943958333333,
                "end": 7.21726546875,
                "pitch": 76,
                "velocity": 80
            },
            {
                "start": 7.254029635416667,
                "end": 7.5895026562500005,
                "pitch": 69,
                "velocity": 76
            },
            {
                "start": 8.157049479166666,
                "end": 8.310999427083333,
                "pitch": 72,
                "velocity": 67
            },
            {
                "start": 8.36155015625,
                "end": 8.524691145833334,
                "pitch": 76,
                "velocity": 78
            },
            {
                "start": 8.591326197916667,
                "end": 9.158873020833333,
                "pitch": 77,
                "velocity": 85
            },
            {
                "start": 9.25767671875,
                "end": 9.69884671875,
                "pitch": 76,
                "velocity": 76
            },
            {
                "start": 9.678166875,
                "end": 9.85049890625,
                "pitch": 74,
                "velocity": 76
            },
            {
                "start": 9.924027239583333,
                "end": 10.282477864583333,
                "pitch": 77,
                "velocity": 83
            },
            {
                "start": 10.351410677083333,
                "end": 10.78798515625,
                "pitch": 76,
                "velocity": 76
            },
            {
                "start": 10.810962760416666,
                "end": 11.093587291666667,
                "pitch": 72,
                "velocity": 85
            },
            {
                "start": 11.265919322916666,
                "end": 11.426762552083334,
                "pitch": 72,
                "velocity": 58
            },
            {
                "start": 11.46352671875,
                "end": 11.658836354166667,
                "pitch": 72,
                "velocity": 85
            },
            {
                "start": 11.68411171875,
                "end": 11.85644375,
                "pitch": 69,
                "velocity": 67
            },
            {
                "start": 11.900101197916667,
                "end": 12.093113072916667,
                "pitch": 72,
                "velocity": 78
            },
            {
                "start": 12.127579479166666,
                "end": 12.798525520833334,
                "pitch": 74,
                "velocity": 85
            },
            {
                "start": 13.235100000000001,
                "end": 13.418920833333333,
                "pitch": 74,
                "velocity": 85
            },
            {
                "start": 13.453387239583334,
                "end": 13.625719270833333,
                "pitch": 72,
                "velocity": 67
            },
            {
                "start": 13.664781197916668,
                "end": 13.839410989583333,
                "pitch": 74,
                "velocity": 76
            },
            {
                "start": 13.887663958333334,
                "end": 14.275985468750001,
                "pitch": 76,
                "velocity": 80
            },
            {
                "start": 14.312749635416667,
                "end": 14.64822265625,
                "pitch": 69,
                "velocity": 76
            },
            {
                "start": 15.215769479166667,
                "end": 15.369719427083334,
                "pitch": 72,
                "velocity": 67
            },
            {
                "start": 15.42027015625,
                "end": 15.583411145833333,
                "pitch": 76,
                "velocity": 78
            },
            {
                "start": 15.650046197916668,
                "end": 16.217593020833334,
                "pitch": 77,
                "velocity": 85
            },
            {
                "start": 16.31639671875,
                "end": 16.75756671875,
                "pitch": 76,
                "velocity": 76
            },
            {
                "start": 16.736886875,
                "end": 16.90921890625,
                "pitch": 74,
                "velocity": 76
            },
            {
                "start": 16.982747239583333,
                "end": 17.341197864583332,
                "pitch": 77,
                "velocity": 83
            },
            {
                "start": 17.410130677083334,
                "end": 17.84670515625,
                "pitch": 79,
                "velocity": 76
            },
            {
                "start": 17.869682760416666,
                "end": 18.152307291666666,
                "pitch": 72,
                "velocity": 85
            },
            {
                "start": 18.324639322916667,
                "end": 18.485482552083333,
                "pitch": 72,
                "velocity": 58
            },
            {
                "start": 18.52224671875,
                "end": 18.717556354166668,
                "pitch": 72,
                "velocity": 85
            },
            {
                "start": 18.74283171875,
                "end": 18.91516375,
                "pitch": 69,
                "velocity": 67
            },
            {
                "start": 18.958821197916667,
                "end": 19.151833072916666,
                "pitch": 72,
                "velocity": 78
            },
            {
                "start": 19.41148,
                "end": 19.627469479166667,
                "pitch": 77,
                "velocity": 85
            },
            {
                "start": 19.632065,
                "end": 19.825076875,
                "pitch": 76,
                "velocity": 49
            },
            {
                "start": 19.186299479166667,
                "end": 19.857245520833334,
                "pitch": 74,
                "velocity": 85
            },
            {
                "start": 19.83197015625,
                "end": 19.857245520833334,
                "pitch": 74,
                "velocity": 67
            },
            {
                "start": 20.057150677083335,
                "end": 20.477640833333332,
                "pitch": 74,
                "velocity": 69
            },
            {
                "start": 21.171564479166666,
                "end": 21.387553958333335,
                "pitch": 77,
                "velocity": 85
            }
        ],
        "pitch_classes": [
            13,
            0,
            11,
            0,
            8,
            6,
            0,
            1,
            0,
            5,
            0,
            0
        ],
        "velocity_mean": 75.9090909090909,
        "pitch_mean": 73.72727272727273,
        "pitch_std": 2.543830650842404,
        "duration_mean": 0.2786034505208333,
        "song_name": "Never_Alone.1.mid",
        "tempo": 224.3217386359905,
        "time_signature": "4/4",
        "key": "C",
        "camelot_key": "8B",
        "maj_min": "major"
    },
    "Never_Alone.1.mid_108.85700261731648_130.25483962226684": {
        "instrument_no": 5,
        "instrument_category": "Other",
        "program": 20,
        "is_drum": false,
        "section_start": 108.85700261731648,
        "section_end": 130.25483962226684,
        "notes": [
            {
                "start": 118.17841375,
                "end": 119.99134671875,
                "pitch": 86,
                "velocity": 60
            },
            {
                "start": 119.96147583333334,
                "end": 121.74683567708334,
                "pitch": 88,
                "velocity": 60
            },
            {
                "start": 121.71696479166667,
                "end": 122.6314734375,
                "pitch": 86,
                "velocity": 60
            },
            {
                "start": 122.59700703125,
                "end": 123.47934703125,
                "pitch": 89,
                "velocity": 60
            },
            {
                "start": 123.47475151041667,
                "end": 125.28308895833334,
                "pitch": 91,
                "velocity": 60
            },
            {
                "start": 125.23713375,
                "end": 127.05006671875,
                "pitch": 86,
                "velocity": 60
            },
            {
                "start": 127.02019583333333,
                "end": 128.80555567708333,
                "pitch": 88,
                "velocity": 60
            },
            {
                "start": 128.77568479166666,
                "end": 129.6901934375,
                "pitch": 86,
                "velocity": 60
            },
            {
                "start": 129.65572703125,
                "end": 130.53806703125,
                "pitch": 89,
                "velocity": 60
            }
        ],
        "pitch_classes": [
            0,
            0,
            4,
            0,
            2,
            2,
            0,
            1,
            0,
            0,
            0,
            0
        ],
        "velocity_mean": 60.0,
        "pitch_mean": 87.66666666666667,
        "pitch_std": 1.6996731711975948,
        "duration_mean": 1.3998467071759266,
        "song_name": "Never_Alone.1.mid",
        "tempo": 224.3217386359905,
        "time_signature": "4/4",
        "key": "C",
        "camelot_key": "8B",
        "maj_min": "major"
    },
    "Never_Alone.1.mid_217.71400523463296_239.11184223958332": {
        "instrument_no": 7,
        "instrument_category": "Other",
        "program": 18,
        "is_drum": false,
        "section_start": 217.71400523463296,
        "section_end": 239.11184223958332,
        "notes": [
            {
                "start": 217.93798,
                "end": 218.18384036458335,
                "pitch": 57,
                "velocity": 80
            },
            {
                "start": 217.93798,
                "end": 218.19073364583335,
                "pitch": 62,
                "velocity": 80
            },
            {
                "start": 217.93798,
                "end": 218.19073364583335,
                "pitch": 50,
                "velocity": 80
            },
            {
                "start": 218.2688575,
                "end": 218.49863354166666,
                "pitch": 57,
                "velocity": 80
            },
            {
                "start": 218.2688575,
                "end": 218.50552682291666,
                "pitch": 62,
                "velocity": 80
            },
            {
                "start": 218.2688575,
                "end": 218.50552682291666,
                "pitch": 50,
                "velocity": 80
            },
            {
                "start": 218.599735,
                "end": 218.81802223958334,
                "pitch": 62,
                "velocity": 80
            },
            {
                "start": 218.599735,
                "end": 218.81802223958334,
                "pitch": 57,
                "velocity": 80
            },
            {
                "start": 218.599735,
                "end": 218.81802223958334,
                "pitch": 50,
                "velocity": 80
            },
            {
                "start": 218.82032,
                "end": 219.10524229166666,
                "pitch": 52,
                "velocity": 80
            },
            {
                "start": 218.82032,
                "end": 219.11213557291666,
                "pitch": 57,
                "velocity": 80
            },
            {
                "start": 218.82032,
                "end": 219.11213557291666,
                "pitch": 45,
                "velocity": 80
            },
            {
                "start": 219.26149,
                "end": 219.53262572916668,
                "pitch": 57,
                "velocity": 80
            },
            {
                "start": 219.26149,
                "end": 219.53262572916668,
                "pitch": 45,
                "velocity": 80
            },
            {
                "start": 219.26149,
                "end": 219.54411453125002,
                "pitch": 52,
                "velocity": 80
            },
            {
                "start": 219.70266,
                "end": 219.94852036458335,
                "pitch": 52,
                "velocity": 80
            },
            {
                "start": 219.70266,
                "end": 219.95541364583335,
                "pitch": 57,
                "velocity": 80
            },
            {
                "start": 219.70266,
                "end": 219.95541364583335,
                "pitch": 45,
                "velocity": 80
            },
            {
                "start": 220.0335375,
                "end": 220.26331354166666,
                "pitch": 52,
                "velocity": 80
            },
            {
                "start": 220.0335375,
                "end": 220.27020682291666,
                "pitch": 57,
                "velocity": 80
            },
            {
                "start": 220.0335375,
                "end": 220.27020682291666,
                "pitch": 45,
                "velocity": 80
            },
            {
                "start": 220.364415,
                "end": 220.58270223958334,
                "pitch": 57,
                "velocity": 80
            },
            {
                "start": 220.364415,
                "end": 220.58270223958334,
                "pitch": 52,
                "velocity": 80
            },
            {
                "start": 220.364415,
                "end": 220.58270223958334,
                "pitch": 45,
                "velocity": 80
            },
            {
                "start": 220.585,
                "end": 220.86992229166668,
                "pitch": 53,
                "velocity": 80
            },
            {
                "start": 220.585,
                "end": 220.87681557291668,
                "pitch": 58,
                "velocity": 80
            },
            {
                "start": 220.585,
                "end": 220.87681557291668,
                "pitch": 46,
                "velocity": 80
            },
            {
                "start": 221.02617,
                "end": 221.29730572916668,
                "pitch": 58,
                "velocity": 80
            },
            {
                "start": 221.02617,
                "end": 221.29730572916668,
                "pitch": 46,
                "velocity": 80
            },
            {
                "start": 221.02617,
                "end": 221.30879453125002,
                "pitch": 53,
                "velocity": 80
            },
            {
                "start": 221.46734,
                "end": 221.71320036458334,
                "pitch": 53,
                "velocity": 80
            },
            {
                "start": 221.46734,
                "end": 221.72009364583334,
                "pitch": 58,
                "velocity": 80
            },
            {
                "start": 221.46734,
                "end": 221.72009364583334,
                "pitch": 46,
                "velocity": 80
            },
            {
                "start": 221.7982175,
                "end": 222.02799354166666,
                "pitch": 53,
                "velocity": 80
            },
            {
                "start": 221.7982175,
                "end": 222.03488682291666,
                "pitch": 58,
                "velocity": 80
            },
            {
                "start": 221.7982175,
                "end": 222.03488682291666,
                "pitch": 46,
                "velocity": 80
            },
            {
                "start": 222.129095,
                "end": 222.34738223958334,
                "pitch": 58,
                "velocity": 80
            },
            {
                "start": 222.129095,
                "end": 222.34738223958334,
                "pitch": 53,
                "velocity": 80
            },
            {
                "start": 222.129095,
                "end": 222.34738223958334,
                "pitch": 46,
                "velocity": 80
            },
            {
                "start": 222.34968,
                "end": 222.63460229166668,
                "pitch": 55,
                "velocity": 80
            },
            {
                "start": 222.34968,
                "end": 222.64149557291668,
                "pitch": 60,
                "velocity": 80
            },
            {
                "start": 222.34968,
                "end": 222.64149557291668,
                "pitch": 48,
                "velocity": 80
            },
            {
                "start": 222.79085,
                "end": 223.06198572916668,
                "pitch": 60,
                "velocity": 80
            },
            {
                "start": 222.79085,
                "end": 223.06198572916668,
                "pitch": 48,
                "velocity": 80
            },
            {
                "start": 222.79085,
                "end": 223.07347453125,
                "pitch": 55,
                "velocity": 80
            },
            {
                "start": 223.23202,
                "end": 223.47788036458334,
                "pitch": 55,
                "velocity": 80
            },
            {
                "start": 223.23202,
                "end": 223.48477364583334,
                "pitch": 60,
                "velocity": 80
            },
            {
                "start": 223.23202,
                "end": 223.48477364583334,
                "pitch": 48,
                "velocity": 80
            },
            {
                "start": 223.452605,
                "end": 223.56059973958332,
                "pitch": 52,
                "velocity": 80
            },
            {
                "start": 223.45949828125,
                "end": 223.56749302083333,
                "pitch": 57,
                "velocity": 80
            },
            {
                "start": 223.45949828125,
                "end": 223.56749302083333,
                "pitch": 45,
                "velocity": 80
            },
            {
                "start": 223.5628975,
                "end": 223.78118473958332,
                "pitch": 60,
                "velocity": 80
            },
            {
                "start": 223.5628975,
                "end": 223.78118473958332,
                "pitch": 55,
                "velocity": 80
            },
            {
                "start": 223.5628975,
                "end": 223.78118473958332,
                "pitch": 48,
                "velocity": 80
            },
            {
                "start": 223.893775,
                "end": 224.11206223958334,
                "pitch": 64,
                "velocity": 80
            },
            {
                "start": 223.893775,
                "end": 224.11206223958334,
                "pitch": 60,
                "velocity": 80
            },
            {
                "start": 223.893775,
                "end": 224.11206223958334,
                "pitch": 52,
                "velocity": 80
            },
            {
                "start": 224.11436,
                "end": 224.39928229166668,
                "pitch": 57,
                "velocity": 80
            },
            {
                "start": 224.11436,
                "end": 224.40617557291668,
                "pitch": 62,
                "velocity": 80
            },
            {
                "start": 224.11436,
                "end": 224.40617557291668,
                "pitch": 50,
                "velocity": 80
            },
            {
                "start": 224.55553,
                "end": 224.82666572916668,
                "pitch": 62,
                "velocity": 80
            },
            {
                "start": 224.55553,
                "end": 224.82666572916668,
                "pitch": 50,
                "velocity": 80
            },
            {
                "start": 224.55553,
                "end": 224.83815453125,
                "pitch": 57,
                "velocity": 80
            },
            {
                "start": 224.9967,
                "end": 225.24256036458334,
                "pitch": 57,
                "velocity": 80
            },
            {
                "start": 224.9967,
                "end": 225.24945364583334,
                "pitch": 62,
                "velocity": 80
            },
            {
                "start": 224.9967,
                "end": 225.24945364583334,
                "pitch": 50,
                "velocity": 80
            },
            {
                "start": 225.3275775,
                "end": 225.55735354166666,
                "pitch": 57,
                "velocity": 80
            },
            {
                "start": 225.3275775,
                "end": 225.56424682291666,
                "pitch": 62,
                "velocity": 80
            },
            {
                "start": 225.3275775,
                "end": 225.56424682291666,
                "pitch": 50,
                "velocity": 80
            },
            {
                "start": 225.658455,
                "end": 225.87674223958334,
                "pitch": 62,
                "velocity": 80
            },
            {
                "start": 225.658455,
                "end": 225.87674223958334,
                "pitch": 57,
                "velocity": 80
            },
            {
                "start": 225.658455,
                "end": 225.87674223958334,
                "pitch": 50,
                "velocity": 80
            },
            {
                "start": 225.87904,
                "end": 226.16396229166668,
                "pitch": 52,
                "velocity": 80
            },
            {
                "start": 225.87904,
                "end": 226.17085557291668,
                "pitch": 57,
                "velocity": 80
            },
            {
                "start": 225.87904,
                "end": 226.17085557291668,
                "pitch": 45,
                "velocity": 80
            },
            {
                "start": 226.32021,
                "end": 226.59134572916668,
                "pitch": 57,
                "velocity": 80
            },
            {
                "start": 226.32021,
                "end": 226.59134572916668,
                "pitch": 45,
                "velocity": 80
            },
            {
                "start": 226.32021,
                "end": 226.60283453125,
                "pitch": 52,
                "velocity": 80
            },
            {
                "start": 226.76138,
                "end": 227.00724036458334,
                "pitch": 52,
                "velocity": 80
            },
            {
                "start": 226.76138,
                "end": 227.01413364583334,
                "pitch": 57,
                "velocity": 80
            },
            {
                "start": 226.76138,
                "end": 227.01413364583334,
                "pitch": 45,
                "velocity": 80
            },
            {
                "start": 227.09225750000002,
                "end": 227.32203354166668,
                "pitch": 52,
                "velocity": 80
            },
            {
                "start": 227.09225750000002,
                "end": 227.32892682291666,
                "pitch": 57,
                "velocity": 80
            },
            {
                "start": 227.09225750000002,
                "end": 227.32892682291666,
                "pitch": 45,
                "velocity": 80
            },
            {
                "start": 227.423135,
                "end": 227.64142223958333,
                "pitch": 57,
                "velocity": 80
            },
            {
                "start": 227.423135,
                "end": 227.64142223958333,
                "pitch": 52,
                "velocity": 80
            },
            {
                "start": 227.423135,
                "end": 227.64142223958333,
                "pitch": 45,
                "velocity": 80
            },
            {
                "start": 227.64372,
                "end": 227.92864229166668,
                "pitch": 53,
                "velocity": 80
            },
            {
                "start": 227.64372,
                "end": 227.93553557291668,
                "pitch": 58,
                "velocity": 80
            },
            {
                "start": 227.64372,
                "end": 227.93553557291668,
                "pitch": 46,
                "velocity": 80
            },
            {
                "start": 228.08489,
                "end": 228.35602572916667,
                "pitch": 58,
                "velocity": 80
            },
            {
                "start": 228.08489,
                "end": 228.35602572916667,
                "pitch": 46,
                "velocity": 80
            },
            {
                "start": 228.08489,
                "end": 228.36751453125,
                "pitch": 53,
                "velocity": 80
            },
            {
                "start": 228.52606,
                "end": 228.77192036458334,
                "pitch": 53,
                "velocity": 80
            },
            {
                "start": 228.52606,
                "end": 228.77881364583334,
                "pitch": 58,
                "velocity": 80
            },
            {
                "start": 228.52606,
                "end": 228.77881364583334,
                "pitch": 46,
                "velocity": 80
            },
            {
                "start": 228.85693750000002,
                "end": 229.08671354166668,
                "pitch": 53,
                "velocity": 80
            },
            {
                "start": 228.85693750000002,
                "end": 229.09360682291668,
                "pitch": 58,
                "velocity": 80
            },
            {
                "start": 228.85693750000002,
                "end": 229.09360682291668,
                "pitch": 46,
                "velocity": 80
            },
            {
                "start": 229.187815,
                "end": 229.40610223958333,
                "pitch": 58,
                "velocity": 80
            },
            {
                "start": 229.187815,
                "end": 229.40610223958333,
                "pitch": 53,
                "velocity": 80
            },
            {
                "start": 229.187815,
                "end": 229.40610223958333,
                "pitch": 46,
                "velocity": 80
            },
            {
                "start": 229.4084,
                "end": 229.69332229166668,
                "pitch": 55,
                "velocity": 80
            },
            {
                "start": 229.4084,
                "end": 229.70021557291668,
                "pitch": 60,
                "velocity": 80
            },
            {
                "start": 229.4084,
                "end": 229.70021557291668,
                "pitch": 48,
                "velocity": 80
            },
            {
                "start": 229.84957,
                "end": 230.12070572916667,
                "pitch": 60,
                "velocity": 80
            },
            {
                "start": 229.84957,
                "end": 230.12070572916667,
                "pitch": 48,
                "velocity": 80
            },
            {
                "start": 229.84957,
                "end": 230.13219453125,
                "pitch": 55,
                "velocity": 80
            },
            {
                "start": 230.29074,
                "end": 230.53660036458334,
                "pitch": 55,
                "velocity": 80
            },
            {
                "start": 230.29074,
                "end": 230.54349364583334,
                "pitch": 60,
                "velocity": 80
            },
            {
                "start": 230.29074,
                "end": 230.54349364583334,
                "pitch": 48,
                "velocity": 80
            },
            {
                "start": 230.511325,
                "end": 230.61931973958335,
                "pitch": 52,
                "velocity": 80
            },
            {
                "start": 230.51821828125,
                "end": 230.62621302083335,
                "pitch": 57,
                "velocity": 80
            },
            {
                "start": 230.51821828125,
                "end": 230.62621302083335,
                "pitch": 45,
                "velocity": 80
            },
            {
                "start": 230.6216175,
                "end": 230.83990473958335,
                "pitch": 60,
                "velocity": 80
            },
            {
                "start": 230.6216175,
                "end": 230.83990473958335,
                "pitch": 55,
                "velocity": 80
            },
            {
                "start": 230.6216175,
                "end": 230.83990473958335,
                "pitch": 48,
                "velocity": 80
            },
            {
                "start": 230.952495,
                "end": 231.17078223958333,
                "pitch": 64,
                "velocity": 80
            },
            {
                "start": 230.952495,
                "end": 231.17078223958333,
                "pitch": 60,
                "velocity": 80
            },
            {
                "start": 230.952495,
                "end": 231.17078223958333,
                "pitch": 52,
                "velocity": 80
            },
            {
                "start": 231.17308,
                "end": 231.45800229166667,
                "pitch": 57,
                "velocity": 80
            },
            {
                "start": 231.17308,
                "end": 231.46489557291667,
                "pitch": 62,
                "velocity": 80
            },
            {
                "start": 231.17308,
                "end": 231.46489557291667,
                "pitch": 50,
                "velocity": 80
            },
            {
                "start": 231.61425,
                "end": 231.88538572916667,
                "pitch": 62,
                "velocity": 80
            },
            {
                "start": 231.61425,
                "end": 231.88538572916667,
                "pitch": 50,
                "velocity": 80
            },
            {
                "start": 231.61425,
                "end": 231.89687453125,
                "pitch": 57,
                "velocity": 80
            },
            {
                "start": 234.70244,
                "end": 234.98736229166667,
                "pitch": 57,
                "velocity": 80
            },
            {
                "start": 234.70244,
                "end": 234.99425557291667,
                "pitch": 62,
                "velocity": 80
            },
            {
                "start": 234.70244,
                "end": 234.99425557291667,
                "pitch": 50,
                "velocity": 80
            },
            {
                "start": 235.14361,
                "end": 235.41474572916667,
                "pitch": 62,
                "velocity": 80
            },
            {
                "start": 235.14361,
                "end": 235.41474572916667,
                "pitch": 50,
                "velocity": 80
            },
            {
                "start": 235.14361,
                "end": 235.42623453125,
                "pitch": 57,
                "velocity": 80
            },
            {
                "start": 238.2318,
                "end": 238.51672229166667,
                "pitch": 57,
                "velocity": 80
            },
            {
                "start": 238.2318,
                "end": 238.52361557291667,
                "pitch": 62,
                "velocity": 80
            },
            {
                "start": 238.2318,
                "end": 238.52361557291667,
                "pitch": 50,
                "velocity": 80
            },
            {
                "start": 238.67297,
                "end": 238.85679083333335,
                "pitch": 57,
                "velocity": 80
            },
            {
                "start": 238.67297,
                "end": 238.94410572916667,
                "pitch": 62,
                "velocity": 80
            },
            {
                "start": 238.67297,
                "end": 238.94410572916667,
                "pitch": 50,
                "velocity": 80
            }
        ],
        "pitch_classes": [
            18,
            0,
            28,
            0,
            16,
            10,
            0,
            8,
            0,
            38,
            20,
            0
        ],
        "velocity_mean": 80.0,
        "pitch_mean": 53.91304347826087,
        "pitch_std": 5.415327496713414,
        "duration_mean": 0.24827467806461667,
        "song_name": "Never_Alone.1.mid",
        "tempo": 224.3217386359905,
        "time_signature": "4/4",
        "key": "D",
        "camelot_key": "7A",
        "maj_min": "minor"
    },
    "I_Need_You.mid_0.0_23.81897724999987": {
        "instrument_no": 5,
        "instrument_category": "Other",
        "program": 50,
        "is_drum": false,
        "section_start": 0.0,
        "section_end": 23.81897724999987,
        "notes": [
            {
                "start": 1.9672120000000002,
                "end": 3.877046983333334,
                "pitch": 65,
                "velocity": 59
            },
            {
                "start": 1.9672120000000002,
                "end": 3.920079745833334,
                "pitch": 69,
                "velocity": 64
            },
            {
                "start": 1.9672120000000002,
                "end": 5.770488533333334,
                "pitch": 60,
                "velocity": 58
            },
            {
                "start": 3.9344240000000004,
                "end": 5.936472045833334,
                "pitch": 67,
                "velocity": 67
            },
            {
                "start": 3.9344240000000004,
                "end": 5.948767120833334,
                "pitch": 64,
                "velocity": 67
            },
            {
                "start": 5.901636000000001,
                "end": 7.8483562083333345,
                "pitch": 62,
                "velocity": 62
            },
            {
                "start": 7.868848000000001,
                "end": 9.866797687500002,
                "pitch": 60,
                "velocity": 75
            },
            {
                "start": 5.901636000000001,
                "end": 9.893437016666669,
                "pitch": 69,
                "velocity": 65
            },
            {
                "start": 5.901636000000001,
                "end": 11.815567075000002,
                "pitch": 65,
                "velocity": 63
            },
            {
                "start": 9.836060000000002,
                "end": 13.741795491666668,
                "pitch": 58,
                "velocity": 63
            },
            {
                "start": 9.836060000000002,
                "end": 15.698761595833336,
                "pitch": 62,
                "velocity": 75
            },
            {
                "start": 13.770484000000002,
                "end": 17.606547400000004,
                "pitch": 60,
                "velocity": 65
            },
            {
                "start": 11.803272000000002,
                "end": 17.73154732916667,
                "pitch": 67,
                "velocity": 75
            },
            {
                "start": 15.737696000000001,
                "end": 17.7479407625,
                "pitch": 64,
                "velocity": 63
            },
            {
                "start": 17.704908000000003,
                "end": 19.674169179166668,
                "pitch": 65,
                "velocity": 85
            },
            {
                "start": 17.704908000000003,
                "end": 19.713103583333336,
                "pitch": 69,
                "velocity": 91
            },
            {
                "start": 17.704908000000003,
                "end": 21.557364833333335,
                "pitch": 60,
                "velocity": 79
            },
            {
                "start": 19.672120000000003,
                "end": 21.65982379166667,
                "pitch": 64,
                "velocity": 81
            },
            {
                "start": 19.672120000000003,
                "end": 21.67211886666667,
                "pitch": 67,
                "velocity": 81
            },
            {
                "start": 21.639332000000003,
                "end": 23.696707883333335,
                "pitch": 62,
                "velocity": 79
            },
            {
                "start": 23.606544000000003,
                "end": 25.52252652083334,
                "pitch": 60,
                "velocity": 83
            },
            {
                "start": 21.639332000000003,
                "end": 25.616788762500004,
                "pitch": 69,
                "velocity": 85
            },
            {
                "start": 21.639332000000003,
                "end": 27.50613195416667,
                "pitch": 65,
                "velocity": 83
            }
        ],
        "pitch_classes": [
            5,
            0,
            3,
            0,
            3,
            4,
            0,
            3,
            0,
            4,
            1,
            0
        ],
        "velocity_mean": 72.52173913043478,
        "pitch_mean": 64.04347826086956,
        "pitch_std": 3.3554402402738677,
        "duration_mean": 3.161348885688406,
        "song_name": "I_Need_You.mid",
        "tempo": 201.51998759728554,
        "time_signature": "4/4",
        "key": "D",
        "camelot_key": "7A",
        "maj_min": "minor"
    },
    "I_Need_You.mid_219.37013775000014_243.18911500000002": {
        "instrument_no": 5,
        "instrument_category": "Other",
        "program": 50,
        "is_drum": false,
        "section_start": 219.37013775000014,
        "section_end": 243.18911500000002,
        "notes": [
            {
                "start": 220.32774400000002,
                "end": 222.31339861250004,
                "pitch": 66,
                "velocity": 83
            },
            {
                "start": 220.32774400000002,
                "end": 222.31339861250004,
                "pitch": 62,
                "velocity": 74
            }
        ],
        "pitch_classes": [
            0,
            0,
            1,
            0,
            0,
            0,
            1,
            0,
            0,
            0,
            0,
            0
        ],
        "velocity_mean": 78.5,
        "pitch_mean": 64.0,
        "pitch_std": 2.0,
        "duration_mean": 1.9856546125000136,
        "song_name": "I_Need_You.mid",
        "tempo": 201.51998759728554,
        "time_signature": "4/4",
        "key": "D",
        "camelot_key": "10B",
        "maj_min": "major"
    },
    "Workaholic.1.mid_100.75312258138288_119.42604699153378": {
        "instrument_no": 10,
        "instrument_category": "Other",
        "program": 119,
        "is_drum": false,
        "section_start": 100.75312258138288,
        "section_end": 119.42604699153378,
        "notes": [
            {
                "start": 101.996141,
                "end": 103.39031902083333,
                "pitch": 60,
                "velocity": 74
            }
        ],
        "pitch_classes": [
            1,
            0,
            0,
            0,
            0,
            0,
            0,
            0,
            0,
            0,
            0,
            0
        ],
        "velocity_mean": 74.0,
        "pitch_mean": 60.0,
        "pitch_std": 0.0,
        "duration_mean": 1.394178020833337,
        "song_name": "Workaholic.1.mid",
        "tempo": 257.0566824225264,
        "time_signature": "4/4",
        "key": "C",
        "camelot_key": "8B",
        "maj_min": "major"
    },
    "Workaholic.1.mid_201.50624516276577_220.17916957291666": {
        "instrument_no": 2,
        "instrument_category": "Bass",
        "program": 38,
        "is_drum": false,
        "section_start": 201.50624516276577,
        "section_end": 220.17916957291666,
        "notes": [
            {
                "start": 201.56929675,
                "end": 201.66544695833332,
                "pitch": 58,
                "velocity": 60
            },
            {
                "start": 201.684677,
                "end": 201.75198214583332,
                "pitch": 53,
                "velocity": 70
            },
            {
                "start": 201.80005724999998,
                "end": 201.88659243749998,
                "pitch": 53,
                "velocity": 60
            },
            {
                "start": 201.9154375,
                "end": 201.98274264583333,
                "pitch": 56,
                "velocity": 70
            },
            {
                "start": 202.03081774999998,
                "end": 202.12696795833332,
                "pitch": 56,
                "velocity": 60
            },
            {
                "start": 202.146198,
                "end": 202.21350314583333,
                "pitch": 58,
                "velocity": 70
            },
            {
                "start": 202.26157824999999,
                "end": 202.35772845833333,
                "pitch": 58,
                "velocity": 60
            },
            {
                "start": 202.3769585,
                "end": 202.44426364583333,
                "pitch": 58,
                "velocity": 70
            },
            {
                "start": 202.49233875,
                "end": 202.58848895833333,
                "pitch": 58,
                "velocity": 60
            },
            {
                "start": 202.607719,
                "end": 202.67502414583333,
                "pitch": 53,
                "velocity": 70
            },
            {
                "start": 202.72309925,
                "end": 202.8096344375,
                "pitch": 53,
                "velocity": 60
            },
            {
                "start": 202.8384795,
                "end": 202.90578464583334,
                "pitch": 56,
                "velocity": 70
            },
            {
                "start": 202.95385975,
                "end": 203.05000995833333,
                "pitch": 56,
                "velocity": 60
            },
            {
                "start": 203.06924,
                "end": 203.13654514583334,
                "pitch": 53,
                "velocity": 70
            },
            {
                "start": 203.18462025,
                "end": 203.28077045833334,
                "pitch": 53,
                "velocity": 60
            },
            {
                "start": 203.30000049999998,
                "end": 203.36730564583334,
                "pitch": 53,
                "velocity": 70
            },
            {
                "start": 203.41538075,
                "end": 203.51153095833334,
                "pitch": 53,
                "velocity": 60
            },
            {
                "start": 203.53076099999998,
                "end": 203.59806614583331,
                "pitch": 48,
                "velocity": 70
            },
            {
                "start": 203.64614125,
                "end": 203.7326764375,
                "pitch": 48,
                "velocity": 60
            },
            {
                "start": 203.7615215,
                "end": 203.82882664583332,
                "pitch": 51,
                "velocity": 70
            },
            {
                "start": 203.87690175,
                "end": 203.97305195833331,
                "pitch": 51,
                "velocity": 60
            },
            {
                "start": 203.992282,
                "end": 204.05958714583332,
                "pitch": 53,
                "velocity": 70
            },
            {
                "start": 204.10766225,
                "end": 204.20381245833332,
                "pitch": 53,
                "velocity": 60
            },
            {
                "start": 204.2230425,
                "end": 204.29034764583332,
                "pitch": 53,
                "velocity": 70
            },
            {
                "start": 204.33842275,
                "end": 204.43457295833332,
                "pitch": 53,
                "velocity": 60
            },
            {
                "start": 204.453803,
                "end": 204.52110814583332,
                "pitch": 48,
                "velocity": 70
            },
            {
                "start": 204.56918324999998,
                "end": 204.65571843749998,
                "pitch": 48,
                "velocity": 60
            },
            {
                "start": 204.6845635,
                "end": 204.75186864583333,
                "pitch": 51,
                "velocity": 70
            },
            {
                "start": 204.79994374999998,
                "end": 204.89609395833332,
                "pitch": 51,
                "velocity": 60
            },
            {
                "start": 204.915324,
                "end": 204.98262914583333,
                "pitch": 53,
                "velocity": 70
            },
            {
                "start": 205.03070424999999,
                "end": 205.12685445833333,
                "pitch": 53,
                "velocity": 60
            },
            {
                "start": 205.1460845,
                "end": 205.21338964583333,
                "pitch": 53,
                "velocity": 70
            },
            {
                "start": 205.26146475,
                "end": 205.35761495833333,
                "pitch": 53,
                "velocity": 60
            },
            {
                "start": 205.376845,
                "end": 205.44415014583333,
                "pitch": 48,
                "velocity": 70
            },
            {
                "start": 205.49222525,
                "end": 205.5787604375,
                "pitch": 48,
                "velocity": 60
            },
            {
                "start": 205.6076055,
                "end": 205.67491064583334,
                "pitch": 51,
                "velocity": 70
            },
            {
                "start": 205.72298575,
                "end": 205.81913595833333,
                "pitch": 51,
                "velocity": 60
            },
            {
                "start": 205.838366,
                "end": 205.90567114583334,
                "pitch": 53,
                "velocity": 70
            },
            {
                "start": 205.95374625,
                "end": 206.04989645833334,
                "pitch": 53,
                "velocity": 60
            },
            {
                "start": 206.06912649999998,
                "end": 206.13643164583334,
                "pitch": 53,
                "velocity": 70
            },
            {
                "start": 206.18450675,
                "end": 206.28065695833334,
                "pitch": 53,
                "velocity": 60
            },
            {
                "start": 206.29988699999998,
                "end": 206.36719214583331,
                "pitch": 48,
                "velocity": 70
            },
            {
                "start": 206.41526725,
                "end": 206.5018024375,
                "pitch": 48,
                "velocity": 60
            },
            {
                "start": 206.5306475,
                "end": 206.59795264583332,
                "pitch": 51,
                "velocity": 70
            },
            {
                "start": 206.64602775,
                "end": 206.74217795833331,
                "pitch": 51,
                "velocity": 60
            },
            {
                "start": 206.761408,
                "end": 206.82871314583332,
                "pitch": 53,
                "velocity": 70
            },
            {
                "start": 206.87678825,
                "end": 206.97293845833332,
                "pitch": 53,
                "velocity": 60
            },
            {
                "start": 206.9921685,
                "end": 207.05947364583332,
                "pitch": 53,
                "velocity": 70
            },
            {
                "start": 207.10754875,
                "end": 207.20369895833332,
                "pitch": 53,
                "velocity": 60
            },
            {
                "start": 207.222929,
                "end": 207.29023414583332,
                "pitch": 48,
                "velocity": 70
            },
            {
                "start": 207.33830924999998,
                "end": 207.42484443749998,
                "pitch": 48,
                "velocity": 60
            },
            {
                "start": 207.4536895,
                "end": 207.52099464583333,
                "pitch": 51,
                "velocity": 70
            },
            {
                "start": 207.56906974999998,
                "end": 207.66521995833332,
                "pitch": 51,
                "velocity": 60
            },
            {
                "start": 207.68445,
                "end": 207.75175514583333,
                "pitch": 53,
                "velocity": 70
            },
            {
                "start": 207.79983024999999,
                "end": 207.89598045833333,
                "pitch": 53,
                "velocity": 60
            },
            {
                "start": 207.9152105,
                "end": 207.98251564583333,
                "pitch": 53,
                "velocity": 70
            },
            {
                "start": 208.03059075,
                "end": 208.12674095833333,
                "pitch": 53,
                "velocity": 60
            },
            {
                "start": 208.145971,
                "end": 208.21327614583333,
                "pitch": 48,
                "velocity": 70
            },
            {
                "start": 208.26135125,
                "end": 208.3478864375,
                "pitch": 48,
                "velocity": 60
            },
            {
                "start": 208.3767315,
                "end": 208.44403664583334,
                "pitch": 51,
                "velocity": 70
            },
            {
                "start": 208.49211175,
                "end": 208.58826195833333,
                "pitch": 51,
                "velocity": 60
            },
            {
                "start": 208.607492,
                "end": 208.67479714583334,
                "pitch": 53,
                "velocity": 70
            },
            {
                "start": 208.72287225,
                "end": 208.81902245833334,
                "pitch": 53,
                "velocity": 60
            },
            {
                "start": 208.83825249999998,
                "end": 208.90555764583334,
                "pitch": 53,
                "velocity": 70
            },
            {
                "start": 208.95363275,
                "end": 209.04978295833334,
                "pitch": 53,
                "velocity": 60
            },
            {
                "start": 209.06901299999998,
                "end": 209.13631814583331,
                "pitch": 48,
                "velocity": 70
            },
            {
                "start": 209.18439325,
                "end": 209.2709284375,
                "pitch": 48,
                "velocity": 60
            },
            {
                "start": 209.2997735,
                "end": 209.36707864583332,
                "pitch": 51,
                "velocity": 70
            },
            {
                "start": 209.41515375,
                "end": 209.51130395833331,
                "pitch": 51,
                "velocity": 60
            },
            {
                "start": 209.530534,
                "end": 209.59783914583332,
                "pitch": 53,
                "velocity": 70
            },
            {
                "start": 209.64591425,
                "end": 209.74206445833332,
                "pitch": 53,
                "velocity": 60
            },
            {
                "start": 209.7612945,
                "end": 209.82859964583332,
                "pitch": 53,
                "velocity": 70
            },
            {
                "start": 209.87667475,
                "end": 209.97282495833332,
                "pitch": 53,
                "velocity": 60
            },
            {
                "start": 209.992055,
                "end": 210.05936014583332,
                "pitch": 48,
                "velocity": 70
            },
            {
                "start": 210.10743524999998,
                "end": 210.19397043749998,
                "pitch": 48,
                "velocity": 60
            },
            {
                "start": 210.2228155,
                "end": 210.29012064583333,
                "pitch": 51,
                "velocity": 70
            },
            {
                "start": 210.33819574999998,
                "end": 210.43434595833332,
                "pitch": 51,
                "velocity": 60
            },
            {
                "start": 210.453576,
                "end": 210.52088114583333,
                "pitch": 53,
                "velocity": 70
            },
            {
                "start": 210.56895624999999,
                "end": 210.66510645833333,
                "pitch": 53,
                "velocity": 60
            },
            {
                "start": 210.6843365,
                "end": 210.75164164583333,
                "pitch": 53,
                "velocity": 70
            },
            {
                "start": 210.79971675,
                "end": 210.89586695833333,
                "pitch": 53,
                "velocity": 60
            },
            {
                "start": 210.915097,
                "end": 210.98240214583333,
                "pitch": 48,
                "velocity": 70
            },
            {
                "start": 211.03047725,
                "end": 211.1170124375,
                "pitch": 48,
                "velocity": 60
            },
            {
                "start": 211.1458575,
                "end": 211.21316264583334,
                "pitch": 51,
                "velocity": 70
            },
            {
                "start": 211.26123775,
                "end": 211.35738795833333,
                "pitch": 51,
                "velocity": 60
            },
            {
                "start": 211.376618,
                "end": 211.44392314583334,
                "pitch": 53,
                "velocity": 70
            },
            {
                "start": 211.49199825,
                "end": 211.58814845833334,
                "pitch": 53,
                "velocity": 60
            },
            {
                "start": 211.60737849999998,
                "end": 211.67468364583334,
                "pitch": 53,
                "velocity": 70
            },
            {
                "start": 211.72275875,
                "end": 211.81890895833334,
                "pitch": 53,
                "velocity": 60
            },
            {
                "start": 211.83813899999998,
                "end": 211.90544414583331,
                "pitch": 48,
                "velocity": 70
            },
            {
                "start": 211.95351925,
                "end": 212.0400544375,
                "pitch": 48,
                "velocity": 60
            },
            {
                "start": 212.0688995,
                "end": 212.13620464583332,
                "pitch": 51,
                "velocity": 70
            },
            {
                "start": 212.18427975,
                "end": 212.28042995833331,
                "pitch": 51,
                "velocity": 60
            },
            {
                "start": 212.29966,
                "end": 212.36696514583332,
                "pitch": 53,
                "velocity": 70
            },
            {
                "start": 212.41504025,
                "end": 212.51119045833332,
                "pitch": 53,
                "velocity": 60
            },
            {
                "start": 212.5304205,
                "end": 212.59772564583332,
                "pitch": 53,
                "velocity": 70
            },
            {
                "start": 212.64580075,
                "end": 212.74195095833332,
                "pitch": 53,
                "velocity": 60
            },
            {
                "start": 212.761181,
                "end": 212.82848614583332,
                "pitch": 48,
                "velocity": 70
            },
            {
                "start": 212.87656124999998,
                "end": 212.96309643749998,
                "pitch": 48,
                "velocity": 60
            },
            {
                "start": 212.9919415,
                "end": 213.05924664583333,
                "pitch": 51,
                "velocity": 70
            },
            {
                "start": 213.10732174999998,
                "end": 213.20347195833332,
                "pitch": 51,
                "velocity": 60
            },
            {
                "start": 213.222702,
                "end": 213.29000714583333,
                "pitch": 53,
                "velocity": 70
            },
            {
                "start": 213.33808224999999,
                "end": 213.43423245833333,
                "pitch": 53,
                "velocity": 60
            },
            {
                "start": 213.4534625,
                "end": 213.52076764583333,
                "pitch": 53,
                "velocity": 70
            },
            {
                "start": 213.56884275,
                "end": 213.66499295833333,
                "pitch": 53,
                "velocity": 60
            },
            {
                "start": 213.684223,
                "end": 213.75152814583333,
                "pitch": 48,
                "velocity": 70
            },
            {
                "start": 213.79960325,
                "end": 213.8861384375,
                "pitch": 48,
                "velocity": 60
            },
            {
                "start": 213.9149835,
                "end": 213.98228864583334,
                "pitch": 51,
                "velocity": 70
            },
            {
                "start": 214.03036375,
                "end": 214.12651395833333,
                "pitch": 51,
                "velocity": 60
            },
            {
                "start": 214.145744,
                "end": 214.21304914583334,
                "pitch": 53,
                "velocity": 70
            },
            {
                "start": 214.26112425,
                "end": 214.35727445833334,
                "pitch": 53,
                "velocity": 60
            },
            {
                "start": 214.37650449999998,
                "end": 214.44380964583334,
                "pitch": 53,
                "velocity": 70
            },
            {
                "start": 214.49188475,
                "end": 214.58803495833334,
                "pitch": 53,
                "velocity": 60
            },
            {
                "start": 214.60726499999998,
                "end": 214.67457014583331,
                "pitch": 48,
                "velocity": 70
            },
            {
                "start": 214.72264525,
                "end": 214.8091804375,
                "pitch": 48,
                "velocity": 60
            },
            {
                "start": 214.8380255,
                "end": 214.90533064583332,
                "pitch": 51,
                "velocity": 70
            },
            {
                "start": 214.95340575,
                "end": 215.04955595833331,
                "pitch": 51,
                "velocity": 60
            },
            {
                "start": 215.068786,
                "end": 215.13609114583332,
                "pitch": 53,
                "velocity": 70
            },
            {
                "start": 215.18416625,
                "end": 215.28031645833332,
                "pitch": 53,
                "velocity": 60
            },
            {
                "start": 215.2995465,
                "end": 215.36685164583332,
                "pitch": 53,
                "velocity": 70
            },
            {
                "start": 215.41492675,
                "end": 215.51107695833332,
                "pitch": 53,
                "velocity": 60
            },
            {
                "start": 215.530307,
                "end": 215.59761214583332,
                "pitch": 48,
                "velocity": 70
            },
            {
                "start": 215.64568724999998,
                "end": 215.73222243749998,
                "pitch": 48,
                "velocity": 60
            },
            {
                "start": 215.7610675,
                "end": 215.82837264583333,
                "pitch": 51,
                "velocity": 70
            },
            {
                "start": 215.87644774999998,
                "end": 215.97259795833332,
                "pitch": 51,
                "velocity": 60
            },
            {
                "start": 215.991828,
                "end": 216.05913314583333,
                "pitch": 53,
                "velocity": 70
            },
            {
                "start": 216.10720824999999,
                "end": 216.20335845833333,
                "pitch": 53,
                "velocity": 60
            },
            {
                "start": 216.2225885,
                "end": 216.28989364583333,
                "pitch": 53,
                "velocity": 70
            },
            {
                "start": 216.33796875,
                "end": 216.43411895833333,
                "pitch": 53,
                "velocity": 60
            },
            {
                "start": 216.453349,
                "end": 216.52065414583333,
                "pitch": 48,
                "velocity": 70
            },
            {
                "start": 216.56872925,
                "end": 216.6552644375,
                "pitch": 48,
                "velocity": 60
            },
            {
                "start": 216.6841095,
                "end": 216.75141464583334,
                "pitch": 51,
                "velocity": 70
            },
            {
                "start": 216.79948975,
                "end": 216.89563995833333,
                "pitch": 51,
                "velocity": 60
            },
            {
                "start": 216.91487,
                "end": 216.98217514583334,
                "pitch": 53,
                "velocity": 70
            },
            {
                "start": 217.03025025,
                "end": 217.12640045833334,
                "pitch": 53,
                "velocity": 60
            },
            {
                "start": 217.14563049999998,
                "end": 217.21293564583334,
                "pitch": 53,
                "velocity": 70
            },
            {
                "start": 217.26101075,
                "end": 217.35716095833334,
                "pitch": 53,
                "velocity": 60
            },
            {
                "start": 217.37639099999998,
                "end": 217.44369614583331,
                "pitch": 48,
                "velocity": 70
            },
            {
                "start": 217.49177125,
                "end": 217.5783064375,
                "pitch": 48,
                "velocity": 60
            },
            {
                "start": 217.6071515,
                "end": 217.67445664583332,
                "pitch": 51,
                "velocity": 70
            },
            {
                "start": 217.72253175,
                "end": 217.81868195833331,
                "pitch": 51,
                "velocity": 60
            },
            {
                "start": 217.837912,
                "end": 217.90521714583332,
                "pitch": 53,
                "velocity": 70
            }
        ],
        "pitch_classes": [
            32,
            0,
            0,
            32,
            0,
            69,
            0,
            0,
            4,
            0,
            5,
            0
        ],
        "velocity_mean": 65.0,
        "pitch_mean": 51.683098591549296,
        "pitch_std": 2.436141368009581,
        "duration_mean": 0.0805088716255868,
        "song_name": "Workaholic.1.mid",
        "tempo": 257.0566824225264,
        "time_signature": "4/4",
        "key": "C",
        "camelot_key": "5A",
        "maj_min": "minor"
    },
    "Tribal_Dance_edit_.1.mid_100.75970763435217_119.42757217814781": {
        "instrument_no": 10,
        "instrument_category": "Other",
        "program": 119,
        "is_drum": false,
        "section_start": 100.75970763435217,
        "section_end": 119.42757217814781,
        "notes": [
            {
                "start": 101.99989799999999,
                "end": 103.39412737499998,
                "pitch": 60,
                "velocity": 74
            }
        ],
        "pitch_classes": [
            1,
            0,
            0,
            0,
            0,
            0,
            0,
            0,
            0,
            0,
            0,
            0
        ],
        "velocity_mean": 74.0,
        "pitch_mean": 60.0,
        "pitch_std": 0.0,
        "duration_mean": 1.3942293749999948,
        "song_name": "Tribal_Dance_edit_.1.mid",
        "tempo": 257.1263568331014,
        "time_signature": "4/4",
        "key": "C",
        "camelot_key": "8B",
        "maj_min": "major"
    },
    "Tribal_Dance_edit_.1.mid_201.51941526870434_220.18727981249998": {
        "instrument_no": 2,
        "instrument_category": "Bass",
        "program": 38,
        "is_drum": false,
        "section_start": 201.51941526870434,
        "section_end": 220.18727981249998,
        "notes": [
            {
                "start": 201.5767215,
                "end": 201.67287524999998,
                "pitch": 58,
                "velocity": 60
            },
            {
                "start": 201.69210599999997,
                "end": 201.75941362499998,
                "pitch": 53,
                "velocity": 70
            },
            {
                "start": 201.80749049999997,
                "end": 201.89402887499998,
                "pitch": 53,
                "velocity": 60
            },
            {
                "start": 201.92287499999998,
                "end": 201.990182625,
                "pitch": 56,
                "velocity": 70
            },
            {
                "start": 202.03825949999998,
                "end": 202.13441324999997,
                "pitch": 56,
                "velocity": 60
            },
            {
                "start": 202.15364399999999,
                "end": 202.22095162499997,
                "pitch": 58,
                "velocity": 70
            },
            {
                "start": 202.2690285,
                "end": 202.36518224999998,
                "pitch": 58,
                "velocity": 60
            },
            {
                "start": 202.38441299999997,
                "end": 202.45172062499998,
                "pitch": 58,
                "velocity": 70
            },
            {
                "start": 202.49979749999997,
                "end": 202.59595124999998,
                "pitch": 58,
                "velocity": 60
            },
            {
                "start": 202.61518199999998,
                "end": 202.682489625,
                "pitch": 53,
                "velocity": 70
            },
            {
                "start": 202.73056649999998,
                "end": 202.81710487499998,
                "pitch": 53,
                "velocity": 60
            },
            {
                "start": 202.84595099999999,
                "end": 202.91325862499997,
                "pitch": 56,
                "velocity": 70
            },
            {
                "start": 202.9613355,
                "end": 203.05748924999997,
                "pitch": 56,
                "velocity": 60
            },
            {
                "start": 203.07671999999997,
                "end": 203.14402762499998,
                "pitch": 53,
                "velocity": 70
            },
            {
                "start": 203.19210449999997,
                "end": 203.28825824999998,
                "pitch": 53,
                "velocity": 60
            },
            {
                "start": 203.30748899999998,
                "end": 203.374796625,
                "pitch": 53,
                "velocity": 70
            },
            {
                "start": 203.42287349999998,
                "end": 203.51902724999997,
                "pitch": 53,
                "velocity": 60
            },
            {
                "start": 203.53825799999998,
                "end": 203.60556562499997,
                "pitch": 48,
                "velocity": 70
            },
            {
                "start": 203.6536425,
                "end": 203.74018087499996,
                "pitch": 48,
                "velocity": 60
            },
            {
                "start": 203.76902699999997,
                "end": 203.83633462499998,
                "pitch": 51,
                "velocity": 70
            },
            {
                "start": 203.88441149999997,
                "end": 203.98056524999998,
                "pitch": 51,
                "velocity": 60
            },
            {
                "start": 203.99979599999998,
                "end": 204.067103625,
                "pitch": 53,
                "velocity": 70
            },
            {
                "start": 204.11518049999998,
                "end": 204.21133424999996,
                "pitch": 53,
                "velocity": 60
            },
            {
                "start": 204.23056499999998,
                "end": 204.29787262499997,
                "pitch": 53,
                "velocity": 70
            },
            {
                "start": 204.3459495,
                "end": 204.44210324999997,
                "pitch": 53,
                "velocity": 60
            },
            {
                "start": 204.46133399999997,
                "end": 204.52864162499998,
                "pitch": 48,
                "velocity": 70
            },
            {
                "start": 204.57671849999997,
                "end": 204.66325687499997,
                "pitch": 48,
                "velocity": 60
            },
            {
                "start": 204.69210299999997,
                "end": 204.759410625,
                "pitch": 51,
                "velocity": 70
            },
            {
                "start": 204.80748749999998,
                "end": 204.90364124999996,
                "pitch": 51,
                "velocity": 60
            },
            {
                "start": 204.92287199999998,
                "end": 204.99017962499997,
                "pitch": 53,
                "velocity": 70
            },
            {
                "start": 205.0382565,
                "end": 205.13441024999997,
                "pitch": 53,
                "velocity": 60
            },
            {
                "start": 205.15364099999996,
                "end": 205.22094862499998,
                "pitch": 53,
                "velocity": 70
            },
            {
                "start": 205.26902549999997,
                "end": 205.36517924999998,
                "pitch": 53,
                "velocity": 60
            },
            {
                "start": 205.38440999999997,
                "end": 205.451717625,
                "pitch": 48,
                "velocity": 70
            },
            {
                "start": 205.49979449999998,
                "end": 205.58633287499998,
                "pitch": 48,
                "velocity": 60
            },
            {
                "start": 205.61517899999998,
                "end": 205.68248662499997,
                "pitch": 51,
                "velocity": 70
            },
            {
                "start": 205.7305635,
                "end": 205.82671724999997,
                "pitch": 51,
                "velocity": 60
            },
            {
                "start": 205.84594799999996,
                "end": 205.91325562499998,
                "pitch": 53,
                "velocity": 70
            },
            {
                "start": 205.96133249999997,
                "end": 206.05748624999998,
                "pitch": 53,
                "velocity": 60
            },
            {
                "start": 206.07671699999997,
                "end": 206.144024625,
                "pitch": 53,
                "velocity": 70
            },
            {
                "start": 206.19210149999998,
                "end": 206.28825524999996,
                "pitch": 53,
                "velocity": 60
            },
            {
                "start": 206.30748599999998,
                "end": 206.37479362499997,
                "pitch": 48,
                "velocity": 70
            },
            {
                "start": 206.4228705,
                "end": 206.50940887499996,
                "pitch": 48,
                "velocity": 60
            },
            {
                "start": 206.53825499999996,
                "end": 206.60556262499998,
                "pitch": 51,
                "velocity": 70
            },
            {
                "start": 206.65363949999997,
                "end": 206.74979324999998,
                "pitch": 51,
                "velocity": 60
            },
            {
                "start": 206.76902399999997,
                "end": 206.83633162499999,
                "pitch": 53,
                "velocity": 70
            },
            {
                "start": 206.88440849999998,
                "end": 206.98056224999996,
                "pitch": 53,
                "velocity": 60
            },
            {
                "start": 206.99979299999998,
                "end": 207.06710062499997,
                "pitch": 53,
                "velocity": 70
            },
            {
                "start": 207.1151775,
                "end": 207.21133124999997,
                "pitch": 53,
                "velocity": 60
            },
            {
                "start": 207.23056199999996,
                "end": 207.29786962499998,
                "pitch": 48,
                "velocity": 70
            },
            {
                "start": 207.34594649999997,
                "end": 207.43248487499997,
                "pitch": 48,
                "velocity": 60
            },
            {
                "start": 207.46133099999997,
                "end": 207.52863862499999,
                "pitch": 51,
                "velocity": 70
            },
            {
                "start": 207.57671549999998,
                "end": 207.67286925,
                "pitch": 51,
                "velocity": 60
            },
            {
                "start": 207.69209999999998,
                "end": 207.75940762499997,
                "pitch": 53,
                "velocity": 70
            },
            {
                "start": 207.8074845,
                "end": 207.90363824999997,
                "pitch": 53,
                "velocity": 60
            },
            {
                "start": 207.92286899999996,
                "end": 207.99017662499998,
                "pitch": 53,
                "velocity": 70
            },
            {
                "start": 208.03825349999997,
                "end": 208.13440724999998,
                "pitch": 53,
                "velocity": 60
            },
            {
                "start": 208.15363799999997,
                "end": 208.22094562499998,
                "pitch": 48,
                "velocity": 70
            },
            {
                "start": 208.26902249999998,
                "end": 208.35556087499998,
                "pitch": 48,
                "velocity": 60
            },
            {
                "start": 208.38440699999998,
                "end": 208.45171462499997,
                "pitch": 51,
                "velocity": 70
            },
            {
                "start": 208.4997915,
                "end": 208.59594524999997,
                "pitch": 51,
                "velocity": 60
            },
            {
                "start": 208.61517599999996,
                "end": 208.68248362499997,
                "pitch": 53,
                "velocity": 70
            },
            {
                "start": 208.73056049999997,
                "end": 208.82671424999998,
                "pitch": 53,
                "velocity": 60
            },
            {
                "start": 208.84594499999997,
                "end": 208.91325262499998,
                "pitch": 53,
                "velocity": 70
            },
            {
                "start": 208.96132949999998,
                "end": 209.05748325,
                "pitch": 53,
                "velocity": 60
            },
            {
                "start": 209.07671399999998,
                "end": 209.14402162499997,
                "pitch": 48,
                "velocity": 70
            },
            {
                "start": 209.1920985,
                "end": 209.278636875,
                "pitch": 48,
                "velocity": 60
            },
            {
                "start": 209.307483,
                "end": 209.37479062499997,
                "pitch": 51,
                "velocity": 70
            },
            {
                "start": 209.42286749999997,
                "end": 209.51902124999998,
                "pitch": 51,
                "velocity": 60
            },
            {
                "start": 209.53825199999997,
                "end": 209.60555962499998,
                "pitch": 53,
                "velocity": 70
            },
            {
                "start": 209.65363649999998,
                "end": 209.74979025,
                "pitch": 53,
                "velocity": 60
            },
            {
                "start": 209.76902099999998,
                "end": 209.83632862499996,
                "pitch": 53,
                "velocity": 70
            },
            {
                "start": 209.88440549999999,
                "end": 209.98055924999997,
                "pitch": 53,
                "velocity": 60
            },
            {
                "start": 209.99979,
                "end": 210.06709762499997,
                "pitch": 48,
                "velocity": 70
            },
            {
                "start": 210.11517449999997,
                "end": 210.20171287499997,
                "pitch": 48,
                "velocity": 60
            },
            {
                "start": 210.23055899999997,
                "end": 210.29786662499998,
                "pitch": 51,
                "velocity": 70
            },
            {
                "start": 210.34594349999998,
                "end": 210.44209725,
                "pitch": 51,
                "velocity": 60
            },
            {
                "start": 210.46132799999998,
                "end": 210.52863562499996,
                "pitch": 53,
                "velocity": 70
            },
            {
                "start": 210.57671249999999,
                "end": 210.67286624999997,
                "pitch": 53,
                "velocity": 60
            },
            {
                "start": 210.692097,
                "end": 210.75940462499997,
                "pitch": 53,
                "velocity": 70
            },
            {
                "start": 210.80748149999997,
                "end": 210.90363524999998,
                "pitch": 53,
                "velocity": 60
            },
            {
                "start": 210.92286599999997,
                "end": 210.99017362499998,
                "pitch": 48,
                "velocity": 70
            },
            {
                "start": 211.03825049999998,
                "end": 211.12478887499998,
                "pitch": 48,
                "velocity": 60
            },
            {
                "start": 211.15363499999998,
                "end": 211.22094262499996,
                "pitch": 51,
                "velocity": 70
            },
            {
                "start": 211.26901949999998,
                "end": 211.36517324999997,
                "pitch": 51,
                "velocity": 60
            },
            {
                "start": 211.384404,
                "end": 211.45171162499997,
                "pitch": 53,
                "velocity": 70
            },
            {
                "start": 211.49978849999997,
                "end": 211.59594224999998,
                "pitch": 53,
                "velocity": 60
            },
            {
                "start": 211.61517299999997,
                "end": 211.68248062499998,
                "pitch": 53,
                "velocity": 70
            },
            {
                "start": 211.73055749999997,
                "end": 211.82671125,
                "pitch": 53,
                "velocity": 60
            },
            {
                "start": 211.84594199999998,
                "end": 211.91324962499996,
                "pitch": 48,
                "velocity": 70
            },
            {
                "start": 211.96132649999998,
                "end": 212.047864875,
                "pitch": 48,
                "velocity": 60
            },
            {
                "start": 212.076711,
                "end": 212.14401862499997,
                "pitch": 51,
                "velocity": 70
            },
            {
                "start": 212.19209549999997,
                "end": 212.28824924999998,
                "pitch": 51,
                "velocity": 60
            },
            {
                "start": 212.30747999999997,
                "end": 212.37478762499998,
                "pitch": 53,
                "velocity": 70
            },
            {
                "start": 212.42286449999997,
                "end": 212.51901825,
                "pitch": 53,
                "velocity": 60
            },
            {
                "start": 212.53824899999998,
                "end": 212.60555662499996,
                "pitch": 53,
                "velocity": 70
            },
            {
                "start": 212.65363349999998,
                "end": 212.74978724999997,
                "pitch": 53,
                "velocity": 60
            },
            {
                "start": 212.769018,
                "end": 212.83632562499997,
                "pitch": 48,
                "velocity": 70
            },
            {
                "start": 212.88440249999996,
                "end": 212.97094087499997,
                "pitch": 48,
                "velocity": 60
            },
            {
                "start": 212.99978699999997,
                "end": 213.06709462499998,
                "pitch": 51,
                "velocity": 70
            },
            {
                "start": 213.11517149999997,
                "end": 213.21132525,
                "pitch": 51,
                "velocity": 60
            },
            {
                "start": 213.23055599999998,
                "end": 213.29786362499996,
                "pitch": 53,
                "velocity": 70
            },
            {
                "start": 213.34594049999998,
                "end": 213.44209424999997,
                "pitch": 53,
                "velocity": 60
            },
            {
                "start": 213.461325,
                "end": 213.52863262499997,
                "pitch": 53,
                "velocity": 70
            },
            {
                "start": 213.57670949999996,
                "end": 213.67286324999998,
                "pitch": 53,
                "velocity": 60
            },
            {
                "start": 213.69209399999997,
                "end": 213.75940162499998,
                "pitch": 48,
                "velocity": 70
            },
            {
                "start": 213.80747849999997,
                "end": 213.89401687499998,
                "pitch": 48,
                "velocity": 60
            },
            {
                "start": 213.92286299999998,
                "end": 213.99017062499996,
                "pitch": 51,
                "velocity": 70
            },
            {
                "start": 214.03824749999998,
                "end": 214.13440124999997,
                "pitch": 51,
                "velocity": 60
            },
            {
                "start": 214.153632,
                "end": 214.22093962499997,
                "pitch": 53,
                "velocity": 70
            },
            {
                "start": 214.26901649999996,
                "end": 214.36517024999998,
                "pitch": 53,
                "velocity": 60
            },
            {
                "start": 214.38440099999997,
                "end": 214.45170862499998,
                "pitch": 53,
                "velocity": 70
            },
            {
                "start": 214.49978549999997,
                "end": 214.59593925,
                "pitch": 53,
                "velocity": 60
            },
            {
                "start": 214.61516999999998,
                "end": 214.682477625,
                "pitch": 48,
                "velocity": 70
            },
            {
                "start": 214.73055449999998,
                "end": 214.817092875,
                "pitch": 48,
                "velocity": 60
            },
            {
                "start": 214.845939,
                "end": 214.91324662499997,
                "pitch": 51,
                "velocity": 70
            },
            {
                "start": 214.96132349999996,
                "end": 215.05747724999998,
                "pitch": 51,
                "velocity": 60
            },
            {
                "start": 215.07670799999997,
                "end": 215.14401562499998,
                "pitch": 53,
                "velocity": 70
            },
            {
                "start": 215.19209249999997,
                "end": 215.28824625,
                "pitch": 53,
                "velocity": 60
            },
            {
                "start": 215.30747699999998,
                "end": 215.374784625,
                "pitch": 53,
                "velocity": 70
            },
            {
                "start": 215.42286149999998,
                "end": 215.51901524999997,
                "pitch": 53,
                "velocity": 60
            },
            {
                "start": 215.538246,
                "end": 215.60555362499997,
                "pitch": 48,
                "velocity": 70
            },
            {
                "start": 215.65363049999996,
                "end": 215.74016887499997,
                "pitch": 48,
                "velocity": 60
            },
            {
                "start": 215.76901499999997,
                "end": 215.83632262499998,
                "pitch": 51,
                "velocity": 70
            },
            {
                "start": 215.88439949999997,
                "end": 215.98055324999999,
                "pitch": 51,
                "velocity": 60
            },
            {
                "start": 215.99978399999998,
                "end": 216.067091625,
                "pitch": 53,
                "velocity": 70
            },
            {
                "start": 216.11516849999998,
                "end": 216.21132224999997,
                "pitch": 53,
                "velocity": 60
            },
            {
                "start": 216.230553,
                "end": 216.29786062499997,
                "pitch": 53,
                "velocity": 70
            },
            {
                "start": 216.34593749999996,
                "end": 216.44209124999998,
                "pitch": 53,
                "velocity": 60
            },
            {
                "start": 216.46132199999997,
                "end": 216.52862962499998,
                "pitch": 48,
                "velocity": 70
            },
            {
                "start": 216.57670649999997,
                "end": 216.66324487499998,
                "pitch": 48,
                "velocity": 60
            },
            {
                "start": 216.69209099999998,
                "end": 216.759398625,
                "pitch": 51,
                "velocity": 70
            },
            {
                "start": 216.80747549999998,
                "end": 216.90362924999997,
                "pitch": 51,
                "velocity": 60
            },
            {
                "start": 216.92286,
                "end": 216.99016762499997,
                "pitch": 53,
                "velocity": 70
            },
            {
                "start": 217.03824449999996,
                "end": 217.13439824999998,
                "pitch": 53,
                "velocity": 60
            },
            {
                "start": 217.15362899999997,
                "end": 217.22093662499998,
                "pitch": 53,
                "velocity": 70
            },
            {
                "start": 217.26901349999997,
                "end": 217.36516724999998,
                "pitch": 53,
                "velocity": 60
            },
            {
                "start": 217.38439799999998,
                "end": 217.451705625,
                "pitch": 48,
                "velocity": 70
            },
            {
                "start": 217.49978249999998,
                "end": 217.58632087499998,
                "pitch": 48,
                "velocity": 60
            },
            {
                "start": 217.61516699999999,
                "end": 217.68247462499997,
                "pitch": 51,
                "velocity": 70
            },
            {
                "start": 217.73055149999996,
                "end": 217.82670524999997,
                "pitch": 51,
                "velocity": 60
            },
            {
                "start": 217.84593599999997,
                "end": 217.91324362499998,
                "pitch": 53,
                "velocity": 70
            }
        ],
        "pitch_classes": [
            32,
            0,
            0,
            32,
            0,
            69,
            0,
            0,
            4,
            0,
            5,
            0
        ],
        "velocity_mean": 65.0,
        "pitch_mean": 51.683098591549296,
        "pitch_std": 2.436141368009581,
        "duration_mean": 0.08051183714788744,
        "song_name": "Tribal_Dance_edit_.1.mid",
        "tempo": 257.1263568331014,
        "time_signature": "4/4",
        "key": "C",
        "camelot_key": "5A",
        "maj_min": "minor"
    },
    "Workaholic.mid_0.0_18.737446461640207": {
        "instrument_no": 8,
        "instrument_category": "Piano",
        "program": 0,
        "is_drum": false,
        "section_start": 0.0,
        "section_end": 18.737446461640207,
        "notes": [
            {
                "start": 18.230435,
                "end": 18.444373385416668,
                "pitch": 50,
                "velocity": 112
            },
            {
                "start": 18.461199999999998,
                "end": 18.67033078125,
                "pitch": 52,
                "velocity": 121
            },
            {
                "start": 18.691965,
                "end": 18.903499583333332,
                "pitch": 48,
                "velocity": 114
            }
        ],
        "pitch_classes": [
            1,
            0,
            1,
            0,
            1,
            0,
            0,
            0,
            0,
            0,
            0,
            0
        ],
        "velocity_mean": 115.66666666666667,
        "pitch_mean": 50.0,
        "pitch_std": 1.632993161855452,
        "duration_mean": 0.21153458333333455,
        "song_name": "Workaholic.mid",
        "tempo": 256.17151247512226,
        "time_signature": "4/4",
        "key": "C",
        "camelot_key": "8B",
        "maj_min": "major"
    },
    "Workaholic.mid_99.98864684730489_118.7260933089451": {
        "instrument_no": 11,
        "instrument_category": "Piano",
        "program": 0,
        "is_drum": false,
        "section_start": 99.98864684730489,
        "section_end": 118.7260933089451,
        "notes": [
            {
                "start": 106.1519,
                "end": 107.45476072916667,
                "pitch": 57,
                "velocity": 115
            }
        ],
        "pitch_classes": [
            0,
            0,
            0,
            0,
            0,
            0,
            0,
            0,
            0,
            1,
            0,
            0
        ],
        "velocity_mean": 115.0,
        "pitch_mean": 57.0,
        "pitch_std": 0.0,
        "duration_mean": 1.3028607291666674,
        "song_name": "Workaholic.mid",
        "tempo": 256.17151247512226,
        "time_signature": "4/4",
        "key": "C",
        "camelot_key": "8B",
        "maj_min": "major"
    },
    "Workaholic.mid_199.97729369460978_218.71474015625": {
        "instrument_no": 13,
        "instrument_category": "Piano",
        "program": 0,
        "is_drum": false,
        "section_start": 199.97729369460978,
        "section_end": 218.71474015625,
        "notes": [
            {
                "start": 211.38074,
                "end": 211.57304416666668,
                "pitch": 40,
                "velocity": 97
            },
            {
                "start": 211.7268875,
                "end": 211.91198026041667,
                "pitch": 40,
                "velocity": 97
            },
            {
                "start": 212.073035,
                "end": 212.27735817708333,
                "pitch": 40,
                "velocity": 97
            },
            {
                "start": 212.534565,
                "end": 212.93359614583332,
                "pitch": 41,
                "velocity": 97
            },
            {
                "start": 212.996095,
                "end": 213.2124371875,
                "pitch": 38,
                "velocity": 96
            },
            {
                "start": 213.22686,
                "end": 213.40233755208334,
                "pitch": 40,
                "velocity": 97
            },
            {
                "start": 213.5730075,
                "end": 213.75088885416667,
                "pitch": 40,
                "velocity": 97
            },
            {
                "start": 213.919155,
                "end": 214.09222875,
                "pitch": 40,
                "velocity": 97
            },
            {
                "start": 214.380685,
                "end": 214.78933135416668,
                "pitch": 43,
                "velocity": 97
            },
            {
                "start": 214.842215,
                "end": 215.07057619791667,
                "pitch": 45,
                "velocity": 94
            },
            {
                "start": 215.07298,
                "end": 215.26528416666667,
                "pitch": 40,
                "velocity": 97
            },
            {
                "start": 215.4191275,
                "end": 215.60422026041667,
                "pitch": 40,
                "velocity": 97
            },
            {
                "start": 215.765275,
                "end": 215.96959817708333,
                "pitch": 40,
                "velocity": 97
            },
            {
                "start": 216.22680499999998,
                "end": 216.62583614583332,
                "pitch": 41,
                "velocity": 97
            },
            {
                "start": 216.688335,
                "end": 216.9046771875,
                "pitch": 38,
                "velocity": 96
            },
            {
                "start": 216.9191,
                "end": 217.20996005208332,
                "pitch": 40,
                "velocity": 97
            }
        ],
        "pitch_classes": [
            0,
            0,
            2,
            0,
            10,
            2,
            0,
            1,
            0,
            1,
            0,
            0
        ],
        "velocity_mean": 96.6875,
        "pitch_mean": 40.375,
        "pitch_std": 1.6153559979150107,
        "duration_mean": 0.2405304459635449,
        "song_name": "Workaholic.mid",
        "tempo": 256.17151247512226,
        "time_signature": "4/4",
        "key": "C",
        "camelot_key": "8B",
        "maj_min": "major"
    },
    "The_Real_Thing.1.mid_203.56872932166303_222.37740000000002": {
        "instrument_no": 11,
        "instrument_category": "Other",
        "program": 18,
        "is_drum": false,
        "section_start": 203.56872932166303,
        "section_end": 222.37740000000002,
        "notes": [
            {
                "start": 218.18160000000003,
                "end": 219.96481500000002,
                "pitch": 45,
                "velocity": 127
            },
            {
                "start": 218.18160000000003,
                "end": 219.96481500000002,
                "pitch": 69,
                "velocity": 127
            },
            {
                "start": 218.18160000000003,
                "end": 219.96481500000002,
                "pitch": 64,
                "velocity": 127
            },
            {
                "start": 218.18160000000003,
                "end": 219.96481500000002,
                "pitch": 57,
                "velocity": 127
            }
        ],
        "pitch_classes": [
            0,
            0,
            0,
            0,
            1,
            0,
            0,
            0,
            0,
            3,
            0,
            0
        ],
        "velocity_mean": 127.0,
        "pitch_mean": 58.75,
        "pitch_std": 9.01041064547005,
        "duration_mean": 1.7832149999999842,
        "song_name": "The_Real_Thing.1.mid",
        "tempo": 255.20144842178726,
        "time_signature": "4/4",
        "key": "C",
        "camelot_key": "8B",
        "maj_min": "major"
    },
    "The_Real_Thing.2.mid_205.194601821663_224.0032725": {
        "instrument_no": 10,
        "instrument_category": "Other",
        "program": 18,
        "is_drum": false,
        "section_start": 205.194601821663,
        "section_end": 224.0032725,
        "notes": [
            {
                "start": 219.85992000000002,
                "end": 221.64313500000003,
                "pitch": 69,
                "velocity": 127
            },
            {
                "start": 219.85992000000002,
                "end": 221.64313500000003,
                "pitch": 64,
                "velocity": 127
            },
            {
                "start": 219.85992000000002,
                "end": 221.64313500000003,
                "pitch": 57,
                "velocity": 127
            },
            {
                "start": 219.85992000000002,
                "end": 221.64313500000003,
                "pitch": 45,
                "velocity": 127
            }
        ],
        "pitch_classes": [
            0,
            0,
            0,
            0,
            1,
            0,
            0,
            0,
            0,
            3,
            0,
            0
        ],
        "velocity_mean": 127.0,
        "pitch_mean": 58.75,
        "pitch_std": 9.01041064547005,
        "duration_mean": 1.7832150000000127,
        "song_name": "The_Real_Thing.2.mid",
        "tempo": 255.20144842178715,
        "time_signature": "4/4",
        "key": "C",
        "camelot_key": "8B",
        "maj_min": "major"
    },
    "Let_the_Beat_Control_Your_Body.1.mid_0.0_17.499373677677053": {
        "instrument_no": 8,
        "instrument_category": "Other",
        "program": 62,
        "is_drum": false,
        "section_start": 0.0,
        "section_end": 17.499373677677053,
        "notes": [
            {
                "start": 15.211079999999999,
                "end": 15.433348385416664,
                "pitch": 32,
                "velocity": 75
            }
        ],
        "pitch_classes": [
            0,
            0,
            0,
            0,
            0,
            0,
            0,
            0,
            1,
            0,
            0,
            0
        ],
        "velocity_mean": 75.0,
        "pitch_mean": 32.0,
        "pitch_std": 0.0,
        "duration_mean": 0.22226838541666538,
        "song_name": "Let_the_Beat_Control_Your_Body.1.mid",
        "tempo": 274.29553128081864,
        "time_signature": "4/4",
        "key": "C",
        "camelot_key": "5A",
        "maj_min": "minor"
    },
    "Let_the_Beat_Control_Your_Body.1.mid_102.92587243199479_120.42524610967185": {
        "instrument_no": 8,
        "instrument_category": "Other",
        "program": 62,
        "is_drum": false,
        "section_start": 102.92587243199479,
        "section_end": 120.42524610967185,
        "notes": [
            {
                "start": 113.23803999999998,
                "end": 113.41629484375,
                "pitch": 32,
                "velocity": 75
            },
            {
                "start": 113.66056999999999,
                "end": 113.83882484374999,
                "pitch": 32,
                "velocity": 75
            },
            {
                "start": 114.08309999999999,
                "end": 114.15132098958333,
                "pitch": 32,
                "velocity": 75
            },
            {
                "start": 114.29436499999998,
                "end": 114.47261984375,
                "pitch": 32,
                "velocity": 75
            },
            {
                "start": 114.716895,
                "end": 114.89514984374999,
                "pitch": 32,
                "velocity": 75
            },
            {
                "start": 115.13942499999999,
                "end": 115.31767984374999,
                "pitch": 32,
                "velocity": 75
            },
            {
                "start": 115.56195499999998,
                "end": 115.74020984375,
                "pitch": 32,
                "velocity": 75
            },
            {
                "start": 115.98448499999999,
                "end": 116.16273984374999,
                "pitch": 32,
                "velocity": 75
            },
            {
                "start": 116.19574999999999,
                "end": 116.26397098958333,
                "pitch": 32,
                "velocity": 75
            },
            {
                "start": 116.40701499999999,
                "end": 116.58526984374998,
                "pitch": 32,
                "velocity": 75
            }
        ],
        "pitch_classes": [
            0,
            0,
            0,
            0,
            0,
            0,
            0,
            0,
            10,
            0,
            0,
            0
        ],
        "velocity_mean": 75.0,
        "pitch_mean": 32.0,
        "pitch_std": 0.0,
        "duration_mean": 0.1562480729166694,
        "song_name": "Let_the_Beat_Control_Your_Body.1.mid",
        "tempo": 274.29553128081864,
        "time_signature": "4/4",
        "key": "C",
        "camelot_key": "5A",
        "maj_min": "minor"
    },
    "Let_the_Beat_Control_Your_Body.1.mid_205.85174486398958_223.35111854166664": {
        "instrument_no": 7,
        "instrument_category": "Other",
        "program": 55,
        "is_drum": false,
        "section_start": 205.85174486398958,
        "section_end": 223.35111854166664,
        "notes": [
            {
                "start": 221.40571999999997,
                "end": 221.8568588020833,
                "pitch": 68,
                "velocity": 110
            }
        ],
        "pitch_classes": [
            0,
            0,
            0,
            0,
            0,
            0,
            0,
            0,
            1,
            0,
            0,
            0
        ],
        "velocity_mean": 110.0,
        "pitch_mean": 68.0,
        "pitch_std": 0.0,
        "duration_mean": 0.4511388020833351,
        "song_name": "Let_the_Beat_Control_Your_Body.1.mid",
        "tempo": 274.29553128081864,
        "time_signature": "4/4",
        "key": "C",
        "camelot_key": "5A",
        "maj_min": "minor"
    },
    "Have_a_Nice_Day.mid_0.0_19.947916666666643": {
        "instrument_no": 21,
        "instrument_category": "Other",
        "program": 57,
        "is_drum": false,
        "section_start": 0.0,
        "section_end": 19.947916666666643,
        "notes": [
            {
                "start": 10.358333333333333,
                "end": 11.9875,
                "pitch": 48,
                "velocity": 60
            },
            {
                "start": 12.05,
                "end": 14.0125,
                "pitch": 45,
                "velocity": 62
            },
            {
                "start": 14.333333333333334,
                "end": 14.9375,
                "pitch": 43,
                "velocity": 75
            },
            {
                "start": 15.0,
                "end": 15.174999999999999,
                "pitch": 43,
                "velocity": 77
            },
            {
                "start": 15.5,
                "end": 15.674999999999999,
                "pitch": 43,
                "velocity": 79
            },
            {
                "start": 16.0,
                "end": 16.795833333333334,
                "pitch": 48,
                "velocity": 81
            },
            {
                "start": 16.833333333333332,
                "end": 17.45,
                "pitch": 48,
                "velocity": 84
            },
            {
                "start": 17.5,
                "end": 17.78333333333333,
                "pitch": 48,
                "velocity": 86
            },
            {
                "start": 17.833333333333332,
                "end": 17.9625,
                "pitch": 53,
                "velocity": 86
            }
        ],
        "pitch_classes": [
            4,
            0,
            0,
            0,
            0,
            1,
            0,
            3,
            0,
            1,
            0,
            0
        ],
        "velocity_mean": 76.66666666666667,
        "pitch_mean": 46.55555555555556,
        "pitch_std": 3.1661792997277796,
        "duration_mean": 0.70787037037037,
        "song_name": "Have_a_Nice_Day.mid",
        "tempo": 240.6266318537862,
        "time_signature": "4/4",
        "key": "C",
        "camelot_key": "8B",
        "maj_min": "major"
    },
    "Have_a_Nice_Day.mid_86.52604166666669_106.47395833333333": {
        "instrument_no": 21,
        "instrument_category": "Other",
        "program": 57,
        "is_drum": false,
        "section_start": 86.52604166666669,
        "section_end": 106.47395833333333,
        "notes": [
            {
                "start": 86.83333333333333,
                "end": 86.975,
                "pitch": 43,
                "velocity": 62
            },
            {
                "start": 87.0,
                "end": 87.05833333333334,
                "pitch": 43,
                "velocity": 56
            },
            {
                "start": 87.08333333333333,
                "end": 87.15416666666667,
                "pitch": 43,
                "velocity": 62
            },
            {
                "start": 87.5,
                "end": 87.82083333333333,
                "pitch": 49,
                "velocity": 62
            },
            {
                "start": 87.83333333333333,
                "end": 89.0,
                "pitch": 48,
                "velocity": 69
            },
            {
                "start": 89.33333333333333,
                "end": 89.49583333333334,
                "pitch": 42,
                "velocity": 69
            },
            {
                "start": 89.45,
                "end": 89.50416666666666,
                "pitch": 41,
                "velocity": 40
            },
            {
                "start": 89.49166666666666,
                "end": 89.54583333333333,
                "pitch": 40,
                "velocity": 28
            },
            {
                "start": 89.53333333333333,
                "end": 89.5875,
                "pitch": 39,
                "velocity": 17
            },
            {
                "start": 89.83333333333333,
                "end": 90.45,
                "pitch": 41,
                "velocity": 69
            },
            {
                "start": 90.5,
                "end": 90.80833333333334,
                "pitch": 41,
                "velocity": 62
            },
            {
                "start": 90.83333333333333,
                "end": 90.975,
                "pitch": 41,
                "velocity": 50
            },
            {
                "start": 91.0,
                "end": 91.29583333333333,
                "pitch": 45,
                "velocity": 62
            },
            {
                "start": 91.33333333333333,
                "end": 91.49583333333334,
                "pitch": 39,
                "velocity": 62
            },
            {
                "start": 91.83333333333333,
                "end": 93.9375,
                "pitch": 38,
                "velocity": 62
            },
            {
                "start": 94.33333333333333,
                "end": 94.49583333333334,
                "pitch": 43,
                "velocity": 69
            },
            {
                "start": 94.45,
                "end": 94.50416666666666,
                "pitch": 42,
                "velocity": 30
            },
            {
                "start": 94.49166666666666,
                "end": 94.54583333333333,
                "pitch": 41,
                "velocity": 20
            },
            {
                "start": 94.83333333333333,
                "end": 95.4375,
                "pitch": 43,
                "velocity": 69
            },
            {
                "start": 95.5,
                "end": 95.675,
                "pitch": 43,
                "velocity": 69
            },
            {
                "start": 96.33333333333333,
                "end": 96.49583333333334,
                "pitch": 48,
                "velocity": 69
            },
            {
                "start": 96.45,
                "end": 96.50416666666666,
                "pitch": 47,
                "velocity": 32
            },
            {
                "start": 96.49166666666666,
                "end": 96.54583333333333,
                "pitch": 46,
                "velocity": 23
            },
            {
                "start": 96.83333333333333,
                "end": 97.4375,
                "pitch": 48,
                "velocity": 69
            },
            {
                "start": 97.5,
                "end": 97.675,
                "pitch": 48,
                "velocity": 69
            },
            {
                "start": 98.33333333333333,
                "end": 98.79583333333333,
                "pitch": 48,
                "velocity": 62
            },
            {
                "start": 98.83333333333333,
                "end": 99.29583333333333,
                "pitch": 48,
                "velocity": 65
            },
            {
                "start": 99.33333333333333,
                "end": 99.79583333333333,
                "pitch": 51,
                "velocity": 69
            },
            {
                "start": 99.83333333333333,
                "end": 99.975,
                "pitch": 48,
                "velocity": 61
            },
            {
                "start": 100.0,
                "end": 100.15416666666667,
                "pitch": 51,
                "velocity": 72
            },
            {
                "start": 100.16666666666667,
                "end": 100.32083333333333,
                "pitch": 48,
                "velocity": 60
            },
            {
                "start": 100.33333333333333,
                "end": 101.29583333333333,
                "pitch": 53,
                "velocity": 74
            },
            {
                "start": 101.33333333333333,
                "end": 101.9625,
                "pitch": 41,
                "velocity": 69
            },
            {
                "start": 102.0,
                "end": 102.29583333333333,
                "pitch": 46,
                "velocity": 62
            },
            {
                "start": 102.33333333333333,
                "end": 102.46249999999999,
                "pitch": 46,
                "velocity": 65
            }
        ],
        "pitch_classes": [
            8,
            1,
            1,
            4,
            1,
            7,
            2,
            6,
            0,
            1,
            3,
            1
        ],
        "velocity_mean": 57.42857142857143,
        "pitch_mean": 44.628571428571426,
        "pitch_std": 3.817895563083444,
        "duration_mean": 0.3333333333333359,
        "song_name": "Have_a_Nice_Day.mid",
        "tempo": 240.6266318537862,
        "time_signature": "4/4",
        "key": "G",
        "camelot_key": "6A",
        "maj_min": "minor"
    },
    "Whats_Up.mid_0.0_30.735011999999973": {
        "instrument_no": 0,
        "instrument_category": "Bass",
        "program": 35,
        "is_drum": false,
        "section_start": 0.0,
        "section_end": 30.735011999999973,
        "notes": [
            {
                "start": 14.769215999999998,
                "end": 17.420174887499996,
                "pitch": 33,
                "velocity": 51
            },
            {
                "start": 17.490367125,
                "end": 18.4567123125,
                "pitch": 43,
                "velocity": 105
            },
            {
                "start": 18.461519999999997,
                "end": 19.961518499999997,
                "pitch": 33,
                "velocity": 112
            },
            {
                "start": 20.076902999999998,
                "end": 20.144210625,
                "pitch": 33,
                "velocity": 122
            },
            {
                "start": 20.307671999999997,
                "end": 21.427863187499998,
                "pitch": 33,
                "velocity": 115
            },
            {
                "start": 21.461516999999997,
                "end": 21.6894013875,
                "pitch": 31,
                "velocity": 115
            },
            {
                "start": 21.692286,
                "end": 22.153823999999997,
                "pitch": 38,
                "velocity": 100
            },
            {
                "start": 22.153823999999997,
                "end": 23.6586301875,
                "pitch": 35,
                "velocity": 93
            },
            {
                "start": 23.769206999999998,
                "end": 23.85766845,
                "pitch": 35,
                "velocity": 93
            },
            {
                "start": 23.999975999999997,
                "end": 25.131705637499998,
                "pitch": 35,
                "velocity": 93
            },
            {
                "start": 25.153820999999997,
                "end": 25.376897699999997,
                "pitch": 30,
                "velocity": 121
            },
            {
                "start": 25.384589999999996,
                "end": 25.607666699999996,
                "pitch": 35,
                "velocity": 92
            },
            {
                "start": 25.615358999999998,
                "end": 29.069201699999997,
                "pitch": 38,
                "velocity": 92
            },
            {
                "start": 29.076893999999996,
                "end": 29.535547387499996,
                "pitch": 37,
                "velocity": 122
            },
            {
                "start": 29.538431999999997,
                "end": 32.756698012499996,
                "pitch": 33,
                "velocity": 122
            }
        ],
        "pitch_classes": [
            0,
            1,
            2,
            0,
            0,
            0,
            1,
            2,
            0,
            5,
            0,
            4
        ],
        "velocity_mean": 103.2,
        "pitch_mean": 34.8,
        "pitch_std": 3.1240998703626612,
        "duration_mean": 1.15307577,
        "song_name": "Whats_Up.mid",
        "tempo": 156.17368231383819,
        "time_signature": "4/4",
        "key": "D",
        "camelot_key": "10B",
        "maj_min": "major"
    },
    "Whats_Up.mid_138.94670691666659_169.68171891666657": {
        "instrument_no": 2,
        "instrument_category": "Other",
        "program": 87,
        "is_drum": false,
        "section_start": 138.94670691666659,
        "section_end": 169.68171891666657,
        "notes": [
            {
                "start": 140.53040675,
                "end": 141.1957907,
                "pitch": 54,
                "velocity": 95
            },
            {
                "start": 141.22271375,
                "end": 141.70829018749998,
                "pitch": 64,
                "velocity": 93
            },
            {
                "start": 141.68425175,
                "end": 142.09771287499998,
                "pitch": 62,
                "velocity": 90
            },
            {
                "start": 142.1429051375,
                "end": 142.559250875,
                "pitch": 61,
                "velocity": 87
            },
            {
                "start": 142.60732775,
                "end": 142.9804043,
                "pitch": 57,
                "velocity": 86
            },
            {
                "start": 143.0659811375,
                "end": 143.34290393749998,
                "pitch": 54,
                "velocity": 84
            },
            {
                "start": 143.29194245,
                "end": 143.68232667499998,
                "pitch": 57,
                "velocity": 87
            },
            {
                "start": 144.2179030625,
                "end": 144.8525178125,
                "pitch": 54,
                "velocity": 90
            },
            {
                "start": 144.9102100625,
                "end": 145.35924807499998,
                "pitch": 64,
                "velocity": 89
            },
            {
                "start": 145.3717480625,
                "end": 145.8429014375,
                "pitch": 62,
                "velocity": 87
            },
            {
                "start": 145.83809374999998,
                "end": 146.2967471375,
                "pitch": 61,
                "velocity": 86
            },
            {
                "start": 146.2967471375,
                "end": 149.60732074999999,
                "pitch": 57,
                "velocity": 88
            },
            {
                "start": 150.4486660625,
                "end": 150.53039675,
                "pitch": 64,
                "velocity": 96
            },
            {
                "start": 150.68424274999998,
                "end": 150.7727042,
                "pitch": 64,
                "velocity": 96
            },
            {
                "start": 150.9102040625,
                "end": 151.41308817499998,
                "pitch": 64,
                "velocity": 98
            },
            {
                "start": 152.99193275,
                "end": 153.15827873749998,
                "pitch": 73,
                "velocity": 92
            },
            {
                "start": 153.2178940625,
                "end": 153.48231687499998,
                "pitch": 73,
                "velocity": 98
            },
            {
                "start": 153.67654745,
                "end": 153.9775086875,
                "pitch": 76,
                "velocity": 98
            },
            {
                "start": 154.14289313749998,
                "end": 154.5188543,
                "pitch": 76,
                "velocity": 95
            },
            {
                "start": 154.6025080625,
                "end": 155.482314875,
                "pitch": 66,
                "velocity": 95
            },
            {
                "start": 156.45346775,
                "end": 156.64577524999999,
                "pitch": 66,
                "velocity": 100
            },
            {
                "start": 156.67654445,
                "end": 157.1650055,
                "pitch": 71,
                "velocity": 96
            },
            {
                "start": 157.6044281375,
                "end": 157.84096636249998,
                "pitch": 71,
                "velocity": 98
            },
            {
                "start": 157.83327406249998,
                "end": 158.147696825,
                "pitch": 73,
                "velocity": 100
            },
            {
                "start": 158.2948120625,
                "end": 158.7880808,
                "pitch": 69,
                "velocity": 91
            },
            {
                "start": 158.7563500625,
                "end": 159.6409645625,
                "pitch": 66,
                "velocity": 95
            },
            {
                "start": 160.59961744999998,
                "end": 160.6794250625,
                "pitch": 69,
                "velocity": 95
            },
            {
                "start": 160.83038645,
                "end": 160.9005786875,
                "pitch": 69,
                "velocity": 93
            },
            {
                "start": 161.06115545,
                "end": 161.116924625,
                "pitch": 69,
                "velocity": 93
            },
            {
                "start": 161.29000137499997,
                "end": 161.35250131249998,
                "pitch": 69,
                "velocity": 95
            },
            {
                "start": 161.5255780625,
                "end": 161.588078,
                "pitch": 69,
                "velocity": 95
            },
            {
                "start": 161.75346245,
                "end": 161.83038545,
                "pitch": 69,
                "velocity": 94
            },
            {
                "start": 161.9890391375,
                "end": 162.4582694375,
                "pitch": 73,
                "velocity": 95
            },
            {
                "start": 162.45057713749998,
                "end": 163.34480701249998,
                "pitch": 69,
                "velocity": 95
            },
            {
                "start": 165.21980513749997,
                "end": 165.328458875,
                "pitch": 64,
                "velocity": 98
            },
            {
                "start": 165.4486510625,
                "end": 165.597689375,
                "pitch": 64,
                "velocity": 98
            },
            {
                "start": 165.6813431375,
                "end": 165.91499675,
                "pitch": 64,
                "velocity": 98
            },
            {
                "start": 167.75634106249998,
                "end": 167.839994825,
                "pitch": 73,
                "velocity": 98
            },
            {
                "start": 167.9871100625,
                "end": 168.29960975,
                "pitch": 73,
                "velocity": 100
            },
            {
                "start": 168.44864806249998,
                "end": 168.78037849999998,
                "pitch": 76,
                "velocity": 94
            },
            {
                "start": 168.91018606249997,
                "end": 169.309224125,
                "pitch": 76,
                "velocity": 96
            },
            {
                "start": 169.3717240625,
                "end": 170.232300125,
                "pitch": 66,
                "velocity": 95
            }
        ],
        "pitch_classes": [
            0,
            8,
            2,
            0,
            12,
            0,
            7,
            0,
            0,
            11,
            0,
            2
        ],
        "velocity_mean": 93.85714285714286,
        "pitch_mean": 66.45238095238095,
        "pitch_std": 6.165195632598256,
        "duration_mean": 0.42536587500000117,
        "song_name": "Whats_Up.mid",
        "tempo": 156.17368231383819,
        "time_signature": "4/4",
        "key": "D",
        "camelot_key": "10B",
        "maj_min": "major"
    },
    "Whats_Up.mid_277.89341383333317_308.62842583333315": {
        "instrument_no": 9,
        "instrument_category": "Guitar",
        "program": 25,
        "is_drum": false,
        "section_start": 277.89341383333317,
        "section_end": 308.62842583333315,
        "notes": [
            {
                "start": 278.02957507499997,
                "end": 278.125728825,
                "pitch": 57,
                "velocity": 94
            },
            {
                "start": 278.048805825,
                "end": 278.1593826375,
                "pitch": 62,
                "velocity": 86
            },
            {
                "start": 278.0661135,
                "end": 278.1843826125,
                "pitch": 66,
                "velocity": 90
            },
            {
                "start": 278.260344075,
                "end": 278.333420925,
                "pitch": 66,
                "velocity": 83
            },
            {
                "start": 278.2968825,
                "end": 278.3613055125,
                "pitch": 57,
                "velocity": 81
            },
            {
                "start": 278.279574825,
                "end": 278.36899781249997,
                "pitch": 62,
                "velocity": 65
            },
            {
                "start": 278.491113075,
                "end": 278.5593822375,
                "pitch": 57,
                "velocity": 90
            },
            {
                "start": 278.510343825,
                "end": 278.5997668125,
                "pitch": 62,
                "velocity": 65
            },
            {
                "start": 278.5276515,
                "end": 278.6189975625,
                "pitch": 66,
                "velocity": 86
            },
            {
                "start": 278.741112825,
                "end": 278.91707418749996,
                "pitch": 62,
                "velocity": 78
            },
            {
                "start": 278.7584205,
                "end": 278.9363049375,
                "pitch": 57,
                "velocity": 92
            },
            {
                "start": 278.721882075,
                "end": 278.9814972,
                "pitch": 66,
                "velocity": 80
            },
            {
                "start": 279.183420075,
                "end": 279.23245848749997,
                "pitch": 57,
                "velocity": 92
            },
            {
                "start": 279.202650825,
                "end": 279.2516892375,
                "pitch": 59,
                "velocity": 77
            },
            {
                "start": 279.21995849999996,
                "end": 279.268035375,
                "pitch": 64,
                "velocity": 78
            },
            {
                "start": 279.433419825,
                "end": 279.5901504375,
                "pitch": 59,
                "velocity": 82
            },
            {
                "start": 279.45072749999997,
                "end": 279.7343810625,
                "pitch": 57,
                "velocity": 87
            },
            {
                "start": 279.41418907499997,
                "end": 279.74111182499996,
                "pitch": 64,
                "velocity": 88
            },
            {
                "start": 279.6814965,
                "end": 279.768034875,
                "pitch": 59,
                "velocity": 79
            },
            {
                "start": 279.875727075,
                "end": 279.99591926249997,
                "pitch": 57,
                "velocity": 94
            },
            {
                "start": 279.894957825,
                "end": 280.03534229999997,
                "pitch": 61,
                "velocity": 77
            },
            {
                "start": 279.9122655,
                "end": 280.0661115,
                "pitch": 64,
                "velocity": 93
            },
            {
                "start": 280.337265075,
                "end": 280.3978419375,
                "pitch": 57,
                "velocity": 80
            },
            {
                "start": 280.35649582499997,
                "end": 280.44111112499996,
                "pitch": 61,
                "velocity": 88
            },
            {
                "start": 280.3738035,
                "end": 280.4814957,
                "pitch": 64,
                "velocity": 83
            },
            {
                "start": 280.6045725,
                "end": 280.6689955125,
                "pitch": 57,
                "velocity": 69
            },
            {
                "start": 280.568034075,
                "end": 280.671880125,
                "pitch": 64,
                "velocity": 75
            },
            {
                "start": 280.587264825,
                "end": 280.6882262625,
                "pitch": 61,
                "velocity": 75
            },
            {
                "start": 280.79880307499997,
                "end": 280.921879875,
                "pitch": 57,
                "velocity": 92
            },
            {
                "start": 280.818033825,
                "end": 280.9459183125,
                "pitch": 61,
                "velocity": 86
            },
            {
                "start": 280.83534149999997,
                "end": 281.0247643875,
                "pitch": 64,
                "velocity": 81
            },
            {
                "start": 281.260341075,
                "end": 281.3305333125,
                "pitch": 57,
                "velocity": 81
            },
            {
                "start": 281.279571825,
                "end": 281.3738025,
                "pitch": 61,
                "velocity": 68
            },
            {
                "start": 281.2968795,
                "end": 281.3978409375,
                "pitch": 64,
                "velocity": 75
            },
            {
                "start": 281.491110075,
                "end": 281.58534075,
                "pitch": 64,
                "velocity": 76
            },
            {
                "start": 281.5276485,
                "end": 281.5997638125,
                "pitch": 57,
                "velocity": 77
            },
            {
                "start": 281.510340825,
                "end": 281.60457149999996,
                "pitch": 61,
                "velocity": 65
            },
            {
                "start": 281.721879075,
                "end": 281.80977405833335,
                "pitch": 57,
                "velocity": 97
            },
            {
                "start": 281.74110982499997,
                "end": 281.84562675,
                "pitch": 61,
                "velocity": 81
            },
            {
                "start": 281.7584175,
                "end": 281.8746965,
                "pitch": 64,
                "velocity": 86
            },
            {
                "start": 281.954774625,
                "end": 282.050939,
                "pitch": 64,
                "velocity": 84
            },
            {
                "start": 281.974305875,
                "end": 282.07554525,
                "pitch": 61,
                "velocity": 56
            },
            {
                "start": 281.991884,
                "end": 282.0922775,
                "pitch": 57,
                "velocity": 87
            },
            {
                "start": 282.191343125,
                "end": 282.2420415,
                "pitch": 57,
                "velocity": 82
            },
            {
                "start": 282.211184375,
                "end": 282.32604150000003,
                "pitch": 61,
                "velocity": 74
            },
            {
                "start": 282.22904150000005,
                "end": 282.34404150000006,
                "pitch": 64,
                "velocity": 79
            },
            {
                "start": 282.47000900000006,
                "end": 282.5787486416667,
                "pitch": 57,
                "velocity": 96
            },
            {
                "start": 282.43170262500007,
                "end": 282.58179741666675,
                "pitch": 64,
                "velocity": 79
            },
            {
                "start": 282.4518638750001,
                "end": 282.5868787083334,
                "pitch": 61,
                "velocity": 80
            },
            {
                "start": 282.92429416666675,
                "end": 282.9827850375001,
                "pitch": 57,
                "velocity": 82
            },
            {
                "start": 282.94512750000007,
                "end": 283.03425555625006,
                "pitch": 59,
                "velocity": 71
            },
            {
                "start": 282.9638775000001,
                "end": 283.0374068125001,
                "pitch": 64,
                "velocity": 77
            },
            {
                "start": 283.19797847500007,
                "end": 283.39697535000005,
                "pitch": 59,
                "velocity": 85
            },
            {
                "start": 283.21704625000007,
                "end": 283.50717018750004,
                "pitch": 57,
                "velocity": 94
            },
            {
                "start": 283.17679205833343,
                "end": 283.51260496875005,
                "pitch": 64,
                "velocity": 86
            },
            {
                "start": 283.47456150000005,
                "end": 283.54738756875,
                "pitch": 61,
                "velocity": 92
            },
            {
                "start": 283.7256101041667,
                "end": 283.84166340625006,
                "pitch": 57,
                "velocity": 80
            },
            {
                "start": 283.7256101041667,
                "end": 283.86046870000007,
                "pitch": 64,
                "velocity": 88
            },
            {
                "start": 283.7256101041667,
                "end": 283.86046870000007,
                "pitch": 61,
                "velocity": 78
            },
            {
                "start": 284.2633816250001,
                "end": 284.47370228125004,
                "pitch": 57,
                "velocity": 84
            },
            {
                "start": 284.2633816250001,
                "end": 284.48990596875007,
                "pitch": 64,
                "velocity": 91
            },
            {
                "start": 284.2633816250001,
                "end": 284.5072670625001,
                "pitch": 61,
                "velocity": 86
            },
            {
                "start": 284.6096596458334,
                "end": 284.6855941354167,
                "pitch": 61,
                "velocity": 77
            },
            {
                "start": 284.6096596458334,
                "end": 284.6855941354167,
                "pitch": 57,
                "velocity": 78
            },
            {
                "start": 284.6096596458334,
                "end": 284.69143525000004,
                "pitch": 64,
                "velocity": 86
            },
            {
                "start": 284.82115206250006,
                "end": 285.05110459375004,
                "pitch": 57,
                "velocity": 85
            },
            {
                "start": 284.82115206250006,
                "end": 285.06879325000006,
                "pitch": 64,
                "velocity": 87
            },
            {
                "start": 284.82115206250006,
                "end": 285.082944175,
                "pitch": 61,
                "velocity": 81
            },
            {
                "start": 285.38718906250006,
                "end": 285.56761335625004,
                "pitch": 57,
                "velocity": 84
            },
            {
                "start": 285.38718906250006,
                "end": 285.58176428125006,
                "pitch": 64,
                "velocity": 91
            },
            {
                "start": 285.38718906250006,
                "end": 285.63483025000005,
                "pitch": 61,
                "velocity": 87
            },
            {
                "start": 285.74096218750003,
                "end": 285.8022828625,
                "pitch": 57,
                "velocity": 71
            },
            {
                "start": 285.74096218750003,
                "end": 285.82940546875005,
                "pitch": 61,
                "velocity": 83
            },
            {
                "start": 285.74096218750003,
                "end": 285.8353016875,
                "pitch": 64,
                "velocity": 86
            },
            {
                "start": 285.95322606250005,
                "end": 286.14544279375,
                "pitch": 57,
                "velocity": 85
            },
            {
                "start": 285.95322606250005,
                "end": 286.15959371875005,
                "pitch": 64,
                "velocity": 82
            },
            {
                "start": 285.95322606250005,
                "end": 286.18907481250005,
                "pitch": 61,
                "velocity": 85
            },
            {
                "start": 286.51926306250004,
                "end": 286.71147979375,
                "pitch": 57,
                "velocity": 87
            },
            {
                "start": 286.51926306250004,
                "end": 286.73152693750006,
                "pitch": 64,
                "velocity": 89
            },
            {
                "start": 286.51926306250004,
                "end": 286.78695139375003,
                "pitch": 61,
                "velocity": 86
            },
            {
                "start": 286.8730361875,
                "end": 286.9437908125,
                "pitch": 57,
                "velocity": 76
            },
            {
                "start": 286.8730361875,
                "end": 286.95204551875,
                "pitch": 64,
                "velocity": 88
            },
            {
                "start": 286.8730361875,
                "end": 286.96147946875004,
                "pitch": 61,
                "velocity": 84
            },
            {
                "start": 287.08530006250004,
                "end": 287.26572435625,
                "pitch": 57,
                "velocity": 87
            },
            {
                "start": 287.08530006250004,
                "end": 287.30110166875005,
                "pitch": 64,
                "velocity": 97
            },
            {
                "start": 287.08530006250004,
                "end": 287.33294125000003,
                "pitch": 61,
                "velocity": 91
            },
            {
                "start": 287.4390731875,
                "end": 287.51572403125004,
                "pitch": 59,
                "velocity": 79
            },
            {
                "start": 287.4390731875,
                "end": 287.52162025000007,
                "pitch": 57,
                "velocity": 78
            },
            {
                "start": 287.4390731875,
                "end": 287.5310542,
                "pitch": 64,
                "velocity": 88
            },
            {
                "start": 287.65133706250003,
                "end": 287.828223625,
                "pitch": 64,
                "velocity": 91
            },
            {
                "start": 287.65133706250003,
                "end": 287.83176135625,
                "pitch": 57,
                "velocity": 84
            },
            {
                "start": 287.65133706250003,
                "end": 287.84355379375006,
                "pitch": 59,
                "velocity": 93
            },
            {
                "start": 288.2173740625,
                "end": 288.38600591875,
                "pitch": 57,
                "velocity": 83
            },
            {
                "start": 288.2173740625,
                "end": 288.40015684375004,
                "pitch": 64,
                "velocity": 91
            },
            {
                "start": 288.2173740625,
                "end": 288.42138323125005,
                "pitch": 61,
                "velocity": 84
            },
            {
                "start": 288.7834110625,
                "end": 288.95793913750003,
                "pitch": 57,
                "velocity": 83
            },
            {
                "start": 288.7834110625,
                "end": 288.969731575,
                "pitch": 64,
                "velocity": 89
            },
            {
                "start": 288.7834110625,
                "end": 289.00746737500003,
                "pitch": 61,
                "velocity": 85
            },
            {
                "start": 289.13718418750005,
                "end": 289.14072191875005,
                "pitch": 57,
                "velocity": 78
            },
            {
                "start": 289.13718418750005,
                "end": 289.21973125000005,
                "pitch": 61,
                "velocity": 80
            },
            {
                "start": 289.13718418750005,
                "end": 289.22916520000007,
                "pitch": 64,
                "velocity": 87
            },
            {
                "start": 289.3494480625,
                "end": 289.48506109375006,
                "pitch": 57,
                "velocity": 79
            },
            {
                "start": 289.3494480625,
                "end": 289.51807991875006,
                "pitch": 64,
                "velocity": 81
            },
            {
                "start": 289.3494480625,
                "end": 289.52043840625004,
                "pitch": 61,
                "velocity": 79
            },
            {
                "start": 289.91548506250007,
                "end": 290.10416406250005,
                "pitch": 57,
                "velocity": 84
            },
            {
                "start": 289.91548506250007,
                "end": 290.11949423125003,
                "pitch": 64,
                "velocity": 87
            },
            {
                "start": 289.91548506250007,
                "end": 290.15958851875,
                "pitch": 61,
                "velocity": 84
            },
            {
                "start": 290.26925818750004,
                "end": 290.34590903125,
                "pitch": 57,
                "velocity": 76
            },
            {
                "start": 290.26925818750004,
                "end": 290.36359768750003,
                "pitch": 64,
                "velocity": 87
            },
            {
                "start": 290.26925818750004,
                "end": 290.36359768750003,
                "pitch": 61,
                "velocity": 84
            },
            {
                "start": 290.48152206250006,
                "end": 290.64661618750006,
                "pitch": 57,
                "velocity": 85
            },
            {
                "start": 290.48152206250006,
                "end": 290.67609728125007,
                "pitch": 64,
                "velocity": 89
            },
            {
                "start": 290.48152206250006,
                "end": 290.705578375,
                "pitch": 61,
                "velocity": 87
            },
            {
                "start": 291.04755906250006,
                "end": 291.19142680000004,
                "pitch": 57,
                "velocity": 85
            },
            {
                "start": 291.04755906250006,
                "end": 291.21265318750005,
                "pitch": 64,
                "velocity": 91
            },
            {
                "start": 291.04755906250006,
                "end": 291.25746445000004,
                "pitch": 61,
                "velocity": 89
            },
            {
                "start": 291.40133218750003,
                "end": 291.47208681250004,
                "pitch": 57,
                "velocity": 77
            },
            {
                "start": 291.40133218750003,
                "end": 291.4744453,
                "pitch": 61,
                "velocity": 86
            },
            {
                "start": 291.40133218750003,
                "end": 291.47798303125006,
                "pitch": 64,
                "velocity": 87
            },
            {
                "start": 291.61359606250005,
                "end": 291.78222791875004,
                "pitch": 57,
                "velocity": 80
            },
            {
                "start": 291.61359606250005,
                "end": 291.80581279375,
                "pitch": 64,
                "velocity": 91
            },
            {
                "start": 291.61359606250005,
                "end": 291.84944481250005,
                "pitch": 61,
                "velocity": 86
            },
            {
                "start": 291.9673691875,
                "end": 292.05581246875005,
                "pitch": 64,
                "velocity": 79
            },
            {
                "start": 291.9673691875,
                "end": 292.06524641875006,
                "pitch": 59,
                "velocity": 82
            },
            {
                "start": 291.9673691875,
                "end": 292.06524641875006,
                "pitch": 57,
                "velocity": 73
            },
            {
                "start": 292.17963306250005,
                "end": 292.37774601250004,
                "pitch": 59,
                "velocity": 89
            },
            {
                "start": 292.17963306250005,
                "end": 292.38600071875004,
                "pitch": 64,
                "velocity": 91
            },
            {
                "start": 292.17963306250005,
                "end": 292.39189693750006,
                "pitch": 57,
                "velocity": 87
            },
            {
                "start": 292.74567006250004,
                "end": 293.13128276875005,
                "pitch": 59,
                "velocity": 75
            },
            {
                "start": 292.74567006250004,
                "end": 293.1371789875,
                "pitch": 62,
                "velocity": 91
            },
            {
                "start": 292.74567006250004,
                "end": 293.1701978125,
                "pitch": 66,
                "velocity": 80
            },
            {
                "start": 293.31170706250003,
                "end": 293.5381218625,
                "pitch": 59,
                "velocity": 81
            },
            {
                "start": 293.31170706250003,
                "end": 293.55581051875004,
                "pitch": 62,
                "velocity": 89
            },
            {
                "start": 293.31170706250003,
                "end": 293.58293312500007,
                "pitch": 66,
                "velocity": 81
            },
            {
                "start": 293.66548018750007,
                "end": 293.72090464375003,
                "pitch": 59,
                "velocity": 65
            },
            {
                "start": 293.66548018750007,
                "end": 293.73269708125,
                "pitch": 62,
                "velocity": 81
            },
            {
                "start": 293.66548018750007,
                "end": 293.74802725000006,
                "pitch": 66,
                "velocity": 79
            },
            {
                "start": 293.8777440625,
                "end": 294.2079323125,
                "pitch": 62,
                "velocity": 87
            },
            {
                "start": 293.8777440625,
                "end": 294.21382853125004,
                "pitch": 59,
                "velocity": 77
            },
            {
                "start": 293.8777440625,
                "end": 294.25156433125005,
                "pitch": 66,
                "velocity": 81
            },
            {
                "start": 294.4437810625,
                "end": 294.72326183125006,
                "pitch": 59,
                "velocity": 84
            },
            {
                "start": 294.4437810625,
                "end": 294.72915805,
                "pitch": 62,
                "velocity": 91
            },
            {
                "start": 294.4437810625,
                "end": 294.74802595000006,
                "pitch": 66,
                "velocity": 85
            },
            {
                "start": 294.79755418750005,
                "end": 294.85651637500007,
                "pitch": 59,
                "velocity": 70
            },
            {
                "start": 294.79755418750005,
                "end": 294.88010125000005,
                "pitch": 62,
                "velocity": 83
            },
            {
                "start": 294.79755418750005,
                "end": 294.88363898125004,
                "pitch": 66,
                "velocity": 80
            },
            {
                "start": 295.0098180625,
                "end": 295.36948740625,
                "pitch": 59,
                "velocity": 71
            },
            {
                "start": 295.0098180625,
                "end": 295.38717606250003,
                "pitch": 62,
                "velocity": 86
            },
            {
                "start": 295.0098180625,
                "end": 295.42255337500006,
                "pitch": 66,
                "velocity": 81
            },
            {
                "start": 295.57585506250007,
                "end": 295.85533583125004,
                "pitch": 62,
                "velocity": 87
            },
            {
                "start": 295.57585506250007,
                "end": 295.85887356250004,
                "pitch": 59,
                "velocity": 77
            },
            {
                "start": 295.57585506250007,
                "end": 295.87656221875005,
                "pitch": 66,
                "velocity": 79
            },
            {
                "start": 295.92962818750004,
                "end": 296.01217525000004,
                "pitch": 59,
                "velocity": 66
            },
            {
                "start": 295.92962818750004,
                "end": 296.02750541875,
                "pitch": 62,
                "velocity": 78
            },
            {
                "start": 295.92962818750004,
                "end": 296.03340163750005,
                "pitch": 66,
                "velocity": 80
            },
            {
                "start": 296.14189206250006,
                "end": 296.39189173750003,
                "pitch": 59,
                "velocity": 78
            },
            {
                "start": 296.14189206250006,
                "end": 296.40722190625,
                "pitch": 62,
                "velocity": 88
            },
            {
                "start": 296.14189206250006,
                "end": 296.40958039375005,
                "pitch": 66,
                "velocity": 91
            },
            {
                "start": 296.49566518750004,
                "end": 296.61123107500003,
                "pitch": 59,
                "velocity": 55
            },
            {
                "start": 296.49566518750004,
                "end": 296.61358956250007,
                "pitch": 62,
                "velocity": 72
            },
            {
                "start": 296.49566518750004,
                "end": 296.61712729375006,
                "pitch": 64,
                "velocity": 79
            },
            {
                "start": 296.70792906250006,
                "end": 297.09118328125004,
                "pitch": 59,
                "velocity": 76
            },
            {
                "start": 296.70792906250006,
                "end": 297.1230228625,
                "pitch": 62,
                "velocity": 83
            },
            {
                "start": 296.70792906250006,
                "end": 297.14071151875004,
                "pitch": 64,
                "velocity": 79
            },
            {
                "start": 297.27396606250005,
                "end": 297.70085230000007,
                "pitch": 57,
                "velocity": 80
            },
            {
                "start": 297.27396606250005,
                "end": 297.72797490625004,
                "pitch": 66,
                "velocity": 86
            },
            {
                "start": 297.27396606250005,
                "end": 297.73151263750003,
                "pitch": 62,
                "velocity": 90
            },
            {
                "start": 297.84000306250005,
                "end": 298.07231408125006,
                "pitch": 57,
                "velocity": 80
            },
            {
                "start": 297.84000306250005,
                "end": 298.12538005000005,
                "pitch": 62,
                "velocity": 91
            },
            {
                "start": 297.84000306250005,
                "end": 298.14660643750005,
                "pitch": 66,
                "velocity": 88
            },
            {
                "start": 298.1937761875,
                "end": 298.25509686250007,
                "pitch": 57,
                "velocity": 71
            },
            {
                "start": 298.1937761875,
                "end": 298.27632325,
                "pitch": 62,
                "velocity": 83
            },
            {
                "start": 298.1937761875,
                "end": 298.29165341875006,
                "pitch": 66,
                "velocity": 79
            },
            {
                "start": 298.40604006250004,
                "end": 298.75155848125,
                "pitch": 57,
                "velocity": 79
            },
            {
                "start": 298.40604006250004,
                "end": 298.78575655000003,
                "pitch": 62,
                "velocity": 87
            },
            {
                "start": 298.40604006250004,
                "end": 298.79519050000005,
                "pitch": 66,
                "velocity": 80
            },
            {
                "start": 298.97207706250003,
                "end": 299.20792581250004,
                "pitch": 57,
                "velocity": 78
            },
            {
                "start": 298.97207706250003,
                "end": 299.24566161250004,
                "pitch": 62,
                "velocity": 86
            },
            {
                "start": 298.97207706250003,
                "end": 299.26099178125,
                "pitch": 66,
                "velocity": 83
            },
            {
                "start": 299.32585018750007,
                "end": 299.37891615625006,
                "pitch": 57,
                "velocity": 61
            },
            {
                "start": 299.32585018750007,
                "end": 299.40839725000006,
                "pitch": 66,
                "velocity": 78
            },
            {
                "start": 299.32585018750007,
                "end": 299.40839725000006,
                "pitch": 62,
                "velocity": 85
            },
            {
                "start": 299.53811406250003,
                "end": 299.7048994166667,
                "pitch": 57,
                "velocity": 71
            },
            {
                "start": 299.53811406250003,
                "end": 299.7740741416667,
                "pitch": 62,
                "velocity": 77
            },
            {
                "start": 299.53811406250003,
                "end": 299.798345975,
                "pitch": 66,
                "velocity": 81
            },
            {
                "start": 299.90027564583335,
                "end": 299.990697125,
                "pitch": 57,
                "velocity": 66
            },
            {
                "start": 299.90027564583335,
                "end": 300.028575875,
                "pitch": 66,
                "velocity": 79
            },
            {
                "start": 299.90027564583335,
                "end": 300.028575875,
                "pitch": 62,
                "velocity": 78
            },
            {
                "start": 300.125798,
                "end": 300.3299053,
                "pitch": 57,
                "velocity": 75
            },
            {
                "start": 300.125798,
                "end": 300.369378925,
                "pitch": 62,
                "velocity": 79
            },
            {
                "start": 300.125798,
                "end": 300.400957825,
                "pitch": 66,
                "velocity": 77
            },
            {
                "start": 300.5181620208333,
                "end": 300.99590959374996,
                "pitch": 57,
                "velocity": 81
            },
            {
                "start": 300.5181620208333,
                "end": 301.0605647499999,
                "pitch": 62,
                "velocity": 88
            },
            {
                "start": 300.5181620208333,
                "end": 301.06343831249995,
                "pitch": 67,
                "velocity": 88
            },
            {
                "start": 301.1915653749999,
                "end": 301.2798006249999,
                "pitch": 57,
                "velocity": 56
            },
            {
                "start": 301.1915653749999,
                "end": 301.3321570729166,
                "pitch": 66,
                "velocity": 85
            },
            {
                "start": 301.1915653749999,
                "end": 301.3442052562499,
                "pitch": 62,
                "velocity": 78
            },
            {
                "start": 301.46016902083323,
                "end": 301.6809838520832,
                "pitch": 62,
                "velocity": 88
            },
            {
                "start": 301.46016902083323,
                "end": 302.1617591666665,
                "pitch": 64,
                "velocity": 87
            },
            {
                "start": 301.46016902083323,
                "end": 302.16509249999984,
                "pitch": 57,
                "velocity": 79
            },
            {
                "start": 301.9314562499999,
                "end": 302.2117591666665,
                "pitch": 59,
                "velocity": 88
            },
            {
                "start": 302.2284258333332,
                "end": 305.8617591666665,
                "pitch": 57,
                "velocity": 79
            },
            {
                "start": 302.2284258333332,
                "end": 305.9034258333332,
                "pitch": 61,
                "velocity": 86
            },
            {
                "start": 302.2284258333332,
                "end": 305.9084258333332,
                "pitch": 64,
                "velocity": 90
            }
        ],
        "pitch_classes": [
            0,
            32,
            28,
            0,
            42,
            0,
            24,
            1,
            0,
            55,
            0,
            22
        ],
        "velocity_mean": 82.11274509803921,
        "pitch_mean": 61.07843137254902,
        "pitch_std": 3.1379594797050303,
        "duration_mean": 0.2362352021241801,
        "song_name": "Whats_Up.mid",
        "tempo": 156.17368231383819,
        "time_signature": "4/4",
        "key": "D",
        "camelot_key": "10B",
        "maj_min": "major"
    },
    "Whats_Up.3.mid_233.14836547619046_257.881775": {
        "instrument_no": 1,
        "instrument_category": "Bass",
        "program": 33,
        "is_drum": false,
        "section_start": 233.14836547619046,
        "section_end": 257.881775,
        "notes": [
            {
                "start": 234.40236,
                "end": 234.4396733333333,
                "pitch": 35,
                "velocity": 91
            },
            {
                "start": 234.62623999999997,
                "end": 235.59638666666666,
                "pitch": 35,
                "velocity": 109
            },
            {
                "start": 235.74563999999998,
                "end": 235.96952,
                "pitch": 30,
                "velocity": 76
            },
            {
                "start": 235.96019166666665,
                "end": 236.1467583333333,
                "pitch": 36,
                "velocity": 91
            },
            {
                "start": 236.18407166666665,
                "end": 236.36130999999997,
                "pitch": 37,
                "velocity": 100
            },
            {
                "start": 236.41727999999998,
                "end": 239.0012283333333,
                "pitch": 38,
                "velocity": 100
            },
            {
                "start": 239.10384,
                "end": 239.48630166666663,
                "pitch": 38,
                "velocity": 100
            },
            {
                "start": 239.54227166666664,
                "end": 239.96204666666665,
                "pitch": 38,
                "velocity": 100
            },
            {
                "start": 239.99935999999997,
                "end": 243.54412666666664,
                "pitch": 33,
                "velocity": 99
            }
        ],
        "pitch_classes": [
            1,
            1,
            3,
            0,
            0,
            0,
            1,
            0,
            0,
            1,
            0,
            2
        ],
        "velocity_mean": 96.22222222222223,
        "pitch_mean": 35.55555555555556,
        "pitch_std": 2.543449587168799,
        "duration_mean": 0.9473440740740734,
        "song_name": "Whats_Up.3.mid",
        "tempo": 194.06948303586273,
        "time_signature": "4/4",
        "key": "D",
        "camelot_key": "10B",
        "maj_min": "major"
    },
    "Whats_Up.2.mid_0.0_30.735011999999973": {
        "instrument_no": 0,
        "instrument_category": "Bass",
        "program": 35,
        "is_drum": false,
        "section_start": 0.0,
        "section_end": 30.735011999999973,
        "notes": [
            {
                "start": 14.769215999999998,
                "end": 17.420174887499996,
                "pitch": 33,
                "velocity": 51
            },
            {
                "start": 17.490367125,
                "end": 18.4567123125,
                "pitch": 43,
                "velocity": 105
            },
            {
                "start": 18.461519999999997,
                "end": 19.961518499999997,
                "pitch": 33,
                "velocity": 112
            },
            {
                "start": 20.076902999999998,
                "end": 20.144210625,
                "pitch": 33,
                "velocity": 122
            },
            {
                "start": 20.307671999999997,
                "end": 21.427863187499998,
                "pitch": 33,
                "velocity": 115
            },
            {
                "start": 21.461516999999997,
                "end": 21.6894013875,
                "pitch": 31,
                "velocity": 115
            },
            {
                "start": 21.692286,
                "end": 22.153823999999997,
                "pitch": 38,
                "velocity": 100
            },
            {
                "start": 22.153823999999997,
                "end": 23.6586301875,
                "pitch": 35,
                "velocity": 93
            },
            {
                "start": 23.769206999999998,
                "end": 23.85766845,
                "pitch": 35,
                "velocity": 93
            },
            {
                "start": 23.999975999999997,
                "end": 25.131705637499998,
                "pitch": 35,
                "velocity": 93
            },
            {
                "start": 25.153820999999997,
                "end": 25.376897699999997,
                "pitch": 30,
                "velocity": 121
            },
            {
                "start": 25.384589999999996,
                "end": 25.607666699999996,
                "pitch": 35,
                "velocity": 92
            },
            {
                "start": 25.615358999999998,
                "end": 29.069201699999997,
                "pitch": 38,
                "velocity": 92
            },
            {
                "start": 29.076893999999996,
                "end": 29.535547387499996,
                "pitch": 37,
                "velocity": 122
            },
            {
                "start": 29.538431999999997,
                "end": 32.756698012499996,
                "pitch": 33,
                "velocity": 122
            }
        ],
        "pitch_classes": [
            0,
            1,
            2,
            0,
            0,
            0,
            1,
            2,
            0,
            5,
            0,
            4
        ],
        "velocity_mean": 103.2,
        "pitch_mean": 34.8,
        "pitch_std": 3.1240998703626612,
        "duration_mean": 1.15307577,
        "song_name": "Whats_Up.2.mid",
        "tempo": 156.17368231383819,
        "time_signature": "4/4",
        "key": "D",
        "camelot_key": "10B",
        "maj_min": "major"
    },
    "Whats_Up.2.mid_138.94670691666659_169.68171891666657": {
        "instrument_no": 2,
        "instrument_category": "Other",
        "program": 87,
        "is_drum": false,
        "section_start": 138.94670691666659,
        "section_end": 169.68171891666657,
        "notes": [
            {
                "start": 140.53040675,
                "end": 141.1957907,
                "pitch": 54,
                "velocity": 95
            },
            {
                "start": 141.22271375,
                "end": 141.70829018749998,
                "pitch": 64,
                "velocity": 93
            },
            {
                "start": 141.68425175,
                "end": 142.09771287499998,
                "pitch": 62,
                "velocity": 90
            },
            {
                "start": 142.1429051375,
                "end": 142.559250875,
                "pitch": 61,
                "velocity": 87
            },
            {
                "start": 142.60732775,
                "end": 142.9804043,
                "pitch": 57,
                "velocity": 86
            },
            {
                "start": 143.0659811375,
                "end": 143.34290393749998,
                "pitch": 54,
                "velocity": 84
            },
            {
                "start": 143.29194245,
                "end": 143.68232667499998,
                "pitch": 57,
                "velocity": 87
            },
            {
                "start": 144.2179030625,
                "end": 144.8525178125,
                "pitch": 54,
                "velocity": 90
            },
            {
                "start": 144.9102100625,
                "end": 145.35924807499998,
                "pitch": 64,
                "velocity": 89
            },
            {
                "start": 145.3717480625,
                "end": 145.8429014375,
                "pitch": 62,
                "velocity": 87
            },
            {
                "start": 145.83809374999998,
                "end": 146.2967471375,
                "pitch": 61,
                "velocity": 86
            },
            {
                "start": 146.2967471375,
                "end": 149.60732074999999,
                "pitch": 57,
                "velocity": 88
            },
            {
                "start": 150.4486660625,
                "end": 150.53039675,
                "pitch": 64,
                "velocity": 96
            },
            {
                "start": 150.68424274999998,
                "end": 150.7727042,
                "pitch": 64,
                "velocity": 96
            },
            {
                "start": 150.9102040625,
                "end": 151.41308817499998,
                "pitch": 64,
                "velocity": 98
            },
            {
                "start": 152.99193275,
                "end": 153.15827873749998,
                "pitch": 73,
                "velocity": 92
            },
            {
                "start": 153.2178940625,
                "end": 153.48231687499998,
                "pitch": 73,
                "velocity": 98
            },
            {
                "start": 153.67654745,
                "end": 153.9775086875,
                "pitch": 76,
                "velocity": 98
            },
            {
                "start": 154.14289313749998,
                "end": 154.5188543,
                "pitch": 76,
                "velocity": 95
            },
            {
                "start": 154.6025080625,
                "end": 155.482314875,
                "pitch": 66,
                "velocity": 95
            },
            {
                "start": 156.45346775,
                "end": 156.64577524999999,
                "pitch": 66,
                "velocity": 100
            },
            {
                "start": 156.67654445,
                "end": 157.1650055,
                "pitch": 71,
                "velocity": 96
            },
            {
                "start": 157.6044281375,
                "end": 157.84096636249998,
                "pitch": 71,
                "velocity": 98
            },
            {
                "start": 157.83327406249998,
                "end": 158.147696825,
                "pitch": 73,
                "velocity": 100
            },
            {
                "start": 158.2948120625,
                "end": 158.7880808,
                "pitch": 69,
                "velocity": 91
            },
            {
                "start": 158.7563500625,
                "end": 159.6409645625,
                "pitch": 66,
                "velocity": 95
            },
            {
                "start": 160.59961744999998,
                "end": 160.6794250625,
                "pitch": 69,
                "velocity": 95
            },
            {
                "start": 160.83038645,
                "end": 160.9005786875,
                "pitch": 69,
                "velocity": 93
            },
            {
                "start": 161.06115545,
                "end": 161.116924625,
                "pitch": 69,
                "velocity": 93
            },
            {
                "start": 161.29000137499997,
                "end": 161.35250131249998,
                "pitch": 69,
                "velocity": 95
            },
            {
                "start": 161.5255780625,
                "end": 161.588078,
                "pitch": 69,
                "velocity": 95
            },
            {
                "start": 161.75346245,
                "end": 161.83038545,
                "pitch": 69,
                "velocity": 94
            },
            {
                "start": 161.9890391375,
                "end": 162.4582694375,
                "pitch": 73,
                "velocity": 95
            },
            {
                "start": 162.45057713749998,
                "end": 163.34480701249998,
                "pitch": 69,
                "velocity": 95
            },
            {
                "start": 165.21980513749997,
                "end": 165.328458875,
                "pitch": 64,
                "velocity": 98
            },
            {
                "start": 165.4486510625,
                "end": 165.597689375,
                "pitch": 64,
                "velocity": 98
            },
            {
                "start": 165.6813431375,
                "end": 165.91499675,
                "pitch": 64,
                "velocity": 98
            },
            {
                "start": 167.75634106249998,
                "end": 167.839994825,
                "pitch": 73,
                "velocity": 98
            },
            {
                "start": 167.9871100625,
                "end": 168.29960975,
                "pitch": 73,
                "velocity": 100
            },
            {
                "start": 168.44864806249998,
                "end": 168.78037849999998,
                "pitch": 76,
                "velocity": 94
            },
            {
                "start": 168.91018606249997,
                "end": 169.309224125,
                "pitch": 76,
                "velocity": 96
            },
            {
                "start": 169.3717240625,
                "end": 170.232300125,
                "pitch": 66,
                "velocity": 95
            }
        ],
        "pitch_classes": [
            0,
            8,
            2,
            0,
            12,
            0,
            7,
            0,
            0,
            11,
            0,
            2
        ],
        "velocity_mean": 93.85714285714286,
        "pitch_mean": 66.45238095238095,
        "pitch_std": 6.165195632598256,
        "duration_mean": 0.42536587500000117,
        "song_name": "Whats_Up.2.mid",
        "tempo": 156.17368231383819,
        "time_signature": "4/4",
        "key": "D",
        "camelot_key": "10B",
        "maj_min": "major"
    },
    "Whats_Up.2.mid_277.89341383333317_308.62842583333315": {
        "instrument_no": 9,
        "instrument_category": "Guitar",
        "program": 25,
        "is_drum": false,
        "section_start": 277.89341383333317,
        "section_end": 308.62842583333315,
        "notes": [
            {
                "start": 278.02957507499997,
                "end": 278.125728825,
                "pitch": 57,
                "velocity": 94
            },
            {
                "start": 278.048805825,
                "end": 278.1593826375,
                "pitch": 62,
                "velocity": 86
            },
            {
                "start": 278.0661135,
                "end": 278.1843826125,
                "pitch": 66,
                "velocity": 90
            },
            {
                "start": 278.260344075,
                "end": 278.333420925,
                "pitch": 66,
                "velocity": 83
            },
            {
                "start": 278.2968825,
                "end": 278.3613055125,
                "pitch": 57,
                "velocity": 81
            },
            {
                "start": 278.279574825,
                "end": 278.36899781249997,
                "pitch": 62,
                "velocity": 65
            },
            {
                "start": 278.491113075,
                "end": 278.5593822375,
                "pitch": 57,
                "velocity": 90
            },
            {
                "start": 278.510343825,
                "end": 278.5997668125,
                "pitch": 62,
                "velocity": 65
            },
            {
                "start": 278.5276515,
                "end": 278.6189975625,
                "pitch": 66,
                "velocity": 86
            },
            {
                "start": 278.741112825,
                "end": 278.91707418749996,
                "pitch": 62,
                "velocity": 78
            },
            {
                "start": 278.7584205,
                "end": 278.9363049375,
                "pitch": 57,
                "velocity": 92
            },
            {
                "start": 278.721882075,
                "end": 278.9814972,
                "pitch": 66,
                "velocity": 80
            },
            {
                "start": 279.183420075,
                "end": 279.23245848749997,
                "pitch": 57,
                "velocity": 92
            },
            {
                "start": 279.202650825,
                "end": 279.2516892375,
                "pitch": 59,
                "velocity": 77
            },
            {
                "start": 279.21995849999996,
                "end": 279.268035375,
                "pitch": 64,
                "velocity": 78
            },
            {
                "start": 279.433419825,
                "end": 279.5901504375,
                "pitch": 59,
                "velocity": 82
            },
            {
                "start": 279.45072749999997,
                "end": 279.7343810625,
                "pitch": 57,
                "velocity": 87
            },
            {
                "start": 279.41418907499997,
                "end": 279.74111182499996,
                "pitch": 64,
                "velocity": 88
            },
            {
                "start": 279.6814965,
                "end": 279.768034875,
                "pitch": 59,
                "velocity": 79
            },
            {
                "start": 279.875727075,
                "end": 279.99591926249997,
                "pitch": 57,
                "velocity": 94
            },
            {
                "start": 279.894957825,
                "end": 280.03534229999997,
                "pitch": 61,
                "velocity": 77
            },
            {
                "start": 279.9122655,
                "end": 280.0661115,
                "pitch": 64,
                "velocity": 93
            },
            {
                "start": 280.337265075,
                "end": 280.3978419375,
                "pitch": 57,
                "velocity": 80
            },
            {
                "start": 280.35649582499997,
                "end": 280.44111112499996,
                "pitch": 61,
                "velocity": 88
            },
            {
                "start": 280.3738035,
                "end": 280.4814957,
                "pitch": 64,
                "velocity": 83
            },
            {
                "start": 280.6045725,
                "end": 280.6689955125,
                "pitch": 57,
                "velocity": 69
            },
            {
                "start": 280.568034075,
                "end": 280.671880125,
                "pitch": 64,
                "velocity": 75
            },
            {
                "start": 280.587264825,
                "end": 280.6882262625,
                "pitch": 61,
                "velocity": 75
            },
            {
                "start": 280.79880307499997,
                "end": 280.921879875,
                "pitch": 57,
                "velocity": 92
            },
            {
                "start": 280.818033825,
                "end": 280.9459183125,
                "pitch": 61,
                "velocity": 86
            },
            {
                "start": 280.83534149999997,
                "end": 281.0247643875,
                "pitch": 64,
                "velocity": 81
            },
            {
                "start": 281.260341075,
                "end": 281.3305333125,
                "pitch": 57,
                "velocity": 81
            },
            {
                "start": 281.279571825,
                "end": 281.3738025,
                "pitch": 61,
                "velocity": 68
            },
            {
                "start": 281.2968795,
                "end": 281.3978409375,
                "pitch": 64,
                "velocity": 75
            },
            {
                "start": 281.491110075,
                "end": 281.58534075,
                "pitch": 64,
                "velocity": 76
            },
            {
                "start": 281.5276485,
                "end": 281.5997638125,
                "pitch": 57,
                "velocity": 77
            },
            {
                "start": 281.510340825,
                "end": 281.60457149999996,
                "pitch": 61,
                "velocity": 65
            },
            {
                "start": 281.721879075,
                "end": 281.80977405833335,
                "pitch": 57,
                "velocity": 97
            },
            {
                "start": 281.74110982499997,
                "end": 281.84562675,
                "pitch": 61,
                "velocity": 81
            },
            {
                "start": 281.7584175,
                "end": 281.8746965,
                "pitch": 64,
                "velocity": 86
            },
            {
                "start": 281.954774625,
                "end": 282.050939,
                "pitch": 64,
                "velocity": 84
            },
            {
                "start": 281.974305875,
                "end": 282.07554525,
                "pitch": 61,
                "velocity": 56
            },
            {
                "start": 281.991884,
                "end": 282.0922775,
                "pitch": 57,
                "velocity": 87
            },
            {
                "start": 282.191343125,
                "end": 282.2420415,
                "pitch": 57,
                "velocity": 82
            },
            {
                "start": 282.211184375,
                "end": 282.32604150000003,
                "pitch": 61,
                "velocity": 74
            },
            {
                "start": 282.22904150000005,
                "end": 282.34404150000006,
                "pitch": 64,
                "velocity": 79
            },
            {
                "start": 282.47000900000006,
                "end": 282.5787486416667,
                "pitch": 57,
                "velocity": 96
            },
            {
                "start": 282.43170262500007,
                "end": 282.58179741666675,
                "pitch": 64,
                "velocity": 79
            },
            {
                "start": 282.4518638750001,
                "end": 282.5868787083334,
                "pitch": 61,
                "velocity": 80
            },
            {
                "start": 282.92429416666675,
                "end": 282.9827850375001,
                "pitch": 57,
                "velocity": 82
            },
            {
                "start": 282.94512750000007,
                "end": 283.03425555625006,
                "pitch": 59,
                "velocity": 71
            },
            {
                "start": 282.9638775000001,
                "end": 283.0374068125001,
                "pitch": 64,
                "velocity": 77
            },
            {
                "start": 283.19797847500007,
                "end": 283.39697535000005,
                "pitch": 59,
                "velocity": 85
            },
            {
                "start": 283.21704625000007,
                "end": 283.50717018750004,
                "pitch": 57,
                "velocity": 94
            },
            {
                "start": 283.17679205833343,
                "end": 283.51260496875005,
                "pitch": 64,
                "velocity": 86
            },
            {
                "start": 283.47456150000005,
                "end": 283.54738756875,
                "pitch": 61,
                "velocity": 92
            },
            {
                "start": 283.7256101041667,
                "end": 283.84166340625006,
                "pitch": 57,
                "velocity": 80
            },
            {
                "start": 283.7256101041667,
                "end": 283.86046870000007,
                "pitch": 64,
                "velocity": 88
            },
            {
                "start": 283.7256101041667,
                "end": 283.86046870000007,
                "pitch": 61,
                "velocity": 78
            },
            {
                "start": 284.2633816250001,
                "end": 284.47370228125004,
                "pitch": 57,
                "velocity": 84
            },
            {
                "start": 284.2633816250001,
                "end": 284.48990596875007,
                "pitch": 64,
                "velocity": 91
            },
            {
                "start": 284.2633816250001,
                "end": 284.5072670625001,
                "pitch": 61,
                "velocity": 86
            },
            {
                "start": 284.6096596458334,
                "end": 284.6855941354167,
                "pitch": 61,
                "velocity": 77
            },
            {
                "start": 284.6096596458334,
                "end": 284.6855941354167,
                "pitch": 57,
                "velocity": 78
            },
            {
                "start": 284.6096596458334,
                "end": 284.69143525000004,
                "pitch": 64,
                "velocity": 86
            },
            {
                "start": 284.82115206250006,
                "end": 285.05110459375004,
                "pitch": 57,
                "velocity": 85
            },
            {
                "start": 284.82115206250006,
                "end": 285.06879325000006,
                "pitch": 64,
                "velocity": 87
            },
            {
                "start": 284.82115206250006,
                "end": 285.082944175,
                "pitch": 61,
                "velocity": 81
            },
            {
                "start": 285.38718906250006,
                "end": 285.56761335625004,
                "pitch": 57,
                "velocity": 84
            },
            {
                "start": 285.38718906250006,
                "end": 285.58176428125006,
                "pitch": 64,
                "velocity": 91
            },
            {
                "start": 285.38718906250006,
                "end": 285.63483025000005,
                "pitch": 61,
                "velocity": 87
            },
            {
                "start": 285.74096218750003,
                "end": 285.8022828625,
                "pitch": 57,
                "velocity": 71
            },
            {
                "start": 285.74096218750003,
                "end": 285.82940546875005,
                "pitch": 61,
                "velocity": 83
            },
            {
                "start": 285.74096218750003,
                "end": 285.8353016875,
                "pitch": 64,
                "velocity": 86
            },
            {
                "start": 285.95322606250005,
                "end": 286.14544279375,
                "pitch": 57,
                "velocity": 85
            },
            {
                "start": 285.95322606250005,
                "end": 286.15959371875005,
                "pitch": 64,
                "velocity": 82
            },
            {
                "start": 285.95322606250005,
                "end": 286.18907481250005,
                "pitch": 61,
                "velocity": 85
            },
            {
                "start": 286.51926306250004,
                "end": 286.71147979375,
                "pitch": 57,
                "velocity": 87
            },
            {
                "start": 286.51926306250004,
                "end": 286.73152693750006,
                "pitch": 64,
                "velocity": 89
            },
            {
                "start": 286.51926306250004,
                "end": 286.78695139375003,
                "pitch": 61,
                "velocity": 86
            },
            {
                "start": 286.8730361875,
                "end": 286.9437908125,
                "pitch": 57,
                "velocity": 76
            },
            {
                "start": 286.8730361875,
                "end": 286.95204551875,
                "pitch": 64,
                "velocity": 88
            },
            {
                "start": 286.8730361875,
                "end": 286.96147946875004,
                "pitch": 61,
                "velocity": 84
            },
            {
                "start": 287.08530006250004,
                "end": 287.26572435625,
                "pitch": 57,
                "velocity": 87
            },
            {
                "start": 287.08530006250004,
                "end": 287.30110166875005,
                "pitch": 64,
                "velocity": 97
            },
            {
                "start": 287.08530006250004,
                "end": 287.33294125000003,
                "pitch": 61,
                "velocity": 91
            },
            {
                "start": 287.4390731875,
                "end": 287.51572403125004,
                "pitch": 59,
                "velocity": 79
            },
            {
                "start": 287.4390731875,
                "end": 287.52162025000007,
                "pitch": 57,
                "velocity": 78
            },
            {
                "start": 287.4390731875,
                "end": 287.5310542,
                "pitch": 64,
                "velocity": 88
            },
            {
                "start": 287.65133706250003,
                "end": 287.828223625,
                "pitch": 64,
                "velocity": 91
            },
            {
                "start": 287.65133706250003,
                "end": 287.83176135625,
                "pitch": 57,
                "velocity": 84
            },
            {
                "start": 287.65133706250003,
                "end": 287.84355379375006,
                "pitch": 59,
                "velocity": 93
            },
            {
                "start": 288.2173740625,
                "end": 288.38600591875,
                "pitch": 57,
                "velocity": 83
            },
            {
                "start": 288.2173740625,
                "end": 288.40015684375004,
                "pitch": 64,
                "velocity": 91
            },
            {
                "start": 288.2173740625,
                "end": 288.42138323125005,
                "pitch": 61,
                "velocity": 84
            },
            {
                "start": 288.7834110625,
                "end": 288.95793913750003,
                "pitch": 57,
                "velocity": 83
            },
            {
                "start": 288.7834110625,
                "end": 288.969731575,
                "pitch": 64,
                "velocity": 89
            },
            {
                "start": 288.7834110625,
                "end": 289.00746737500003,
                "pitch": 61,
                "velocity": 85
            },
            {
                "start": 289.13718418750005,
                "end": 289.14072191875005,
                "pitch": 57,
                "velocity": 78
            },
            {
                "start": 289.13718418750005,
                "end": 289.21973125000005,
                "pitch": 61,
                "velocity": 80
            },
            {
                "start": 289.13718418750005,
                "end": 289.22916520000007,
                "pitch": 64,
                "velocity": 87
            },
            {
                "start": 289.3494480625,
                "end": 289.48506109375006,
                "pitch": 57,
                "velocity": 79
            },
            {
                "start": 289.3494480625,
                "end": 289.51807991875006,
                "pitch": 64,
                "velocity": 81
            },
            {
                "start": 289.3494480625,
                "end": 289.52043840625004,
                "pitch": 61,
                "velocity": 79
            },
            {
                "start": 289.91548506250007,
                "end": 290.10416406250005,
                "pitch": 57,
                "velocity": 84
            },
            {
                "start": 289.91548506250007,
                "end": 290.11949423125003,
                "pitch": 64,
                "velocity": 87
            },
            {
                "start": 289.91548506250007,
                "end": 290.15958851875,
                "pitch": 61,
                "velocity": 84
            },
            {
                "start": 290.26925818750004,
                "end": 290.34590903125,
                "pitch": 57,
                "velocity": 76
            },
            {
                "start": 290.26925818750004,
                "end": 290.36359768750003,
                "pitch": 64,
                "velocity": 87
            },
            {
                "start": 290.26925818750004,
                "end": 290.36359768750003,
                "pitch": 61,
                "velocity": 84
            },
            {
                "start": 290.48152206250006,
                "end": 290.64661618750006,
                "pitch": 57,
                "velocity": 85
            },
            {
                "start": 290.48152206250006,
                "end": 290.67609728125007,
                "pitch": 64,
                "velocity": 89
            },
            {
                "start": 290.48152206250006,
                "end": 290.705578375,
                "pitch": 61,
                "velocity": 87
            },
            {
                "start": 291.04755906250006,
                "end": 291.19142680000004,
                "pitch": 57,
                "velocity": 85
            },
            {
                "start": 291.04755906250006,
                "end": 291.21265318750005,
                "pitch": 64,
                "velocity": 91
            },
            {
                "start": 291.04755906250006,
                "end": 291.25746445000004,
                "pitch": 61,
                "velocity": 89
            },
            {
                "start": 291.40133218750003,
                "end": 291.47208681250004,
                "pitch": 57,
                "velocity": 77
            },
            {
                "start": 291.40133218750003,
                "end": 291.4744453,
                "pitch": 61,
                "velocity": 86
            },
            {
                "start": 291.40133218750003,
                "end": 291.47798303125006,
                "pitch": 64,
                "velocity": 87
            },
            {
                "start": 291.61359606250005,
                "end": 291.78222791875004,
                "pitch": 57,
                "velocity": 80
            },
            {
                "start": 291.61359606250005,
                "end": 291.80581279375,
                "pitch": 64,
                "velocity": 91
            },
            {
                "start": 291.61359606250005,
                "end": 291.84944481250005,
                "pitch": 61,
                "velocity": 86
            },
            {
                "start": 291.9673691875,
                "end": 292.05581246875005,
                "pitch": 64,
                "velocity": 79
            },
            {
                "start": 291.9673691875,
                "end": 292.06524641875006,
                "pitch": 59,
                "velocity": 82
            },
            {
                "start": 291.9673691875,
                "end": 292.06524641875006,
                "pitch": 57,
                "velocity": 73
            },
            {
                "start": 292.17963306250005,
                "end": 292.37774601250004,
                "pitch": 59,
                "velocity": 89
            },
            {
                "start": 292.17963306250005,
                "end": 292.38600071875004,
                "pitch": 64,
                "velocity": 91
            },
            {
                "start": 292.17963306250005,
                "end": 292.39189693750006,
                "pitch": 57,
                "velocity": 87
            },
            {
                "start": 292.74567006250004,
                "end": 293.13128276875005,
                "pitch": 59,
                "velocity": 75
            },
            {
                "start": 292.74567006250004,
                "end": 293.1371789875,
                "pitch": 62,
                "velocity": 91
            },
            {
                "start": 292.74567006250004,
                "end": 293.1701978125,
                "pitch": 66,
                "velocity": 80
            },
            {
                "start": 293.31170706250003,
                "end": 293.5381218625,
                "pitch": 59,
                "velocity": 81
            },
            {
                "start": 293.31170706250003,
                "end": 293.55581051875004,
                "pitch": 62,
                "velocity": 89
            },
            {
                "start": 293.31170706250003,
                "end": 293.58293312500007,
                "pitch": 66,
                "velocity": 81
            },
            {
                "start": 293.66548018750007,
                "end": 293.72090464375003,
                "pitch": 59,
                "velocity": 65
            },
            {
                "start": 293.66548018750007,
                "end": 293.73269708125,
                "pitch": 62,
                "velocity": 81
            },
            {
                "start": 293.66548018750007,
                "end": 293.74802725000006,
                "pitch": 66,
                "velocity": 79
            },
            {
                "start": 293.8777440625,
                "end": 294.2079323125,
                "pitch": 62,
                "velocity": 87
            },
            {
                "start": 293.8777440625,
                "end": 294.21382853125004,
                "pitch": 59,
                "velocity": 77
            },
            {
                "start": 293.8777440625,
                "end": 294.25156433125005,
                "pitch": 66,
                "velocity": 81
            },
            {
                "start": 294.4437810625,
                "end": 294.72326183125006,
                "pitch": 59,
                "velocity": 84
            },
            {
                "start": 294.4437810625,
                "end": 294.72915805,
                "pitch": 62,
                "velocity": 91
            },
            {
                "start": 294.4437810625,
                "end": 294.74802595000006,
                "pitch": 66,
                "velocity": 85
            },
            {
                "start": 294.79755418750005,
                "end": 294.85651637500007,
                "pitch": 59,
                "velocity": 70
            },
            {
                "start": 294.79755418750005,
                "end": 294.88010125000005,
                "pitch": 62,
                "velocity": 83
            },
            {
                "start": 294.79755418750005,
                "end": 294.88363898125004,
                "pitch": 66,
                "velocity": 80
            },
            {
                "start": 295.0098180625,
                "end": 295.36948740625,
                "pitch": 59,
                "velocity": 71
            },
            {
                "start": 295.0098180625,
                "end": 295.38717606250003,
                "pitch": 62,
                "velocity": 86
            },
            {
                "start": 295.0098180625,
                "end": 295.42255337500006,
                "pitch": 66,
                "velocity": 81
            },
            {
                "start": 295.57585506250007,
                "end": 295.85533583125004,
                "pitch": 62,
                "velocity": 87
            },
            {
                "start": 295.57585506250007,
                "end": 295.85887356250004,
                "pitch": 59,
                "velocity": 77
            },
            {
                "start": 295.57585506250007,
                "end": 295.87656221875005,
                "pitch": 66,
                "velocity": 79
            },
            {
                "start": 295.92962818750004,
                "end": 296.01217525000004,
                "pitch": 59,
                "velocity": 66
            },
            {
                "start": 295.92962818750004,
                "end": 296.02750541875,
                "pitch": 62,
                "velocity": 78
            },
            {
                "start": 295.92962818750004,
                "end": 296.03340163750005,
                "pitch": 66,
                "velocity": 80
            },
            {
                "start": 296.14189206250006,
                "end": 296.39189173750003,
                "pitch": 59,
                "velocity": 78
            },
            {
                "start": 296.14189206250006,
                "end": 296.40722190625,
                "pitch": 62,
                "velocity": 88
            },
            {
                "start": 296.14189206250006,
                "end": 296.40958039375005,
                "pitch": 66,
                "velocity": 91
            },
            {
                "start": 296.49566518750004,
                "end": 296.61123107500003,
                "pitch": 59,
                "velocity": 55
            },
            {
                "start": 296.49566518750004,
                "end": 296.61358956250007,
                "pitch": 62,
                "velocity": 72
            },
            {
                "start": 296.49566518750004,
                "end": 296.61712729375006,
                "pitch": 64,
                "velocity": 79
            },
            {
                "start": 296.70792906250006,
                "end": 297.09118328125004,
                "pitch": 59,
                "velocity": 76
            },
            {
                "start": 296.70792906250006,
                "end": 297.1230228625,
                "pitch": 62,
                "velocity": 83
            },
            {
                "start": 296.70792906250006,
                "end": 297.14071151875004,
                "pitch": 64,
                "velocity": 79
            },
            {
                "start": 297.27396606250005,
                "end": 297.70085230000007,
                "pitch": 57,
                "velocity": 80
            },
            {
                "start": 297.27396606250005,
                "end": 297.72797490625004,
                "pitch": 66,
                "velocity": 86
            },
            {
                "start": 297.27396606250005,
                "end": 297.73151263750003,
                "pitch": 62,
                "velocity": 90
            },
            {
                "start": 297.84000306250005,
                "end": 298.07231408125006,
                "pitch": 57,
                "velocity": 80
            },
            {
                "start": 297.84000306250005,
                "end": 298.12538005000005,
                "pitch": 62,
                "velocity": 91
            },
            {
                "start": 297.84000306250005,
                "end": 298.14660643750005,
                "pitch": 66,
                "velocity": 88
            },
            {
                "start": 298.1937761875,
                "end": 298.25509686250007,
                "pitch": 57,
                "velocity": 71
            },
            {
                "start": 298.1937761875,
                "end": 298.27632325,
                "pitch": 62,
                "velocity": 83
            },
            {
                "start": 298.1937761875,
                "end": 298.29165341875006,
                "pitch": 66,
                "velocity": 79
            },
            {
                "start": 298.40604006250004,
                "end": 298.75155848125,
                "pitch": 57,
                "velocity": 79
            },
            {
                "start": 298.40604006250004,
                "end": 298.78575655000003,
                "pitch": 62,
                "velocity": 87
            },
            {
                "start": 298.40604006250004,
                "end": 298.79519050000005,
                "pitch": 66,
                "velocity": 80
            },
            {
                "start": 298.97207706250003,
                "end": 299.20792581250004,
                "pitch": 57,
                "velocity": 78
            },
            {
                "start": 298.97207706250003,
                "end": 299.24566161250004,
                "pitch": 62,
                "velocity": 86
            },
            {
                "start": 298.97207706250003,
                "end": 299.26099178125,
                "pitch": 66,
                "velocity": 83
            },
            {
                "start": 299.32585018750007,
                "end": 299.37891615625006,
                "pitch": 57,
                "velocity": 61
            },
            {
                "start": 299.32585018750007,
                "end": 299.40839725000006,
                "pitch": 66,
                "velocity": 78
            },
            {
                "start": 299.32585018750007,
                "end": 299.40839725000006,
                "pitch": 62,
                "velocity": 85
            },
            {
                "start": 299.53811406250003,
                "end": 299.7048994166667,
                "pitch": 57,
                "velocity": 71
            },
            {
                "start": 299.53811406250003,
                "end": 299.7740741416667,
                "pitch": 62,
                "velocity": 77
            },
            {
                "start": 299.53811406250003,
                "end": 299.798345975,
                "pitch": 66,
                "velocity": 81
            },
            {
                "start": 299.90027564583335,
                "end": 299.990697125,
                "pitch": 57,
                "velocity": 66
            },
            {
                "start": 299.90027564583335,
                "end": 300.028575875,
                "pitch": 66,
                "velocity": 79
            },
            {
                "start": 299.90027564583335,
                "end": 300.028575875,
                "pitch": 62,
                "velocity": 78
            },
            {
                "start": 300.125798,
                "end": 300.3299053,
                "pitch": 57,
                "velocity": 75
            },
            {
                "start": 300.125798,
                "end": 300.369378925,
                "pitch": 62,
                "velocity": 79
            },
            {
                "start": 300.125798,
                "end": 300.400957825,
                "pitch": 66,
                "velocity": 77
            },
            {
                "start": 300.5181620208333,
                "end": 300.99590959374996,
                "pitch": 57,
                "velocity": 81
            },
            {
                "start": 300.5181620208333,
                "end": 301.0605647499999,
                "pitch": 62,
                "velocity": 88
            },
            {
                "start": 300.5181620208333,
                "end": 301.06343831249995,
                "pitch": 67,
                "velocity": 88
            },
            {
                "start": 301.1915653749999,
                "end": 301.2798006249999,
                "pitch": 57,
                "velocity": 56
            },
            {
                "start": 301.1915653749999,
                "end": 301.3321570729166,
                "pitch": 66,
                "velocity": 85
            },
            {
                "start": 301.1915653749999,
                "end": 301.3442052562499,
                "pitch": 62,
                "velocity": 78
            },
            {
                "start": 301.46016902083323,
                "end": 301.6809838520832,
                "pitch": 62,
                "velocity": 88
            },
            {
                "start": 301.46016902083323,
                "end": 302.1617591666665,
                "pitch": 64,
                "velocity": 87
            },
            {
                "start": 301.46016902083323,
                "end": 302.16509249999984,
                "pitch": 57,
                "velocity": 79
            },
            {
                "start": 301.9314562499999,
                "end": 302.2117591666665,
                "pitch": 59,
                "velocity": 88
            },
            {
                "start": 302.2284258333332,
                "end": 305.8617591666665,
                "pitch": 57,
                "velocity": 79
            },
            {
                "start": 302.2284258333332,
                "end": 305.9034258333332,
                "pitch": 61,
                "velocity": 86
            },
            {
                "start": 302.2284258333332,
                "end": 305.9084258333332,
                "pitch": 64,
                "velocity": 90
            }
        ],
        "pitch_classes": [
            0,
            32,
            28,
            0,
            42,
            0,
            24,
            1,
            0,
            55,
            0,
            22
        ],
        "velocity_mean": 82.11274509803921,
        "pitch_mean": 61.07843137254902,
        "pitch_std": 3.1379594797050303,
        "duration_mean": 0.2362352021241801,
        "song_name": "Whats_Up.2.mid",
        "tempo": 156.17368231383819,
        "time_signature": "4/4",
        "key": "D",
        "camelot_key": "10B",
        "maj_min": "major"
    },
    "Whats_Up.1.mid_236.01141592592495_260.3577399999999": {
        "instrument_no": 4,
        "instrument_category": "Other",
        "program": 50,
        "is_drum": false,
        "section_start": 236.01141592592495,
        "section_end": 260.3577399999999,
        "notes": [
            {
                "start": 236.55435656249995,
                "end": 237.33560031249996,
                "pitch": 59,
                "velocity": 75
            },
            {
                "start": 236.55435656249995,
                "end": 237.33560031249996,
                "pitch": 55,
                "velocity": 75
            },
            {
                "start": 237.35792156249997,
                "end": 240.81771531249996,
                "pitch": 61,
                "velocity": 75
            },
            {
                "start": 237.35792156249997,
                "end": 240.81771531249996,
                "pitch": 57,
                "velocity": 75
            },
            {
                "start": 240.84003656249996,
                "end": 241.62128031249995,
                "pitch": 59,
                "velocity": 75
            },
            {
                "start": 240.84003656249996,
                "end": 241.62128031249995,
                "pitch": 55,
                "velocity": 75
            },
            {
                "start": 241.64360156249995,
                "end": 245.10339531249997,
                "pitch": 62,
                "velocity": 75
            },
            {
                "start": 241.64360156249995,
                "end": 245.10339531249997,
                "pitch": 59,
                "velocity": 75
            },
            {
                "start": 245.12571656249995,
                "end": 245.90696031249996,
                "pitch": 59,
                "velocity": 75
            },
            {
                "start": 245.12571656249995,
                "end": 245.90696031249996,
                "pitch": 55,
                "velocity": 75
            },
            {
                "start": 245.92928156249997,
                "end": 249.38907531249995,
                "pitch": 62,
                "velocity": 75
            },
            {
                "start": 245.92928156249997,
                "end": 249.38907531249995,
                "pitch": 57,
                "velocity": 75
            },
            {
                "start": 249.41139656249996,
                "end": 250.19264031249998,
                "pitch": 59,
                "velocity": 75
            },
            {
                "start": 249.41139656249996,
                "end": 250.19264031249998,
                "pitch": 55,
                "velocity": 75
            },
            {
                "start": 250.21496156249995,
                "end": 253.86484807291663,
                "pitch": 61,
                "velocity": 75
            },
            {
                "start": 250.21496156249995,
                "end": 253.86484807291663,
                "pitch": 57,
                "velocity": 75
            },
            {
                "start": 253.89325703124996,
                "end": 254.88757057291662,
                "pitch": 59,
                "velocity": 60
            },
            {
                "start": 253.89325703124996,
                "end": 254.88757057291662,
                "pitch": 55,
                "velocity": 60
            },
            {
                "start": 254.91597953124995,
                "end": 256.7405524999999,
                "pitch": 61,
                "velocity": 25
            },
            {
                "start": 254.91597953124995,
                "end": 256.7405524999999,
                "pitch": 57,
                "velocity": 25
            }
        ],
        "pitch_classes": [
            0,
            3,
            2,
            0,
            0,
            0,
            0,
            5,
            0,
            4,
            0,
            6
        ],
        "velocity_mean": 68.5,
        "pitch_mean": 58.2,
        "pitch_std": 2.379075450674064,
        "duration_mean": 1.997312927083334,
        "song_name": "Whats_Up.1.mid",
        "tempo": 197.15501959949873,
        "time_signature": "4/4",
        "key": "D",
        "camelot_key": "10B",
        "maj_min": "major"
    },
    "Never_Alone.mid_0.0_22.048229428391952": {
        "instrument_no": 1,
        "instrument_category": "Other",
        "program": 89,
        "is_drum": false,
        "section_start": 0.0,
        "section_end": 22.048229428391952,
        "notes": [
            {
                "start": 3.707275390625,
                "end": 5.582275390625,
                "pitch": 72,
                "velocity": 64
            },
            {
                "start": 3.707275390625,
                "end": 5.582275390625,
                "pitch": 68,
                "velocity": 64
            },
            {
                "start": 3.707275390625,
                "end": 5.582275390625,
                "pitch": 63,
                "velocity": 64
            },
            {
                "start": 3.707275390625,
                "end": 5.582275390625,
                "pitch": 56,
                "velocity": 64
            },
            {
                "start": 3.707275390625,
                "end": 5.582275390625,
                "pitch": 44,
                "velocity": 64
            },
            {
                "start": 5.582275390625,
                "end": 7.457275390625,
                "pitch": 70,
                "velocity": 64
            },
            {
                "start": 5.582275390625,
                "end": 7.457275390625,
                "pitch": 66,
                "velocity": 64
            },
            {
                "start": 5.582275390625,
                "end": 7.457275390625,
                "pitch": 63,
                "velocity": 64
            },
            {
                "start": 5.582275390625,
                "end": 7.457275390625,
                "pitch": 51,
                "velocity": 64
            },
            {
                "start": 5.582275390625,
                "end": 7.457275390625,
                "pitch": 39,
                "velocity": 64
            },
            {
                "start": 7.457275390625,
                "end": 9.332275390625,
                "pitch": 71,
                "velocity": 64
            },
            {
                "start": 7.457275390625,
                "end": 9.332275390625,
                "pitch": 68,
                "velocity": 64
            },
            {
                "start": 7.457275390625,
                "end": 9.332275390625,
                "pitch": 64,
                "velocity": 64
            },
            {
                "start": 7.457275390625,
                "end": 9.332275390625,
                "pitch": 52,
                "velocity": 64
            },
            {
                "start": 7.457275390625,
                "end": 9.332275390625,
                "pitch": 40,
                "velocity": 64
            },
            {
                "start": 9.332275390625,
                "end": 11.207275390625,
                "pitch": 73,
                "velocity": 64
            },
            {
                "start": 9.332275390625,
                "end": 11.207275390625,
                "pitch": 70,
                "velocity": 64
            },
            {
                "start": 9.332275390625,
                "end": 11.207275390625,
                "pitch": 66,
                "velocity": 64
            },
            {
                "start": 9.332275390625,
                "end": 11.207275390625,
                "pitch": 54,
                "velocity": 64
            },
            {
                "start": 9.332275390625,
                "end": 11.207275390625,
                "pitch": 42,
                "velocity": 64
            },
            {
                "start": 11.207275390625,
                "end": 13.082275390625,
                "pitch": 72,
                "velocity": 64
            },
            {
                "start": 11.207275390625,
                "end": 13.082275390625,
                "pitch": 68,
                "velocity": 64
            },
            {
                "start": 11.207275390625,
                "end": 13.082275390625,
                "pitch": 63,
                "velocity": 64
            },
            {
                "start": 11.207275390625,
                "end": 13.082275390625,
                "pitch": 56,
                "velocity": 64
            },
            {
                "start": 11.207275390625,
                "end": 13.082275390625,
                "pitch": 44,
                "velocity": 64
            },
            {
                "start": 13.082275390625,
                "end": 14.957275390625,
                "pitch": 70,
                "velocity": 64
            },
            {
                "start": 13.082275390625,
                "end": 14.957275390625,
                "pitch": 66,
                "velocity": 64
            },
            {
                "start": 13.082275390625,
                "end": 14.957275390625,
                "pitch": 63,
                "velocity": 64
            },
            {
                "start": 13.082275390625,
                "end": 14.957275390625,
                "pitch": 51,
                "velocity": 64
            },
            {
                "start": 13.082275390625,
                "end": 14.957275390625,
                "pitch": 39,
                "velocity": 64
            },
            {
                "start": 14.957275390625,
                "end": 16.832275390625,
                "pitch": 71,
                "velocity": 64
            },
            {
                "start": 14.957275390625,
                "end": 16.832275390625,
                "pitch": 68,
                "velocity": 64
            },
            {
                "start": 14.957275390625,
                "end": 16.832275390625,
                "pitch": 64,
                "velocity": 64
            },
            {
                "start": 14.957275390625,
                "end": 16.832275390625,
                "pitch": 52,
                "velocity": 64
            },
            {
                "start": 14.957275390625,
                "end": 16.832275390625,
                "pitch": 40,
                "velocity": 64
            },
            {
                "start": 16.832275390625,
                "end": 18.707275390625,
                "pitch": 73,
                "velocity": 64
            },
            {
                "start": 16.832275390625,
                "end": 18.707275390625,
                "pitch": 70,
                "velocity": 64
            },
            {
                "start": 16.832275390625,
                "end": 18.707275390625,
                "pitch": 66,
                "velocity": 64
            },
            {
                "start": 16.832275390625,
                "end": 18.707275390625,
                "pitch": 54,
                "velocity": 64
            },
            {
                "start": 16.832275390625,
                "end": 18.707275390625,
                "pitch": 42,
                "velocity": 64
            },
            {
                "start": 18.707275390625,
                "end": 20.582275390625,
                "pitch": 72,
                "velocity": 64
            },
            {
                "start": 18.707275390625,
                "end": 20.582275390625,
                "pitch": 68,
                "velocity": 64
            },
            {
                "start": 18.707275390625,
                "end": 20.582275390625,
                "pitch": 63,
                "velocity": 64
            },
            {
                "start": 18.707275390625,
                "end": 20.582275390625,
                "pitch": 56,
                "velocity": 64
            },
            {
                "start": 18.707275390625,
                "end": 20.582275390625,
                "pitch": 44,
                "velocity": 64
            },
            {
                "start": 20.582275390625,
                "end": 22.457275390625,
                "pitch": 70,
                "velocity": 64
            },
            {
                "start": 20.582275390625,
                "end": 22.457275390625,
                "pitch": 66,
                "velocity": 64
            },
            {
                "start": 20.582275390625,
                "end": 22.457275390625,
                "pitch": 63,
                "velocity": 64
            },
            {
                "start": 20.582275390625,
                "end": 22.457275390625,
                "pitch": 51,
                "velocity": 64
            },
            {
                "start": 20.582275390625,
                "end": 22.457275390625,
                "pitch": 39,
                "velocity": 64
            }
        ],
        "pitch_classes": [
            3,
            2,
            0,
            12,
            6,
            0,
            9,
            0,
            11,
            0,
            5,
            2
        ],
        "velocity_mean": 64.0,
        "pitch_mean": 59.52,
        "pitch_std": 11.060271244413494,
        "duration_mean": 1.875,
        "song_name": "Never_Alone.mid",
        "tempo": 217.7045560773666,
        "time_signature": "4/4",
        "key": "Ab",
        "camelot_key": "1A",
        "maj_min": "minor"
    },
    "Tribal_Dance_edit_.2.mid_0.0_20.004512471994012": {
        "instrument_no": 12,
        "instrument_category": "Other",
        "program": 61,
        "is_drum": false,
        "section_start": 0.0,
        "section_end": 20.004512471994012,
        "notes": [
            {
                "start": 11.81804,
                "end": 12.722385208333334,
                "pitch": 53,
                "velocity": 127
            },
            {
                "start": 11.81804,
                "end": 12.722385208333334,
                "pitch": 65,
                "velocity": 127
            },
            {
                "start": 12.72712,
                "end": 12.949655208333333,
                "pitch": 53,
                "velocity": 120
            },
            {
                "start": 12.72712,
                "end": 12.949655208333333,
                "pitch": 65,
                "velocity": 120
            }
        ],
        "pitch_classes": [
            0,
            0,
            0,
            0,
            0,
            4,
            0,
            0,
            0,
            0,
            0,
            0
        ],
        "velocity_mean": 123.5,
        "pitch_mean": 59.0,
        "pitch_std": 6.0,
        "duration_mean": 0.5634402083333336,
        "song_name": "Tribal_Dance_edit_.2.mid",
        "tempo": 239.94586255075802,
        "time_signature": "4/4",
        "key": "C",
        "camelot_key": "8B",
        "maj_min": "major"
    },
    "Tribal_Dance_edit_.2.mid_128.78395709733633_148.78846956933035": {
        "instrument_no": 13,
        "instrument_category": "Other",
        "program": 52,
        "is_drum": false,
        "section_start": 128.78395709733633,
        "section_end": 148.78846956933035,
        "notes": [
            {
                "start": 128.86209,
                "end": 129.08462520833334,
                "pitch": 65,
                "velocity": 120
            },
            {
                "start": 129.08936,
                "end": 129.53916520833334,
                "pitch": 56,
                "velocity": 100
            },
            {
                "start": 129.08936,
                "end": 129.53916520833334,
                "pitch": 72,
                "velocity": 120
            },
            {
                "start": 129.5439,
                "end": 130.16415770833333,
                "pitch": 53,
                "velocity": 100
            },
            {
                "start": 129.5439,
                "end": 130.16415770833333,
                "pitch": 68,
                "velocity": 120
            },
            {
                "start": 130.22571,
                "end": 130.50506270833333,
                "pitch": 68,
                "velocity": 120
            },
            {
                "start": 130.566615,
                "end": 130.90278520833334,
                "pitch": 68,
                "velocity": 120
            },
            {
                "start": 130.90752,
                "end": 131.24369020833333,
                "pitch": 56,
                "velocity": 100
            },
            {
                "start": 130.90752,
                "end": 131.24369020833333,
                "pitch": 72,
                "velocity": 120
            },
            {
                "start": 131.248425,
                "end": 131.52777770833333,
                "pitch": 53,
                "velocity": 100
            },
            {
                "start": 131.248425,
                "end": 131.52777770833333,
                "pitch": 70,
                "velocity": 120
            },
            {
                "start": 131.58933,
                "end": 131.92550020833335,
                "pitch": 53,
                "velocity": 100
            },
            {
                "start": 131.58933,
                "end": 131.92550020833335,
                "pitch": 70,
                "velocity": 120
            },
            {
                "start": 132.04387,
                "end": 132.26640520833334,
                "pitch": 65,
                "velocity": 120
            },
            {
                "start": 132.27114,
                "end": 132.49367520833334,
                "pitch": 68,
                "velocity": 120
            },
            {
                "start": 132.49841,
                "end": 132.72094520833335,
                "pitch": 65,
                "velocity": 120
            },
            {
                "start": 132.72568,
                "end": 133.17548520833333,
                "pitch": 56,
                "velocity": 100
            },
            {
                "start": 132.72568,
                "end": 133.17548520833333,
                "pitch": 72,
                "velocity": 120
            },
            {
                "start": 133.18022,
                "end": 133.80047770833335,
                "pitch": 53,
                "velocity": 100
            },
            {
                "start": 133.18022,
                "end": 133.80047770833335,
                "pitch": 68,
                "velocity": 120
            },
            {
                "start": 133.86203,
                "end": 134.14138270833334,
                "pitch": 68,
                "velocity": 120
            },
            {
                "start": 134.202935,
                "end": 134.53910520833332,
                "pitch": 68,
                "velocity": 120
            },
            {
                "start": 134.54384,
                "end": 134.88001020833335,
                "pitch": 56,
                "velocity": 100
            },
            {
                "start": 134.54384,
                "end": 134.88001020833335,
                "pitch": 70,
                "velocity": 120
            },
            {
                "start": 134.884745,
                "end": 135.16409770833334,
                "pitch": 53,
                "velocity": 100
            },
            {
                "start": 134.884745,
                "end": 135.22091520833334,
                "pitch": 68,
                "velocity": 120
            },
            {
                "start": 135.22565,
                "end": 135.56182020833333,
                "pitch": 53,
                "velocity": 100
            },
            {
                "start": 135.22565,
                "end": 135.56182020833333,
                "pitch": 70,
                "velocity": 120
            },
            {
                "start": 135.68019,
                "end": 135.90272520833332,
                "pitch": 65,
                "velocity": 120
            },
            {
                "start": 135.90746,
                "end": 136.12999520833333,
                "pitch": 68,
                "velocity": 120
            },
            {
                "start": 136.13473,
                "end": 136.35726520833333,
                "pitch": 65,
                "velocity": 120
            },
            {
                "start": 136.362,
                "end": 136.81180520833334,
                "pitch": 56,
                "velocity": 100
            },
            {
                "start": 136.362,
                "end": 136.81180520833334,
                "pitch": 72,
                "velocity": 120
            },
            {
                "start": 136.81654,
                "end": 137.43679770833333,
                "pitch": 53,
                "velocity": 100
            },
            {
                "start": 136.81654,
                "end": 137.43679770833333,
                "pitch": 68,
                "velocity": 120
            },
            {
                "start": 137.49835,
                "end": 137.77770270833332,
                "pitch": 68,
                "velocity": 120
            },
            {
                "start": 137.839255,
                "end": 138.17542520833334,
                "pitch": 68,
                "velocity": 120
            },
            {
                "start": 138.18016,
                "end": 138.51633020833333,
                "pitch": 56,
                "velocity": 100
            },
            {
                "start": 138.18016,
                "end": 138.51633020833333,
                "pitch": 72,
                "velocity": 120
            },
            {
                "start": 138.521065,
                "end": 138.80041770833333,
                "pitch": 53,
                "velocity": 100
            },
            {
                "start": 138.521065,
                "end": 138.80041770833333,
                "pitch": 70,
                "velocity": 120
            },
            {
                "start": 138.86197,
                "end": 139.19814020833334,
                "pitch": 53,
                "velocity": 100
            },
            {
                "start": 138.86197,
                "end": 139.19814020833334,
                "pitch": 70,
                "velocity": 120
            },
            {
                "start": 139.31651,
                "end": 139.53904520833333,
                "pitch": 68,
                "velocity": 120
            },
            {
                "start": 139.54378,
                "end": 139.76631520833334,
                "pitch": 70,
                "velocity": 120
            },
            {
                "start": 139.77105,
                "end": 139.99358520833334,
                "pitch": 68,
                "velocity": 120
            },
            {
                "start": 139.99832,
                "end": 143.51627020833334,
                "pitch": 72,
                "velocity": 120
            },
            {
                "start": 143.521005,
                "end": 143.62990520833333,
                "pitch": 70,
                "velocity": 120
            },
            {
                "start": 143.63464,
                "end": 144.53898520833334,
                "pitch": 68,
                "velocity": 120
            }
        ],
        "pitch_classes": [
            6,
            0,
            0,
            0,
            0,
            14,
            0,
            0,
            21,
            0,
            8,
            0
        ],
        "velocity_mean": 113.87755102040816,
        "pitch_mean": 64.28571428571429,
        "pitch_std": 6.978099852468465,
        "duration_mean": 0.42429531037415225,
        "song_name": "Tribal_Dance_edit_.2.mid",
        "tempo": 239.94586255075802,
        "time_signature": "4/4",
        "key": "C",
        "camelot_key": "5A",
        "maj_min": "minor"
    },
    "Twilight_Zone.1.mid_0.0_18.570385145804543": {
        "instrument_no": 9,
        "instrument_category": "Other",
        "program": 62,
        "is_drum": false,
        "section_start": 0.0,
        "section_end": 18.570385145804543,
        "notes": [
            {
                "start": 3.69224,
                "end": 3.7811806770833334,
                "pitch": 70,
                "velocity": 126
            },
            {
                "start": 3.69224,
                "end": 3.7811806770833334,
                "pitch": 58,
                "velocity": 126
            },
            {
                "start": 3.8076225,
                "end": 3.90137078125,
                "pitch": 70,
                "velocity": 122
            },
            {
                "start": 3.8076225,
                "end": 3.90137078125,
                "pitch": 58,
                "velocity": 122
            },
            {
                "start": 4.0383875,
                "end": 4.115309166666667,
                "pitch": 70,
                "velocity": 122
            },
            {
                "start": 4.0383875,
                "end": 4.115309166666667,
                "pitch": 58,
                "velocity": 122
            },
            {
                "start": 4.15377,
                "end": 4.2547296875,
                "pitch": 70,
                "velocity": 124
            },
            {
                "start": 4.15377,
                "end": 4.2547296875,
                "pitch": 58,
                "velocity": 124
            },
            {
                "start": 4.384535,
                "end": 4.4566490625,
                "pitch": 70,
                "velocity": 119
            },
            {
                "start": 4.384535,
                "end": 4.4566490625,
                "pitch": 58,
                "velocity": 119
            },
            {
                "start": 4.4999175,
                "end": 4.59366578125,
                "pitch": 70,
                "velocity": 125
            },
            {
                "start": 4.4999175,
                "end": 4.59366578125,
                "pitch": 58,
                "velocity": 125
            },
            {
                "start": 4.7306825,
                "end": 4.805200364583333,
                "pitch": 70,
                "velocity": 121
            },
            {
                "start": 4.7306825,
                "end": 4.805200364583333,
                "pitch": 58,
                "velocity": 121
            },
            {
                "start": 4.846065,
                "end": 4.937409479166667,
                "pitch": 70,
                "velocity": 123
            },
            {
                "start": 4.846065,
                "end": 4.937409479166667,
                "pitch": 58,
                "velocity": 123
            },
            {
                "start": 5.07683,
                "end": 5.172982083333333,
                "pitch": 71,
                "velocity": 116
            },
            {
                "start": 5.07683,
                "end": 5.172982083333333,
                "pitch": 59,
                "velocity": 116
            },
            {
                "start": 5.307595,
                "end": 5.384516666666666,
                "pitch": 68,
                "velocity": 124
            },
            {
                "start": 5.307595,
                "end": 5.384516666666666,
                "pitch": 56,
                "velocity": 124
            },
            {
                "start": 5.53836,
                "end": 5.624896875,
                "pitch": 70,
                "velocity": 123
            },
            {
                "start": 5.53836,
                "end": 5.624896875,
                "pitch": 58,
                "velocity": 123
            },
            {
                "start": 5.6537425,
                "end": 5.737875572916667,
                "pitch": 70,
                "velocity": 120
            },
            {
                "start": 5.6537425,
                "end": 5.737875572916667,
                "pitch": 58,
                "velocity": 120
            },
            {
                "start": 5.8845075,
                "end": 5.9662367708333335,
                "pitch": 70,
                "velocity": 123
            },
            {
                "start": 5.8845075,
                "end": 5.9662367708333335,
                "pitch": 58,
                "velocity": 123
            },
            {
                "start": 5.99989,
                "end": 6.098445885416667,
                "pitch": 70,
                "velocity": 124
            },
            {
                "start": 5.99989,
                "end": 6.098445885416667,
                "pitch": 58,
                "velocity": 124
            },
            {
                "start": 6.230655,
                "end": 6.3027690625,
                "pitch": 70,
                "velocity": 113
            },
            {
                "start": 6.230655,
                "end": 6.3027690625,
                "pitch": 58,
                "velocity": 113
            },
            {
                "start": 6.3460374999999996,
                "end": 6.437381979166666,
                "pitch": 70,
                "velocity": 124
            },
            {
                "start": 6.3460374999999996,
                "end": 6.437381979166666,
                "pitch": 58,
                "velocity": 124
            },
            {
                "start": 6.5768025,
                "end": 6.653724166666667,
                "pitch": 70,
                "velocity": 119
            },
            {
                "start": 6.5768025,
                "end": 6.653724166666667,
                "pitch": 58,
                "velocity": 119
            },
            {
                "start": 6.692185,
                "end": 6.788337083333333,
                "pitch": 70,
                "velocity": 124
            },
            {
                "start": 6.692185,
                "end": 6.788337083333333,
                "pitch": 58,
                "velocity": 124
            },
            {
                "start": 6.92295,
                "end": 7.0239096875,
                "pitch": 71,
                "velocity": 120
            },
            {
                "start": 6.92295,
                "end": 7.0239096875,
                "pitch": 59,
                "velocity": 120
            },
            {
                "start": 7.153715,
                "end": 7.24746328125,
                "pitch": 68,
                "velocity": 125
            },
            {
                "start": 7.153715,
                "end": 7.24746328125,
                "pitch": 56,
                "velocity": 125
            },
            {
                "start": 7.38448,
                "end": 7.473420677083333,
                "pitch": 70,
                "velocity": 126
            },
            {
                "start": 7.38448,
                "end": 7.473420677083333,
                "pitch": 58,
                "velocity": 126
            },
            {
                "start": 7.4998625,
                "end": 7.59361078125,
                "pitch": 70,
                "velocity": 122
            },
            {
                "start": 7.4998625,
                "end": 7.59361078125,
                "pitch": 58,
                "velocity": 122
            },
            {
                "start": 7.7306275,
                "end": 7.807549166666667,
                "pitch": 70,
                "velocity": 122
            },
            {
                "start": 7.7306275,
                "end": 7.807549166666667,
                "pitch": 58,
                "velocity": 122
            },
            {
                "start": 7.84601,
                "end": 7.9469696875,
                "pitch": 70,
                "velocity": 124
            },
            {
                "start": 7.84601,
                "end": 7.9469696875,
                "pitch": 58,
                "velocity": 124
            },
            {
                "start": 8.076775,
                "end": 8.1488890625,
                "pitch": 70,
                "velocity": 119
            },
            {
                "start": 8.076775,
                "end": 8.1488890625,
                "pitch": 58,
                "velocity": 119
            },
            {
                "start": 8.1921575,
                "end": 8.28590578125,
                "pitch": 70,
                "velocity": 125
            },
            {
                "start": 8.1921575,
                "end": 8.28590578125,
                "pitch": 58,
                "velocity": 125
            },
            {
                "start": 8.4229225,
                "end": 8.497440364583333,
                "pitch": 70,
                "velocity": 121
            },
            {
                "start": 8.4229225,
                "end": 8.497440364583333,
                "pitch": 58,
                "velocity": 121
            },
            {
                "start": 8.538305,
                "end": 8.629649479166666,
                "pitch": 70,
                "velocity": 123
            },
            {
                "start": 8.538305,
                "end": 8.629649479166666,
                "pitch": 58,
                "velocity": 123
            },
            {
                "start": 8.76907,
                "end": 8.865222083333332,
                "pitch": 71,
                "velocity": 116
            },
            {
                "start": 8.76907,
                "end": 8.865222083333332,
                "pitch": 59,
                "velocity": 116
            },
            {
                "start": 8.999835,
                "end": 9.076756666666666,
                "pitch": 68,
                "velocity": 124
            },
            {
                "start": 8.999835,
                "end": 9.076756666666666,
                "pitch": 56,
                "velocity": 124
            },
            {
                "start": 9.230599999999999,
                "end": 9.312329270833333,
                "pitch": 70,
                "velocity": 123
            },
            {
                "start": 9.230599999999999,
                "end": 9.312329270833333,
                "pitch": 58,
                "velocity": 123
            },
            {
                "start": 9.461365,
                "end": 9.547901874999999,
                "pitch": 70,
                "velocity": 122
            },
            {
                "start": 9.461365,
                "end": 9.547901874999999,
                "pitch": 58,
                "velocity": 122
            },
            {
                "start": 9.69213,
                "end": 9.783474479166667,
                "pitch": 70,
                "velocity": 125
            },
            {
                "start": 9.69213,
                "end": 9.783474479166667,
                "pitch": 58,
                "velocity": 125
            },
            {
                "start": 9.922895,
                "end": 10.004624270833332,
                "pitch": 68,
                "velocity": 122
            },
            {
                "start": 9.922895,
                "end": 10.004624270833332,
                "pitch": 56,
                "velocity": 122
            },
            {
                "start": 10.0382775,
                "end": 10.13202578125,
                "pitch": 70,
                "velocity": 123
            },
            {
                "start": 10.0382775,
                "end": 10.13202578125,
                "pitch": 58,
                "velocity": 123
            },
            {
                "start": 10.384425,
                "end": 10.466154270833334,
                "pitch": 68,
                "velocity": 67
            },
            {
                "start": 10.384425,
                "end": 10.466154270833334,
                "pitch": 56,
                "velocity": 65
            },
            {
                "start": 10.4998075,
                "end": 10.59355578125,
                "pitch": 70,
                "velocity": 61
            },
            {
                "start": 10.4998075,
                "end": 10.59355578125,
                "pitch": 58,
                "velocity": 68
            },
            {
                "start": 11.07672,
                "end": 11.165660677083332,
                "pitch": 70,
                "velocity": 126
            },
            {
                "start": 11.07672,
                "end": 11.165660677083332,
                "pitch": 58,
                "velocity": 126
            },
            {
                "start": 11.1921025,
                "end": 11.28585078125,
                "pitch": 70,
                "velocity": 122
            },
            {
                "start": 11.1921025,
                "end": 11.28585078125,
                "pitch": 58,
                "velocity": 122
            },
            {
                "start": 11.4228675,
                "end": 11.499789166666666,
                "pitch": 70,
                "velocity": 122
            },
            {
                "start": 11.4228675,
                "end": 11.499789166666666,
                "pitch": 58,
                "velocity": 122
            },
            {
                "start": 11.53825,
                "end": 11.6392096875,
                "pitch": 70,
                "velocity": 124
            },
            {
                "start": 11.53825,
                "end": 11.6392096875,
                "pitch": 58,
                "velocity": 124
            },
            {
                "start": 11.769015,
                "end": 11.8411290625,
                "pitch": 70,
                "velocity": 119
            },
            {
                "start": 11.769015,
                "end": 11.8411290625,
                "pitch": 58,
                "velocity": 119
            },
            {
                "start": 11.8843975,
                "end": 11.97814578125,
                "pitch": 70,
                "velocity": 125
            },
            {
                "start": 11.8843975,
                "end": 11.97814578125,
                "pitch": 58,
                "velocity": 125
            },
            {
                "start": 12.1151625,
                "end": 12.189680364583333,
                "pitch": 70,
                "velocity": 121
            },
            {
                "start": 12.1151625,
                "end": 12.189680364583333,
                "pitch": 58,
                "velocity": 121
            },
            {
                "start": 12.230545,
                "end": 12.321889479166666,
                "pitch": 70,
                "velocity": 123
            },
            {
                "start": 12.230545,
                "end": 12.321889479166666,
                "pitch": 58,
                "velocity": 123
            },
            {
                "start": 12.46131,
                "end": 12.557462083333332,
                "pitch": 71,
                "velocity": 116
            },
            {
                "start": 12.46131,
                "end": 12.557462083333332,
                "pitch": 59,
                "velocity": 116
            },
            {
                "start": 12.692074999999999,
                "end": 12.768996666666666,
                "pitch": 68,
                "velocity": 124
            },
            {
                "start": 12.692074999999999,
                "end": 12.768996666666666,
                "pitch": 56,
                "velocity": 124
            },
            {
                "start": 12.92284,
                "end": 13.009376875,
                "pitch": 70,
                "velocity": 123
            },
            {
                "start": 12.92284,
                "end": 13.009376875,
                "pitch": 58,
                "velocity": 123
            },
            {
                "start": 13.0382225,
                "end": 13.122355572916666,
                "pitch": 70,
                "velocity": 120
            },
            {
                "start": 13.0382225,
                "end": 13.122355572916666,
                "pitch": 58,
                "velocity": 120
            },
            {
                "start": 13.2689875,
                "end": 13.350716770833333,
                "pitch": 70,
                "velocity": 123
            },
            {
                "start": 13.2689875,
                "end": 13.350716770833333,
                "pitch": 58,
                "velocity": 123
            },
            {
                "start": 13.38437,
                "end": 13.482925885416666,
                "pitch": 70,
                "velocity": 124
            },
            {
                "start": 13.38437,
                "end": 13.482925885416666,
                "pitch": 58,
                "velocity": 124
            },
            {
                "start": 13.615135,
                "end": 13.6872490625,
                "pitch": 70,
                "velocity": 113
            },
            {
                "start": 13.615135,
                "end": 13.6872490625,
                "pitch": 58,
                "velocity": 113
            },
            {
                "start": 13.7305175,
                "end": 13.821861979166666,
                "pitch": 70,
                "velocity": 124
            },
            {
                "start": 13.7305175,
                "end": 13.821861979166666,
                "pitch": 58,
                "velocity": 124
            },
            {
                "start": 13.9612825,
                "end": 14.038204166666667,
                "pitch": 70,
                "velocity": 119
            },
            {
                "start": 13.9612825,
                "end": 14.038204166666667,
                "pitch": 58,
                "velocity": 119
            },
            {
                "start": 14.076665,
                "end": 14.172817083333333,
                "pitch": 70,
                "velocity": 124
            },
            {
                "start": 14.076665,
                "end": 14.172817083333333,
                "pitch": 58,
                "velocity": 124
            },
            {
                "start": 14.30743,
                "end": 14.4083896875,
                "pitch": 71,
                "velocity": 120
            },
            {
                "start": 14.30743,
                "end": 14.4083896875,
                "pitch": 59,
                "velocity": 120
            },
            {
                "start": 14.538195,
                "end": 14.631943281249999,
                "pitch": 68,
                "velocity": 125
            },
            {
                "start": 14.538195,
                "end": 14.631943281249999,
                "pitch": 56,
                "velocity": 125
            },
            {
                "start": 14.76896,
                "end": 14.857900677083332,
                "pitch": 70,
                "velocity": 126
            },
            {
                "start": 14.76896,
                "end": 14.857900677083332,
                "pitch": 58,
                "velocity": 126
            },
            {
                "start": 14.8843425,
                "end": 14.97809078125,
                "pitch": 70,
                "velocity": 122
            },
            {
                "start": 14.8843425,
                "end": 14.97809078125,
                "pitch": 58,
                "velocity": 122
            },
            {
                "start": 15.1151075,
                "end": 15.192029166666666,
                "pitch": 70,
                "velocity": 122
            },
            {
                "start": 15.1151075,
                "end": 15.192029166666666,
                "pitch": 58,
                "velocity": 122
            },
            {
                "start": 15.23049,
                "end": 15.3314496875,
                "pitch": 70,
                "velocity": 124
            },
            {
                "start": 15.23049,
                "end": 15.3314496875,
                "pitch": 58,
                "velocity": 124
            },
            {
                "start": 15.461255,
                "end": 15.5333690625,
                "pitch": 70,
                "velocity": 119
            },
            {
                "start": 15.461255,
                "end": 15.5333690625,
                "pitch": 58,
                "velocity": 119
            },
            {
                "start": 15.5766375,
                "end": 15.67038578125,
                "pitch": 70,
                "velocity": 125
            },
            {
                "start": 15.5766375,
                "end": 15.67038578125,
                "pitch": 58,
                "velocity": 125
            },
            {
                "start": 15.8074025,
                "end": 15.881920364583333,
                "pitch": 70,
                "velocity": 121
            },
            {
                "start": 15.8074025,
                "end": 15.881920364583333,
                "pitch": 58,
                "velocity": 121
            },
            {
                "start": 15.922785,
                "end": 16.014129479166666,
                "pitch": 70,
                "velocity": 123
            },
            {
                "start": 15.922785,
                "end": 16.014129479166666,
                "pitch": 58,
                "velocity": 123
            },
            {
                "start": 16.15355,
                "end": 16.249702083333332,
                "pitch": 71,
                "velocity": 116
            },
            {
                "start": 16.15355,
                "end": 16.249702083333332,
                "pitch": 59,
                "velocity": 116
            },
            {
                "start": 16.384315,
                "end": 16.461236666666668,
                "pitch": 68,
                "velocity": 124
            },
            {
                "start": 16.384315,
                "end": 16.461236666666668,
                "pitch": 56,
                "velocity": 124
            },
            {
                "start": 16.61508,
                "end": 16.696809270833334,
                "pitch": 70,
                "velocity": 123
            },
            {
                "start": 16.61508,
                "end": 16.696809270833334,
                "pitch": 58,
                "velocity": 123
            },
            {
                "start": 16.845845,
                "end": 16.932381875,
                "pitch": 70,
                "velocity": 122
            },
            {
                "start": 16.845845,
                "end": 16.932381875,
                "pitch": 58,
                "velocity": 122
            },
            {
                "start": 17.07661,
                "end": 17.167954479166667,
                "pitch": 70,
                "velocity": 125
            },
            {
                "start": 17.07661,
                "end": 17.167954479166667,
                "pitch": 58,
                "velocity": 125
            },
            {
                "start": 17.307375,
                "end": 17.389104270833332,
                "pitch": 68,
                "velocity": 122
            },
            {
                "start": 17.307375,
                "end": 17.389104270833332,
                "pitch": 56,
                "velocity": 122
            },
            {
                "start": 17.4227575,
                "end": 17.51650578125,
                "pitch": 70,
                "velocity": 123
            },
            {
                "start": 17.4227575,
                "end": 17.51650578125,
                "pitch": 58,
                "velocity": 123
            },
            {
                "start": 17.768905,
                "end": 17.850634270833332,
                "pitch": 68,
                "velocity": 67
            },
            {
                "start": 17.768905,
                "end": 17.850634270833332,
                "pitch": 56,
                "velocity": 65
            },
            {
                "start": 17.8842875,
                "end": 17.97803578125,
                "pitch": 70,
                "velocity": 61
            },
            {
                "start": 17.8842875,
                "end": 17.97803578125,
                "pitch": 58,
                "velocity": 68
            },
            {
                "start": 18.461199999999998,
                "end": 18.550140677083334,
                "pitch": 70,
                "velocity": 126
            },
            {
                "start": 18.461199999999998,
                "end": 18.550140677083334,
                "pitch": 58,
                "velocity": 126
            }
        ],
        "pitch_classes": [
            0,
            0,
            0,
            0,
            0,
            0,
            0,
            0,
            20,
            0,
            118,
            12
        ],
        "velocity_mean": 119.13333333333334,
        "pitch_mean": 63.81333333333333,
        "pitch_std": 6.048015285107082,
        "duration_mean": 0.0871458381944444,
        "song_name": "Twilight_Zone.1.mid",
        "tempo": 258.4760607985788,
        "time_signature": "4/4",
        "key": "Eb",
        "camelot_key": "2A",
        "maj_min": "minor"
    },
    "Here_I_Go.mid_0.0_17.23851310244001": {
        "instrument_no": 9,
        "instrument_category": "Other",
        "program": 56,
        "is_drum": false,
        "section_start": 0.0,
        "section_end": 17.23851310244001,
        "notes": [
            {
                "start": 4.071415,
                "end": 5.281232395833333,
                "pitch": 69,
                "velocity": 127
            }
        ],
        "pitch_classes": [
            0,
            0,
            0,
            0,
            0,
            0,
            0,
            0,
            0,
            1,
            0,
            0
        ],
        "velocity_mean": 127.0,
        "pitch_mean": 69.0,
        "pitch_std": 0.0,
        "duration_mean": 1.2098173958333334,
        "song_name": "Here_I_Go.mid",
        "tempo": 278.44628892735466,
        "time_signature": "4/4",
        "key": "C",
        "camelot_key": "8B",
        "maj_min": "major"
    },
    "Maximum_Overdrive.mid_102.84323314832399_121.40514216417604": {
        "instrument_no": 13,
        "instrument_category": "Other",
        "program": 125,
        "is_drum": false,
        "section_start": 102.84323314832399,
        "section_end": 121.40514216417604,
        "notes": [
            {
                "start": 111.20816765625003,
                "end": 113.57455265625002,
                "pitch": 76,
                "velocity": 91
            },
            {
                "start": 120.36836765625002,
                "end": 122.73475265625002,
                "pitch": 76,
                "velocity": 91
            }
        ],
        "pitch_classes": [
            0,
            0,
            0,
            0,
            2,
            0,
            0,
            0,
            0,
            0,
            0,
            0
        ],
        "velocity_mean": 91.0,
        "pitch_mean": 76.0,
        "pitch_std": 0.0,
        "duration_mean": 2.366385000000001,
        "song_name": "Maximum_Overdrive.mid",
        "tempo": 258.59409158296984,
        "time_signature": "4/4",
        "key": "C",
        "camelot_key": "8B",
        "maj_min": "major"
    },
    "Maximum_Overdrive.mid_205.68646629664798_224.24837531250003": {
        "instrument_no": 12,
        "instrument_category": "Other",
        "program": 125,
        "is_drum": false,
        "section_start": 205.68646629664798,
        "section_end": 224.24837531250003,
        "notes": [
            {
                "start": 221.67684000000003,
                "end": 222.99600421875004,
                "pitch": 72,
                "velocity": 109
            }
        ],
        "pitch_classes": [
            1,
            0,
            0,
            0,
            0,
            0,
            0,
            0,
            0,
            0,
            0,
            0
        ],
        "velocity_mean": 109.0,
        "pitch_mean": 72.0,
        "pitch_std": 0.0,
        "duration_mean": 1.3191642187500179,
        "song_name": "Maximum_Overdrive.mid",
        "tempo": 258.59409158296984,
        "time_signature": "4/4",
        "key": "C",
        "camelot_key": "8B",
        "maj_min": "major"
    },
    "I_Wont_Let_You_Down.mid_227.12074806673732_245.75868281249998": {
        "instrument_no": 5,
        "instrument_category": "Other",
        "program": 51,
        "is_drum": false,
        "section_start": 227.12074806673732,
        "section_end": 245.75868281249998,
        "notes": [
            {
                "start": 228.07764890624998,
                "end": 228.31574390624996,
                "pitch": 63,
                "velocity": 64
            },
            {
                "start": 227.36336390625,
                "end": 228.46207312499996,
                "pitch": 55,
                "velocity": 64
            },
            {
                "start": 227.36336390625,
                "end": 228.50919609374998,
                "pitch": 43,
                "velocity": 64
            },
            {
                "start": 228.31574390624996,
                "end": 228.51167624999997,
                "pitch": 60,
                "velocity": 64
            },
            {
                "start": 228.55383890624998,
                "end": 229.25324296875,
                "pitch": 68,
                "velocity": 64
            },
            {
                "start": 228.55383890624998,
                "end": 229.30780640624997,
                "pitch": 41,
                "velocity": 64
            },
            {
                "start": 229.26812390624997,
                "end": 230.38667437499998,
                "pitch": 36,
                "velocity": 64
            },
            {
                "start": 228.55383890624998,
                "end": 230.39907515624998,
                "pitch": 63,
                "velocity": 64
            },
            {
                "start": 228.55383890624998,
                "end": 230.41395609375,
                "pitch": 60,
                "velocity": 64
            },
            {
                "start": 229.26812390624997,
                "end": 230.42139656249998,
                "pitch": 67,
                "velocity": 64
            },
            {
                "start": 230.45859890624996,
                "end": 231.14808234374996,
                "pitch": 67,
                "velocity": 64
            },
            {
                "start": 230.45859890624996,
                "end": 231.15056249999998,
                "pitch": 43,
                "velocity": 64
            },
            {
                "start": 231.88716890624997,
                "end": 232.12030359374998,
                "pitch": 70,
                "velocity": 64
            },
            {
                "start": 231.17288390624998,
                "end": 232.27159312499998,
                "pitch": 34,
                "velocity": 64
            },
            {
                "start": 231.17288390624998,
                "end": 232.34103749999997,
                "pitch": 65,
                "velocity": 64
            },
            {
                "start": 230.45859890624996,
                "end": 232.34351765625,
                "pitch": 58,
                "velocity": 64
            },
            {
                "start": 230.45859890624996,
                "end": 232.34351765625,
                "pitch": 62,
                "velocity": 64
            },
            {
                "start": 232.36335890624997,
                "end": 233.05532249999996,
                "pitch": 58,
                "velocity": 64
            },
            {
                "start": 233.07764390624996,
                "end": 233.76216703125,
                "pitch": 57,
                "velocity": 64
            },
            {
                "start": 232.36335890624997,
                "end": 233.79192890624998,
                "pitch": 65,
                "velocity": 64
            },
            {
                "start": 232.36335890624997,
                "end": 233.79440906249997,
                "pitch": 41,
                "velocity": 64
            },
            {
                "start": 233.79192890624998,
                "end": 234.22099593749996,
                "pitch": 39,
                "velocity": 64
            },
            {
                "start": 232.12526390624998,
                "end": 234.22099593749996,
                "pitch": 72,
                "velocity": 64
            },
            {
                "start": 233.79192890624998,
                "end": 234.22347609374998,
                "pitch": 56,
                "velocity": 64
            },
            {
                "start": 232.36335890624997,
                "end": 234.22595624999997,
                "pitch": 60,
                "velocity": 64
            },
            {
                "start": 233.79192890624998,
                "end": 234.24579749999998,
                "pitch": 63,
                "velocity": 64
            },
            {
                "start": 234.26811890624998,
                "end": 234.96008249999997,
                "pitch": 56,
                "velocity": 64
            },
            {
                "start": 234.26811890624998,
                "end": 235.00224515624998,
                "pitch": 44,
                "velocity": 64
            },
            {
                "start": 234.26811890624998,
                "end": 235.64460562499997,
                "pitch": 60,
                "velocity": 64
            },
            {
                "start": 235.69668890624996,
                "end": 235.93478390624998,
                "pitch": 63,
                "velocity": 64
            },
            {
                "start": 234.26811890624998,
                "end": 236.05879171874997,
                "pitch": 51,
                "velocity": 64
            },
            {
                "start": 234.98240390624997,
                "end": 236.08111312499997,
                "pitch": 55,
                "velocity": 64
            },
            {
                "start": 234.98240390624997,
                "end": 236.12823609374996,
                "pitch": 43,
                "velocity": 64
            },
            {
                "start": 235.93478390624998,
                "end": 236.13071624999998,
                "pitch": 60,
                "velocity": 64
            },
            {
                "start": 236.17287890624996,
                "end": 236.87228296874997,
                "pitch": 68,
                "velocity": 64
            },
            {
                "start": 236.17287890624996,
                "end": 236.92684640624998,
                "pitch": 41,
                "velocity": 64
            },
            {
                "start": 236.88716390624998,
                "end": 238.00571437499997,
                "pitch": 36,
                "velocity": 64
            },
            {
                "start": 236.17287890624996,
                "end": 238.01811515624996,
                "pitch": 63,
                "velocity": 64
            },
            {
                "start": 236.17287890624996,
                "end": 238.03299609374997,
                "pitch": 60,
                "velocity": 64
            },
            {
                "start": 236.88716390624998,
                "end": 238.04043656249996,
                "pitch": 67,
                "velocity": 64
            },
            {
                "start": 238.07763890624997,
                "end": 238.76712234374997,
                "pitch": 67,
                "velocity": 64
            },
            {
                "start": 238.07763890624997,
                "end": 238.76960249999996,
                "pitch": 43,
                "velocity": 64
            },
            {
                "start": 238.79192390624996,
                "end": 239.89063312499997,
                "pitch": 34,
                "velocity": 64
            },
            {
                "start": 238.79192390624996,
                "end": 239.96007749999998,
                "pitch": 65,
                "velocity": 64
            },
            {
                "start": 238.07763890624997,
                "end": 239.96255765624997,
                "pitch": 58,
                "velocity": 64
            },
            {
                "start": 238.07763890624997,
                "end": 239.96255765624997,
                "pitch": 62,
                "velocity": 64
            },
            {
                "start": 239.98239890624998,
                "end": 240.67436249999997,
                "pitch": 58,
                "velocity": 64
            },
            {
                "start": 240.69668390624997,
                "end": 241.38120703124997,
                "pitch": 57,
                "velocity": 64
            },
            {
                "start": 239.98239890624998,
                "end": 241.41096890624996,
                "pitch": 65,
                "velocity": 64
            },
            {
                "start": 239.98239890624998,
                "end": 241.41344906249998,
                "pitch": 41,
                "velocity": 64
            },
            {
                "start": 241.41096890624996,
                "end": 241.84003593749998,
                "pitch": 39,
                "velocity": 64
            },
            {
                "start": 241.41096890624996,
                "end": 241.84251609374996,
                "pitch": 56,
                "velocity": 64
            },
            {
                "start": 239.98239890624998,
                "end": 241.84499624999998,
                "pitch": 60,
                "velocity": 64
            },
            {
                "start": 241.41096890624996,
                "end": 241.86483749999996,
                "pitch": 63,
                "velocity": 64
            }
        ],
        "pitch_classes": [
            10,
            0,
            2,
            9,
            0,
            8,
            0,
            10,
            6,
            2,
            7,
            0
        ],
        "velocity_mean": 64.0,
        "pitch_mean": 55.574074074074076,
        "pitch_std": 10.65207657002954,
        "duration_mean": 1.0519077517361113,
        "song_name": "I_Wont_Let_You_Down.mid",
        "tempo": 257.53926416612643,
        "time_signature": "4/4",
        "key": "C",
        "camelot_key": "5A",
        "maj_min": "minor"
    },
    "Twilight_Zone.3.mid_0.0_20.8371398319129": {
        "instrument_no": 10,
        "instrument_category": "Other",
        "program": 62,
        "is_drum": false,
        "section_start": 0.0,
        "section_end": 20.8371398319129,
        "notes": [
            {
                "start": 12.92284,
                "end": 13.011780677083333,
                "pitch": 70,
                "velocity": 126
            },
            {
                "start": 12.92284,
                "end": 13.011780677083333,
                "pitch": 58,
                "velocity": 126
            },
            {
                "start": 13.0382225,
                "end": 13.13197078125,
                "pitch": 70,
                "velocity": 122
            },
            {
                "start": 13.0382225,
                "end": 13.13197078125,
                "pitch": 58,
                "velocity": 122
            },
            {
                "start": 13.2689875,
                "end": 13.345909166666667,
                "pitch": 70,
                "velocity": 122
            },
            {
                "start": 13.2689875,
                "end": 13.345909166666667,
                "pitch": 58,
                "velocity": 122
            },
            {
                "start": 13.38437,
                "end": 13.4853296875,
                "pitch": 70,
                "velocity": 124
            },
            {
                "start": 13.38437,
                "end": 13.4853296875,
                "pitch": 58,
                "velocity": 124
            },
            {
                "start": 13.615135,
                "end": 13.6872490625,
                "pitch": 70,
                "velocity": 119
            },
            {
                "start": 13.615135,
                "end": 13.6872490625,
                "pitch": 58,
                "velocity": 119
            },
            {
                "start": 13.7305175,
                "end": 13.82426578125,
                "pitch": 70,
                "velocity": 125
            },
            {
                "start": 13.7305175,
                "end": 13.82426578125,
                "pitch": 58,
                "velocity": 125
            },
            {
                "start": 13.9612825,
                "end": 14.035800364583332,
                "pitch": 70,
                "velocity": 121
            },
            {
                "start": 13.9612825,
                "end": 14.035800364583332,
                "pitch": 58,
                "velocity": 121
            },
            {
                "start": 14.076665,
                "end": 14.168009479166667,
                "pitch": 70,
                "velocity": 123
            },
            {
                "start": 14.076665,
                "end": 14.168009479166667,
                "pitch": 58,
                "velocity": 123
            },
            {
                "start": 14.30743,
                "end": 14.403582083333333,
                "pitch": 71,
                "velocity": 116
            },
            {
                "start": 14.30743,
                "end": 14.403582083333333,
                "pitch": 59,
                "velocity": 116
            },
            {
                "start": 14.538195,
                "end": 14.615116666666667,
                "pitch": 68,
                "velocity": 124
            },
            {
                "start": 14.538195,
                "end": 14.615116666666667,
                "pitch": 56,
                "velocity": 124
            },
            {
                "start": 14.76896,
                "end": 14.855496875,
                "pitch": 70,
                "velocity": 123
            },
            {
                "start": 14.76896,
                "end": 14.855496875,
                "pitch": 58,
                "velocity": 123
            },
            {
                "start": 14.8843425,
                "end": 14.968475572916667,
                "pitch": 70,
                "velocity": 120
            },
            {
                "start": 14.8843425,
                "end": 14.968475572916667,
                "pitch": 58,
                "velocity": 120
            },
            {
                "start": 15.1151075,
                "end": 15.196836770833333,
                "pitch": 70,
                "velocity": 123
            },
            {
                "start": 15.1151075,
                "end": 15.196836770833333,
                "pitch": 58,
                "velocity": 123
            },
            {
                "start": 15.23049,
                "end": 15.329045885416667,
                "pitch": 70,
                "velocity": 124
            },
            {
                "start": 15.23049,
                "end": 15.329045885416667,
                "pitch": 58,
                "velocity": 124
            },
            {
                "start": 15.461255,
                "end": 15.5333690625,
                "pitch": 70,
                "velocity": 113
            },
            {
                "start": 15.461255,
                "end": 15.5333690625,
                "pitch": 58,
                "velocity": 113
            },
            {
                "start": 15.5766375,
                "end": 15.667981979166667,
                "pitch": 70,
                "velocity": 124
            },
            {
                "start": 15.5766375,
                "end": 15.667981979166667,
                "pitch": 58,
                "velocity": 124
            },
            {
                "start": 15.8074025,
                "end": 15.884324166666666,
                "pitch": 70,
                "velocity": 119
            },
            {
                "start": 15.8074025,
                "end": 15.884324166666666,
                "pitch": 58,
                "velocity": 119
            },
            {
                "start": 15.922785,
                "end": 16.018937083333334,
                "pitch": 70,
                "velocity": 124
            },
            {
                "start": 15.922785,
                "end": 16.018937083333334,
                "pitch": 58,
                "velocity": 124
            },
            {
                "start": 16.15355,
                "end": 16.2545096875,
                "pitch": 71,
                "velocity": 120
            },
            {
                "start": 16.15355,
                "end": 16.2545096875,
                "pitch": 59,
                "velocity": 120
            },
            {
                "start": 16.384315,
                "end": 16.478063281249998,
                "pitch": 68,
                "velocity": 125
            },
            {
                "start": 16.384315,
                "end": 16.478063281249998,
                "pitch": 56,
                "velocity": 125
            },
            {
                "start": 16.61508,
                "end": 16.70402067708333,
                "pitch": 70,
                "velocity": 126
            },
            {
                "start": 16.61508,
                "end": 16.70402067708333,
                "pitch": 58,
                "velocity": 126
            },
            {
                "start": 16.7304625,
                "end": 16.82421078125,
                "pitch": 70,
                "velocity": 122
            },
            {
                "start": 16.7304625,
                "end": 16.82421078125,
                "pitch": 58,
                "velocity": 122
            },
            {
                "start": 16.9612275,
                "end": 17.038149166666667,
                "pitch": 70,
                "velocity": 122
            },
            {
                "start": 16.9612275,
                "end": 17.038149166666667,
                "pitch": 58,
                "velocity": 122
            },
            {
                "start": 17.07661,
                "end": 17.1775696875,
                "pitch": 70,
                "velocity": 124
            },
            {
                "start": 17.07661,
                "end": 17.1775696875,
                "pitch": 58,
                "velocity": 124
            },
            {
                "start": 17.307375,
                "end": 17.3794890625,
                "pitch": 70,
                "velocity": 119
            },
            {
                "start": 17.307375,
                "end": 17.3794890625,
                "pitch": 58,
                "velocity": 119
            },
            {
                "start": 17.4227575,
                "end": 17.51650578125,
                "pitch": 70,
                "velocity": 125
            },
            {
                "start": 17.4227575,
                "end": 17.51650578125,
                "pitch": 58,
                "velocity": 125
            },
            {
                "start": 17.6535225,
                "end": 17.728040364583332,
                "pitch": 70,
                "velocity": 121
            },
            {
                "start": 17.6535225,
                "end": 17.728040364583332,
                "pitch": 58,
                "velocity": 121
            },
            {
                "start": 17.768905,
                "end": 17.860249479166665,
                "pitch": 70,
                "velocity": 123
            },
            {
                "start": 17.768905,
                "end": 17.860249479166665,
                "pitch": 58,
                "velocity": 123
            },
            {
                "start": 17.99967,
                "end": 18.09582208333333,
                "pitch": 71,
                "velocity": 116
            },
            {
                "start": 17.99967,
                "end": 18.09582208333333,
                "pitch": 59,
                "velocity": 116
            },
            {
                "start": 18.230435,
                "end": 18.307356666666667,
                "pitch": 68,
                "velocity": 124
            },
            {
                "start": 18.230435,
                "end": 18.307356666666667,
                "pitch": 56,
                "velocity": 124
            },
            {
                "start": 18.461199999999998,
                "end": 18.542929270833334,
                "pitch": 70,
                "velocity": 123
            },
            {
                "start": 18.461199999999998,
                "end": 18.542929270833334,
                "pitch": 58,
                "velocity": 123
            },
            {
                "start": 18.691965,
                "end": 18.778501875,
                "pitch": 70,
                "velocity": 122
            },
            {
                "start": 18.691965,
                "end": 18.778501875,
                "pitch": 58,
                "velocity": 122
            },
            {
                "start": 18.92273,
                "end": 19.014074479166666,
                "pitch": 70,
                "velocity": 125
            },
            {
                "start": 18.92273,
                "end": 19.014074479166666,
                "pitch": 58,
                "velocity": 125
            },
            {
                "start": 19.153495,
                "end": 19.23522427083333,
                "pitch": 68,
                "velocity": 122
            },
            {
                "start": 19.153495,
                "end": 19.23522427083333,
                "pitch": 56,
                "velocity": 122
            },
            {
                "start": 19.2688775,
                "end": 19.36262578125,
                "pitch": 70,
                "velocity": 123
            },
            {
                "start": 19.2688775,
                "end": 19.36262578125,
                "pitch": 58,
                "velocity": 123
            },
            {
                "start": 19.615025,
                "end": 19.696754270833335,
                "pitch": 68,
                "velocity": 67
            },
            {
                "start": 19.615025,
                "end": 19.696754270833335,
                "pitch": 56,
                "velocity": 65
            },
            {
                "start": 19.7304075,
                "end": 19.82415578125,
                "pitch": 70,
                "velocity": 61
            },
            {
                "start": 19.7304075,
                "end": 19.82415578125,
                "pitch": 58,
                "velocity": 68
            },
            {
                "start": 20.30732,
                "end": 20.396260677083333,
                "pitch": 70,
                "velocity": 126
            },
            {
                "start": 20.30732,
                "end": 20.396260677083333,
                "pitch": 58,
                "velocity": 126
            },
            {
                "start": 20.4227025,
                "end": 20.51645078125,
                "pitch": 70,
                "velocity": 122
            },
            {
                "start": 20.4227025,
                "end": 20.51645078125,
                "pitch": 58,
                "velocity": 122
            },
            {
                "start": 20.6534675,
                "end": 20.730389166666665,
                "pitch": 70,
                "velocity": 122
            },
            {
                "start": 20.6534675,
                "end": 20.730389166666665,
                "pitch": 58,
                "velocity": 122
            },
            {
                "start": 20.76885,
                "end": 20.8698096875,
                "pitch": 70,
                "velocity": 124
            },
            {
                "start": 20.76885,
                "end": 20.8698096875,
                "pitch": 58,
                "velocity": 124
            }
        ],
        "pitch_classes": [
            0,
            0,
            0,
            0,
            0,
            0,
            0,
            0,
            10,
            0,
            66,
            6
        ],
        "velocity_mean": 119.47560975609755,
        "pitch_mean": 63.829268292682926,
        "pitch_std": 6.044156375696503,
        "duration_mean": 0.08741631478658514,
        "song_name": "Twilight_Zone.3.mid",
        "tempo": 230.3579108610967,
        "time_signature": "4/4",
        "key": "Eb",
        "camelot_key": "2A",
        "maj_min": "minor"
    },
    "The_Real_Thing.1.mid_101.78436466083151_120.59303533916851": {
        "instrument_no": 10,
        "instrument_category": "Other",
        "program": 49,
        "is_drum": false,
        "section_start": 101.78436466083151,
        "section_end": 120.59303533916851,
        "notes": [
            {
                "start": 109.09080000000002,
                "end": 110.76912000000002,
                "pitch": 72,
                "velocity": 54
            },
            {
                "start": 109.09080000000002,
                "end": 110.76912000000002,
                "pitch": 76,
                "velocity": 54
            },
            {
                "start": 110.76912000000002,
                "end": 112.44744000000001,
                "pitch": 74,
                "velocity": 54
            },
            {
                "start": 110.76912000000002,
                "end": 112.44744000000001,
                "pitch": 77,
                "velocity": 54
            },
            {
                "start": 109.09080000000002,
                "end": 112.44744000000001,
                "pitch": 69,
                "velocity": 54
            },
            {
                "start": 112.44744000000001,
                "end": 114.12576000000001,
                "pitch": 71,
                "velocity": 54
            },
            {
                "start": 112.44744000000001,
                "end": 114.12576000000001,
                "pitch": 67,
                "velocity": 54
            },
            {
                "start": 112.44744000000001,
                "end": 114.12576000000001,
                "pitch": 74,
                "velocity": 54
            },
            {
                "start": 114.12576000000001,
                "end": 115.80408000000001,
                "pitch": 76,
                "velocity": 54
            },
            {
                "start": 114.12576000000001,
                "end": 115.80408000000001,
                "pitch": 69,
                "velocity": 54
            },
            {
                "start": 114.12576000000001,
                "end": 115.80408000000001,
                "pitch": 72,
                "velocity": 54
            },
            {
                "start": 115.80408000000001,
                "end": 117.48240000000001,
                "pitch": 72,
                "velocity": 54
            },
            {
                "start": 115.80408000000001,
                "end": 117.48240000000001,
                "pitch": 76,
                "velocity": 54
            },
            {
                "start": 117.48240000000001,
                "end": 119.16072000000001,
                "pitch": 74,
                "velocity": 54
            },
            {
                "start": 117.48240000000001,
                "end": 119.16072000000001,
                "pitch": 77,
                "velocity": 54
            },
            {
                "start": 115.80408000000001,
                "end": 119.16072000000001,
                "pitch": 69,
                "velocity": 54
            },
            {
                "start": 119.16072000000001,
                "end": 120.83904000000001,
                "pitch": 71,
                "velocity": 54
            },
            {
                "start": 119.16072000000001,
                "end": 120.83904000000001,
                "pitch": 67,
                "velocity": 54
            },
            {
                "start": 119.16072000000001,
                "end": 120.83904000000001,
                "pitch": 74,
                "velocity": 54
            }
        ],
        "pitch_classes": [
            3,
            0,
            4,
            0,
            3,
            2,
            0,
            2,
            0,
            3,
            0,
            2
        ],
        "velocity_mean": 54.0,
        "pitch_mean": 72.47368421052632,
        "pitch_std": 3.15174840454313,
        "duration_mean": 1.854985263157894,
        "song_name": "The_Real_Thing.1.mid",
        "tempo": 255.20144842178726,
        "time_signature": "4/4",
        "key": "C",
        "camelot_key": "8B",
        "maj_min": "major"
    },
    "The_Real_Thing.2.mid_102.5973009108315_121.4059715891685": {
        "instrument_no": 7,
        "instrument_category": "Other",
        "program": 49,
        "is_drum": false,
        "section_start": 102.5973009108315,
        "section_end": 121.4059715891685,
        "notes": [
            {
                "start": 110.76912000000002,
                "end": 112.44744000000001,
                "pitch": 76,
                "velocity": 54
            },
            {
                "start": 110.76912000000002,
                "end": 112.44744000000001,
                "pitch": 72,
                "velocity": 54
            },
            {
                "start": 112.44744000000001,
                "end": 114.12576000000001,
                "pitch": 77,
                "velocity": 54
            },
            {
                "start": 112.44744000000001,
                "end": 114.12576000000001,
                "pitch": 74,
                "velocity": 54
            },
            {
                "start": 110.76912000000002,
                "end": 114.12576000000001,
                "pitch": 69,
                "velocity": 54
            },
            {
                "start": 114.12576000000001,
                "end": 115.80408000000001,
                "pitch": 74,
                "velocity": 54
            },
            {
                "start": 114.12576000000001,
                "end": 115.80408000000001,
                "pitch": 71,
                "velocity": 54
            },
            {
                "start": 114.12576000000001,
                "end": 115.80408000000001,
                "pitch": 67,
                "velocity": 54
            },
            {
                "start": 115.80408000000001,
                "end": 117.48240000000001,
                "pitch": 76,
                "velocity": 54
            },
            {
                "start": 115.80408000000001,
                "end": 117.48240000000001,
                "pitch": 72,
                "velocity": 54
            },
            {
                "start": 115.80408000000001,
                "end": 117.48240000000001,
                "pitch": 69,
                "velocity": 54
            },
            {
                "start": 117.48240000000001,
                "end": 119.16072000000001,
                "pitch": 76,
                "velocity": 54
            },
            {
                "start": 117.48240000000001,
                "end": 119.16072000000001,
                "pitch": 72,
                "velocity": 54
            },
            {
                "start": 119.16072000000001,
                "end": 120.83904000000001,
                "pitch": 77,
                "velocity": 54
            },
            {
                "start": 119.16072000000001,
                "end": 120.83904000000001,
                "pitch": 74,
                "velocity": 54
            },
            {
                "start": 117.48240000000001,
                "end": 120.83904000000001,
                "pitch": 69,
                "velocity": 54
            },
            {
                "start": 120.83904000000001,
                "end": 122.51736000000001,
                "pitch": 74,
                "velocity": 54
            },
            {
                "start": 120.83904000000001,
                "end": 122.51736000000001,
                "pitch": 71,
                "velocity": 54
            },
            {
                "start": 120.83904000000001,
                "end": 122.51736000000001,
                "pitch": 67,
                "velocity": 54
            }
        ],
        "pitch_classes": [
            3,
            0,
            4,
            0,
            3,
            2,
            0,
            2,
            0,
            3,
            0,
            2
        ],
        "velocity_mean": 54.0,
        "pitch_mean": 72.47368421052632,
        "pitch_std": 3.15174840454313,
        "duration_mean": 1.854985263157894,
        "song_name": "The_Real_Thing.2.mid",
        "tempo": 255.20144842178715,
        "time_signature": "4/4",
        "key": "C",
        "camelot_key": "8B",
        "maj_min": "major"
    },
    "Dreams.mid_0.0_18.361980445451092": {
        "instrument_no": 2,
        "instrument_category": "Other",
        "program": 57,
        "is_drum": false,
        "section_start": 0.0,
        "section_end": 18.361980445451092,
        "notes": [
            {
                "start": 5.41344,
                "end": 6.588231666666666,
                "pitch": 67,
                "velocity": 110
            },
            {
                "start": 6.7668,
                "end": 6.9641649999999995,
                "pitch": 69,
                "velocity": 120
            },
            {
                "start": 6.99236,
                "end": 7.088692916666666,
                "pitch": 70,
                "velocity": 104
            },
            {
                "start": 7.10514,
                "end": 8.785092083333334,
                "pitch": 63,
                "velocity": 109
            },
            {
                "start": 9.0224,
                "end": 10.161947916666666,
                "pitch": 70,
                "velocity": 109
            },
            {
                "start": 10.1502,
                "end": 10.279427083333333,
                "pitch": 72,
                "velocity": 107
            },
            {
                "start": 10.37576,
                "end": 10.455645833333334,
                "pitch": 74,
                "velocity": 110
            },
            {
                "start": 10.60132,
                "end": 10.789286666666667,
                "pitch": 74,
                "velocity": 113
            },
            {
                "start": 11.05244,
                "end": 11.287398333333334,
                "pitch": 77,
                "velocity": 99
            },
            {
                "start": 11.50356,
                "end": 11.999322083333333,
                "pitch": 72,
                "velocity": 123
            },
            {
                "start": 11.95468,
                "end": 12.1661425,
                "pitch": 74,
                "velocity": 110
            },
            {
                "start": 12.18024,
                "end": 12.410499166666666,
                "pitch": 72,
                "velocity": 117
            },
            {
                "start": 12.4058,
                "end": 12.61021375,
                "pitch": 70,
                "velocity": 104
            },
            {
                "start": 12.631359999999999,
                "end": 13.594689166666667,
                "pitch": 67,
                "velocity": 117
            },
            {
                "start": 13.75916,
                "end": 13.890736666666667,
                "pitch": 67,
                "velocity": 101
            },
            {
                "start": 13.98472,
                "end": 14.177385833333332,
                "pitch": 69,
                "velocity": 110
            },
            {
                "start": 14.21028,
                "end": 14.297214583333334,
                "pitch": 70,
                "velocity": 104
            },
            {
                "start": 14.32306,
                "end": 16.075849166666668,
                "pitch": 63,
                "velocity": 114
            },
            {
                "start": 16.24032,
                "end": 17.43390833333333,
                "pitch": 70,
                "velocity": 104
            },
            {
                "start": 17.59368,
                "end": 17.7769475,
                "pitch": 70,
                "velocity": 104
            },
            {
                "start": 17.81924,
                "end": 18.521765416666668,
                "pitch": 69,
                "velocity": 104
            }
        ],
        "pitch_classes": [
            3,
            0,
            3,
            2,
            0,
            1,
            0,
            3,
            0,
            3,
            6,
            0
        ],
        "velocity_mean": 109.19047619047619,
        "pitch_mean": 69.95238095238095,
        "pitch_std": 3.3590842073425518,
        "duration_mean": 0.5366000793650795,
        "song_name": "Dreams.mid",
        "tempo": 261.4097109110651,
        "time_signature": "4/4",
        "key": "G",
        "camelot_key": "6A",
        "maj_min": "minor"
    },
    "Come_Take_My_Hand.mid_0.0_28.521489930069546": {
        "instrument_no": 3,
        "instrument_category": "Other",
        "program": 58,
        "is_drum": false,
        "section_start": 0.0,
        "section_end": 28.521489930069546,
        "notes": [
            {
                "start": 14.4642915,
                "end": 14.546136770833332,
                "pitch": 62,
                "velocity": 127
            },
            {
                "start": 14.642863,
                "end": 14.724708270833332,
                "pitch": 62,
                "velocity": 127
            },
            {
                "start": 14.821434499999999,
                "end": 14.8883988125,
                "pitch": 62,
                "velocity": 127
            },
            {
                "start": 15.000005999999999,
                "end": 15.226940614583333,
                "pitch": 62,
                "velocity": 127
            },
            {
                "start": 15.357149,
                "end": 15.438994270833334,
                "pitch": 62,
                "velocity": 127
            },
            {
                "start": 15.5357205,
                "end": 15.610125291666666,
                "pitch": 62,
                "velocity": 127
            },
            {
                "start": 15.714292,
                "end": 15.874262302083332,
                "pitch": 62,
                "velocity": 127
            },
            {
                "start": 15.982149249999999,
                "end": 16.12723859375,
                "pitch": 62,
                "velocity": 127
            },
            {
                "start": 16.250006499999998,
                "end": 16.33929225,
                "pitch": 65,
                "velocity": 127
            },
            {
                "start": 16.428577999999998,
                "end": 16.72247692708333,
                "pitch": 64,
                "velocity": 127
            },
            {
                "start": 16.785721,
                "end": 17.094500885416664,
                "pitch": 62,
                "velocity": 127
            },
            {
                "start": 17.3214355,
                "end": 17.39956053125,
                "pitch": 60,
                "velocity": 127
            },
            {
                "start": 17.500007,
                "end": 17.566971312499998,
                "pitch": 60,
                "velocity": 127
            },
            {
                "start": 17.6785785,
                "end": 17.7455428125,
                "pitch": 60,
                "velocity": 127
            },
            {
                "start": 17.85715,
                "end": 18.050602458333334,
                "pitch": 60,
                "velocity": 127
            },
            {
                "start": 18.214292999999998,
                "end": 18.29613827083333,
                "pitch": 60,
                "velocity": 127
            },
            {
                "start": 18.392864499999998,
                "end": 18.470989531249998,
                "pitch": 60,
                "velocity": 127
            },
            {
                "start": 18.571436,
                "end": 18.723965822916664,
                "pitch": 60,
                "velocity": 127
            },
            {
                "start": 18.83929325,
                "end": 18.98438259375,
                "pitch": 60,
                "velocity": 127
            },
            {
                "start": 19.1071505,
                "end": 19.222477927083332,
                "pitch": 62,
                "velocity": 127
            },
            {
                "start": 19.285722,
                "end": 19.81027578125,
                "pitch": 64,
                "velocity": 127
            },
            {
                "start": 20.000008,
                "end": 20.208341416666666,
                "pitch": 67,
                "velocity": 127
            },
            {
                "start": 20.357150999999998,
                "end": 20.442716510416666,
                "pitch": 60,
                "velocity": 127
            },
            {
                "start": 20.5357225,
                "end": 20.610127291666664,
                "pitch": 60,
                "velocity": 127
            },
            {
                "start": 20.714294,
                "end": 21.108639395833332,
                "pitch": 60,
                "velocity": 127
            },
            {
                "start": 21.2500085,
                "end": 21.33929425,
                "pitch": 60,
                "velocity": 127
            },
            {
                "start": 21.42858,
                "end": 21.588550302083334,
                "pitch": 67,
                "velocity": 127
            },
            {
                "start": 21.69643725,
                "end": 21.848967072916665,
                "pitch": 67,
                "velocity": 127
            },
            {
                "start": 21.964294499999998,
                "end": 22.068461208333332,
                "pitch": 70,
                "velocity": 127
            },
            {
                "start": 22.142865999999998,
                "end": 22.407003010416666,
                "pitch": 69,
                "velocity": 127
            },
            {
                "start": 22.500009,
                "end": 22.75670553125,
                "pitch": 67,
                "velocity": 127
            },
            {
                "start": 23.0357235,
                "end": 23.11384853125,
                "pitch": 62,
                "velocity": 127
            },
            {
                "start": 23.214295,
                "end": 23.29242003125,
                "pitch": 62,
                "velocity": 127
            },
            {
                "start": 23.3928665,
                "end": 23.463551052083332,
                "pitch": 62,
                "velocity": 127
            },
            {
                "start": 23.571438,
                "end": 23.924860760416667,
                "pitch": 62,
                "velocity": 127
            },
            {
                "start": 24.107152499999998,
                "end": 24.203878729166664,
                "pitch": 62,
                "velocity": 127
            },
            {
                "start": 24.285724,
                "end": 24.438253822916664,
                "pitch": 67,
                "velocity": 127
            },
            {
                "start": 24.55358125,
                "end": 24.676349156249998,
                "pitch": 67,
                "velocity": 127
            },
            {
                "start": 24.8214385,
                "end": 24.89956353125,
                "pitch": 70,
                "velocity": 127
            },
            {
                "start": 25.00001,
                "end": 25.241825572916667,
                "pitch": 69,
                "velocity": 127
            },
            {
                "start": 25.357153,
                "end": 25.610129291666667,
                "pitch": 67,
                "velocity": 127
            },
            {
                "start": 25.892867499999998,
                "end": 25.97471277083333,
                "pitch": 62,
                "velocity": 127
            },
            {
                "start": 26.071438999999998,
                "end": 26.153284270833332,
                "pitch": 62,
                "velocity": 127
            },
            {
                "start": 26.2500105,
                "end": 26.3169748125,
                "pitch": 62,
                "velocity": 127
            },
            {
                "start": 26.428582,
                "end": 26.655516614583334,
                "pitch": 62,
                "velocity": 127
            },
            {
                "start": 26.785725,
                "end": 26.867570270833333,
                "pitch": 62,
                "velocity": 127
            },
            {
                "start": 26.9642965,
                "end": 27.038701291666666,
                "pitch": 62,
                "velocity": 127
            },
            {
                "start": 27.142868,
                "end": 27.302838302083334,
                "pitch": 62,
                "velocity": 127
            },
            {
                "start": 27.41072525,
                "end": 27.55581459375,
                "pitch": 62,
                "velocity": 127
            },
            {
                "start": 27.678582499999997,
                "end": 27.76786825,
                "pitch": 65,
                "velocity": 127
            },
            {
                "start": 27.857153999999998,
                "end": 28.15105292708333,
                "pitch": 64,
                "velocity": 127
            },
            {
                "start": 28.214297,
                "end": 28.523076885416664,
                "pitch": 62,
                "velocity": 127
            }
        ],
        "pitch_classes": [
            12,
            0,
            24,
            0,
            3,
            2,
            0,
            7,
            0,
            2,
            2,
            0
        ],
        "velocity_mean": 127.0,
        "pitch_mean": 63.01923076923077,
        "pitch_std": 2.8587946936762902,
        "duration_mean": 0.154604571915064,
        "song_name": "Come_Take_My_Hand.mid",
        "tempo": 168.29415334784005,
        "time_signature": "4/4",
        "key": "D",
        "camelot_key": "7A",
        "maj_min": "minor"
    },
    "Dreams.1.mid_0.0_18.885535780821854": {
        "instrument_no": 2,
        "instrument_category": "Other",
        "program": 90,
        "is_drum": false,
        "section_start": 0.0,
        "section_end": 18.885535780821854,
        "notes": [
            {
                "start": 14.436063999999998,
                "end": 15.751851083333332,
                "pitch": 67,
                "velocity": 100
            },
            {
                "start": 15.789444999999999,
                "end": 15.992452149999998,
                "pitch": 69,
                "velocity": 100
            },
            {
                "start": 16.015008499999997,
                "end": 16.218015649999998,
                "pitch": 70,
                "velocity": 100
            },
            {
                "start": 16.127790249999997,
                "end": 17.631546916666665,
                "pitch": 63,
                "velocity": 100
            },
            {
                "start": 18.04508,
                "end": 19.172897499999998,
                "pitch": 70,
                "velocity": 100
            }
        ],
        "pitch_classes": [
            0,
            0,
            0,
            1,
            0,
            0,
            0,
            1,
            0,
            1,
            2,
            0
        ],
        "velocity_mean": 100.0,
        "pitch_mean": 67.8,
        "pitch_std": 2.6381811916545836,
        "duration_mean": 0.8706751100000002,
        "song_name": "Dreams.1.mid",
        "tempo": 254.1627653939461,
        "time_signature": "4/4",
        "key": "G",
        "camelot_key": "6A",
        "maj_min": "minor"
    },
    "Workaholic.1.mid_0.0_18.672924410150895": {
        "instrument_no": 8,
        "instrument_category": "Other",
        "program": 47,
        "is_drum": false,
        "section_start": 0.0,
        "section_end": 18.672924410150895,
        "notes": [
            {
                "start": 1.8460839999999998,
                "end": 1.8893515937499998,
                "pitch": 48,
                "velocity": 64
            },
            {
                "start": 1.9230041666666666,
                "end": 1.9903093125,
                "pitch": 48,
                "velocity": 46
            },
            {
                "start": 1.9999243333333332,
                "end": 2.0431919270833334,
                "pitch": 48,
                "velocity": 44
            },
            {
                "start": 2.0768445,
                "end": 2.1393421354166664,
                "pitch": 48,
                "velocity": 46
            },
            {
                "start": 2.1537646666666665,
                "end": 2.1970322604166665,
                "pitch": 48,
                "velocity": 43
            },
            {
                "start": 2.2258773229166664,
                "end": 2.2787599375,
                "pitch": 48,
                "velocity": 50
            },
            {
                "start": 2.307605,
                "end": 2.3556801041666664,
                "pitch": 48,
                "velocity": 55
            },
            {
                "start": 2.3845251666666667,
                "end": 2.4566378229166665,
                "pitch": 48,
                "velocity": 46
            },
            {
                "start": 2.4614453333333333,
                "end": 2.5047129270833333,
                "pitch": 48,
                "velocity": 47
            },
            {
                "start": 2.5383655,
                "end": 2.61047815625,
                "pitch": 48,
                "velocity": 54
            },
            {
                "start": 2.6152856666666664,
                "end": 2.6825908125,
                "pitch": 48,
                "velocity": 50
            },
            {
                "start": 2.6922058333333334,
                "end": 2.7450884479166664,
                "pitch": 48,
                "velocity": 40
            },
            {
                "start": 2.769126,
                "end": 2.826816125,
                "pitch": 48,
                "velocity": 50
            },
            {
                "start": 2.84123865625,
                "end": 2.8941212708333333,
                "pitch": 48,
                "velocity": 58
            },
            {
                "start": 2.922966333333333,
                "end": 2.98546396875,
                "pitch": 48,
                "velocity": 50
            },
            {
                "start": 2.9998865,
                "end": 3.057576625,
                "pitch": 48,
                "velocity": 47
            },
            {
                "start": 3.0768066666666667,
                "end": 3.1200742604166667,
                "pitch": 48,
                "velocity": 55
            },
            {
                "start": 3.1537268333333333,
                "end": 3.2210319791666664,
                "pitch": 48,
                "velocity": 46
            },
            {
                "start": 3.230647,
                "end": 3.27391459375,
                "pitch": 48,
                "velocity": 52
            },
            {
                "start": 3.3075671666666664,
                "end": 3.3700648020833333,
                "pitch": 48,
                "velocity": 46
            },
            {
                "start": 3.3844873333333334,
                "end": 3.4277549270833334,
                "pitch": 48,
                "velocity": 58
            },
            {
                "start": 3.4614075,
                "end": 3.519097625,
                "pitch": 48,
                "velocity": 64
            },
            {
                "start": 3.5383276666666665,
                "end": 3.5864027708333333,
                "pitch": 48,
                "velocity": 61
            },
            {
                "start": 3.615247833333333,
                "end": 3.6873604895833334,
                "pitch": 48,
                "velocity": 49
            },
            {
                "start": 3.6921679999999997,
                "end": 3.7162055520833333,
                "pitch": 48,
                "velocity": 100
            },
            {
                "start": 3.7690881666666667,
                "end": 3.8412008229166665,
                "pitch": 48,
                "velocity": 54
            },
            {
                "start": 3.8460083333333333,
                "end": 3.9133134791666664,
                "pitch": 48,
                "velocity": 50
            },
            {
                "start": 3.9229285,
                "end": 3.9758111145833333,
                "pitch": 48,
                "velocity": 64
            },
            {
                "start": 3.9998486666666664,
                "end": 4.05273128125,
                "pitch": 48,
                "velocity": 50
            },
            {
                "start": 4.076768833333333,
                "end": 4.1248439375,
                "pitch": 48,
                "velocity": 58
            },
            {
                "start": 4.2306091666666665,
                "end": 4.288299291666666,
                "pitch": 48,
                "velocity": 61
            },
            {
                "start": 4.307529333333333,
                "end": 4.3507969270833335,
                "pitch": 48,
                "velocity": 47
            },
            {
                "start": 4.3844495,
                "end": 4.4565621562499995,
                "pitch": 48,
                "velocity": 54
            },
            {
                "start": 4.153689,
                "end": 4.461369666666666,
                "pitch": 55,
                "velocity": 100
            },
            {
                "start": 4.461369666666666,
                "end": 4.5286748125,
                "pitch": 48,
                "velocity": 50
            },
            {
                "start": 4.538289833333333,
                "end": 4.591172447916667,
                "pitch": 48,
                "velocity": 61
            },
            {
                "start": 4.61521,
                "end": 4.639247552083333,
                "pitch": 48,
                "velocity": 100
            },
            {
                "start": 4.692130166666667,
                "end": 4.740205270833333,
                "pitch": 48,
                "velocity": 58
            },
            {
                "start": 4.769050333333333,
                "end": 4.83154796875,
                "pitch": 48,
                "velocity": 50
            },
            {
                "start": 4.8459705,
                "end": 4.903660625,
                "pitch": 48,
                "velocity": 47
            },
            {
                "start": 4.9228906666666665,
                "end": 4.966158260416666,
                "pitch": 48,
                "velocity": 55
            },
            {
                "start": 4.999810833333333,
                "end": 5.067115979166666,
                "pitch": 48,
                "velocity": 46
            },
            {
                "start": 5.076731,
                "end": 5.11999859375,
                "pitch": 48,
                "velocity": 52
            },
            {
                "start": 5.153651166666666,
                "end": 5.2161488020833335,
                "pitch": 48,
                "velocity": 46
            },
            {
                "start": 5.230571333333333,
                "end": 5.273838927083333,
                "pitch": 48,
                "velocity": 54
            },
            {
                "start": 5.3074915,
                "end": 5.365181625,
                "pitch": 48,
                "velocity": 50
            },
            {
                "start": 5.384411666666667,
                "end": 5.432486770833333,
                "pitch": 48,
                "velocity": 61
            },
            {
                "start": 5.461331833333333,
                "end": 5.533444489583333,
                "pitch": 48,
                "velocity": 55
            },
            {
                "start": 5.538252,
                "end": 5.5622895520833335,
                "pitch": 48,
                "velocity": 100
            },
            {
                "start": 5.6151721666666665,
                "end": 5.687284822916666,
                "pitch": 48,
                "velocity": 54
            },
            {
                "start": 5.692092333333333,
                "end": 5.759397479166666,
                "pitch": 48,
                "velocity": 50
            },
            {
                "start": 5.7690125,
                "end": 5.8218951145833335,
                "pitch": 48,
                "velocity": 64
            },
            {
                "start": 5.845932666666666,
                "end": 5.89881528125,
                "pitch": 48,
                "velocity": 50
            },
            {
                "start": 5.922852833333333,
                "end": 5.9709279375,
                "pitch": 48,
                "velocity": 58
            },
            {
                "start": 6.076693166666667,
                "end": 6.1343832916666665,
                "pitch": 48,
                "velocity": 61
            },
            {
                "start": 6.153613333333333,
                "end": 6.196880927083333,
                "pitch": 48,
                "velocity": 47
            },
            {
                "start": 6.2305335,
                "end": 6.30264615625,
                "pitch": 48,
                "velocity": 54
            },
            {
                "start": 5.999773,
                "end": 6.3074536666666665,
                "pitch": 55,
                "velocity": 100
            },
            {
                "start": 6.3074536666666665,
                "end": 6.3747588125,
                "pitch": 48,
                "velocity": 50
            },
            {
                "start": 6.384373833333333,
                "end": 6.437256447916666,
                "pitch": 48,
                "velocity": 61
            },
            {
                "start": 6.461294,
                "end": 6.485331552083333,
                "pitch": 48,
                "velocity": 100
            },
            {
                "start": 6.538214166666666,
                "end": 6.586289270833333,
                "pitch": 48,
                "velocity": 58
            },
            {
                "start": 6.615134333333333,
                "end": 6.67763196875,
                "pitch": 48,
                "velocity": 50
            },
            {
                "start": 6.6920545,
                "end": 6.749744625,
                "pitch": 48,
                "velocity": 47
            },
            {
                "start": 6.768974666666667,
                "end": 6.812242260416666,
                "pitch": 48,
                "velocity": 55
            },
            {
                "start": 6.845894833333333,
                "end": 6.9131999791666665,
                "pitch": 48,
                "velocity": 46
            },
            {
                "start": 6.922815,
                "end": 6.9660825937499995,
                "pitch": 48,
                "velocity": 52
            },
            {
                "start": 6.9997351666666665,
                "end": 7.062232802083333,
                "pitch": 48,
                "velocity": 46
            },
            {
                "start": 7.076655333333333,
                "end": 7.1199229270833335,
                "pitch": 48,
                "velocity": 54
            },
            {
                "start": 7.1535755,
                "end": 7.211265625,
                "pitch": 48,
                "velocity": 50
            },
            {
                "start": 7.230495666666666,
                "end": 7.278570770833333,
                "pitch": 48,
                "velocity": 61
            },
            {
                "start": 7.307415833333333,
                "end": 7.3795284895833335,
                "pitch": 48,
                "velocity": 55
            },
            {
                "start": 7.384335999999999,
                "end": 7.408373552083333,
                "pitch": 48,
                "velocity": 100
            },
            {
                "start": 7.461256166666667,
                "end": 7.533368822916667,
                "pitch": 48,
                "velocity": 54
            },
            {
                "start": 7.538176333333333,
                "end": 7.6054814791666665,
                "pitch": 48,
                "velocity": 50
            },
            {
                "start": 7.6150965,
                "end": 7.667979114583333,
                "pitch": 48,
                "velocity": 64
            },
            {
                "start": 7.6920166666666665,
                "end": 7.7448992812499995,
                "pitch": 48,
                "velocity": 50
            },
            {
                "start": 7.768936833333333,
                "end": 7.817011937499999,
                "pitch": 48,
                "velocity": 58
            },
            {
                "start": 7.922777166666666,
                "end": 7.980467291666667,
                "pitch": 48,
                "velocity": 61
            },
            {
                "start": 7.999697333333333,
                "end": 8.042964927083332,
                "pitch": 48,
                "velocity": 47
            },
            {
                "start": 8.0766175,
                "end": 8.14873015625,
                "pitch": 48,
                "velocity": 54
            },
            {
                "start": 7.845857,
                "end": 8.153537666666667,
                "pitch": 55,
                "velocity": 100
            },
            {
                "start": 8.153537666666667,
                "end": 8.220842812499999,
                "pitch": 48,
                "velocity": 50
            },
            {
                "start": 8.230457833333332,
                "end": 8.283340447916666,
                "pitch": 48,
                "velocity": 61
            },
            {
                "start": 8.307378,
                "end": 8.331415552083334,
                "pitch": 48,
                "velocity": 100
            },
            {
                "start": 8.384298166666666,
                "end": 8.432373270833333,
                "pitch": 48,
                "velocity": 58
            },
            {
                "start": 8.461218333333333,
                "end": 8.52371596875,
                "pitch": 48,
                "velocity": 50
            },
            {
                "start": 8.5381385,
                "end": 8.595828625,
                "pitch": 48,
                "velocity": 47
            },
            {
                "start": 8.615058666666666,
                "end": 8.658326260416667,
                "pitch": 48,
                "velocity": 55
            },
            {
                "start": 8.691978833333334,
                "end": 8.759283979166666,
                "pitch": 48,
                "velocity": 46
            },
            {
                "start": 8.845819166666667,
                "end": 8.908316802083332,
                "pitch": 48,
                "velocity": 46
            },
            {
                "start": 8.922739333333332,
                "end": 8.966006927083333,
                "pitch": 48,
                "velocity": 54
            },
            {
                "start": 8.9996595,
                "end": 9.057349625,
                "pitch": 48,
                "velocity": 50
            },
            {
                "start": 8.768899,
                "end": 9.081387177083332,
                "pitch": 55,
                "velocity": 100
            },
            {
                "start": 9.076579666666666,
                "end": 9.124654770833333,
                "pitch": 48,
                "velocity": 61
            },
            {
                "start": 9.153499833333333,
                "end": 9.225612489583334,
                "pitch": 48,
                "velocity": 55
            },
            {
                "start": 9.23042,
                "end": 9.254457552083332,
                "pitch": 48,
                "velocity": 100
            },
            {
                "start": 9.307340166666666,
                "end": 9.379452822916667,
                "pitch": 48,
                "velocity": 54
            },
            {
                "start": 9.384260333333334,
                "end": 9.451565479166666,
                "pitch": 48,
                "velocity": 50
            },
            {
                "start": 9.4611805,
                "end": 9.514063114583333,
                "pitch": 48,
                "velocity": 64
            },
            {
                "start": 9.538100666666667,
                "end": 9.590983281249999,
                "pitch": 48,
                "velocity": 50
            },
            {
                "start": 9.615020833333332,
                "end": 9.6630959375,
                "pitch": 48,
                "velocity": 58
            },
            {
                "start": 9.768861166666666,
                "end": 9.826551291666666,
                "pitch": 48,
                "velocity": 61
            },
            {
                "start": 9.845781333333333,
                "end": 9.889048927083333,
                "pitch": 48,
                "velocity": 47
            },
            {
                "start": 9.9227015,
                "end": 9.99481415625,
                "pitch": 48,
                "velocity": 54
            },
            {
                "start": 9.691941,
                "end": 9.999621666666666,
                "pitch": 55,
                "velocity": 100
            },
            {
                "start": 9.999621666666666,
                "end": 10.0669268125,
                "pitch": 48,
                "velocity": 50
            },
            {
                "start": 10.076541833333334,
                "end": 10.129424447916666,
                "pitch": 48,
                "velocity": 61
            },
            {
                "start": 10.153462,
                "end": 10.177499552083333,
                "pitch": 48,
                "velocity": 100
            }
        ],
        "pitch_classes": [
            104,
            0,
            0,
            0,
            0,
            0,
            0,
            5,
            0,
            0,
            0,
            0
        ],
        "velocity_mean": 58.596330275229356,
        "pitch_mean": 48.321100917431195,
        "pitch_std": 1.464445500127333,
        "duration_mean": 0.06598197782874617,
        "song_name": "Workaholic.1.mid",
        "tempo": 257.0566824225264,
        "time_signature": "4/4",
        "key": "C",
        "camelot_key": "8B",
        "maj_min": "major"
    },
    "Tribal_Dance_edit_.1.mid_0.0_18.66786454379564": {
        "instrument_no": 8,
        "instrument_category": "Other",
        "program": 47,
        "is_drum": false,
        "section_start": 0.0,
        "section_end": 18.66786454379564,
        "notes": [
            {
                "start": 1.8461519999999998,
                "end": 1.8894211874999998,
                "pitch": 48,
                "velocity": 64
            },
            {
                "start": 1.9230749999999999,
                "end": 1.9903826249999998,
                "pitch": 48,
                "velocity": 46
            },
            {
                "start": 1.9999979999999997,
                "end": 2.0432671874999997,
                "pitch": 48,
                "velocity": 44
            },
            {
                "start": 2.0769209999999996,
                "end": 2.1394209374999997,
                "pitch": 48,
                "velocity": 46
            },
            {
                "start": 2.153844,
                "end": 2.1971131875,
                "pitch": 48,
                "velocity": 43
            },
            {
                "start": 2.2259593124999997,
                "end": 2.2788438749999997,
                "pitch": 48,
                "velocity": 50
            },
            {
                "start": 2.3076899999999996,
                "end": 2.3557668749999996,
                "pitch": 48,
                "velocity": 55
            },
            {
                "start": 2.384613,
                "end": 2.4567283124999997,
                "pitch": 48,
                "velocity": 46
            },
            {
                "start": 2.4615359999999997,
                "end": 2.5048051874999997,
                "pitch": 48,
                "velocity": 47
            },
            {
                "start": 2.5384589999999996,
                "end": 2.6105743125,
                "pitch": 48,
                "velocity": 54
            },
            {
                "start": 2.615382,
                "end": 2.6826896249999996,
                "pitch": 48,
                "velocity": 50
            },
            {
                "start": 2.6923049999999997,
                "end": 2.7451895625,
                "pitch": 48,
                "velocity": 40
            },
            {
                "start": 2.7692279999999996,
                "end": 2.8269202499999997,
                "pitch": 48,
                "velocity": 50
            },
            {
                "start": 2.8413433125,
                "end": 2.894227875,
                "pitch": 48,
                "velocity": 58
            },
            {
                "start": 2.9230739999999997,
                "end": 2.9855739375,
                "pitch": 48,
                "velocity": 50
            },
            {
                "start": 2.9999969999999996,
                "end": 3.0576892499999997,
                "pitch": 48,
                "velocity": 47
            },
            {
                "start": 3.0769199999999994,
                "end": 3.1201891875,
                "pitch": 48,
                "velocity": 55
            },
            {
                "start": 3.1538429999999997,
                "end": 3.2211506249999995,
                "pitch": 48,
                "velocity": 46
            },
            {
                "start": 3.2307659999999996,
                "end": 3.2740351874999996,
                "pitch": 48,
                "velocity": 52
            },
            {
                "start": 3.3076889999999994,
                "end": 3.3701889374999996,
                "pitch": 48,
                "velocity": 46
            },
            {
                "start": 3.3846119999999997,
                "end": 3.4278811874999997,
                "pitch": 48,
                "velocity": 58
            },
            {
                "start": 3.4615349999999996,
                "end": 3.5192272499999997,
                "pitch": 48,
                "velocity": 64
            },
            {
                "start": 3.5384579999999994,
                "end": 3.5865348749999995,
                "pitch": 48,
                "velocity": 61
            },
            {
                "start": 3.6153809999999997,
                "end": 3.6874963124999995,
                "pitch": 48,
                "velocity": 49
            },
            {
                "start": 3.6923039999999996,
                "end": 3.7163424374999994,
                "pitch": 48,
                "velocity": 100
            },
            {
                "start": 3.7692269999999994,
                "end": 3.8413423124999997,
                "pitch": 48,
                "velocity": 54
            },
            {
                "start": 3.8461499999999997,
                "end": 3.9134576249999995,
                "pitch": 48,
                "velocity": 50
            },
            {
                "start": 3.9230729999999996,
                "end": 3.9759575624999997,
                "pitch": 48,
                "velocity": 64
            },
            {
                "start": 3.9999959999999994,
                "end": 4.0528805624999995,
                "pitch": 48,
                "velocity": 50
            },
            {
                "start": 4.076918999999999,
                "end": 4.124995875,
                "pitch": 48,
                "velocity": 58
            },
            {
                "start": 4.230765,
                "end": 4.2884572499999996,
                "pitch": 48,
                "velocity": 61
            },
            {
                "start": 4.307688,
                "end": 4.3509571875,
                "pitch": 48,
                "velocity": 47
            },
            {
                "start": 4.384611,
                "end": 4.4567263125,
                "pitch": 48,
                "velocity": 54
            },
            {
                "start": 4.153841999999999,
                "end": 4.4615339999999994,
                "pitch": 55,
                "velocity": 100
            },
            {
                "start": 4.4615339999999994,
                "end": 4.528841624999999,
                "pitch": 48,
                "velocity": 50
            },
            {
                "start": 4.538456999999999,
                "end": 4.591341562499999,
                "pitch": 48,
                "velocity": 61
            },
            {
                "start": 4.615379999999999,
                "end": 4.6394184375,
                "pitch": 48,
                "velocity": 100
            },
            {
                "start": 4.692303,
                "end": 4.7403798749999995,
                "pitch": 48,
                "velocity": 58
            },
            {
                "start": 4.769226,
                "end": 4.8317259375,
                "pitch": 48,
                "velocity": 50
            },
            {
                "start": 4.846149,
                "end": 4.903841249999999,
                "pitch": 48,
                "velocity": 47
            },
            {
                "start": 4.9230719999999994,
                "end": 4.966341187499999,
                "pitch": 48,
                "velocity": 55
            },
            {
                "start": 4.999994999999999,
                "end": 5.067302624999999,
                "pitch": 48,
                "velocity": 46
            },
            {
                "start": 5.076917999999999,
                "end": 5.120187187499999,
                "pitch": 48,
                "velocity": 52
            },
            {
                "start": 5.153840999999999,
                "end": 5.216340937499999,
                "pitch": 48,
                "velocity": 46
            },
            {
                "start": 5.230764,
                "end": 5.2740331875,
                "pitch": 48,
                "velocity": 54
            },
            {
                "start": 5.307687,
                "end": 5.365379249999999,
                "pitch": 48,
                "velocity": 50
            },
            {
                "start": 5.3846099999999995,
                "end": 5.432686874999999,
                "pitch": 48,
                "velocity": 61
            },
            {
                "start": 5.461532999999999,
                "end": 5.5336483124999996,
                "pitch": 48,
                "velocity": 55
            },
            {
                "start": 5.538455999999999,
                "end": 5.562494437499999,
                "pitch": 48,
                "velocity": 100
            },
            {
                "start": 5.615378999999999,
                "end": 5.687494312499999,
                "pitch": 48,
                "velocity": 54
            },
            {
                "start": 5.692302,
                "end": 5.7596096249999995,
                "pitch": 48,
                "velocity": 50
            },
            {
                "start": 5.769225,
                "end": 5.8221095625,
                "pitch": 48,
                "velocity": 64
            },
            {
                "start": 5.8461479999999995,
                "end": 5.8990325624999995,
                "pitch": 48,
                "velocity": 50
            },
            {
                "start": 5.923070999999999,
                "end": 5.971147875,
                "pitch": 48,
                "velocity": 58
            },
            {
                "start": 6.076916999999999,
                "end": 6.13460925,
                "pitch": 48,
                "velocity": 61
            },
            {
                "start": 6.153839999999999,
                "end": 6.1971091875,
                "pitch": 48,
                "velocity": 47
            },
            {
                "start": 6.230763,
                "end": 6.302878312499999,
                "pitch": 48,
                "velocity": 54
            },
            {
                "start": 5.999993999999999,
                "end": 6.3076859999999995,
                "pitch": 55,
                "velocity": 100
            },
            {
                "start": 6.3076859999999995,
                "end": 6.374993624999999,
                "pitch": 48,
                "velocity": 50
            },
            {
                "start": 6.384608999999999,
                "end": 6.437493562499999,
                "pitch": 48,
                "velocity": 61
            },
            {
                "start": 6.461531999999999,
                "end": 6.485570437499999,
                "pitch": 48,
                "velocity": 100
            },
            {
                "start": 6.538454999999999,
                "end": 6.5865318749999995,
                "pitch": 48,
                "velocity": 58
            },
            {
                "start": 6.615377999999999,
                "end": 6.677877937499999,
                "pitch": 48,
                "velocity": 50
            },
            {
                "start": 6.692301,
                "end": 6.749993249999999,
                "pitch": 48,
                "velocity": 47
            },
            {
                "start": 6.7692239999999995,
                "end": 6.812493187499999,
                "pitch": 48,
                "velocity": 55
            },
            {
                "start": 6.846146999999999,
                "end": 6.913454624999999,
                "pitch": 48,
                "velocity": 46
            },
            {
                "start": 6.923069999999999,
                "end": 6.966339187499999,
                "pitch": 48,
                "velocity": 52
            },
            {
                "start": 6.999992999999999,
                "end": 7.062492937499999,
                "pitch": 48,
                "velocity": 46
            },
            {
                "start": 7.076915999999999,
                "end": 7.120185187499999,
                "pitch": 48,
                "velocity": 54
            },
            {
                "start": 7.153839,
                "end": 7.211531249999999,
                "pitch": 48,
                "velocity": 50
            },
            {
                "start": 7.2307619999999995,
                "end": 7.278838874999999,
                "pitch": 48,
                "velocity": 61
            },
            {
                "start": 7.307684999999999,
                "end": 7.3798003125,
                "pitch": 48,
                "velocity": 55
            },
            {
                "start": 7.384607999999999,
                "end": 7.408646437499999,
                "pitch": 48,
                "velocity": 100
            },
            {
                "start": 7.461530999999999,
                "end": 7.533646312499999,
                "pitch": 48,
                "velocity": 54
            },
            {
                "start": 7.538453999999999,
                "end": 7.6057616249999995,
                "pitch": 48,
                "velocity": 50
            },
            {
                "start": 7.615376999999999,
                "end": 7.668261562499999,
                "pitch": 48,
                "velocity": 64
            },
            {
                "start": 7.6922999999999995,
                "end": 7.7451845624999995,
                "pitch": 48,
                "velocity": 50
            },
            {
                "start": 7.769222999999999,
                "end": 7.817299874999999,
                "pitch": 48,
                "velocity": 58
            },
            {
                "start": 7.923068999999999,
                "end": 7.980761249999999,
                "pitch": 48,
                "velocity": 61
            },
            {
                "start": 7.999991999999999,
                "end": 8.043261187499999,
                "pitch": 48,
                "velocity": 47
            },
            {
                "start": 8.076915,
                "end": 8.149030312499999,
                "pitch": 48,
                "velocity": 54
            },
            {
                "start": 7.846145999999999,
                "end": 8.153837999999999,
                "pitch": 55,
                "velocity": 100
            },
            {
                "start": 8.153837999999999,
                "end": 8.221145624999998,
                "pitch": 48,
                "velocity": 50
            },
            {
                "start": 8.230761,
                "end": 8.283645562499999,
                "pitch": 48,
                "velocity": 61
            },
            {
                "start": 8.307683999999998,
                "end": 8.3317224375,
                "pitch": 48,
                "velocity": 100
            },
            {
                "start": 8.384606999999999,
                "end": 8.432683874999999,
                "pitch": 48,
                "velocity": 58
            },
            {
                "start": 8.46153,
                "end": 8.5240299375,
                "pitch": 48,
                "velocity": 50
            },
            {
                "start": 8.538452999999999,
                "end": 8.59614525,
                "pitch": 48,
                "velocity": 47
            },
            {
                "start": 8.615376,
                "end": 8.6586451875,
                "pitch": 48,
                "velocity": 55
            },
            {
                "start": 8.692298999999998,
                "end": 8.759606624999998,
                "pitch": 48,
                "velocity": 46
            },
            {
                "start": 8.846144999999998,
                "end": 8.908644937499998,
                "pitch": 48,
                "velocity": 46
            },
            {
                "start": 8.923067999999999,
                "end": 8.966337187499999,
                "pitch": 48,
                "velocity": 54
            },
            {
                "start": 8.999991,
                "end": 9.057683249999998,
                "pitch": 48,
                "velocity": 50
            },
            {
                "start": 8.769222,
                "end": 9.081721687499998,
                "pitch": 55,
                "velocity": 100
            },
            {
                "start": 9.076913999999999,
                "end": 9.124990874999998,
                "pitch": 48,
                "velocity": 61
            },
            {
                "start": 9.153837,
                "end": 9.225952312499999,
                "pitch": 48,
                "velocity": 55
            },
            {
                "start": 9.230759999999998,
                "end": 9.254798437499998,
                "pitch": 48,
                "velocity": 100
            },
            {
                "start": 9.307682999999999,
                "end": 9.379798312499998,
                "pitch": 48,
                "velocity": 54
            },
            {
                "start": 9.384606,
                "end": 9.451913625,
                "pitch": 48,
                "velocity": 50
            },
            {
                "start": 9.461528999999999,
                "end": 9.5144135625,
                "pitch": 48,
                "velocity": 64
            },
            {
                "start": 9.538452,
                "end": 9.591336562499999,
                "pitch": 48,
                "velocity": 50
            },
            {
                "start": 9.615374999999998,
                "end": 9.663451875,
                "pitch": 48,
                "velocity": 58
            },
            {
                "start": 9.769220999999998,
                "end": 9.826913249999999,
                "pitch": 48,
                "velocity": 61
            },
            {
                "start": 9.846143999999999,
                "end": 9.889413187499999,
                "pitch": 48,
                "velocity": 47
            },
            {
                "start": 9.923067,
                "end": 9.995182312499999,
                "pitch": 48,
                "velocity": 54
            },
            {
                "start": 9.692298,
                "end": 9.999989999999999,
                "pitch": 55,
                "velocity": 100
            },
            {
                "start": 9.999989999999999,
                "end": 10.067297624999998,
                "pitch": 48,
                "velocity": 50
            },
            {
                "start": 10.076913,
                "end": 10.129797562499999,
                "pitch": 48,
                "velocity": 61
            },
            {
                "start": 10.153835999999998,
                "end": 10.177874437499998,
                "pitch": 48,
                "velocity": 100
            }
        ],
        "pitch_classes": [
            104,
            0,
            0,
            0,
            0,
            0,
            0,
            5,
            0,
            0,
            0,
            0
        ],
        "velocity_mean": 58.596330275229356,
        "pitch_mean": 48.321100917431195,
        "pitch_std": 1.464445500127333,
        "duration_mean": 0.0659844082568807,
        "song_name": "Tribal_Dance_edit_.1.mid",
        "tempo": 257.1263568331014,
        "time_signature": "4/4",
        "key": "C",
        "camelot_key": "8B",
        "maj_min": "major"
    },
    "Twilight_Zone.2.mid_96.71944778943558_115.1002097105644": {
        "instrument_no": 11,
        "instrument_category": "Other",
        "program": 45,
        "is_drum": false,
        "section_start": 96.71944778943558,
        "section_end": 115.1002097105644,
        "notes": [
            {
                "start": 96.75098999999999,
                "end": 96.78051749999999,
                "pitch": 65,
                "velocity": 103
            },
            {
                "start": 96.861718125,
                "end": 96.891245625,
                "pitch": 63,
                "velocity": 105
            },
            {
                "start": 97.10531999999999,
                "end": 97.13484749999999,
                "pitch": 58,
                "velocity": 100
            },
            {
                "start": 97.32677625,
                "end": 97.35630375,
                "pitch": 59,
                "velocity": 113
            },
            {
                "start": 97.57283874999999,
                "end": 97.60236624999999,
                "pitch": 58,
                "velocity": 106
            },
            {
                "start": 97.698330625,
                "end": 97.727858125,
                "pitch": 70,
                "velocity": 104
            },
            {
                "start": 97.92962937499999,
                "end": 97.95915687499999,
                "pitch": 70,
                "velocity": 118
            },
            {
                "start": 98.05019999999999,
                "end": 98.07972749999999,
                "pitch": 68,
                "velocity": 115
            },
            {
                "start": 98.28149875,
                "end": 98.31102625,
                "pitch": 68,
                "velocity": 102
            },
            {
                "start": 98.40453,
                "end": 98.4340575,
                "pitch": 66,
                "velocity": 103
            },
            {
                "start": 98.62598625,
                "end": 98.65551375,
                "pitch": 65,
                "velocity": 101
            },
            {
                "start": 98.75393874999999,
                "end": 98.78346624999999,
                "pitch": 63,
                "velocity": 118
            },
            {
                "start": 98.99754062499998,
                "end": 99.02706812499999,
                "pitch": 58,
                "velocity": 117
            },
            {
                "start": 99.22883937499999,
                "end": 99.258366875,
                "pitch": 59,
                "velocity": 105
            },
            {
                "start": 99.46013812499999,
                "end": 99.48966562499999,
                "pitch": 58,
                "velocity": 112
            },
            {
                "start": 99.58070874999999,
                "end": 99.61023624999999,
                "pitch": 70,
                "velocity": 107
            },
            {
                "start": 99.81692874999999,
                "end": 99.84645624999999,
                "pitch": 70,
                "velocity": 106
            },
            {
                "start": 99.92519624999998,
                "end": 99.95472374999999,
                "pitch": 68,
                "velocity": 116
            },
            {
                "start": 100.17125874999999,
                "end": 100.20078625,
                "pitch": 68,
                "velocity": 110
            },
            {
                "start": 100.29675062499999,
                "end": 100.32627812499999,
                "pitch": 66,
                "velocity": 107
            },
            {
                "start": 100.528049375,
                "end": 100.557576875,
                "pitch": 65,
                "velocity": 101
            },
            {
                "start": 100.64862,
                "end": 100.6781475,
                "pitch": 63,
                "velocity": 101
            },
            {
                "start": 100.87991874999999,
                "end": 100.90944624999999,
                "pitch": 58,
                "velocity": 115
            },
            {
                "start": 101.11613874999999,
                "end": 101.14566624999999,
                "pitch": 59,
                "velocity": 103
            },
            {
                "start": 101.35235875,
                "end": 101.38188625,
                "pitch": 70,
                "velocity": 108
            },
            {
                "start": 101.59596062499999,
                "end": 101.62548812499999,
                "pitch": 70,
                "velocity": 103
            },
            {
                "start": 101.827259375,
                "end": 101.856786875,
                "pitch": 70,
                "velocity": 104
            },
            {
                "start": 102.05855812499999,
                "end": 102.08808562499999,
                "pitch": 68,
                "velocity": 105
            },
            {
                "start": 102.17912874999999,
                "end": 102.20865624999999,
                "pitch": 70,
                "velocity": 109
            },
            {
                "start": 103.24703999999998,
                "end": 103.27656749999998,
                "pitch": 58,
                "velocity": 117
            },
            {
                "start": 103.35776812499999,
                "end": 103.387295625,
                "pitch": 70,
                "velocity": 104
            },
            {
                "start": 103.60136999999999,
                "end": 103.63089749999999,
                "pitch": 70,
                "velocity": 115
            },
            {
                "start": 103.71455875,
                "end": 103.74408625,
                "pitch": 68,
                "velocity": 107
            },
            {
                "start": 103.95077874999998,
                "end": 103.98030624999998,
                "pitch": 68,
                "velocity": 109
            },
            {
                "start": 104.06888874999999,
                "end": 104.09841624999999,
                "pitch": 66,
                "velocity": 102
            },
            {
                "start": 104.30510874999999,
                "end": 104.33463624999999,
                "pitch": 65,
                "velocity": 110
            },
            {
                "start": 104.42567937499999,
                "end": 104.45520687499999,
                "pitch": 63,
                "velocity": 115
            },
            {
                "start": 104.656978125,
                "end": 104.686505625,
                "pitch": 58,
                "velocity": 99
            },
            {
                "start": 104.90057999999999,
                "end": 104.93010749999999,
                "pitch": 59,
                "velocity": 110
            },
            {
                "start": 105.12203625,
                "end": 105.15156375,
                "pitch": 58,
                "velocity": 108
            },
            {
                "start": 105.24998874999999,
                "end": 105.27951624999999,
                "pitch": 70,
                "velocity": 117
            },
            {
                "start": 105.493590625,
                "end": 105.523118125,
                "pitch": 70,
                "velocity": 100
            },
            {
                "start": 105.60431874999999,
                "end": 105.63384624999999,
                "pitch": 68,
                "velocity": 99
            },
            {
                "start": 105.84545999999999,
                "end": 105.87498749999999,
                "pitch": 68,
                "velocity": 106
            },
            {
                "start": 105.956188125,
                "end": 105.98571562499998,
                "pitch": 66,
                "velocity": 102
            },
            {
                "start": 106.19979,
                "end": 106.2293175,
                "pitch": 65,
                "velocity": 104
            },
            {
                "start": 106.31297874999998,
                "end": 106.34250624999999,
                "pitch": 63,
                "velocity": 115
            },
            {
                "start": 106.54919874999999,
                "end": 106.57872624999999,
                "pitch": 58,
                "velocity": 102
            },
            {
                "start": 106.79280062499998,
                "end": 106.82232812499998,
                "pitch": 59,
                "velocity": 118
            },
            {
                "start": 107.02409937499999,
                "end": 107.05362687499999,
                "pitch": 58,
                "velocity": 106
            },
            {
                "start": 107.14466999999999,
                "end": 107.17419749999999,
                "pitch": 70,
                "velocity": 109
            },
            {
                "start": 107.37596874999998,
                "end": 107.40549624999998,
                "pitch": 70,
                "velocity": 113
            },
            {
                "start": 107.499,
                "end": 107.5285275,
                "pitch": 68,
                "velocity": 115
            },
            {
                "start": 107.72045624999998,
                "end": 107.74998374999998,
                "pitch": 68,
                "velocity": 115
            },
            {
                "start": 107.84840874999999,
                "end": 107.87793624999999,
                "pitch": 66,
                "velocity": 99
            },
            {
                "start": 108.09201062499999,
                "end": 108.12153812499999,
                "pitch": 65,
                "velocity": 112
            },
            {
                "start": 108.20273875,
                "end": 108.23226625,
                "pitch": 63,
                "velocity": 108
            },
            {
                "start": 108.44388,
                "end": 108.4734075,
                "pitch": 58,
                "velocity": 115
            },
            {
                "start": 108.67517874999999,
                "end": 108.70470624999999,
                "pitch": 59,
                "velocity": 105
            },
            {
                "start": 108.91139874999999,
                "end": 108.94092624999999,
                "pitch": 70,
                "velocity": 114
            },
            {
                "start": 109.14761874999999,
                "end": 109.17714624999999,
                "pitch": 70,
                "velocity": 110
            },
            {
                "start": 109.39122062499999,
                "end": 109.42074812499999,
                "pitch": 70,
                "velocity": 103
            },
            {
                "start": 109.622519375,
                "end": 109.652046875,
                "pitch": 68,
                "velocity": 109
            },
            {
                "start": 109.74309,
                "end": 109.7726175,
                "pitch": 70,
                "velocity": 107
            }
        ],
        "pitch_classes": [
            0,
            0,
            0,
            6,
            0,
            6,
            5,
            0,
            12,
            0,
            29,
            6
        ],
        "velocity_mean": 108.0625,
        "pitch_mean": 65.09375,
        "pitch_std": 4.578204990768762,
        "duration_mean": 0.02952750000000015,
        "song_name": "Twilight_Zone.2.mid",
        "tempo": 261.14260228148447,
        "time_signature": "4/4",
        "key": "Eb",
        "camelot_key": "2A",
        "maj_min": "minor"
    },
    "Twilight_Zone.2.mid_193.43889557887115_211.81965749999998": {
        "instrument_no": 7,
        "instrument_category": "Other",
        "program": 55,
        "is_drum": false,
        "section_start": 193.43889557887115,
        "section_end": 211.81965749999998,
        "notes": [
            {
                "start": 205.29407999999995,
                "end": 205.32360749999995,
                "pitch": 82,
                "velocity": 105
            },
            {
                "start": 205.41218999999995,
                "end": 205.44171749999995,
                "pitch": 82,
                "velocity": 106
            },
            {
                "start": 205.64840999999996,
                "end": 205.67793749999996,
                "pitch": 82,
                "velocity": 122
            },
            {
                "start": 205.76651999999996,
                "end": 205.79604749999996,
                "pitch": 82,
                "velocity": 107
            },
            {
                "start": 206.00273999999996,
                "end": 206.03226749999996,
                "pitch": 82,
                "velocity": 117
            },
            {
                "start": 206.12084999999996,
                "end": 206.15037749999996,
                "pitch": 82,
                "velocity": 116
            },
            {
                "start": 206.35706999999996,
                "end": 206.38659749999997,
                "pitch": 82,
                "velocity": 117
            },
            {
                "start": 206.47517999999997,
                "end": 206.50470749999997,
                "pitch": 82,
                "velocity": 110
            },
            {
                "start": 206.71139999999997,
                "end": 206.74092749999997,
                "pitch": 83,
                "velocity": 110
            },
            {
                "start": 206.94761999999997,
                "end": 206.97714749999997,
                "pitch": 80,
                "velocity": 113
            },
            {
                "start": 207.18383999999998,
                "end": 207.21336749999998,
                "pitch": 82,
                "velocity": 113
            },
            {
                "start": 207.30194999999998,
                "end": 207.33147749999998,
                "pitch": 82,
                "velocity": 117
            },
            {
                "start": 207.53816999999995,
                "end": 207.56769749999995,
                "pitch": 82,
                "velocity": 104
            },
            {
                "start": 207.65627999999995,
                "end": 207.68580749999995,
                "pitch": 82,
                "velocity": 112
            },
            {
                "start": 207.89249999999996,
                "end": 207.92202749999996,
                "pitch": 82,
                "velocity": 118
            },
            {
                "start": 208.01060999999996,
                "end": 208.04013749999996,
                "pitch": 82,
                "velocity": 104
            },
            {
                "start": 208.24682999999996,
                "end": 208.27635749999996,
                "pitch": 82,
                "velocity": 114
            },
            {
                "start": 208.36493999999996,
                "end": 208.39446749999996,
                "pitch": 82,
                "velocity": 119
            },
            {
                "start": 208.60115999999996,
                "end": 208.63068749999996,
                "pitch": 83,
                "velocity": 104
            },
            {
                "start": 208.83737999999997,
                "end": 208.86690749999997,
                "pitch": 80,
                "velocity": 109
            },
            {
                "start": 209.07359999999997,
                "end": 209.10312749999997,
                "pitch": 82,
                "velocity": 118
            },
            {
                "start": 209.19170999999997,
                "end": 209.22123749999997,
                "pitch": 82,
                "velocity": 113
            },
            {
                "start": 209.42792999999998,
                "end": 209.45745749999998,
                "pitch": 82,
                "velocity": 116
            },
            {
                "start": 209.54603999999998,
                "end": 209.57556749999998,
                "pitch": 82,
                "velocity": 108
            },
            {
                "start": 209.78225999999995,
                "end": 209.81178749999995,
                "pitch": 82,
                "velocity": 103
            },
            {
                "start": 209.90036999999995,
                "end": 209.92989749999995,
                "pitch": 82,
                "velocity": 103
            },
            {
                "start": 210.13658999999996,
                "end": 210.16611749999996,
                "pitch": 82,
                "velocity": 107
            },
            {
                "start": 210.25469999999996,
                "end": 210.28422749999996,
                "pitch": 82,
                "velocity": 113
            },
            {
                "start": 210.49091999999996,
                "end": 210.52044749999996,
                "pitch": 83,
                "velocity": 121
            },
            {
                "start": 210.72713999999996,
                "end": 210.75666749999996,
                "pitch": 80,
                "velocity": 104
            },
            {
                "start": 210.96335999999997,
                "end": 210.99288749999997,
                "pitch": 82,
                "velocity": 118
            },
            {
                "start": 211.19957999999997,
                "end": 211.22910749999997,
                "pitch": 82,
                "velocity": 106
            },
            {
                "start": 211.43579999999997,
                "end": 211.46532749999997,
                "pitch": 82,
                "velocity": 116
            },
            {
                "start": 211.67201999999997,
                "end": 211.70154749999998,
                "pitch": 80,
                "velocity": 105
            },
            {
                "start": 211.79012999999998,
                "end": 211.81965749999998,
                "pitch": 82,
                "velocity": 103
            }
        ],
        "pitch_classes": [
            0,
            0,
            0,
            0,
            0,
            0,
            0,
            0,
            4,
            0,
            28,
            3
        ],
        "velocity_mean": 111.17142857142858,
        "pitch_mean": 81.85714285714286,
        "pitch_std": 0.7228063223242011,
        "duration_mean": 0.029527500000000373,
        "song_name": "Twilight_Zone.2.mid",
        "tempo": 261.14260228148447,
        "time_signature": "4/4",
        "key": "Eb",
        "camelot_key": "2A",
        "maj_min": "minor"
    },
    "Twilight_Zone.3.mid_90.95697534446022_111.79411517637311": {
        "instrument_no": 11,
        "instrument_category": "Other",
        "program": 124,
        "is_drum": false,
        "section_start": 90.95697534446022,
        "section_end": 111.79411517637311,
        "notes": [
            {
                "start": 107.99802,
                "end": 108.91627239583333,
                "pitch": 82,
                "velocity": 106
            }
        ],
        "pitch_classes": [
            0,
            0,
            0,
            0,
            0,
            0,
            0,
            0,
            0,
            0,
            1,
            0
        ],
        "velocity_mean": 106.0,
        "pitch_mean": 82.0,
        "pitch_std": 0.0,
        "duration_mean": 0.9182523958333348,
        "song_name": "Twilight_Zone.3.mid",
        "tempo": 230.3579108610967,
        "time_signature": "4/4",
        "key": "C",
        "camelot_key": "5A",
        "maj_min": "minor"
    },
    "Twilight_Zone.3.mid_181.91395068892044_202.75109052083334": {
        "instrument_no": 11,
        "instrument_category": "Other",
        "program": 124,
        "is_drum": false,
        "section_start": 181.91395068892044,
        "section_end": 202.75109052083334,
        "notes": [
            {
                "start": 185.53506,
                "end": 186.45331239583334,
                "pitch": 82,
                "velocity": 106
            },
            {
                "start": 192.91954,
                "end": 193.83779239583333,
                "pitch": 82,
                "velocity": 106
            }
        ],
        "pitch_classes": [
            0,
            0,
            0,
            0,
            0,
            0,
            0,
            0,
            0,
            0,
            2,
            0
        ],
        "velocity_mean": 106.0,
        "pitch_mean": 82.0,
        "pitch_std": 0.0,
        "duration_mean": 0.9182523958333348,
        "song_name": "Twilight_Zone.3.mid",
        "tempo": 230.3579108610967,
        "time_signature": "4/4",
        "key": "C",
        "camelot_key": "5A",
        "maj_min": "minor"
    },
    "Twilight_Zone.1.mid_86.70583602084773_105.27622116665228": {
        "instrument_no": 9,
        "instrument_category": "Other",
        "program": 62,
        "is_drum": false,
        "section_start": 86.70583602084773,
        "section_end": 105.27622116665228,
        "notes": [
            {
                "start": 86.76764,
                "end": 86.8397540625,
                "pitch": 70,
                "velocity": 119
            },
            {
                "start": 86.76764,
                "end": 86.8397540625,
                "pitch": 58,
                "velocity": 119
            },
            {
                "start": 86.8830225,
                "end": 86.96234796875,
                "pitch": 70,
                "velocity": 121
            },
            {
                "start": 86.8830225,
                "end": 86.96234796875,
                "pitch": 58,
                "velocity": 121
            },
            {
                "start": 87.1137875,
                "end": 87.17147875,
                "pitch": 70,
                "velocity": 113
            },
            {
                "start": 87.1137875,
                "end": 87.17147875,
                "pitch": 58,
                "velocity": 113
            },
            {
                "start": 87.22917,
                "end": 87.30368786458334,
                "pitch": 68,
                "velocity": 123
            },
            {
                "start": 87.22917,
                "end": 87.30368786458334,
                "pitch": 56,
                "velocity": 123
            },
            {
                "start": 87.459935,
                "end": 87.52003005208333,
                "pitch": 70,
                "velocity": 118
            },
            {
                "start": 87.459935,
                "end": 87.52003005208333,
                "pitch": 58,
                "velocity": 118
            },
            {
                "start": 87.5753175,
                "end": 87.65945057291667,
                "pitch": 66,
                "velocity": 125
            },
            {
                "start": 87.5753175,
                "end": 87.65945057291667,
                "pitch": 54,
                "velocity": 125
            },
            {
                "start": 87.8060825,
                "end": 87.88781177083334,
                "pitch": 65,
                "velocity": 119
            },
            {
                "start": 87.8060825,
                "end": 87.88781177083334,
                "pitch": 53,
                "velocity": 119
            },
            {
                "start": 87.921465,
                "end": 88.02002088541667,
                "pitch": 63,
                "velocity": 124
            },
            {
                "start": 87.921465,
                "end": 88.02002088541667,
                "pitch": 51,
                "velocity": 124
            },
            {
                "start": 88.15223,
                "end": 88.24838208333333,
                "pitch": 70,
                "velocity": 124
            },
            {
                "start": 88.15223,
                "end": 88.24838208333333,
                "pitch": 58,
                "velocity": 124
            },
            {
                "start": 88.382995,
                "end": 88.48876229166666,
                "pitch": 71,
                "velocity": 124
            },
            {
                "start": 88.382995,
                "end": 88.48876229166666,
                "pitch": 59,
                "velocity": 124
            },
            {
                "start": 88.61376,
                "end": 88.6858740625,
                "pitch": 70,
                "velocity": 122
            },
            {
                "start": 88.61376,
                "end": 88.6858740625,
                "pitch": 58,
                "velocity": 122
            },
            {
                "start": 88.7291425,
                "end": 88.81808317708334,
                "pitch": 70,
                "velocity": 124
            },
            {
                "start": 88.7291425,
                "end": 88.81808317708334,
                "pitch": 58,
                "velocity": 124
            },
            {
                "start": 88.9599075,
                "end": 89.02481015625,
                "pitch": 70,
                "velocity": 120
            },
            {
                "start": 88.9599075,
                "end": 89.02481015625,
                "pitch": 58,
                "velocity": 120
            },
            {
                "start": 89.07529,
                "end": 89.15221166666666,
                "pitch": 68,
                "velocity": 124
            },
            {
                "start": 89.07529,
                "end": 89.15221166666666,
                "pitch": 56,
                "velocity": 124
            },
            {
                "start": 89.306055,
                "end": 89.37576526041667,
                "pitch": 70,
                "velocity": 121
            },
            {
                "start": 89.306055,
                "end": 89.37576526041667,
                "pitch": 58,
                "velocity": 121
            },
            {
                "start": 89.4214375,
                "end": 89.49835916666666,
                "pitch": 66,
                "velocity": 125
            },
            {
                "start": 89.4214375,
                "end": 89.49835916666666,
                "pitch": 54,
                "velocity": 125
            },
            {
                "start": 89.6522025,
                "end": 89.738739375,
                "pitch": 65,
                "velocity": 116
            },
            {
                "start": 89.6522025,
                "end": 89.738739375,
                "pitch": 53,
                "velocity": 116
            },
            {
                "start": 89.767585,
                "end": 89.85892947916666,
                "pitch": 63,
                "velocity": 123
            },
            {
                "start": 89.767585,
                "end": 89.85892947916666,
                "pitch": 51,
                "velocity": 123
            },
            {
                "start": 89.99835,
                "end": 90.08729067708333,
                "pitch": 70,
                "velocity": 123
            },
            {
                "start": 89.99835,
                "end": 90.08729067708333,
                "pitch": 58,
                "velocity": 123
            },
            {
                "start": 90.229115,
                "end": 90.33247848958334,
                "pitch": 71,
                "velocity": 124
            },
            {
                "start": 90.229115,
                "end": 90.33247848958334,
                "pitch": 59,
                "velocity": 124
            },
            {
                "start": 90.45988,
                "end": 90.53680166666666,
                "pitch": 70,
                "velocity": 123
            },
            {
                "start": 90.45988,
                "end": 90.53680166666666,
                "pitch": 58,
                "velocity": 123
            },
            {
                "start": 90.690645,
                "end": 90.79881609375,
                "pitch": 70,
                "velocity": 124
            },
            {
                "start": 90.690645,
                "end": 90.79881609375,
                "pitch": 58,
                "velocity": 124
            },
            {
                "start": 90.92141,
                "end": 90.99833166666667,
                "pitch": 70,
                "velocity": 123
            },
            {
                "start": 90.92141,
                "end": 90.99833166666667,
                "pitch": 58,
                "velocity": 123
            },
            {
                "start": 91.152175,
                "end": 91.22909666666666,
                "pitch": 68,
                "velocity": 122
            },
            {
                "start": 91.152175,
                "end": 91.22909666666666,
                "pitch": 56,
                "velocity": 122
            },
            {
                "start": 91.2675575,
                "end": 91.36130578125,
                "pitch": 70,
                "velocity": 124
            },
            {
                "start": 91.2675575,
                "end": 91.36130578125,
                "pitch": 58,
                "velocity": 124
            },
            {
                "start": 92.306,
                "end": 92.38772927083333,
                "pitch": 70,
                "velocity": 124
            },
            {
                "start": 92.306,
                "end": 92.38772927083333,
                "pitch": 58,
                "velocity": 124
            },
            {
                "start": 92.42138249999999,
                "end": 92.51753458333333,
                "pitch": 70,
                "velocity": 122
            },
            {
                "start": 92.42138249999999,
                "end": 92.51753458333333,
                "pitch": 58,
                "velocity": 122
            },
            {
                "start": 92.6521475,
                "end": 92.72666536458333,
                "pitch": 70,
                "velocity": 121
            },
            {
                "start": 92.6521475,
                "end": 92.72666536458333,
                "pitch": 58,
                "velocity": 121
            },
            {
                "start": 92.76753,
                "end": 92.85166307291666,
                "pitch": 68,
                "velocity": 124
            },
            {
                "start": 92.76753,
                "end": 92.85166307291666,
                "pitch": 56,
                "velocity": 124
            },
            {
                "start": 92.998295,
                "end": 93.05839005208334,
                "pitch": 70,
                "velocity": 118
            },
            {
                "start": 92.998295,
                "end": 93.05839005208334,
                "pitch": 58,
                "velocity": 118
            },
            {
                "start": 93.1136775,
                "end": 93.19300296875,
                "pitch": 66,
                "velocity": 123
            },
            {
                "start": 93.1136775,
                "end": 93.19300296875,
                "pitch": 54,
                "velocity": 123
            },
            {
                "start": 93.3444425,
                "end": 93.41415276041667,
                "pitch": 65,
                "velocity": 111
            },
            {
                "start": 93.3444425,
                "end": 93.41415276041667,
                "pitch": 53,
                "velocity": 111
            },
            {
                "start": 93.459825,
                "end": 93.55838088541667,
                "pitch": 63,
                "velocity": 124
            },
            {
                "start": 93.459825,
                "end": 93.55838088541667,
                "pitch": 51,
                "velocity": 124
            },
            {
                "start": 93.69059,
                "end": 93.78674208333334,
                "pitch": 70,
                "velocity": 122
            },
            {
                "start": 93.69059,
                "end": 93.78674208333334,
                "pitch": 58,
                "velocity": 122
            },
            {
                "start": 93.921355,
                "end": 94.02712229166667,
                "pitch": 71,
                "velocity": 123
            },
            {
                "start": 93.921355,
                "end": 94.02712229166667,
                "pitch": 59,
                "velocity": 123
            },
            {
                "start": 94.15212,
                "end": 94.2242340625,
                "pitch": 70,
                "velocity": 119
            },
            {
                "start": 94.15212,
                "end": 94.2242340625,
                "pitch": 58,
                "velocity": 119
            },
            {
                "start": 94.2675025,
                "end": 94.34682796875,
                "pitch": 70,
                "velocity": 121
            },
            {
                "start": 94.2675025,
                "end": 94.34682796875,
                "pitch": 58,
                "velocity": 121
            },
            {
                "start": 94.4982675,
                "end": 94.55595875,
                "pitch": 70,
                "velocity": 113
            },
            {
                "start": 94.4982675,
                "end": 94.55595875,
                "pitch": 58,
                "velocity": 113
            },
            {
                "start": 94.61364999999999,
                "end": 94.68816786458333,
                "pitch": 68,
                "velocity": 123
            },
            {
                "start": 94.61364999999999,
                "end": 94.68816786458333,
                "pitch": 56,
                "velocity": 123
            },
            {
                "start": 94.844415,
                "end": 94.90451005208334,
                "pitch": 70,
                "velocity": 118
            },
            {
                "start": 94.844415,
                "end": 94.90451005208334,
                "pitch": 58,
                "velocity": 118
            },
            {
                "start": 94.9597975,
                "end": 95.04393057291666,
                "pitch": 66,
                "velocity": 125
            },
            {
                "start": 94.9597975,
                "end": 95.04393057291666,
                "pitch": 54,
                "velocity": 125
            },
            {
                "start": 95.1905625,
                "end": 95.27229177083333,
                "pitch": 65,
                "velocity": 119
            },
            {
                "start": 95.1905625,
                "end": 95.27229177083333,
                "pitch": 53,
                "velocity": 119
            },
            {
                "start": 95.305945,
                "end": 95.40450088541667,
                "pitch": 63,
                "velocity": 124
            },
            {
                "start": 95.305945,
                "end": 95.40450088541667,
                "pitch": 51,
                "velocity": 124
            },
            {
                "start": 95.53671,
                "end": 95.63286208333334,
                "pitch": 70,
                "velocity": 124
            },
            {
                "start": 95.53671,
                "end": 95.63286208333334,
                "pitch": 58,
                "velocity": 124
            },
            {
                "start": 95.767475,
                "end": 95.87324229166667,
                "pitch": 71,
                "velocity": 124
            },
            {
                "start": 95.767475,
                "end": 95.87324229166667,
                "pitch": 59,
                "velocity": 124
            },
            {
                "start": 95.99824,
                "end": 96.0703540625,
                "pitch": 70,
                "velocity": 122
            },
            {
                "start": 95.99824,
                "end": 96.0703540625,
                "pitch": 58,
                "velocity": 122
            },
            {
                "start": 96.1136225,
                "end": 96.20256317708333,
                "pitch": 70,
                "velocity": 124
            },
            {
                "start": 96.1136225,
                "end": 96.20256317708333,
                "pitch": 58,
                "velocity": 124
            },
            {
                "start": 96.3443875,
                "end": 96.40929015625,
                "pitch": 70,
                "velocity": 120
            },
            {
                "start": 96.3443875,
                "end": 96.40929015625,
                "pitch": 58,
                "velocity": 120
            },
            {
                "start": 96.45977,
                "end": 96.53669166666667,
                "pitch": 68,
                "velocity": 124
            },
            {
                "start": 96.45977,
                "end": 96.53669166666667,
                "pitch": 56,
                "velocity": 124
            },
            {
                "start": 96.690535,
                "end": 96.76024526041667,
                "pitch": 70,
                "velocity": 121
            },
            {
                "start": 96.690535,
                "end": 96.76024526041667,
                "pitch": 58,
                "velocity": 121
            },
            {
                "start": 96.80591749999999,
                "end": 96.88283916666667,
                "pitch": 66,
                "velocity": 125
            },
            {
                "start": 96.80591749999999,
                "end": 96.88283916666667,
                "pitch": 54,
                "velocity": 125
            },
            {
                "start": 97.0366825,
                "end": 97.123219375,
                "pitch": 65,
                "velocity": 116
            },
            {
                "start": 97.0366825,
                "end": 97.123219375,
                "pitch": 53,
                "velocity": 116
            },
            {
                "start": 97.152065,
                "end": 97.24340947916667,
                "pitch": 63,
                "velocity": 123
            },
            {
                "start": 97.152065,
                "end": 97.24340947916667,
                "pitch": 51,
                "velocity": 123
            },
            {
                "start": 97.38283,
                "end": 97.47177067708333,
                "pitch": 70,
                "velocity": 123
            },
            {
                "start": 97.38283,
                "end": 97.47177067708333,
                "pitch": 58,
                "velocity": 123
            },
            {
                "start": 97.613595,
                "end": 97.71695848958333,
                "pitch": 71,
                "velocity": 124
            },
            {
                "start": 97.613595,
                "end": 97.71695848958333,
                "pitch": 59,
                "velocity": 124
            },
            {
                "start": 97.84436,
                "end": 97.92128166666667,
                "pitch": 70,
                "velocity": 123
            },
            {
                "start": 97.84436,
                "end": 97.92128166666667,
                "pitch": 58,
                "velocity": 123
            },
            {
                "start": 98.075125,
                "end": 98.18329609375,
                "pitch": 70,
                "velocity": 124
            },
            {
                "start": 98.075125,
                "end": 98.18329609375,
                "pitch": 58,
                "velocity": 124
            },
            {
                "start": 98.30589,
                "end": 98.38281166666667,
                "pitch": 70,
                "velocity": 123
            },
            {
                "start": 98.30589,
                "end": 98.38281166666667,
                "pitch": 58,
                "velocity": 123
            },
            {
                "start": 98.536655,
                "end": 98.61357666666666,
                "pitch": 68,
                "velocity": 122
            },
            {
                "start": 98.536655,
                "end": 98.61357666666666,
                "pitch": 56,
                "velocity": 122
            },
            {
                "start": 98.6520375,
                "end": 98.74578578124999,
                "pitch": 70,
                "velocity": 124
            },
            {
                "start": 98.6520375,
                "end": 98.74578578124999,
                "pitch": 58,
                "velocity": 124
            }
        ],
        "pitch_classes": [
            0,
            0,
            0,
            10,
            0,
            10,
            10,
            0,
            14,
            0,
            66,
            10
        ],
        "velocity_mean": 121.8,
        "pitch_mean": 62.516666666666666,
        "pitch_std": 6.469136126425399,
        "duration_mean": 0.08285104513889081,
        "song_name": "Twilight_Zone.1.mid",
        "tempo": 258.4760607985788,
        "time_signature": "4/4",
        "key": "Eb",
        "camelot_key": "2A",
        "maj_min": "minor"
    },
    "Maximum_Overdrive.1.mid_0.0_18.442211170212776": {
        "instrument_no": 3,
        "instrument_category": "Other",
        "program": 91,
        "is_drum": false,
        "section_start": 0.0,
        "section_end": 18.442211170212776,
        "notes": [
            {
                "start": 18.320400000000003,
                "end": 25.586537812500005,
                "pitch": 60,
                "velocity": 127
            },
            {
                "start": 18.320400000000003,
                "end": 25.593694218750006,
                "pitch": 63,
                "velocity": 127
            },
            {
                "start": 18.320400000000003,
                "end": 25.596079687500005,
                "pitch": 68,
                "velocity": 115
            }
        ],
        "pitch_classes": [
            1,
            0,
            0,
            1,
            0,
            0,
            0,
            0,
            1,
            0,
            0,
            0
        ],
        "velocity_mean": 123.0,
        "pitch_mean": 63.666666666666664,
        "pitch_std": 3.299831645537222,
        "duration_mean": 7.271703906250003,
        "song_name": "Maximum_Overdrive.1.mid",
        "tempo": 260.2724779419506,
        "time_signature": "4/4",
        "key": "C",
        "camelot_key": "5A",
        "maj_min": "minor"
    },
    "Maximum_Overdrive.1.mid_102.30552214926864_120.74773331948141": {
        "instrument_no": 13,
        "instrument_category": "Other",
        "program": 127,
        "is_drum": false,
        "section_start": 102.30552214926864,
        "section_end": 120.74773331948141,
        "notes": [
            {
                "start": 109.46439000000002,
                "end": 111.01017375000002,
                "pitch": 57,
                "velocity": 127
            },
            {
                "start": 118.62459000000003,
                "end": 120.17037375000002,
                "pitch": 57,
                "velocity": 127
            }
        ],
        "pitch_classes": [
            0,
            0,
            0,
            0,
            0,
            0,
            0,
            0,
            0,
            2,
            0,
            0
        ],
        "velocity_mean": 127.0,
        "pitch_mean": 57.0,
        "pitch_std": 0.0,
        "duration_mean": 1.5457837499999982,
        "song_name": "Maximum_Overdrive.1.mid",
        "tempo": 260.2724779419506,
        "time_signature": "4/4",
        "key": "C",
        "camelot_key": "8B",
        "maj_min": "major"
    },
    "Maximum_Overdrive.1.mid_204.61104429853728_223.05325546875005": {
        "instrument_no": 14,
        "instrument_category": "Other",
        "program": 125,
        "is_drum": false,
        "section_start": 204.61104429853728,
        "section_end": 223.05325546875005,
        "notes": [
            {
                "start": 220.53181500000005,
                "end": 223.01270250000005,
                "pitch": 50,
                "velocity": 127
            },
            {
                "start": 220.53181500000005,
                "end": 223.03655718750005,
                "pitch": 74,
                "velocity": 127
            },
            {
                "start": 220.53181500000005,
                "end": 223.04609906250005,
                "pitch": 67,
                "velocity": 127
            },
            {
                "start": 220.53181500000005,
                "end": 223.05325546875005,
                "pitch": 79,
                "velocity": 127
            }
        ],
        "pitch_classes": [
            0,
            0,
            2,
            0,
            0,
            0,
            0,
            2,
            0,
            0,
            0,
            0
        ],
        "velocity_mean": 127.0,
        "pitch_mean": 67.5,
        "pitch_std": 10.965856099730654,
        "duration_mean": 2.5053385546874978,
        "song_name": "Maximum_Overdrive.1.mid",
        "tempo": 260.2724779419506,
        "time_signature": "4/4",
        "key": "C",
        "camelot_key": "8B",
        "maj_min": "major"
    },
    "Tribal_Dance_edit_.mid_0.0_18.034605237283692": {
        "instrument_no": 1,
        "instrument_category": "Other",
        "program": 119,
        "is_drum": false,
        "section_start": 0.0,
        "section_end": 18.034605237283692,
        "notes": [
            {
                "start": 12.177734375,
                "end": 13.1103515625,
                "pitch": 41,
                "velocity": 115
            }
        ],
        "pitch_classes": [
            0,
            0,
            0,
            0,
            0,
            1,
            0,
            0,
            0,
            0,
            0,
            0
        ],
        "velocity_mean": 115.0,
        "pitch_mean": 41.0,
        "pitch_std": 0.0,
        "duration_mean": 0.9326171875,
        "song_name": "Tribal_Dance_edit_.mid",
        "tempo": 266.15498020864686,
        "time_signature": "4/4",
        "key": "C",
        "camelot_key": "8B",
        "maj_min": "major"
    },
    "No_Limit_extended_.mid_0.0_18.14053998503891": {
        "instrument_no": 6,
        "instrument_category": "Other",
        "program": 87,
        "is_drum": false,
        "section_start": 0.0,
        "section_end": 18.14053998503891,
        "notes": [
            {
                "start": 5.1063600000000005,
                "end": 8.459625052083334,
                "pitch": 34,
                "velocity": 101
            },
            {
                "start": 8.5106,
                "end": 8.585954270833334,
                "pitch": 58,
                "velocity": 101
            },
            {
                "start": 8.723365000000001,
                "end": 8.798719270833335,
                "pitch": 70,
                "velocity": 101
            },
            {
                "start": 8.93613,
                "end": 9.011484270833334,
                "pitch": 58,
                "velocity": 101
            },
            {
                "start": 9.148895000000001,
                "end": 9.224249270833335,
                "pitch": 70,
                "velocity": 101
            },
            {
                "start": 9.36166,
                "end": 9.437014270833334,
                "pitch": 58,
                "velocity": 101
            },
            {
                "start": 9.574425000000002,
                "end": 9.649779270833335,
                "pitch": 70,
                "velocity": 101
            },
            {
                "start": 9.78719,
                "end": 9.862544270833334,
                "pitch": 58,
                "velocity": 101
            },
            {
                "start": 9.999955000000002,
                "end": 10.075309270833335,
                "pitch": 70,
                "velocity": 101
            },
            {
                "start": 10.212720000000001,
                "end": 10.288074270833334,
                "pitch": 58,
                "velocity": 101
            },
            {
                "start": 10.425485000000002,
                "end": 10.500839270833335,
                "pitch": 70,
                "velocity": 101
            },
            {
                "start": 10.638250000000001,
                "end": 10.713604270833335,
                "pitch": 58,
                "velocity": 101
            },
            {
                "start": 10.851015000000002,
                "end": 10.926369270833334,
                "pitch": 70,
                "velocity": 101
            },
            {
                "start": 11.063780000000001,
                "end": 11.139134270833335,
                "pitch": 58,
                "velocity": 101
            },
            {
                "start": 11.276545,
                "end": 11.351899270833334,
                "pitch": 70,
                "velocity": 101
            },
            {
                "start": 11.489310000000001,
                "end": 11.564664270833335,
                "pitch": 58,
                "velocity": 101
            },
            {
                "start": 11.702075,
                "end": 11.777429270833334,
                "pitch": 70,
                "velocity": 101
            },
            {
                "start": 11.808457500000001,
                "end": 11.883811770833335,
                "pitch": 70,
                "velocity": 101
            },
            {
                "start": 11.914840000000002,
                "end": 11.990194270833335,
                "pitch": 58,
                "velocity": 101
            },
            {
                "start": 12.127605,
                "end": 12.202959270833334,
                "pitch": 70,
                "velocity": 101
            },
            {
                "start": 12.340370000000002,
                "end": 12.415724270833335,
                "pitch": 58,
                "velocity": 101
            },
            {
                "start": 12.553135000000001,
                "end": 12.628489270833335,
                "pitch": 70,
                "velocity": 101
            },
            {
                "start": 12.765900000000002,
                "end": 12.841254270833335,
                "pitch": 58,
                "velocity": 101
            },
            {
                "start": 12.978665000000001,
                "end": 13.054019270833335,
                "pitch": 70,
                "velocity": 101
            },
            {
                "start": 13.191430000000002,
                "end": 13.266784270833336,
                "pitch": 58,
                "velocity": 101
            },
            {
                "start": 13.404195000000001,
                "end": 13.479549270833335,
                "pitch": 70,
                "velocity": 101
            },
            {
                "start": 13.616960000000002,
                "end": 13.692314270833334,
                "pitch": 58,
                "velocity": 101
            },
            {
                "start": 13.829725000000002,
                "end": 13.905079270833335,
                "pitch": 70,
                "velocity": 101
            },
            {
                "start": 14.04249,
                "end": 14.117844270833334,
                "pitch": 58,
                "velocity": 101
            },
            {
                "start": 14.255255000000002,
                "end": 14.330609270833335,
                "pitch": 70,
                "velocity": 101
            },
            {
                "start": 14.468020000000001,
                "end": 14.543374270833334,
                "pitch": 58,
                "velocity": 101
            },
            {
                "start": 14.680785000000002,
                "end": 14.756139270833335,
                "pitch": 70,
                "velocity": 101
            },
            {
                "start": 14.893550000000001,
                "end": 14.968904270833335,
                "pitch": 58,
                "velocity": 101
            },
            {
                "start": 15.106315000000002,
                "end": 15.181669270833336,
                "pitch": 70,
                "velocity": 101
            },
            {
                "start": 15.2126975,
                "end": 15.288051770833334,
                "pitch": 70,
                "velocity": 101
            },
            {
                "start": 15.319080000000001,
                "end": 15.394434270833335,
                "pitch": 58,
                "velocity": 101
            },
            {
                "start": 15.531845000000002,
                "end": 15.607199270833336,
                "pitch": 70,
                "velocity": 101
            },
            {
                "start": 15.744610000000002,
                "end": 15.819964270833335,
                "pitch": 58,
                "velocity": 101
            },
            {
                "start": 15.957375000000003,
                "end": 16.032729270833336,
                "pitch": 70,
                "velocity": 101
            },
            {
                "start": 16.170140000000004,
                "end": 16.245494270833333,
                "pitch": 58,
                "velocity": 101
            },
            {
                "start": 16.382905,
                "end": 16.458259270833334,
                "pitch": 70,
                "velocity": 101
            },
            {
                "start": 16.595670000000002,
                "end": 16.671024270833335,
                "pitch": 58,
                "velocity": 101
            },
            {
                "start": 16.808435000000003,
                "end": 16.883789270833336,
                "pitch": 70,
                "velocity": 101
            },
            {
                "start": 17.0212,
                "end": 17.096554270833334,
                "pitch": 58,
                "velocity": 101
            },
            {
                "start": 17.233965,
                "end": 17.309319270833335,
                "pitch": 70,
                "velocity": 101
            },
            {
                "start": 17.446730000000002,
                "end": 17.522084270833336,
                "pitch": 58,
                "velocity": 101
            },
            {
                "start": 17.659495000000003,
                "end": 17.734849270833337,
                "pitch": 70,
                "velocity": 101
            },
            {
                "start": 17.87226,
                "end": 17.947614270833334,
                "pitch": 58,
                "velocity": 101
            },
            {
                "start": 18.085025,
                "end": 18.160379270833335,
                "pitch": 70,
                "velocity": 101
            }
        ],
        "pitch_classes": [
            0,
            0,
            0,
            0,
            0,
            0,
            0,
            0,
            0,
            0,
            49,
            0
        ],
        "velocity_mean": 101.0,
        "pitch_mean": 63.63265306122449,
        "pitch_std": 7.314212827625181,
        "duration_mean": 0.14225040922619045,
        "song_name": "No_Limit_extended_.mid",
        "tempo": 264.60072323970047,
        "time_signature": "4/4",
        "key": "C",
        "camelot_key": "5A",
        "maj_min": "minor"
    },
    "No_Limit.2.mid_88.54128850481521_108.03679613060142": {
        "instrument_no": 10,
        "instrument_category": "Other",
        "program": 53,
        "is_drum": false,
        "section_start": 88.54128850481521,
        "section_end": 108.03679613060142,
        "notes": [
            {
                "start": 101.4054028125,
                "end": 101.66068135416666,
                "pitch": 58,
                "velocity": 120
            },
            {
                "start": 101.8279328125,
                "end": 102.08321135416666,
                "pitch": 58,
                "velocity": 120
            },
            {
                "start": 102.4617278125,
                "end": 102.71700635416666,
                "pitch": 58,
                "velocity": 120
            },
            {
                "start": 102.8842578125,
                "end": 102.97228489583333,
                "pitch": 58,
                "velocity": 120
            },
            {
                "start": 103.0955228125,
                "end": 103.35080135416666,
                "pitch": 58,
                "velocity": 120
            },
            {
                "start": 103.51805281249999,
                "end": 103.77333135416666,
                "pitch": 58,
                "velocity": 120
            },
            {
                "start": 104.1518478125,
                "end": 104.40712635416666,
                "pitch": 58,
                "velocity": 120
            },
            {
                "start": 104.57437781249999,
                "end": 104.66240489583333,
                "pitch": 58,
                "velocity": 120
            },
            {
                "start": 104.7856428125,
                "end": 105.04092135416666,
                "pitch": 58,
                "velocity": 120
            },
            {
                "start": 105.2081728125,
                "end": 105.46345135416666,
                "pitch": 58,
                "velocity": 120
            },
            {
                "start": 105.8419678125,
                "end": 106.09724635416666,
                "pitch": 58,
                "velocity": 120
            }
        ],
        "pitch_classes": [
            0,
            0,
            0,
            0,
            0,
            0,
            0,
            0,
            0,
            0,
            11,
            0
        ],
        "velocity_mean": 120.0,
        "pitch_mean": 58.0,
        "pitch_std": 0.0,
        "duration_mean": 0.22486918560605834,
        "song_name": "No_Limit.2.mid",
        "tempo": 246.21056769258803,
        "time_signature": "4/4",
        "key": "C",
        "camelot_key": "5A",
        "maj_min": "minor"
    },
    "No_Limit.2.mid_177.08257700963043_196.57808463541664": {
        "instrument_no": 9,
        "instrument_category": "Other",
        "program": 50,
        "is_drum": false,
        "section_start": 177.08257700963043,
        "section_end": 196.57808463541664,
        "notes": [
            {
                "start": 179.10910994791664,
                "end": 180.79262791666665,
                "pitch": 68,
                "velocity": 80
            },
            {
                "start": 179.10910994791664,
                "end": 180.79262791666665,
                "pitch": 63,
                "velocity": 80
            },
            {
                "start": 179.10910994791664,
                "end": 180.79262791666665,
                "pitch": 60,
                "velocity": 80
            },
            {
                "start": 179.10910994791664,
                "end": 180.79262791666665,
                "pitch": 56,
                "velocity": 80
            },
            {
                "start": 180.79922994791664,
                "end": 182.48274791666665,
                "pitch": 67,
                "velocity": 80
            },
            {
                "start": 180.79922994791664,
                "end": 182.48274791666665,
                "pitch": 63,
                "velocity": 80
            },
            {
                "start": 180.79922994791664,
                "end": 182.48274791666665,
                "pitch": 58,
                "velocity": 80
            },
            {
                "start": 180.79922994791664,
                "end": 182.48274791666665,
                "pitch": 51,
                "velocity": 80
            }
        ],
        "pitch_classes": [
            1,
            0,
            0,
            3,
            0,
            0,
            0,
            1,
            2,
            0,
            1,
            0
        ],
        "velocity_mean": 80.0,
        "pitch_mean": 60.75,
        "pitch_std": 5.332682251925386,
        "duration_mean": 1.6835179687500101,
        "song_name": "No_Limit.2.mid",
        "tempo": 246.21056769258803,
        "time_signature": "4/4",
        "key": "C",
        "camelot_key": "5A",
        "maj_min": "minor"
    }
}